M48
; DRILL file {KiCad 5.1.5-1.fc31} date Tue 26 May 2020 07:56:16 PM +07
; FORMAT={-:-/ absolute / metric / decimal}
; #@! TF.CreationDate,2020-05-26T19:56:16+07:00
; #@! TF.GenerationSoftware,Kicad,Pcbnew,5.1.5-1.fc31
; #@! TF.FileFunction,Plated,1,4,PTH
FMAT,2
METRIC
T1C0.200
T2C0.300
T3C0.500
T4C0.650
T5C0.750
T6C1.000
T7C1.200
T8C1.500
%
G90
G05
T1
X202.944Y-207.444
X202.944Y-208.244
X202.944Y-209.044
X203.744Y-207.444
X203.744Y-208.244
X203.744Y-209.044
X204.544Y-207.444
X204.544Y-208.244
X204.544Y-209.044
T2
X172.5Y-204.75
X172.5Y-205.75
X172.5Y-206.75
X177.5Y-183.0
X177.5Y-185.5
X177.5Y-200.0
X177.5Y-202.5
X178.75Y-179.0
X178.75Y-183.0
X180.0Y-202.5
X180.75Y-165.0
X180.75Y-172.75
X180.75Y-204.5
X181.5Y-185.5
X182.75Y-163.5
X182.75Y-169.5
X182.75Y-171.25
X182.75Y-177.25
X182.75Y-185.5
X183.0Y-191.75
X183.0Y-195.75
X184.0Y-163.5
X184.0Y-169.5
X184.0Y-171.25
X184.0Y-177.25
X184.75Y-179.0
X185.0Y-193.75
X185.0Y-207.25
X185.5Y-163.5
X185.5Y-169.5
X185.5Y-171.25
X185.5Y-177.25
X185.5Y-207.75
X186.25Y-205.0
X186.75Y-163.5
X186.75Y-169.5
X186.75Y-171.25
X186.75Y-177.25
X187.0Y-179.75
X187.0Y-191.75
X187.0Y-195.75
X187.5Y-205.25
X187.75Y-185.5
X187.75Y-202.5
X187.75Y-208.0
X188.75Y-165.0
X188.75Y-172.75
X189.0Y-185.75
X190.75Y-179.0
X192.5Y-163.5
X192.75Y-202.5
X194.0Y-185.75
X195.0Y-163.5
X195.2Y-173.75
X195.2Y-176.25
X195.5Y-203.75
X196.25Y-171.25
X196.75Y-203.75
X196.75Y-208.5
X197.0Y-170.5
X197.25Y-197.25
X197.5Y-163.5
X197.5Y-190.75
X197.5Y-191.75
X197.5Y-192.75
X198.0Y-203.75
X198.0Y-208.5
X198.25Y-187.0
X198.5Y-191.75
X198.5Y-192.75
X198.5Y-197.25
X199.0Y-171.25
X199.0Y-204.75
X199.0Y-205.75
X199.0Y-208.5
X199.25Y-203.75
X199.5Y-197.75
X200.0Y-163.5
X200.0Y-171.25
X200.5Y-185.25
X200.5Y-207.5
X200.75Y-192.25
X201.0Y-194.75
X201.25Y-207.0
X201.405Y-187.895
X201.5Y-185.25
X201.5Y-192.75
X201.5Y-210.25
X202.0Y-194.75
X202.0Y-210.25
X202.0Y-213.75
X202.0Y-215.0
X202.5Y-185.25
X202.75Y-188.75
X203.3Y-191.35
X203.5Y-185.25
X204.1Y-197.25
X205.1Y-197.25
X205.5Y-210.25
X205.5Y-213.75
X205.5Y-215.0
X206.0Y-192.0
X206.0Y-193.5
X206.0Y-210.25
X206.25Y-197.0
X206.5Y-185.25
X206.5Y-207.0
X207.0Y-208.0
X207.25Y-192.75
X207.25Y-195.5
X207.25Y-196.5
X207.5Y-185.25
X208.5Y-185.25
X208.75Y-188.5
X208.75Y-189.5
X208.75Y-190.5
X208.75Y-194.25
X208.75Y-195.25
X209.0Y-176.23
X209.5Y-185.25
X209.5Y-196.0
X210.0Y-190.0
X210.0Y-199.75
X210.25Y-196.75
X210.5Y-176.23
X210.75Y-189.25
X211.0Y-185.75
X211.25Y-175.23
X211.5Y-188.5
X211.5Y-199.75
X211.75Y-185.75
X212.0Y-163.25
X212.0Y-164.25
X212.25Y-169.0
X212.25Y-196.25
X213.0Y-196.75
X213.25Y-169.0
X213.5Y-163.25
X213.5Y-164.25
X213.5Y-190.75
X213.5Y-192.25
X214.0Y-191.5
X214.0Y-193.0
X214.25Y-190.0
X214.5Y-195.75
X214.75Y-194.0
X214.75Y-198.75
X215.75Y-188.25
X215.75Y-197.75
X215.75Y-198.75
X216.5Y-188.25
X216.75Y-197.75
X216.75Y-198.75
X217.0Y-207.25
X217.25Y-189.5
X217.75Y-196.75
X217.75Y-197.75
X217.75Y-198.75
X218.0Y-188.75
X218.0Y-207.25
X219.0Y-207.25
X219.5Y-163.25
X219.5Y-164.25
X219.75Y-169.0
X220.25Y-195.5
X220.75Y-169.0
X221.0Y-163.25
X221.0Y-164.25
X221.25Y-198.25
X221.25Y-199.75
X221.5Y-196.25
X221.75Y-190.25
X221.75Y-191.25
X224.0Y-199.0
X224.0Y-200.25
X224.0Y-201.5
X224.0Y-202.75
X224.0Y-204.0
X224.0Y-208.0
X224.0Y-209.25
X224.0Y-210.5
X224.0Y-211.75
X226.5Y-190.25
X226.5Y-191.5
X226.5Y-192.75
X226.5Y-194.0
X226.5Y-195.25
X226.75Y-203.6
X226.75Y-204.9
X227.0Y-163.25
X227.0Y-164.25
X227.25Y-169.0
X227.4Y-203.6
X227.4Y-204.9
X228.0Y-206.4
X228.05Y-203.6
X228.05Y-204.9
X228.25Y-169.0
X228.5Y-163.25
X228.5Y-164.25
X228.5Y-206.4
X228.7Y-203.6
X228.7Y-204.9
X229.3Y-202.1
X229.5Y-190.25
X229.5Y-191.5
X229.5Y-192.75
X229.5Y-194.0
X229.5Y-195.25
X229.5Y-200.0
X230.25Y-200.0
X230.75Y-199.0
X231.0Y-174.0
X231.25Y-202.0
X231.25Y-203.25
X231.25Y-204.5
X232.0Y-174.0
X232.25Y-202.0
X232.5Y-180.25
X232.5Y-199.0
X233.25Y-180.25
X233.25Y-202.0
X233.25Y-203.25
X233.25Y-204.5
X234.0Y-180.25
X234.25Y-188.75
X234.25Y-190.25
X234.25Y-191.75
X234.25Y-193.25
X234.5Y-163.25
X234.5Y-164.25
X234.5Y-196.25
X235.0Y-198.75
X235.25Y-201.15
X235.25Y-202.15
X235.75Y-197.5
X236.0Y-163.25
X236.0Y-164.25
X237.0Y-201.15
X237.0Y-202.15
X237.5Y-199.5
X239.0Y-175.5
X240.0Y-201.25
X240.0Y-202.0
X240.0Y-212.75
X240.3Y-206.25
X240.5Y-204.4
X241.0Y-214.5
X241.0Y-215.5
X241.25Y-180.5
X241.3Y-206.25
X242.0Y-173.5
X242.0Y-204.4
X242.25Y-211.25
X242.25Y-212.75
X242.75Y-173.0
X243.0Y-194.5
X243.0Y-196.0
X243.25Y-193.0
X243.65Y-200.7
X243.75Y-211.25
X243.75Y-212.75
X244.0Y-203.0
X244.25Y-191.75
X244.25Y-192.75
X244.25Y-200.7
X244.5Y-203.0
X244.6Y-209.9
X244.75Y-199.5
X244.85Y-200.7
X245.0Y-203.0
X245.0Y-206.5
X245.1Y-208.1
X245.1Y-210.4
X245.25Y-171.25
X246.25Y-187.5
X246.75Y-202.4
X247.0Y-185.0
X247.75Y-203.75
X247.75Y-204.75
X248.0Y-210.4
X248.0Y-212.3
X249.0Y-210.4
X249.0Y-212.3
X249.25Y-191.0
X249.25Y-192.0
X249.25Y-193.5
X249.25Y-194.5
X249.25Y-206.25
X249.25Y-207.75
X249.25Y-209.25
T4
X223.48Y-189.92
X223.48Y-191.19
X223.48Y-192.46
X223.48Y-193.73
X223.48Y-195.0
X224.75Y-189.92
X224.75Y-191.19
X224.75Y-192.46
X224.75Y-193.73
X224.75Y-195.0
T5
X232.0Y-165.25
X232.0Y-167.25
X232.0Y-169.25
X232.0Y-171.25
X239.5Y-165.25
X239.5Y-167.25
X239.5Y-169.25
X239.5Y-171.25
X217.0Y-165.25
X217.0Y-167.25
X217.0Y-169.25
X217.0Y-171.25
X209.5Y-165.25
X209.5Y-167.25
X209.5Y-169.25
X209.5Y-171.25
X224.5Y-165.25
X224.5Y-167.25
X224.5Y-169.25
X224.5Y-171.25
T6
X172.0Y-174.0
X172.0Y-176.54
X172.0Y-179.08
X187.25Y-215.75
X187.25Y-218.29
X187.25Y-220.83
X189.79Y-215.75
X189.79Y-218.29
X189.79Y-220.83
X202.8Y-182.52
X202.8Y-202.84
X205.34Y-182.52
X205.34Y-202.84
X207.88Y-182.52
X207.88Y-202.84
X210.42Y-182.52
X210.42Y-202.84
X212.96Y-182.52
X212.96Y-202.84
X215.5Y-182.52
X215.5Y-202.84
X218.04Y-182.52
X218.04Y-202.84
X220.58Y-182.52
X220.58Y-202.84
X223.12Y-182.52
X225.66Y-182.52
X228.2Y-182.52
X230.74Y-182.52
X233.28Y-182.52
X235.82Y-182.52
X238.36Y-182.52
X240.9Y-182.52
T7
X179.75Y-219.0
X183.25Y-219.0
X236.5Y-219.25
X240.0Y-219.25
T8
X206.5Y-217.75
X211.5Y-217.75
X196.0Y-217.75
X201.0Y-217.75
X217.25Y-217.75
X222.25Y-217.75
T3
G00X247.9Y-189.45
M15
G01X248.6Y-189.45
M16
G05
G00X247.9Y-196.05
M15
G01X248.6Y-196.05
M16
G05
T6
G00X228.75Y-208.75
M15
G01X230.75Y-208.75
M16
G05
G00X228.75Y-214.75
M15
G01X230.75Y-214.75
M16
G05
G00X234.45Y-212.75
M15
G01X234.45Y-210.75
M16
G05
T0
M30
