G04 #@! TF.GenerationSoftware,KiCad,Pcbnew,5.0.2-5.fc29*
G04 #@! TF.CreationDate,2020-06-27T20:23:45+07:00*
G04 #@! TF.ProjectId,MP_SamBaseBoard_V1,4d505f53-616d-4426-9173-65426f617264,rev?*
G04 #@! TF.SameCoordinates,Original*
G04 #@! TF.FileFunction,Soldermask,Bot*
G04 #@! TF.FilePolarity,Negative*
%FSLAX45Y45*%
G04 Gerber Fmt 4.5, Leading zero omitted, Abs format (unit mm)*
G04 Created by KiCad (PCBNEW 5.0.2-5.fc29) date Sat 27 Jun 2020 08:23:45 PM +07*
%MOMM*%
%LPD*%
G01*
G04 APERTURE LIST*
%ADD10C,0.100000*%
G04 APERTURE END LIST*
D10*
G36*
X14665044Y-12968552D02*
X14671663Y-12969204D01*
X14681446Y-12972171D01*
X14688647Y-12974356D01*
X14702509Y-12981765D01*
X14704299Y-12982722D01*
X14707873Y-12985655D01*
X14718019Y-12993981D01*
X14723040Y-13000100D01*
X14729278Y-13007701D01*
X14729278Y-13007701D01*
X14737644Y-13023353D01*
X14737644Y-13023353D01*
X14742796Y-13040337D01*
X14744536Y-13058000D01*
X14742796Y-13075663D01*
X14739362Y-13086985D01*
X14737644Y-13092647D01*
X14730235Y-13106509D01*
X14729278Y-13108299D01*
X14726345Y-13111873D01*
X14718019Y-13122019D01*
X14707873Y-13130345D01*
X14704299Y-13133278D01*
X14704299Y-13133278D01*
X14688647Y-13141644D01*
X14682985Y-13143362D01*
X14671663Y-13146796D01*
X14665044Y-13147448D01*
X14658426Y-13148100D01*
X14649574Y-13148100D01*
X14642956Y-13147448D01*
X14636337Y-13146796D01*
X14625015Y-13143362D01*
X14619353Y-13141644D01*
X14603701Y-13133278D01*
X14603701Y-13133278D01*
X14600127Y-13130345D01*
X14589981Y-13122019D01*
X14581655Y-13111873D01*
X14578722Y-13108299D01*
X14577765Y-13106509D01*
X14570356Y-13092647D01*
X14568638Y-13086985D01*
X14565204Y-13075663D01*
X14563464Y-13058000D01*
X14565204Y-13040337D01*
X14570356Y-13023353D01*
X14570356Y-13023353D01*
X14578722Y-13007701D01*
X14578722Y-13007701D01*
X14584960Y-13000100D01*
X14589981Y-12993981D01*
X14600127Y-12985655D01*
X14603701Y-12982722D01*
X14605491Y-12981765D01*
X14619353Y-12974356D01*
X14626554Y-12972171D01*
X14636337Y-12969204D01*
X14642956Y-12968552D01*
X14649574Y-12967900D01*
X14658426Y-12967900D01*
X14665044Y-12968552D01*
X14665044Y-12968552D01*
G37*
G36*
X14411044Y-12968552D02*
X14417663Y-12969204D01*
X14427446Y-12972171D01*
X14434647Y-12974356D01*
X14448509Y-12981765D01*
X14450299Y-12982722D01*
X14453873Y-12985655D01*
X14464019Y-12993981D01*
X14469040Y-13000100D01*
X14475278Y-13007701D01*
X14475278Y-13007701D01*
X14483644Y-13023353D01*
X14483644Y-13023353D01*
X14488796Y-13040337D01*
X14490536Y-13058000D01*
X14488796Y-13075663D01*
X14485362Y-13086985D01*
X14483644Y-13092647D01*
X14476235Y-13106509D01*
X14475278Y-13108299D01*
X14472345Y-13111873D01*
X14464019Y-13122019D01*
X14453873Y-13130345D01*
X14450299Y-13133278D01*
X14450299Y-13133278D01*
X14434647Y-13141644D01*
X14428985Y-13143362D01*
X14417663Y-13146796D01*
X14411044Y-13147448D01*
X14404426Y-13148100D01*
X14395574Y-13148100D01*
X14388956Y-13147448D01*
X14382337Y-13146796D01*
X14371015Y-13143362D01*
X14365353Y-13141644D01*
X14349701Y-13133278D01*
X14349701Y-13133278D01*
X14346127Y-13130345D01*
X14335981Y-13122019D01*
X14327655Y-13111873D01*
X14324722Y-13108299D01*
X14323765Y-13106509D01*
X14316356Y-13092647D01*
X14314638Y-13086985D01*
X14311204Y-13075663D01*
X14309464Y-13058000D01*
X14311204Y-13040337D01*
X14316356Y-13023353D01*
X14316356Y-13023353D01*
X14324722Y-13007701D01*
X14324722Y-13007701D01*
X14330960Y-13000100D01*
X14335981Y-12993981D01*
X14346127Y-12985655D01*
X14349701Y-12982722D01*
X14351491Y-12981765D01*
X14365353Y-12974356D01*
X14372554Y-12972171D01*
X14382337Y-12969204D01*
X14388956Y-12968552D01*
X14395574Y-12967900D01*
X14404426Y-12967900D01*
X14411044Y-12968552D01*
X14411044Y-12968552D01*
G37*
G36*
X12952533Y-12676821D02*
X12985309Y-12690397D01*
X13014807Y-12710107D01*
X13039893Y-12735193D01*
X13059603Y-12764691D01*
X13073179Y-12797467D01*
X13080100Y-12832262D01*
X13080100Y-12867738D01*
X13073179Y-12902533D01*
X13059603Y-12935309D01*
X13039893Y-12964807D01*
X13014807Y-12989893D01*
X12985309Y-13009603D01*
X12952533Y-13023179D01*
X12917738Y-13030100D01*
X12882262Y-13030100D01*
X12847467Y-13023179D01*
X12814691Y-13009603D01*
X12785193Y-12989893D01*
X12760107Y-12964807D01*
X12740397Y-12935309D01*
X12726821Y-12902533D01*
X12719900Y-12867738D01*
X12719900Y-12832262D01*
X12726821Y-12797467D01*
X12740397Y-12764691D01*
X12760107Y-12735193D01*
X12785193Y-12710107D01*
X12814691Y-12690397D01*
X12847467Y-12676821D01*
X12882262Y-12669900D01*
X12917738Y-12669900D01*
X12952533Y-12676821D01*
X12952533Y-12676821D01*
G37*
G36*
X20152533Y-12676821D02*
X20185309Y-12690397D01*
X20214807Y-12710107D01*
X20239893Y-12735193D01*
X20259603Y-12764691D01*
X20273179Y-12797467D01*
X20280100Y-12832262D01*
X20280100Y-12867738D01*
X20273179Y-12902533D01*
X20259603Y-12935309D01*
X20239893Y-12964807D01*
X20214807Y-12989893D01*
X20185309Y-13009603D01*
X20152533Y-13023179D01*
X20117738Y-13030100D01*
X20082262Y-13030100D01*
X20047467Y-13023179D01*
X20014691Y-13009603D01*
X19985193Y-12989893D01*
X19960107Y-12964807D01*
X19940397Y-12935309D01*
X19926821Y-12902533D01*
X19919900Y-12867738D01*
X19919900Y-12832262D01*
X19926821Y-12797467D01*
X19940397Y-12764691D01*
X19960107Y-12735193D01*
X19985193Y-12710107D01*
X20014691Y-12690397D01*
X20047467Y-12676821D01*
X20082262Y-12669900D01*
X20117738Y-12669900D01*
X20152533Y-12676821D01*
X20152533Y-12676821D01*
G37*
G36*
X19543364Y-12751102D02*
X19561490Y-12754707D01*
X19584257Y-12764138D01*
X19604654Y-12777767D01*
X19604747Y-12777829D01*
X19622171Y-12795253D01*
X19622172Y-12795253D01*
X19635862Y-12815743D01*
X19645293Y-12838510D01*
X19650100Y-12862679D01*
X19650100Y-12887321D01*
X19645293Y-12911490D01*
X19635862Y-12934257D01*
X19622233Y-12954654D01*
X19622171Y-12954747D01*
X19604747Y-12972171D01*
X19604747Y-12972171D01*
X19584257Y-12985862D01*
X19561490Y-12995292D01*
X19543364Y-12998898D01*
X19537321Y-13000100D01*
X19512679Y-13000100D01*
X19506637Y-12998898D01*
X19488510Y-12995292D01*
X19465743Y-12985862D01*
X19445253Y-12972171D01*
X19445253Y-12972171D01*
X19427829Y-12954747D01*
X19427767Y-12954654D01*
X19414138Y-12934257D01*
X19404708Y-12911490D01*
X19399900Y-12887321D01*
X19399900Y-12862679D01*
X19404708Y-12838510D01*
X19414138Y-12815743D01*
X19427829Y-12795253D01*
X19427829Y-12795253D01*
X19445253Y-12777829D01*
X19445346Y-12777767D01*
X19465743Y-12764138D01*
X19488510Y-12754707D01*
X19506636Y-12751102D01*
X19512679Y-12749900D01*
X19537321Y-12749900D01*
X19543364Y-12751102D01*
X19543364Y-12751102D01*
G37*
G36*
X16775100Y-13000100D02*
X16524900Y-13000100D01*
X16524900Y-12749900D01*
X16775100Y-12749900D01*
X16775100Y-13000100D01*
X16775100Y-13000100D01*
G37*
G36*
X19300100Y-13000100D02*
X19049900Y-13000100D01*
X19049900Y-12749900D01*
X19300100Y-12749900D01*
X19300100Y-13000100D01*
X19300100Y-13000100D01*
G37*
G36*
X13943364Y-12751102D02*
X13961490Y-12754707D01*
X13984257Y-12764138D01*
X14004654Y-12777767D01*
X14004747Y-12777829D01*
X14022171Y-12795253D01*
X14022171Y-12795253D01*
X14035862Y-12815743D01*
X14045292Y-12838510D01*
X14050100Y-12862679D01*
X14050100Y-12887321D01*
X14045292Y-12911490D01*
X14035862Y-12934257D01*
X14022233Y-12954654D01*
X14022171Y-12954747D01*
X14004747Y-12972171D01*
X14004747Y-12972171D01*
X13984257Y-12985862D01*
X13961490Y-12995292D01*
X13943363Y-12998898D01*
X13937321Y-13000100D01*
X13912679Y-13000100D01*
X13906636Y-12998898D01*
X13888510Y-12995292D01*
X13865743Y-12985862D01*
X13845253Y-12972171D01*
X13845253Y-12972171D01*
X13827829Y-12954747D01*
X13827767Y-12954654D01*
X13814138Y-12934257D01*
X13804707Y-12911490D01*
X13799900Y-12887321D01*
X13799900Y-12862679D01*
X13804707Y-12838510D01*
X13814138Y-12815743D01*
X13827828Y-12795253D01*
X13827829Y-12795253D01*
X13845253Y-12777829D01*
X13845346Y-12777767D01*
X13865743Y-12764138D01*
X13888510Y-12754707D01*
X13906636Y-12751102D01*
X13912679Y-12749900D01*
X13937321Y-12749900D01*
X13943364Y-12751102D01*
X13943364Y-12751102D01*
G37*
G36*
X13700100Y-13000100D02*
X13449900Y-13000100D01*
X13449900Y-12749900D01*
X13700100Y-12749900D01*
X13700100Y-13000100D01*
X13700100Y-13000100D01*
G37*
G36*
X15325100Y-13000100D02*
X15074900Y-13000100D01*
X15074900Y-12749900D01*
X15325100Y-12749900D01*
X15325100Y-13000100D01*
X15325100Y-13000100D01*
G37*
G36*
X16293364Y-12751102D02*
X16311490Y-12754707D01*
X16334257Y-12764138D01*
X16354654Y-12777767D01*
X16354747Y-12777829D01*
X16372171Y-12795253D01*
X16372171Y-12795253D01*
X16385862Y-12815743D01*
X16395292Y-12838510D01*
X16400100Y-12862679D01*
X16400100Y-12887321D01*
X16395292Y-12911490D01*
X16385862Y-12934257D01*
X16372233Y-12954654D01*
X16372171Y-12954747D01*
X16354747Y-12972171D01*
X16354747Y-12972171D01*
X16334257Y-12985862D01*
X16311490Y-12995292D01*
X16293363Y-12998898D01*
X16287321Y-13000100D01*
X16262679Y-13000100D01*
X16256636Y-12998898D01*
X16238510Y-12995292D01*
X16215743Y-12985862D01*
X16195253Y-12972171D01*
X16195253Y-12972171D01*
X16177829Y-12954747D01*
X16177767Y-12954654D01*
X16164138Y-12934257D01*
X16154707Y-12911490D01*
X16149900Y-12887321D01*
X16149900Y-12862679D01*
X16154707Y-12838510D01*
X16164138Y-12815743D01*
X16177828Y-12795253D01*
X16177829Y-12795253D01*
X16195253Y-12777829D01*
X16195346Y-12777767D01*
X16215743Y-12764138D01*
X16238510Y-12754707D01*
X16256636Y-12751102D01*
X16262679Y-12749900D01*
X16287321Y-12749900D01*
X16293364Y-12751102D01*
X16293364Y-12751102D01*
G37*
G36*
X16050100Y-13000100D02*
X15799900Y-13000100D01*
X15799900Y-12749900D01*
X16050100Y-12749900D01*
X16050100Y-13000100D01*
X16050100Y-13000100D01*
G37*
G36*
X17368364Y-12751102D02*
X17386490Y-12754707D01*
X17409257Y-12764138D01*
X17429654Y-12777767D01*
X17429747Y-12777829D01*
X17447171Y-12795253D01*
X17447172Y-12795253D01*
X17460862Y-12815743D01*
X17470293Y-12838510D01*
X17475100Y-12862679D01*
X17475100Y-12887321D01*
X17470293Y-12911490D01*
X17460862Y-12934257D01*
X17447233Y-12954654D01*
X17447171Y-12954747D01*
X17429747Y-12972171D01*
X17429747Y-12972171D01*
X17409257Y-12985862D01*
X17386490Y-12995292D01*
X17368364Y-12998898D01*
X17362321Y-13000100D01*
X17337679Y-13000100D01*
X17331637Y-12998898D01*
X17313510Y-12995292D01*
X17290743Y-12985862D01*
X17270253Y-12972171D01*
X17270253Y-12972171D01*
X17252829Y-12954747D01*
X17252767Y-12954654D01*
X17239138Y-12934257D01*
X17229708Y-12911490D01*
X17224900Y-12887321D01*
X17224900Y-12862679D01*
X17229708Y-12838510D01*
X17239138Y-12815743D01*
X17252829Y-12795253D01*
X17252829Y-12795253D01*
X17270253Y-12777829D01*
X17270346Y-12777767D01*
X17290743Y-12764138D01*
X17313510Y-12754707D01*
X17331636Y-12751102D01*
X17337679Y-12749900D01*
X17362321Y-12749900D01*
X17368364Y-12751102D01*
X17368364Y-12751102D01*
G37*
G36*
X17018364Y-12751102D02*
X17036490Y-12754707D01*
X17059257Y-12764138D01*
X17079654Y-12777767D01*
X17079747Y-12777829D01*
X17097171Y-12795253D01*
X17097172Y-12795253D01*
X17110862Y-12815743D01*
X17120293Y-12838510D01*
X17125100Y-12862679D01*
X17125100Y-12887321D01*
X17120293Y-12911490D01*
X17110862Y-12934257D01*
X17097233Y-12954654D01*
X17097171Y-12954747D01*
X17079747Y-12972171D01*
X17079747Y-12972171D01*
X17059257Y-12985862D01*
X17036490Y-12995292D01*
X17018364Y-12998898D01*
X17012321Y-13000100D01*
X16987679Y-13000100D01*
X16981637Y-12998898D01*
X16963510Y-12995292D01*
X16940743Y-12985862D01*
X16920253Y-12972171D01*
X16920253Y-12972171D01*
X16902829Y-12954747D01*
X16902767Y-12954654D01*
X16889138Y-12934257D01*
X16879708Y-12911490D01*
X16874900Y-12887321D01*
X16874900Y-12862679D01*
X16879708Y-12838510D01*
X16889138Y-12815743D01*
X16902829Y-12795253D01*
X16902829Y-12795253D01*
X16920253Y-12777829D01*
X16920346Y-12777767D01*
X16940743Y-12764138D01*
X16963510Y-12754707D01*
X16981636Y-12751102D01*
X16987679Y-12749900D01*
X17012321Y-12749900D01*
X17018364Y-12751102D01*
X17018364Y-12751102D01*
G37*
G36*
X15568364Y-12751102D02*
X15586490Y-12754707D01*
X15609257Y-12764138D01*
X15629654Y-12777767D01*
X15629747Y-12777829D01*
X15647171Y-12795253D01*
X15647171Y-12795253D01*
X15660862Y-12815743D01*
X15670292Y-12838510D01*
X15675100Y-12862679D01*
X15675100Y-12887321D01*
X15670292Y-12911490D01*
X15660862Y-12934257D01*
X15647233Y-12954654D01*
X15647171Y-12954747D01*
X15629747Y-12972171D01*
X15629747Y-12972171D01*
X15609257Y-12985862D01*
X15586490Y-12995292D01*
X15568363Y-12998898D01*
X15562321Y-13000100D01*
X15537679Y-13000100D01*
X15531636Y-12998898D01*
X15513510Y-12995292D01*
X15490743Y-12985862D01*
X15470253Y-12972171D01*
X15470253Y-12972171D01*
X15452829Y-12954747D01*
X15452767Y-12954654D01*
X15439138Y-12934257D01*
X15429707Y-12911490D01*
X15424900Y-12887321D01*
X15424900Y-12862679D01*
X15429707Y-12838510D01*
X15439138Y-12815743D01*
X15452828Y-12795253D01*
X15452829Y-12795253D01*
X15470253Y-12777829D01*
X15470346Y-12777767D01*
X15490743Y-12764138D01*
X15513510Y-12754707D01*
X15531636Y-12751102D01*
X15537679Y-12749900D01*
X15562321Y-12749900D01*
X15568364Y-12751102D01*
X15568364Y-12751102D01*
G37*
G36*
X14411044Y-12714552D02*
X14417663Y-12715204D01*
X14428985Y-12718638D01*
X14434647Y-12720356D01*
X14448509Y-12727765D01*
X14450299Y-12728722D01*
X14453873Y-12731655D01*
X14464019Y-12739981D01*
X14472158Y-12749900D01*
X14475278Y-12753701D01*
X14475278Y-12753701D01*
X14483644Y-12769353D01*
X14483644Y-12769353D01*
X14488796Y-12786337D01*
X14490536Y-12804000D01*
X14488796Y-12821663D01*
X14485581Y-12832262D01*
X14483644Y-12838647D01*
X14476235Y-12852509D01*
X14475278Y-12854299D01*
X14472345Y-12857873D01*
X14464019Y-12868019D01*
X14453873Y-12876345D01*
X14450299Y-12879278D01*
X14450299Y-12879278D01*
X14434647Y-12887644D01*
X14428985Y-12889362D01*
X14417663Y-12892796D01*
X14411044Y-12893448D01*
X14404426Y-12894100D01*
X14395574Y-12894100D01*
X14388956Y-12893448D01*
X14382337Y-12892796D01*
X14371015Y-12889362D01*
X14365353Y-12887644D01*
X14349701Y-12879278D01*
X14349701Y-12879278D01*
X14346127Y-12876345D01*
X14335981Y-12868019D01*
X14327655Y-12857873D01*
X14324722Y-12854299D01*
X14323765Y-12852509D01*
X14316356Y-12838647D01*
X14314419Y-12832262D01*
X14311204Y-12821663D01*
X14309464Y-12804000D01*
X14311204Y-12786337D01*
X14316356Y-12769353D01*
X14316356Y-12769353D01*
X14324722Y-12753701D01*
X14324722Y-12753701D01*
X14327841Y-12749900D01*
X14335981Y-12739981D01*
X14346127Y-12731655D01*
X14349701Y-12728722D01*
X14351491Y-12727765D01*
X14365353Y-12720356D01*
X14371015Y-12718638D01*
X14382337Y-12715204D01*
X14388956Y-12714552D01*
X14395574Y-12713900D01*
X14404426Y-12713900D01*
X14411044Y-12714552D01*
X14411044Y-12714552D01*
G37*
G36*
X14665044Y-12714552D02*
X14671663Y-12715204D01*
X14682985Y-12718638D01*
X14688647Y-12720356D01*
X14702509Y-12727765D01*
X14704299Y-12728722D01*
X14707873Y-12731655D01*
X14718019Y-12739981D01*
X14726158Y-12749900D01*
X14729278Y-12753701D01*
X14729278Y-12753701D01*
X14737644Y-12769353D01*
X14737644Y-12769353D01*
X14742796Y-12786337D01*
X14744536Y-12804000D01*
X14742796Y-12821663D01*
X14739581Y-12832262D01*
X14737644Y-12838647D01*
X14730235Y-12852509D01*
X14729278Y-12854299D01*
X14726345Y-12857873D01*
X14718019Y-12868019D01*
X14707873Y-12876345D01*
X14704299Y-12879278D01*
X14704299Y-12879278D01*
X14688647Y-12887644D01*
X14682985Y-12889362D01*
X14671663Y-12892796D01*
X14665044Y-12893448D01*
X14658426Y-12894100D01*
X14649574Y-12894100D01*
X14642956Y-12893448D01*
X14636337Y-12892796D01*
X14625015Y-12889362D01*
X14619353Y-12887644D01*
X14603701Y-12879278D01*
X14603701Y-12879278D01*
X14600127Y-12876345D01*
X14589981Y-12868019D01*
X14581655Y-12857873D01*
X14578722Y-12854299D01*
X14577765Y-12852509D01*
X14570356Y-12838647D01*
X14568419Y-12832262D01*
X14565204Y-12821663D01*
X14563464Y-12804000D01*
X14565204Y-12786337D01*
X14570356Y-12769353D01*
X14570356Y-12769353D01*
X14578722Y-12753701D01*
X14578722Y-12753701D01*
X14581841Y-12749900D01*
X14589981Y-12739981D01*
X14600127Y-12731655D01*
X14603701Y-12728722D01*
X14605491Y-12727765D01*
X14619353Y-12720356D01*
X14625015Y-12718638D01*
X14636337Y-12715204D01*
X14642956Y-12714552D01*
X14649574Y-12713900D01*
X14658426Y-12713900D01*
X14665044Y-12714552D01*
X14665044Y-12714552D01*
G37*
G36*
X14490100Y-12640100D02*
X14309900Y-12640100D01*
X14309900Y-12459900D01*
X14490100Y-12459900D01*
X14490100Y-12640100D01*
X14490100Y-12640100D01*
G37*
G36*
X14665044Y-12460552D02*
X14671663Y-12461204D01*
X14682985Y-12464638D01*
X14688647Y-12466356D01*
X14702509Y-12473765D01*
X14704299Y-12474722D01*
X14707873Y-12477655D01*
X14718019Y-12485981D01*
X14726345Y-12496127D01*
X14729278Y-12499701D01*
X14729278Y-12499701D01*
X14737644Y-12515353D01*
X14737644Y-12515353D01*
X14742796Y-12532337D01*
X14744536Y-12550000D01*
X14742796Y-12567663D01*
X14742684Y-12568034D01*
X14737644Y-12584647D01*
X14730235Y-12598509D01*
X14729278Y-12600299D01*
X14726345Y-12603873D01*
X14718019Y-12614019D01*
X14707873Y-12622345D01*
X14704299Y-12625278D01*
X14704299Y-12625278D01*
X14688647Y-12633644D01*
X14682985Y-12635362D01*
X14671663Y-12638796D01*
X14665044Y-12639448D01*
X14658426Y-12640100D01*
X14649574Y-12640100D01*
X14642956Y-12639448D01*
X14636337Y-12638796D01*
X14625015Y-12635362D01*
X14619353Y-12633644D01*
X14603701Y-12625278D01*
X14603701Y-12625278D01*
X14600127Y-12622345D01*
X14589981Y-12614019D01*
X14581655Y-12603873D01*
X14578722Y-12600299D01*
X14577765Y-12598509D01*
X14570356Y-12584647D01*
X14565316Y-12568034D01*
X14565204Y-12567663D01*
X14563464Y-12550000D01*
X14565204Y-12532337D01*
X14570356Y-12515353D01*
X14570356Y-12515353D01*
X14578722Y-12499701D01*
X14578722Y-12499701D01*
X14581655Y-12496127D01*
X14589981Y-12485981D01*
X14600127Y-12477655D01*
X14603701Y-12474722D01*
X14605491Y-12473765D01*
X14619353Y-12466356D01*
X14625015Y-12464638D01*
X14636337Y-12461204D01*
X14642956Y-12460552D01*
X14649574Y-12459900D01*
X14658426Y-12459900D01*
X14665044Y-12460552D01*
X14665044Y-12460552D01*
G37*
G36*
X18147698Y-12271329D02*
X18161063Y-12275383D01*
X18173378Y-12281966D01*
X18184174Y-12290826D01*
X18193034Y-12301622D01*
X18199617Y-12313937D01*
X18203671Y-12327302D01*
X18205100Y-12341814D01*
X18205100Y-12508186D01*
X18203671Y-12522698D01*
X18199617Y-12536063D01*
X18193034Y-12548378D01*
X18184174Y-12559174D01*
X18173378Y-12568034D01*
X18161063Y-12574616D01*
X18147698Y-12578671D01*
X18133186Y-12580100D01*
X17916814Y-12580100D01*
X17902302Y-12578671D01*
X17888937Y-12574616D01*
X17876622Y-12568034D01*
X17865826Y-12559174D01*
X17856966Y-12548378D01*
X17850384Y-12536063D01*
X17846329Y-12522698D01*
X17844900Y-12508186D01*
X17844900Y-12341814D01*
X17846329Y-12327302D01*
X17850384Y-12313937D01*
X17856966Y-12301622D01*
X17865826Y-12290826D01*
X17876622Y-12281966D01*
X17888937Y-12275383D01*
X17902302Y-12271329D01*
X17916814Y-12269900D01*
X18133186Y-12269900D01*
X18147698Y-12271329D01*
X18147698Y-12271329D01*
G37*
G36*
X18607637Y-11946569D02*
X18623346Y-11951335D01*
X18637823Y-11959073D01*
X18650513Y-11969487D01*
X18660927Y-11982177D01*
X18668665Y-11996654D01*
X18673431Y-12012363D01*
X18675100Y-12029314D01*
X18675100Y-12220686D01*
X18673431Y-12237637D01*
X18668665Y-12253346D01*
X18660927Y-12267823D01*
X18650513Y-12280513D01*
X18637823Y-12290927D01*
X18623346Y-12298665D01*
X18607637Y-12303430D01*
X18590686Y-12305100D01*
X18399314Y-12305100D01*
X18382363Y-12303430D01*
X18366654Y-12298665D01*
X18352177Y-12290927D01*
X18339487Y-12280513D01*
X18329073Y-12267823D01*
X18321335Y-12253346D01*
X18316570Y-12237637D01*
X18314900Y-12220686D01*
X18314900Y-12029314D01*
X18316570Y-12012363D01*
X18321335Y-11996654D01*
X18329073Y-11982177D01*
X18339487Y-11969487D01*
X18352177Y-11959073D01*
X18366654Y-11951335D01*
X18382363Y-11946569D01*
X18399314Y-11944900D01*
X18590686Y-11944900D01*
X18607637Y-11946569D01*
X18607637Y-11946569D01*
G37*
G36*
X18205100Y-12005100D02*
X17844900Y-12005100D01*
X17844900Y-11644900D01*
X18205100Y-11644900D01*
X18205100Y-12005100D01*
X18205100Y-12005100D01*
G37*
G36*
X16077335Y-11166826D02*
X16086413Y-11168632D01*
X16103516Y-11175716D01*
X16103516Y-11175716D01*
X16118909Y-11186001D01*
X16131999Y-11199091D01*
X16131999Y-11199091D01*
X16142284Y-11214484D01*
X16149368Y-11231587D01*
X16152980Y-11249744D01*
X16152980Y-11268256D01*
X16149368Y-11286413D01*
X16142284Y-11303516D01*
X16142284Y-11303516D01*
X16131999Y-11318909D01*
X16118909Y-11331999D01*
X16118909Y-11331999D01*
X16103516Y-11342284D01*
X16086413Y-11349368D01*
X16077335Y-11351174D01*
X16068256Y-11352980D01*
X16049744Y-11352980D01*
X16040665Y-11351174D01*
X16031587Y-11349368D01*
X16014484Y-11342284D01*
X15999091Y-11331999D01*
X15999091Y-11331999D01*
X15986001Y-11318909D01*
X15975716Y-11303516D01*
X15975716Y-11303516D01*
X15968632Y-11286413D01*
X15965020Y-11268256D01*
X15965020Y-11249744D01*
X15968632Y-11231587D01*
X15975716Y-11214484D01*
X15986001Y-11199091D01*
X15986001Y-11199091D01*
X15999091Y-11186001D01*
X16014484Y-11175716D01*
X16014484Y-11175716D01*
X16031587Y-11168632D01*
X16040665Y-11166826D01*
X16049744Y-11165020D01*
X16068256Y-11165020D01*
X16077335Y-11166826D01*
X16077335Y-11166826D01*
G37*
G36*
X17601335Y-11166826D02*
X17610413Y-11168632D01*
X17627516Y-11175716D01*
X17627516Y-11175716D01*
X17642909Y-11186001D01*
X17655999Y-11199091D01*
X17655999Y-11199091D01*
X17666284Y-11214484D01*
X17673368Y-11231587D01*
X17676980Y-11249744D01*
X17676980Y-11268256D01*
X17673368Y-11286413D01*
X17666284Y-11303516D01*
X17666284Y-11303516D01*
X17655999Y-11318909D01*
X17642909Y-11331999D01*
X17642909Y-11331999D01*
X17627516Y-11342284D01*
X17610413Y-11349368D01*
X17601335Y-11351174D01*
X17592256Y-11352980D01*
X17573744Y-11352980D01*
X17564665Y-11351174D01*
X17555587Y-11349368D01*
X17538484Y-11342284D01*
X17523091Y-11331999D01*
X17523091Y-11331999D01*
X17510001Y-11318909D01*
X17499716Y-11303516D01*
X17499716Y-11303516D01*
X17492632Y-11286413D01*
X17489020Y-11268256D01*
X17489020Y-11249744D01*
X17492632Y-11231587D01*
X17499716Y-11214484D01*
X17510001Y-11199091D01*
X17510001Y-11199091D01*
X17523091Y-11186001D01*
X17538484Y-11175716D01*
X17538484Y-11175716D01*
X17555587Y-11168632D01*
X17564665Y-11166826D01*
X17573744Y-11165020D01*
X17592256Y-11165020D01*
X17601335Y-11166826D01*
X17601335Y-11166826D01*
G37*
G36*
X17093335Y-11166826D02*
X17102413Y-11168632D01*
X17119516Y-11175716D01*
X17119516Y-11175716D01*
X17134909Y-11186001D01*
X17147999Y-11199091D01*
X17147999Y-11199091D01*
X17158284Y-11214484D01*
X17165368Y-11231587D01*
X17168980Y-11249744D01*
X17168980Y-11268256D01*
X17165368Y-11286413D01*
X17158284Y-11303516D01*
X17158284Y-11303516D01*
X17147999Y-11318909D01*
X17134909Y-11331999D01*
X17134909Y-11331999D01*
X17119516Y-11342284D01*
X17102413Y-11349368D01*
X17093335Y-11351174D01*
X17084256Y-11352980D01*
X17065744Y-11352980D01*
X17056665Y-11351174D01*
X17047587Y-11349368D01*
X17030484Y-11342284D01*
X17015091Y-11331999D01*
X17015091Y-11331999D01*
X17002001Y-11318909D01*
X16991716Y-11303516D01*
X16991716Y-11303516D01*
X16984632Y-11286413D01*
X16981020Y-11268256D01*
X16981020Y-11249744D01*
X16984632Y-11231587D01*
X16991716Y-11214484D01*
X17002001Y-11199091D01*
X17002001Y-11199091D01*
X17015091Y-11186001D01*
X17030484Y-11175716D01*
X17030484Y-11175716D01*
X17047587Y-11168632D01*
X17056665Y-11166826D01*
X17065744Y-11165020D01*
X17084256Y-11165020D01*
X17093335Y-11166826D01*
X17093335Y-11166826D01*
G37*
G36*
X16839335Y-11166826D02*
X16848413Y-11168632D01*
X16865516Y-11175716D01*
X16865516Y-11175716D01*
X16880909Y-11186001D01*
X16893999Y-11199091D01*
X16893999Y-11199091D01*
X16904284Y-11214484D01*
X16911368Y-11231587D01*
X16914980Y-11249744D01*
X16914980Y-11268256D01*
X16911368Y-11286413D01*
X16904284Y-11303516D01*
X16904284Y-11303516D01*
X16893999Y-11318909D01*
X16880909Y-11331999D01*
X16880909Y-11331999D01*
X16865516Y-11342284D01*
X16848413Y-11349368D01*
X16839335Y-11351174D01*
X16830256Y-11352980D01*
X16811744Y-11352980D01*
X16802665Y-11351174D01*
X16793587Y-11349368D01*
X16776484Y-11342284D01*
X16761091Y-11331999D01*
X16761091Y-11331999D01*
X16748001Y-11318909D01*
X16737716Y-11303516D01*
X16737716Y-11303516D01*
X16730632Y-11286413D01*
X16727020Y-11268256D01*
X16727020Y-11249744D01*
X16730632Y-11231587D01*
X16737716Y-11214484D01*
X16748001Y-11199091D01*
X16748001Y-11199091D01*
X16761091Y-11186001D01*
X16776484Y-11175716D01*
X16776484Y-11175716D01*
X16793587Y-11168632D01*
X16802665Y-11166826D01*
X16811744Y-11165020D01*
X16830256Y-11165020D01*
X16839335Y-11166826D01*
X16839335Y-11166826D01*
G37*
G36*
X16331335Y-11166826D02*
X16340413Y-11168632D01*
X16357516Y-11175716D01*
X16357516Y-11175716D01*
X16372909Y-11186001D01*
X16385999Y-11199091D01*
X16385999Y-11199091D01*
X16396284Y-11214484D01*
X16403368Y-11231587D01*
X16406980Y-11249744D01*
X16406980Y-11268256D01*
X16403368Y-11286413D01*
X16396284Y-11303516D01*
X16396284Y-11303516D01*
X16385999Y-11318909D01*
X16372909Y-11331999D01*
X16372909Y-11331999D01*
X16357516Y-11342284D01*
X16340413Y-11349368D01*
X16331335Y-11351174D01*
X16322256Y-11352980D01*
X16303744Y-11352980D01*
X16294665Y-11351174D01*
X16285587Y-11349368D01*
X16268484Y-11342284D01*
X16253091Y-11331999D01*
X16253091Y-11331999D01*
X16240001Y-11318909D01*
X16229716Y-11303516D01*
X16229716Y-11303516D01*
X16222632Y-11286413D01*
X16219020Y-11268256D01*
X16219020Y-11249744D01*
X16222632Y-11231587D01*
X16229716Y-11214484D01*
X16240001Y-11199091D01*
X16240001Y-11199091D01*
X16253091Y-11186001D01*
X16268484Y-11175716D01*
X16268484Y-11175716D01*
X16285587Y-11168632D01*
X16294665Y-11166826D01*
X16303744Y-11165020D01*
X16322256Y-11165020D01*
X16331335Y-11166826D01*
X16331335Y-11166826D01*
G37*
G36*
X15823335Y-11166826D02*
X15832413Y-11168632D01*
X15849516Y-11175716D01*
X15849516Y-11175716D01*
X15864909Y-11186001D01*
X15877999Y-11199091D01*
X15877999Y-11199091D01*
X15888284Y-11214484D01*
X15895368Y-11231587D01*
X15898980Y-11249744D01*
X15898980Y-11268256D01*
X15895368Y-11286413D01*
X15888284Y-11303516D01*
X15888284Y-11303516D01*
X15877999Y-11318909D01*
X15864909Y-11331999D01*
X15864909Y-11331999D01*
X15849516Y-11342284D01*
X15832413Y-11349368D01*
X15823335Y-11351174D01*
X15814256Y-11352980D01*
X15795744Y-11352980D01*
X15786665Y-11351174D01*
X15777587Y-11349368D01*
X15760484Y-11342284D01*
X15745091Y-11331999D01*
X15745091Y-11331999D01*
X15732001Y-11318909D01*
X15721716Y-11303516D01*
X15721716Y-11303516D01*
X15714632Y-11286413D01*
X15711020Y-11268256D01*
X15711020Y-11249744D01*
X15714632Y-11231587D01*
X15721716Y-11214484D01*
X15732001Y-11199091D01*
X15732001Y-11199091D01*
X15745091Y-11186001D01*
X15760484Y-11175716D01*
X15760484Y-11175716D01*
X15777587Y-11168632D01*
X15786665Y-11166826D01*
X15795744Y-11165020D01*
X15814256Y-11165020D01*
X15823335Y-11166826D01*
X15823335Y-11166826D01*
G37*
G36*
X17347335Y-11166826D02*
X17356413Y-11168632D01*
X17373516Y-11175716D01*
X17373516Y-11175716D01*
X17388909Y-11186001D01*
X17401999Y-11199091D01*
X17401999Y-11199091D01*
X17412284Y-11214484D01*
X17419368Y-11231587D01*
X17422980Y-11249744D01*
X17422980Y-11268256D01*
X17419368Y-11286413D01*
X17412284Y-11303516D01*
X17412284Y-11303516D01*
X17401999Y-11318909D01*
X17388909Y-11331999D01*
X17388909Y-11331999D01*
X17373516Y-11342284D01*
X17356413Y-11349368D01*
X17347335Y-11351174D01*
X17338256Y-11352980D01*
X17319744Y-11352980D01*
X17310665Y-11351174D01*
X17301587Y-11349368D01*
X17284484Y-11342284D01*
X17269091Y-11331999D01*
X17269091Y-11331999D01*
X17256001Y-11318909D01*
X17245716Y-11303516D01*
X17245716Y-11303516D01*
X17238632Y-11286413D01*
X17235020Y-11268256D01*
X17235020Y-11249744D01*
X17238632Y-11231587D01*
X17245716Y-11214484D01*
X17256001Y-11199091D01*
X17256001Y-11199091D01*
X17269091Y-11186001D01*
X17284484Y-11175716D01*
X17284484Y-11175716D01*
X17301587Y-11168632D01*
X17310665Y-11166826D01*
X17319744Y-11165020D01*
X17338256Y-11165020D01*
X17347335Y-11166826D01*
X17347335Y-11166826D01*
G37*
G36*
X16585335Y-11166826D02*
X16594413Y-11168632D01*
X16611516Y-11175716D01*
X16611516Y-11175716D01*
X16626909Y-11186001D01*
X16639999Y-11199091D01*
X16639999Y-11199091D01*
X16650284Y-11214484D01*
X16657368Y-11231587D01*
X16660980Y-11249744D01*
X16660980Y-11268256D01*
X16657368Y-11286413D01*
X16650284Y-11303516D01*
X16650284Y-11303516D01*
X16639999Y-11318909D01*
X16626909Y-11331999D01*
X16626909Y-11331999D01*
X16611516Y-11342284D01*
X16594413Y-11349368D01*
X16585335Y-11351174D01*
X16576256Y-11352980D01*
X16557744Y-11352980D01*
X16548665Y-11351174D01*
X16539587Y-11349368D01*
X16522484Y-11342284D01*
X16507091Y-11331999D01*
X16507091Y-11331999D01*
X16494001Y-11318909D01*
X16483716Y-11303516D01*
X16483716Y-11303516D01*
X16476632Y-11286413D01*
X16473020Y-11268256D01*
X16473020Y-11249744D01*
X16476632Y-11231587D01*
X16483716Y-11214484D01*
X16494001Y-11199091D01*
X16494001Y-11199091D01*
X16507091Y-11186001D01*
X16522484Y-11175716D01*
X16522484Y-11175716D01*
X16539587Y-11168632D01*
X16548665Y-11166826D01*
X16557744Y-11165020D01*
X16576256Y-11165020D01*
X16585335Y-11166826D01*
X16585335Y-11166826D01*
G37*
G36*
X20394821Y-10530625D02*
X20404265Y-10533490D01*
X20412969Y-10538142D01*
X20420598Y-10544403D01*
X20426858Y-10552031D01*
X20431510Y-10560735D01*
X20434375Y-10570179D01*
X20435342Y-10580000D01*
X20434375Y-10589821D01*
X20431510Y-10599265D01*
X20426858Y-10607969D01*
X20420598Y-10615598D01*
X20412969Y-10621858D01*
X20404265Y-10626510D01*
X20394821Y-10629375D01*
X20387461Y-10630100D01*
X20312539Y-10630100D01*
X20305179Y-10629375D01*
X20295735Y-10626510D01*
X20287031Y-10621858D01*
X20279403Y-10615598D01*
X20273142Y-10607969D01*
X20268490Y-10599265D01*
X20265625Y-10589821D01*
X20264658Y-10580000D01*
X20265625Y-10570179D01*
X20268490Y-10560735D01*
X20273142Y-10552031D01*
X20279403Y-10544403D01*
X20287031Y-10538142D01*
X20295735Y-10533490D01*
X20305179Y-10530625D01*
X20312539Y-10529900D01*
X20387461Y-10529900D01*
X20394821Y-10530625D01*
X20394821Y-10530625D01*
G37*
G36*
X17883802Y-9912697D02*
X17894188Y-9915848D01*
X17903760Y-9920964D01*
X17912150Y-9927850D01*
X17919036Y-9936240D01*
X17924152Y-9945812D01*
X17924538Y-9947085D01*
X17925476Y-9949349D01*
X17926837Y-9951387D01*
X17928570Y-9953119D01*
X17930608Y-9954481D01*
X17932872Y-9955419D01*
X17935275Y-9955897D01*
X17937725Y-9955897D01*
X17940129Y-9955419D01*
X17942393Y-9954481D01*
X17944430Y-9953119D01*
X17946163Y-9951387D01*
X17947524Y-9949349D01*
X17948462Y-9947085D01*
X17948848Y-9945812D01*
X17953964Y-9936240D01*
X17960850Y-9927850D01*
X17969240Y-9920964D01*
X17978812Y-9915848D01*
X17989199Y-9912697D01*
X17997293Y-9911900D01*
X18002707Y-9911900D01*
X18010802Y-9912697D01*
X18021188Y-9915848D01*
X18030760Y-9920964D01*
X18039150Y-9927850D01*
X18046036Y-9936240D01*
X18051152Y-9945812D01*
X18054303Y-9956199D01*
X18055367Y-9967000D01*
X18054303Y-9977802D01*
X18051152Y-9988188D01*
X18046036Y-9997760D01*
X18039150Y-10006150D01*
X18030760Y-10013036D01*
X18021188Y-10018152D01*
X18019914Y-10018539D01*
X18017651Y-10019476D01*
X18015613Y-10020837D01*
X18013881Y-10022570D01*
X18012519Y-10024608D01*
X18011581Y-10026872D01*
X18011103Y-10029275D01*
X18011103Y-10031725D01*
X18011582Y-10034129D01*
X18012519Y-10036393D01*
X18013881Y-10038430D01*
X18015613Y-10040163D01*
X18017651Y-10041524D01*
X18019914Y-10042462D01*
X18021188Y-10042848D01*
X18030760Y-10047964D01*
X18039150Y-10054850D01*
X18046036Y-10063240D01*
X18051152Y-10072812D01*
X18054303Y-10083199D01*
X18055367Y-10094000D01*
X18054303Y-10104802D01*
X18051152Y-10115188D01*
X18046036Y-10124760D01*
X18039150Y-10133150D01*
X18030760Y-10140036D01*
X18021188Y-10145152D01*
X18019914Y-10145539D01*
X18017651Y-10146476D01*
X18015613Y-10147837D01*
X18013881Y-10149570D01*
X18012519Y-10151608D01*
X18011581Y-10153872D01*
X18011103Y-10156275D01*
X18011103Y-10158725D01*
X18011582Y-10161129D01*
X18012519Y-10163393D01*
X18013881Y-10165430D01*
X18015613Y-10167163D01*
X18017651Y-10168524D01*
X18019914Y-10169462D01*
X18021188Y-10169848D01*
X18030760Y-10174964D01*
X18039150Y-10181850D01*
X18046036Y-10190240D01*
X18051152Y-10199812D01*
X18054303Y-10210199D01*
X18055367Y-10221000D01*
X18054303Y-10231802D01*
X18051152Y-10242188D01*
X18046036Y-10251760D01*
X18039150Y-10260150D01*
X18030760Y-10267036D01*
X18021188Y-10272152D01*
X18019914Y-10272539D01*
X18017651Y-10273476D01*
X18015613Y-10274837D01*
X18013881Y-10276570D01*
X18012519Y-10278608D01*
X18011581Y-10280872D01*
X18011103Y-10283275D01*
X18011103Y-10285725D01*
X18011582Y-10288129D01*
X18012519Y-10290393D01*
X18013881Y-10292430D01*
X18015613Y-10294163D01*
X18017651Y-10295524D01*
X18019914Y-10296462D01*
X18021188Y-10296848D01*
X18030760Y-10301964D01*
X18039150Y-10308850D01*
X18046036Y-10317240D01*
X18051152Y-10326812D01*
X18054303Y-10337199D01*
X18055367Y-10348000D01*
X18054303Y-10358802D01*
X18051152Y-10369188D01*
X18046036Y-10378760D01*
X18039150Y-10387150D01*
X18030760Y-10394036D01*
X18026381Y-10396377D01*
X18024344Y-10397737D01*
X18022611Y-10399470D01*
X18021250Y-10401508D01*
X18020312Y-10403772D01*
X18019834Y-10406175D01*
X18019834Y-10408625D01*
X18020312Y-10411029D01*
X18021250Y-10413293D01*
X18022611Y-10415330D01*
X18024344Y-10417063D01*
X18026381Y-10418424D01*
X18028645Y-10419362D01*
X18032274Y-10419900D01*
X18055100Y-10419900D01*
X18055100Y-10530100D01*
X17944900Y-10530100D01*
X17944900Y-10507274D01*
X17944660Y-10504835D01*
X17943949Y-10502490D01*
X17942793Y-10500329D01*
X17941239Y-10498435D01*
X17939345Y-10496880D01*
X17937184Y-10495725D01*
X17934839Y-10495014D01*
X17932400Y-10494774D01*
X17929961Y-10495014D01*
X17927617Y-10495725D01*
X17925455Y-10496880D01*
X17923561Y-10498435D01*
X17921376Y-10501381D01*
X17919036Y-10505760D01*
X17912150Y-10514150D01*
X17903760Y-10521036D01*
X17894188Y-10526152D01*
X17883802Y-10529303D01*
X17875707Y-10530100D01*
X17870293Y-10530100D01*
X17862199Y-10529303D01*
X17851812Y-10526152D01*
X17842240Y-10521036D01*
X17833850Y-10514150D01*
X17826964Y-10505760D01*
X17821848Y-10496188D01*
X17818697Y-10485802D01*
X17817633Y-10475000D01*
X17818697Y-10464199D01*
X17821848Y-10453812D01*
X17826964Y-10444240D01*
X17833850Y-10435850D01*
X17842240Y-10428964D01*
X17851812Y-10423848D01*
X17853086Y-10423462D01*
X17855349Y-10422524D01*
X17857387Y-10421163D01*
X17859119Y-10419430D01*
X17860481Y-10417392D01*
X17861419Y-10415129D01*
X17861897Y-10412725D01*
X17861897Y-10410275D01*
X17884103Y-10410275D01*
X17884103Y-10412725D01*
X17884582Y-10415129D01*
X17885519Y-10417393D01*
X17886881Y-10419430D01*
X17888613Y-10421163D01*
X17890651Y-10422524D01*
X17892914Y-10423462D01*
X17894188Y-10423848D01*
X17903760Y-10428964D01*
X17912150Y-10435850D01*
X17919036Y-10444240D01*
X17921377Y-10448620D01*
X17922737Y-10450656D01*
X17924470Y-10452389D01*
X17926508Y-10453750D01*
X17928772Y-10454688D01*
X17931175Y-10455166D01*
X17933625Y-10455166D01*
X17936029Y-10454688D01*
X17938293Y-10453750D01*
X17940330Y-10452389D01*
X17942063Y-10450656D01*
X17943424Y-10448619D01*
X17944362Y-10446355D01*
X17944900Y-10442726D01*
X17944900Y-10419900D01*
X17967726Y-10419900D01*
X17970165Y-10419660D01*
X17972510Y-10418949D01*
X17974671Y-10417793D01*
X17976565Y-10416239D01*
X17978120Y-10414345D01*
X17979275Y-10412184D01*
X17979986Y-10409839D01*
X17980226Y-10407400D01*
X17979986Y-10404961D01*
X17979275Y-10402617D01*
X17978120Y-10400455D01*
X17976565Y-10398561D01*
X17973619Y-10396376D01*
X17969240Y-10394036D01*
X17960850Y-10387150D01*
X17953964Y-10378760D01*
X17948848Y-10369188D01*
X17948462Y-10367914D01*
X17947524Y-10365651D01*
X17946163Y-10363613D01*
X17944430Y-10361881D01*
X17942392Y-10360519D01*
X17940129Y-10359581D01*
X17937725Y-10359103D01*
X17935275Y-10359103D01*
X17932871Y-10359582D01*
X17930608Y-10360519D01*
X17928570Y-10361881D01*
X17926837Y-10363613D01*
X17925476Y-10365651D01*
X17924539Y-10367914D01*
X17924152Y-10369188D01*
X17919036Y-10378760D01*
X17912150Y-10387150D01*
X17903760Y-10394036D01*
X17894188Y-10399152D01*
X17892914Y-10399539D01*
X17890651Y-10400476D01*
X17888613Y-10401837D01*
X17886881Y-10403570D01*
X17885519Y-10405608D01*
X17884581Y-10407872D01*
X17884103Y-10410275D01*
X17861897Y-10410275D01*
X17861419Y-10407871D01*
X17860481Y-10405608D01*
X17859119Y-10403570D01*
X17857387Y-10401837D01*
X17855349Y-10400476D01*
X17853086Y-10399539D01*
X17851812Y-10399152D01*
X17842240Y-10394036D01*
X17833850Y-10387150D01*
X17826964Y-10378760D01*
X17821848Y-10369188D01*
X17818697Y-10358802D01*
X17817633Y-10348000D01*
X17818697Y-10337199D01*
X17821848Y-10326812D01*
X17826964Y-10317240D01*
X17833850Y-10308850D01*
X17842240Y-10301964D01*
X17851812Y-10296848D01*
X17853086Y-10296462D01*
X17855349Y-10295524D01*
X17857387Y-10294163D01*
X17859119Y-10292430D01*
X17860481Y-10290392D01*
X17861419Y-10288129D01*
X17861897Y-10285725D01*
X17861897Y-10283275D01*
X17884103Y-10283275D01*
X17884103Y-10285725D01*
X17884582Y-10288129D01*
X17885519Y-10290393D01*
X17886881Y-10292430D01*
X17888613Y-10294163D01*
X17890651Y-10295524D01*
X17892914Y-10296462D01*
X17894188Y-10296848D01*
X17903760Y-10301964D01*
X17912150Y-10308850D01*
X17919036Y-10317240D01*
X17924152Y-10326812D01*
X17924538Y-10328085D01*
X17925476Y-10330349D01*
X17926837Y-10332387D01*
X17928570Y-10334119D01*
X17930608Y-10335481D01*
X17932872Y-10336419D01*
X17935275Y-10336897D01*
X17937725Y-10336897D01*
X17940129Y-10336419D01*
X17942393Y-10335481D01*
X17944430Y-10334119D01*
X17946163Y-10332387D01*
X17947524Y-10330349D01*
X17948462Y-10328085D01*
X17948848Y-10326812D01*
X17953964Y-10317240D01*
X17960850Y-10308850D01*
X17969240Y-10301964D01*
X17978812Y-10296848D01*
X17980086Y-10296462D01*
X17982349Y-10295524D01*
X17984387Y-10294163D01*
X17986119Y-10292430D01*
X17987481Y-10290392D01*
X17988419Y-10288129D01*
X17988897Y-10285725D01*
X17988897Y-10283275D01*
X17988419Y-10280871D01*
X17987481Y-10278608D01*
X17986119Y-10276570D01*
X17984387Y-10274837D01*
X17982349Y-10273476D01*
X17980086Y-10272539D01*
X17978812Y-10272152D01*
X17969240Y-10267036D01*
X17960850Y-10260150D01*
X17953964Y-10251760D01*
X17948848Y-10242188D01*
X17948462Y-10240914D01*
X17947524Y-10238651D01*
X17946163Y-10236613D01*
X17944430Y-10234881D01*
X17942392Y-10233519D01*
X17940129Y-10232581D01*
X17937725Y-10232103D01*
X17935275Y-10232103D01*
X17932871Y-10232582D01*
X17930608Y-10233519D01*
X17928570Y-10234881D01*
X17926837Y-10236613D01*
X17925476Y-10238651D01*
X17924539Y-10240914D01*
X17924152Y-10242188D01*
X17919036Y-10251760D01*
X17912150Y-10260150D01*
X17903760Y-10267036D01*
X17894188Y-10272152D01*
X17892914Y-10272539D01*
X17890651Y-10273476D01*
X17888613Y-10274837D01*
X17886881Y-10276570D01*
X17885519Y-10278608D01*
X17884581Y-10280872D01*
X17884103Y-10283275D01*
X17861897Y-10283275D01*
X17861419Y-10280871D01*
X17860481Y-10278608D01*
X17859119Y-10276570D01*
X17857387Y-10274837D01*
X17855349Y-10273476D01*
X17853086Y-10272539D01*
X17851812Y-10272152D01*
X17842240Y-10267036D01*
X17833850Y-10260150D01*
X17826964Y-10251760D01*
X17821848Y-10242188D01*
X17818697Y-10231802D01*
X17817633Y-10221000D01*
X17818697Y-10210199D01*
X17821848Y-10199812D01*
X17826964Y-10190240D01*
X17833850Y-10181850D01*
X17842240Y-10174964D01*
X17851812Y-10169848D01*
X17853086Y-10169462D01*
X17855349Y-10168524D01*
X17857387Y-10167163D01*
X17859119Y-10165430D01*
X17860481Y-10163392D01*
X17861419Y-10161129D01*
X17861897Y-10158725D01*
X17861897Y-10156275D01*
X17884103Y-10156275D01*
X17884103Y-10158725D01*
X17884582Y-10161129D01*
X17885519Y-10163393D01*
X17886881Y-10165430D01*
X17888613Y-10167163D01*
X17890651Y-10168524D01*
X17892914Y-10169462D01*
X17894188Y-10169848D01*
X17903760Y-10174964D01*
X17912150Y-10181850D01*
X17919036Y-10190240D01*
X17924152Y-10199812D01*
X17924538Y-10201085D01*
X17925476Y-10203349D01*
X17926837Y-10205387D01*
X17928570Y-10207119D01*
X17930608Y-10208481D01*
X17932872Y-10209419D01*
X17935275Y-10209897D01*
X17937725Y-10209897D01*
X17940129Y-10209419D01*
X17942393Y-10208481D01*
X17944430Y-10207119D01*
X17946163Y-10205387D01*
X17947524Y-10203349D01*
X17948462Y-10201085D01*
X17948848Y-10199812D01*
X17953964Y-10190240D01*
X17960850Y-10181850D01*
X17969240Y-10174964D01*
X17978812Y-10169848D01*
X17980086Y-10169462D01*
X17982349Y-10168524D01*
X17984387Y-10167163D01*
X17986119Y-10165430D01*
X17987481Y-10163392D01*
X17988419Y-10161129D01*
X17988897Y-10158725D01*
X17988897Y-10156275D01*
X17988419Y-10153871D01*
X17987481Y-10151608D01*
X17986119Y-10149570D01*
X17984387Y-10147837D01*
X17982349Y-10146476D01*
X17980086Y-10145539D01*
X17978812Y-10145152D01*
X17969240Y-10140036D01*
X17960850Y-10133150D01*
X17953964Y-10124760D01*
X17948848Y-10115188D01*
X17948462Y-10113914D01*
X17947524Y-10111651D01*
X17946163Y-10109613D01*
X17944430Y-10107881D01*
X17942392Y-10106519D01*
X17940129Y-10105581D01*
X17937725Y-10105103D01*
X17935275Y-10105103D01*
X17932871Y-10105582D01*
X17930608Y-10106519D01*
X17928570Y-10107881D01*
X17926837Y-10109613D01*
X17925476Y-10111651D01*
X17924539Y-10113914D01*
X17924152Y-10115188D01*
X17919036Y-10124760D01*
X17912150Y-10133150D01*
X17903760Y-10140036D01*
X17894188Y-10145152D01*
X17892914Y-10145539D01*
X17890651Y-10146476D01*
X17888613Y-10147837D01*
X17886881Y-10149570D01*
X17885519Y-10151608D01*
X17884581Y-10153872D01*
X17884103Y-10156275D01*
X17861897Y-10156275D01*
X17861419Y-10153871D01*
X17860481Y-10151608D01*
X17859119Y-10149570D01*
X17857387Y-10147837D01*
X17855349Y-10146476D01*
X17853086Y-10145539D01*
X17851812Y-10145152D01*
X17842240Y-10140036D01*
X17833850Y-10133150D01*
X17826964Y-10124760D01*
X17821848Y-10115188D01*
X17818697Y-10104802D01*
X17817633Y-10094000D01*
X17818697Y-10083199D01*
X17821848Y-10072812D01*
X17826964Y-10063240D01*
X17833850Y-10054850D01*
X17842240Y-10047964D01*
X17851812Y-10042848D01*
X17853086Y-10042462D01*
X17855349Y-10041524D01*
X17857387Y-10040163D01*
X17859119Y-10038430D01*
X17860481Y-10036392D01*
X17861419Y-10034129D01*
X17861897Y-10031725D01*
X17861897Y-10029275D01*
X17884103Y-10029275D01*
X17884103Y-10031725D01*
X17884582Y-10034129D01*
X17885519Y-10036393D01*
X17886881Y-10038430D01*
X17888613Y-10040163D01*
X17890651Y-10041524D01*
X17892914Y-10042462D01*
X17894188Y-10042848D01*
X17903760Y-10047964D01*
X17912150Y-10054850D01*
X17919036Y-10063240D01*
X17924152Y-10072812D01*
X17924538Y-10074085D01*
X17925476Y-10076349D01*
X17926837Y-10078387D01*
X17928570Y-10080119D01*
X17930608Y-10081481D01*
X17932872Y-10082419D01*
X17935275Y-10082897D01*
X17937725Y-10082897D01*
X17940129Y-10082419D01*
X17942393Y-10081481D01*
X17944430Y-10080119D01*
X17946163Y-10078387D01*
X17947524Y-10076349D01*
X17948462Y-10074085D01*
X17948848Y-10072812D01*
X17953964Y-10063240D01*
X17960850Y-10054850D01*
X17969240Y-10047964D01*
X17978812Y-10042848D01*
X17980086Y-10042462D01*
X17982349Y-10041524D01*
X17984387Y-10040163D01*
X17986119Y-10038430D01*
X17987481Y-10036392D01*
X17988419Y-10034129D01*
X17988897Y-10031725D01*
X17988897Y-10029275D01*
X17988419Y-10026871D01*
X17987481Y-10024608D01*
X17986119Y-10022570D01*
X17984387Y-10020837D01*
X17982349Y-10019476D01*
X17980086Y-10018539D01*
X17978812Y-10018152D01*
X17969240Y-10013036D01*
X17960850Y-10006150D01*
X17953964Y-9997760D01*
X17948848Y-9988188D01*
X17948462Y-9986914D01*
X17947524Y-9984651D01*
X17946163Y-9982613D01*
X17944430Y-9980881D01*
X17942392Y-9979519D01*
X17940129Y-9978581D01*
X17937725Y-9978103D01*
X17935275Y-9978103D01*
X17932871Y-9978582D01*
X17930608Y-9979519D01*
X17928570Y-9980881D01*
X17926837Y-9982613D01*
X17925476Y-9984651D01*
X17924539Y-9986914D01*
X17924152Y-9988188D01*
X17919036Y-9997760D01*
X17912150Y-10006150D01*
X17903760Y-10013036D01*
X17894188Y-10018152D01*
X17892914Y-10018539D01*
X17890651Y-10019476D01*
X17888613Y-10020837D01*
X17886881Y-10022570D01*
X17885519Y-10024608D01*
X17884581Y-10026872D01*
X17884103Y-10029275D01*
X17861897Y-10029275D01*
X17861419Y-10026871D01*
X17860481Y-10024608D01*
X17859119Y-10022570D01*
X17857387Y-10020837D01*
X17855349Y-10019476D01*
X17853086Y-10018539D01*
X17851812Y-10018152D01*
X17842240Y-10013036D01*
X17833850Y-10006150D01*
X17826964Y-9997760D01*
X17821848Y-9988188D01*
X17818697Y-9977802D01*
X17817633Y-9967000D01*
X17818697Y-9956199D01*
X17821848Y-9945812D01*
X17826964Y-9936240D01*
X17833850Y-9927850D01*
X17842240Y-9920964D01*
X17851812Y-9915848D01*
X17862199Y-9912697D01*
X17870293Y-9911900D01*
X17875707Y-9911900D01*
X17883802Y-9912697D01*
X17883802Y-9912697D01*
G37*
G36*
X20394821Y-9870625D02*
X20404265Y-9873490D01*
X20412969Y-9878142D01*
X20420598Y-9884403D01*
X20426858Y-9892031D01*
X20431510Y-9900735D01*
X20434375Y-9910179D01*
X20435342Y-9920000D01*
X20434375Y-9929821D01*
X20431510Y-9939265D01*
X20426858Y-9947969D01*
X20420598Y-9955598D01*
X20412969Y-9961858D01*
X20404265Y-9966510D01*
X20394821Y-9969375D01*
X20387461Y-9970100D01*
X20312539Y-9970100D01*
X20305179Y-9969375D01*
X20295735Y-9966510D01*
X20287031Y-9961858D01*
X20279403Y-9955598D01*
X20273142Y-9947969D01*
X20268490Y-9939265D01*
X20265625Y-9929821D01*
X20264658Y-9920000D01*
X20265625Y-9910179D01*
X20268490Y-9900735D01*
X20273142Y-9892031D01*
X20279403Y-9884403D01*
X20287031Y-9878142D01*
X20295735Y-9873490D01*
X20305179Y-9870625D01*
X20312539Y-9869900D01*
X20387461Y-9869900D01*
X20394821Y-9870625D01*
X20394821Y-9870625D01*
G37*
G36*
X20189614Y-9476825D02*
X20198731Y-9480602D01*
X20206937Y-9486085D01*
X20213915Y-9493063D01*
X20219398Y-9501269D01*
X20223175Y-9510386D01*
X20225100Y-9520066D01*
X20225100Y-9529934D01*
X20223175Y-9539614D01*
X20219398Y-9548731D01*
X20213915Y-9556937D01*
X20206937Y-9563915D01*
X20198731Y-9569398D01*
X20189614Y-9573175D01*
X20179934Y-9575100D01*
X20170066Y-9575100D01*
X20160386Y-9573175D01*
X20151269Y-9569398D01*
X20143063Y-9563915D01*
X20136085Y-9556937D01*
X20130602Y-9548731D01*
X20126825Y-9539614D01*
X20124900Y-9529934D01*
X20124900Y-9520066D01*
X20126825Y-9510386D01*
X20130602Y-9501269D01*
X20136085Y-9493063D01*
X20143063Y-9486085D01*
X20151269Y-9480602D01*
X20160386Y-9476825D01*
X20170066Y-9474900D01*
X20179934Y-9474900D01*
X20189614Y-9476825D01*
X20189614Y-9476825D01*
G37*
G36*
X16585334Y-9134826D02*
X16594413Y-9136632D01*
X16611516Y-9143716D01*
X16611516Y-9143716D01*
X16626909Y-9154001D01*
X16639999Y-9167091D01*
X16639999Y-9167091D01*
X16650284Y-9182484D01*
X16657368Y-9199587D01*
X16660980Y-9217744D01*
X16660980Y-9236256D01*
X16657368Y-9254413D01*
X16650284Y-9271516D01*
X16640138Y-9286701D01*
X16639999Y-9286909D01*
X16626909Y-9299999D01*
X16626909Y-9299999D01*
X16611516Y-9310284D01*
X16594413Y-9317368D01*
X16585335Y-9319174D01*
X16576256Y-9320980D01*
X16557744Y-9320980D01*
X16548665Y-9319174D01*
X16539587Y-9317368D01*
X16522484Y-9310284D01*
X16507091Y-9299999D01*
X16507091Y-9299999D01*
X16494001Y-9286909D01*
X16493862Y-9286701D01*
X16483716Y-9271516D01*
X16476632Y-9254413D01*
X16473020Y-9236256D01*
X16473020Y-9217744D01*
X16476632Y-9199587D01*
X16483716Y-9182484D01*
X16494001Y-9167091D01*
X16494001Y-9167091D01*
X16507091Y-9154001D01*
X16522484Y-9143716D01*
X16522484Y-9143716D01*
X16539587Y-9136632D01*
X16548665Y-9134826D01*
X16557744Y-9133020D01*
X16576256Y-9133020D01*
X16585334Y-9134826D01*
X16585334Y-9134826D01*
G37*
G36*
X18109335Y-9134826D02*
X18118413Y-9136632D01*
X18135516Y-9143716D01*
X18135516Y-9143716D01*
X18150909Y-9154001D01*
X18163999Y-9167091D01*
X18163999Y-9167091D01*
X18174284Y-9182484D01*
X18181368Y-9199587D01*
X18184980Y-9217744D01*
X18184980Y-9236256D01*
X18181368Y-9254413D01*
X18174284Y-9271516D01*
X18164138Y-9286701D01*
X18163999Y-9286909D01*
X18150909Y-9299999D01*
X18150909Y-9299999D01*
X18135516Y-9310284D01*
X18118413Y-9317368D01*
X18109335Y-9319174D01*
X18100256Y-9320980D01*
X18081744Y-9320980D01*
X18072666Y-9319174D01*
X18063587Y-9317368D01*
X18046484Y-9310284D01*
X18031091Y-9299999D01*
X18031091Y-9299999D01*
X18018001Y-9286909D01*
X18017862Y-9286701D01*
X18007716Y-9271516D01*
X18000632Y-9254413D01*
X17997020Y-9236256D01*
X17997020Y-9217744D01*
X18000632Y-9199587D01*
X18007716Y-9182484D01*
X18018001Y-9167091D01*
X18018001Y-9167091D01*
X18031091Y-9154001D01*
X18046484Y-9143716D01*
X18046484Y-9143716D01*
X18063587Y-9136632D01*
X18072666Y-9134826D01*
X18081744Y-9133020D01*
X18100256Y-9133020D01*
X18109335Y-9134826D01*
X18109335Y-9134826D01*
G37*
G36*
X16839335Y-9134826D02*
X16848413Y-9136632D01*
X16865516Y-9143716D01*
X16865516Y-9143716D01*
X16880909Y-9154001D01*
X16893999Y-9167091D01*
X16893999Y-9167091D01*
X16904284Y-9182484D01*
X16911368Y-9199587D01*
X16914980Y-9217744D01*
X16914980Y-9236256D01*
X16911368Y-9254413D01*
X16904284Y-9271516D01*
X16894138Y-9286701D01*
X16893999Y-9286909D01*
X16880909Y-9299999D01*
X16880909Y-9299999D01*
X16865516Y-9310284D01*
X16848413Y-9317368D01*
X16839335Y-9319174D01*
X16830256Y-9320980D01*
X16811744Y-9320980D01*
X16802666Y-9319174D01*
X16793587Y-9317368D01*
X16776484Y-9310284D01*
X16761091Y-9299999D01*
X16761091Y-9299999D01*
X16748001Y-9286909D01*
X16747862Y-9286701D01*
X16737716Y-9271516D01*
X16730632Y-9254413D01*
X16727020Y-9236256D01*
X16727020Y-9217744D01*
X16730632Y-9199587D01*
X16737716Y-9182484D01*
X16748001Y-9167091D01*
X16748001Y-9167091D01*
X16761091Y-9154001D01*
X16776484Y-9143716D01*
X16776484Y-9143716D01*
X16793587Y-9136632D01*
X16802666Y-9134826D01*
X16811744Y-9133020D01*
X16830256Y-9133020D01*
X16839335Y-9134826D01*
X16839335Y-9134826D01*
G37*
G36*
X17093335Y-9134826D02*
X17102413Y-9136632D01*
X17119516Y-9143716D01*
X17119516Y-9143716D01*
X17134909Y-9154001D01*
X17147999Y-9167091D01*
X17147999Y-9167091D01*
X17158284Y-9182484D01*
X17165368Y-9199587D01*
X17168980Y-9217744D01*
X17168980Y-9236256D01*
X17165368Y-9254413D01*
X17158284Y-9271516D01*
X17148138Y-9286701D01*
X17147999Y-9286909D01*
X17134909Y-9299999D01*
X17134909Y-9299999D01*
X17119516Y-9310284D01*
X17102413Y-9317368D01*
X17093335Y-9319174D01*
X17084256Y-9320980D01*
X17065744Y-9320980D01*
X17056666Y-9319174D01*
X17047587Y-9317368D01*
X17030484Y-9310284D01*
X17015091Y-9299999D01*
X17015091Y-9299999D01*
X17002001Y-9286909D01*
X17001862Y-9286701D01*
X16991716Y-9271516D01*
X16984632Y-9254413D01*
X16981020Y-9236256D01*
X16981020Y-9217744D01*
X16984632Y-9199587D01*
X16991716Y-9182484D01*
X17002001Y-9167091D01*
X17002001Y-9167091D01*
X17015091Y-9154001D01*
X17030484Y-9143716D01*
X17030484Y-9143716D01*
X17047587Y-9136632D01*
X17056666Y-9134826D01*
X17065744Y-9133020D01*
X17084256Y-9133020D01*
X17093335Y-9134826D01*
X17093335Y-9134826D01*
G37*
G36*
X17601335Y-9134826D02*
X17610413Y-9136632D01*
X17627516Y-9143716D01*
X17627516Y-9143716D01*
X17642909Y-9154001D01*
X17655999Y-9167091D01*
X17655999Y-9167091D01*
X17666284Y-9182484D01*
X17673368Y-9199587D01*
X17676980Y-9217744D01*
X17676980Y-9236256D01*
X17673368Y-9254413D01*
X17666284Y-9271516D01*
X17656138Y-9286701D01*
X17655999Y-9286909D01*
X17642909Y-9299999D01*
X17642909Y-9299999D01*
X17627516Y-9310284D01*
X17610413Y-9317368D01*
X17601335Y-9319174D01*
X17592256Y-9320980D01*
X17573744Y-9320980D01*
X17564666Y-9319174D01*
X17555587Y-9317368D01*
X17538484Y-9310284D01*
X17523091Y-9299999D01*
X17523091Y-9299999D01*
X17510001Y-9286909D01*
X17509862Y-9286701D01*
X17499716Y-9271516D01*
X17492632Y-9254413D01*
X17489020Y-9236256D01*
X17489020Y-9217744D01*
X17492632Y-9199587D01*
X17499716Y-9182484D01*
X17510001Y-9167091D01*
X17510001Y-9167091D01*
X17523091Y-9154001D01*
X17538484Y-9143716D01*
X17538484Y-9143716D01*
X17555587Y-9136632D01*
X17564666Y-9134826D01*
X17573744Y-9133020D01*
X17592256Y-9133020D01*
X17601335Y-9134826D01*
X17601335Y-9134826D01*
G37*
G36*
X17347335Y-9134826D02*
X17356413Y-9136632D01*
X17373516Y-9143716D01*
X17373516Y-9143716D01*
X17388909Y-9154001D01*
X17401999Y-9167091D01*
X17401999Y-9167091D01*
X17412284Y-9182484D01*
X17419368Y-9199587D01*
X17422980Y-9217744D01*
X17422980Y-9236256D01*
X17419368Y-9254413D01*
X17412284Y-9271516D01*
X17402138Y-9286701D01*
X17401999Y-9286909D01*
X17388909Y-9299999D01*
X17388909Y-9299999D01*
X17373516Y-9310284D01*
X17356413Y-9317368D01*
X17347335Y-9319174D01*
X17338256Y-9320980D01*
X17319744Y-9320980D01*
X17310666Y-9319174D01*
X17301587Y-9317368D01*
X17284484Y-9310284D01*
X17269091Y-9299999D01*
X17269091Y-9299999D01*
X17256001Y-9286909D01*
X17255862Y-9286701D01*
X17245716Y-9271516D01*
X17238632Y-9254413D01*
X17235020Y-9236256D01*
X17235020Y-9217744D01*
X17238632Y-9199587D01*
X17245716Y-9182484D01*
X17256001Y-9167091D01*
X17256001Y-9167091D01*
X17269091Y-9154001D01*
X17284484Y-9143716D01*
X17284484Y-9143716D01*
X17301587Y-9136632D01*
X17310666Y-9134826D01*
X17319744Y-9133020D01*
X17338256Y-9133020D01*
X17347335Y-9134826D01*
X17347335Y-9134826D01*
G37*
G36*
X18871335Y-9134826D02*
X18880413Y-9136632D01*
X18897516Y-9143716D01*
X18897516Y-9143716D01*
X18912909Y-9154001D01*
X18925999Y-9167091D01*
X18925999Y-9167091D01*
X18936284Y-9182484D01*
X18943368Y-9199587D01*
X18946980Y-9217744D01*
X18946980Y-9236256D01*
X18943368Y-9254413D01*
X18936284Y-9271516D01*
X18926138Y-9286701D01*
X18925999Y-9286909D01*
X18912909Y-9299999D01*
X18912909Y-9299999D01*
X18897516Y-9310284D01*
X18880413Y-9317368D01*
X18871335Y-9319174D01*
X18862256Y-9320980D01*
X18843744Y-9320980D01*
X18834666Y-9319174D01*
X18825587Y-9317368D01*
X18808484Y-9310284D01*
X18793091Y-9299999D01*
X18793091Y-9299999D01*
X18780001Y-9286909D01*
X18779862Y-9286701D01*
X18769716Y-9271516D01*
X18762632Y-9254413D01*
X18759020Y-9236256D01*
X18759020Y-9217744D01*
X18762632Y-9199587D01*
X18769716Y-9182484D01*
X18780001Y-9167091D01*
X18780001Y-9167091D01*
X18793091Y-9154001D01*
X18808484Y-9143716D01*
X18808484Y-9143716D01*
X18825587Y-9136632D01*
X18834666Y-9134826D01*
X18843744Y-9133020D01*
X18862256Y-9133020D01*
X18871335Y-9134826D01*
X18871335Y-9134826D01*
G37*
G36*
X19633335Y-9134826D02*
X19642413Y-9136632D01*
X19659516Y-9143716D01*
X19659516Y-9143716D01*
X19674909Y-9154001D01*
X19687999Y-9167091D01*
X19687999Y-9167091D01*
X19698284Y-9182484D01*
X19705368Y-9199587D01*
X19708980Y-9217744D01*
X19708980Y-9236256D01*
X19705368Y-9254413D01*
X19698284Y-9271516D01*
X19688138Y-9286701D01*
X19687999Y-9286909D01*
X19674909Y-9299999D01*
X19674909Y-9299999D01*
X19659516Y-9310284D01*
X19642413Y-9317368D01*
X19633335Y-9319174D01*
X19624256Y-9320980D01*
X19605744Y-9320980D01*
X19596666Y-9319174D01*
X19587587Y-9317368D01*
X19570484Y-9310284D01*
X19555091Y-9299999D01*
X19555091Y-9299999D01*
X19542001Y-9286909D01*
X19541862Y-9286701D01*
X19531716Y-9271516D01*
X19524632Y-9254413D01*
X19521020Y-9236256D01*
X19521020Y-9217744D01*
X19524632Y-9199587D01*
X19531716Y-9182484D01*
X19542001Y-9167091D01*
X19542001Y-9167091D01*
X19555091Y-9154001D01*
X19570484Y-9143716D01*
X19570484Y-9143716D01*
X19587587Y-9136632D01*
X19596666Y-9134826D01*
X19605744Y-9133020D01*
X19624256Y-9133020D01*
X19633335Y-9134826D01*
X19633335Y-9134826D01*
G37*
G36*
X16331334Y-9134826D02*
X16340413Y-9136632D01*
X16357516Y-9143716D01*
X16357516Y-9143716D01*
X16372909Y-9154001D01*
X16385999Y-9167091D01*
X16385999Y-9167091D01*
X16396284Y-9182484D01*
X16403368Y-9199587D01*
X16406980Y-9217744D01*
X16406980Y-9236256D01*
X16403368Y-9254413D01*
X16396284Y-9271516D01*
X16386138Y-9286701D01*
X16385999Y-9286909D01*
X16372909Y-9299999D01*
X16372909Y-9299999D01*
X16357516Y-9310284D01*
X16340413Y-9317368D01*
X16331335Y-9319174D01*
X16322256Y-9320980D01*
X16303744Y-9320980D01*
X16294665Y-9319174D01*
X16285587Y-9317368D01*
X16268484Y-9310284D01*
X16253091Y-9299999D01*
X16253091Y-9299999D01*
X16240001Y-9286909D01*
X16239862Y-9286701D01*
X16229716Y-9271516D01*
X16222632Y-9254413D01*
X16219020Y-9236256D01*
X16219020Y-9217744D01*
X16222632Y-9199587D01*
X16229716Y-9182484D01*
X16240001Y-9167091D01*
X16240001Y-9167091D01*
X16253091Y-9154001D01*
X16268484Y-9143716D01*
X16268484Y-9143716D01*
X16285587Y-9136632D01*
X16294665Y-9134826D01*
X16303744Y-9133020D01*
X16322256Y-9133020D01*
X16331334Y-9134826D01*
X16331334Y-9134826D01*
G37*
G36*
X19125335Y-9134826D02*
X19134413Y-9136632D01*
X19151516Y-9143716D01*
X19151516Y-9143716D01*
X19166909Y-9154001D01*
X19179999Y-9167091D01*
X19179999Y-9167091D01*
X19190284Y-9182484D01*
X19197368Y-9199587D01*
X19200980Y-9217744D01*
X19200980Y-9236256D01*
X19197368Y-9254413D01*
X19190284Y-9271516D01*
X19180138Y-9286701D01*
X19179999Y-9286909D01*
X19166909Y-9299999D01*
X19166909Y-9299999D01*
X19151516Y-9310284D01*
X19134413Y-9317368D01*
X19125335Y-9319174D01*
X19116256Y-9320980D01*
X19097744Y-9320980D01*
X19088666Y-9319174D01*
X19079587Y-9317368D01*
X19062484Y-9310284D01*
X19047091Y-9299999D01*
X19047091Y-9299999D01*
X19034001Y-9286909D01*
X19033862Y-9286701D01*
X19023716Y-9271516D01*
X19016632Y-9254413D01*
X19013020Y-9236256D01*
X19013020Y-9217744D01*
X19016632Y-9199587D01*
X19023716Y-9182484D01*
X19034001Y-9167091D01*
X19034001Y-9167091D01*
X19047091Y-9154001D01*
X19062484Y-9143716D01*
X19062484Y-9143716D01*
X19079587Y-9136632D01*
X19088666Y-9134826D01*
X19097744Y-9133020D01*
X19116256Y-9133020D01*
X19125335Y-9134826D01*
X19125335Y-9134826D01*
G37*
G36*
X16077334Y-9134826D02*
X16086413Y-9136632D01*
X16103516Y-9143716D01*
X16103516Y-9143716D01*
X16118909Y-9154001D01*
X16131999Y-9167091D01*
X16131999Y-9167091D01*
X16142284Y-9182484D01*
X16149368Y-9199587D01*
X16152980Y-9217744D01*
X16152980Y-9236256D01*
X16149368Y-9254413D01*
X16142284Y-9271516D01*
X16132138Y-9286701D01*
X16131999Y-9286909D01*
X16118909Y-9299999D01*
X16118909Y-9299999D01*
X16103516Y-9310284D01*
X16086413Y-9317368D01*
X16077335Y-9319174D01*
X16068256Y-9320980D01*
X16049744Y-9320980D01*
X16040665Y-9319174D01*
X16031587Y-9317368D01*
X16014484Y-9310284D01*
X15999091Y-9299999D01*
X15999091Y-9299999D01*
X15986001Y-9286909D01*
X15985862Y-9286701D01*
X15975716Y-9271516D01*
X15968632Y-9254413D01*
X15965020Y-9236256D01*
X15965020Y-9217744D01*
X15968632Y-9199587D01*
X15975716Y-9182484D01*
X15986001Y-9167091D01*
X15986001Y-9167091D01*
X15999091Y-9154001D01*
X16014484Y-9143716D01*
X16014484Y-9143716D01*
X16031587Y-9136632D01*
X16040665Y-9134826D01*
X16049744Y-9133020D01*
X16068256Y-9133020D01*
X16077334Y-9134826D01*
X16077334Y-9134826D01*
G37*
G36*
X15823334Y-9134826D02*
X15832413Y-9136632D01*
X15849516Y-9143716D01*
X15849516Y-9143716D01*
X15864909Y-9154001D01*
X15877999Y-9167091D01*
X15877999Y-9167091D01*
X15888284Y-9182484D01*
X15895368Y-9199587D01*
X15898980Y-9217744D01*
X15898980Y-9236256D01*
X15895368Y-9254413D01*
X15888284Y-9271516D01*
X15878138Y-9286701D01*
X15877999Y-9286909D01*
X15864909Y-9299999D01*
X15864909Y-9299999D01*
X15849516Y-9310284D01*
X15832413Y-9317368D01*
X15823335Y-9319174D01*
X15814256Y-9320980D01*
X15795744Y-9320980D01*
X15786665Y-9319174D01*
X15777587Y-9317368D01*
X15760484Y-9310284D01*
X15745091Y-9299999D01*
X15745091Y-9299999D01*
X15732001Y-9286909D01*
X15731862Y-9286701D01*
X15721716Y-9271516D01*
X15714632Y-9254413D01*
X15711020Y-9236256D01*
X15711020Y-9217744D01*
X15714632Y-9199587D01*
X15721716Y-9182484D01*
X15732001Y-9167091D01*
X15732001Y-9167091D01*
X15745091Y-9154001D01*
X15760484Y-9143716D01*
X15760484Y-9143716D01*
X15777587Y-9136632D01*
X15786665Y-9134826D01*
X15795744Y-9133020D01*
X15814256Y-9133020D01*
X15823334Y-9134826D01*
X15823334Y-9134826D01*
G37*
G36*
X18617335Y-9134826D02*
X18626413Y-9136632D01*
X18643516Y-9143716D01*
X18643516Y-9143716D01*
X18658909Y-9154001D01*
X18671999Y-9167091D01*
X18671999Y-9167091D01*
X18682284Y-9182484D01*
X18689368Y-9199587D01*
X18692980Y-9217744D01*
X18692980Y-9236256D01*
X18689368Y-9254413D01*
X18682284Y-9271516D01*
X18672138Y-9286701D01*
X18671999Y-9286909D01*
X18658909Y-9299999D01*
X18658909Y-9299999D01*
X18643516Y-9310284D01*
X18626413Y-9317368D01*
X18617335Y-9319174D01*
X18608256Y-9320980D01*
X18589744Y-9320980D01*
X18580666Y-9319174D01*
X18571587Y-9317368D01*
X18554484Y-9310284D01*
X18539091Y-9299999D01*
X18539091Y-9299999D01*
X18526001Y-9286909D01*
X18525862Y-9286701D01*
X18515716Y-9271516D01*
X18508632Y-9254413D01*
X18505020Y-9236256D01*
X18505020Y-9217744D01*
X18508632Y-9199587D01*
X18515716Y-9182484D01*
X18526001Y-9167091D01*
X18526001Y-9167091D01*
X18539091Y-9154001D01*
X18554484Y-9143716D01*
X18554484Y-9143716D01*
X18571587Y-9136632D01*
X18580666Y-9134826D01*
X18589744Y-9133020D01*
X18608256Y-9133020D01*
X18617335Y-9134826D01*
X18617335Y-9134826D01*
G37*
G36*
X18363335Y-9134826D02*
X18372413Y-9136632D01*
X18389516Y-9143716D01*
X18389516Y-9143716D01*
X18404909Y-9154001D01*
X18417999Y-9167091D01*
X18417999Y-9167091D01*
X18428284Y-9182484D01*
X18435368Y-9199587D01*
X18438980Y-9217744D01*
X18438980Y-9236256D01*
X18435368Y-9254413D01*
X18428284Y-9271516D01*
X18418138Y-9286701D01*
X18417999Y-9286909D01*
X18404909Y-9299999D01*
X18404909Y-9299999D01*
X18389516Y-9310284D01*
X18372413Y-9317368D01*
X18363335Y-9319174D01*
X18354256Y-9320980D01*
X18335744Y-9320980D01*
X18326666Y-9319174D01*
X18317587Y-9317368D01*
X18300484Y-9310284D01*
X18285091Y-9299999D01*
X18285091Y-9299999D01*
X18272001Y-9286909D01*
X18271862Y-9286701D01*
X18261716Y-9271516D01*
X18254632Y-9254413D01*
X18251020Y-9236256D01*
X18251020Y-9217744D01*
X18254632Y-9199587D01*
X18261716Y-9182484D01*
X18272001Y-9167091D01*
X18272001Y-9167091D01*
X18285091Y-9154001D01*
X18300484Y-9143716D01*
X18300484Y-9143716D01*
X18317587Y-9136632D01*
X18326666Y-9134826D01*
X18335744Y-9133020D01*
X18354256Y-9133020D01*
X18363335Y-9134826D01*
X18363335Y-9134826D01*
G37*
G36*
X17855335Y-9134826D02*
X17864413Y-9136632D01*
X17881516Y-9143716D01*
X17881516Y-9143716D01*
X17896909Y-9154001D01*
X17909999Y-9167091D01*
X17909999Y-9167091D01*
X17920284Y-9182484D01*
X17927368Y-9199587D01*
X17930980Y-9217744D01*
X17930980Y-9236256D01*
X17927368Y-9254413D01*
X17920284Y-9271516D01*
X17910138Y-9286701D01*
X17909999Y-9286909D01*
X17896909Y-9299999D01*
X17896909Y-9299999D01*
X17881516Y-9310284D01*
X17864413Y-9317368D01*
X17855335Y-9319174D01*
X17846256Y-9320980D01*
X17827744Y-9320980D01*
X17818666Y-9319174D01*
X17809587Y-9317368D01*
X17792484Y-9310284D01*
X17777091Y-9299999D01*
X17777091Y-9299999D01*
X17764001Y-9286909D01*
X17763862Y-9286701D01*
X17753716Y-9271516D01*
X17746632Y-9254413D01*
X17743020Y-9236256D01*
X17743020Y-9217744D01*
X17746632Y-9199587D01*
X17753716Y-9182484D01*
X17764001Y-9167091D01*
X17764001Y-9167091D01*
X17777091Y-9154001D01*
X17792484Y-9143716D01*
X17792484Y-9143716D01*
X17809587Y-9136632D01*
X17818666Y-9134826D01*
X17827744Y-9133020D01*
X17846256Y-9133020D01*
X17855335Y-9134826D01*
X17855335Y-9134826D01*
G37*
G36*
X19379335Y-9134826D02*
X19388413Y-9136632D01*
X19405516Y-9143716D01*
X19405516Y-9143716D01*
X19420909Y-9154001D01*
X19433999Y-9167091D01*
X19433999Y-9167091D01*
X19444284Y-9182484D01*
X19451368Y-9199587D01*
X19454980Y-9217744D01*
X19454980Y-9236256D01*
X19451368Y-9254413D01*
X19444284Y-9271516D01*
X19434138Y-9286701D01*
X19433999Y-9286909D01*
X19420909Y-9299999D01*
X19420909Y-9299999D01*
X19405516Y-9310284D01*
X19388413Y-9317368D01*
X19379335Y-9319174D01*
X19370256Y-9320980D01*
X19351744Y-9320980D01*
X19342666Y-9319174D01*
X19333587Y-9317368D01*
X19316484Y-9310284D01*
X19301091Y-9299999D01*
X19301091Y-9299999D01*
X19288001Y-9286909D01*
X19287862Y-9286701D01*
X19277716Y-9271516D01*
X19270632Y-9254413D01*
X19267020Y-9236256D01*
X19267020Y-9217744D01*
X19270632Y-9199587D01*
X19277716Y-9182484D01*
X19288001Y-9167091D01*
X19288001Y-9167091D01*
X19301091Y-9154001D01*
X19316484Y-9143716D01*
X19316484Y-9143716D01*
X19333587Y-9136632D01*
X19342666Y-9134826D01*
X19351744Y-9133020D01*
X19370256Y-9133020D01*
X19379335Y-9134826D01*
X19379335Y-9134826D01*
G37*
G36*
X20189614Y-9176825D02*
X20198731Y-9180602D01*
X20206937Y-9186085D01*
X20213915Y-9193063D01*
X20219398Y-9201269D01*
X20223175Y-9210386D01*
X20225100Y-9220066D01*
X20225100Y-9229934D01*
X20223175Y-9239614D01*
X20219398Y-9248731D01*
X20213915Y-9256937D01*
X20206937Y-9263915D01*
X20198731Y-9269398D01*
X20189614Y-9273175D01*
X20179934Y-9275100D01*
X20170066Y-9275100D01*
X20160386Y-9273175D01*
X20151269Y-9269398D01*
X20143063Y-9263915D01*
X20136085Y-9256937D01*
X20130602Y-9248731D01*
X20126825Y-9239614D01*
X20124900Y-9229934D01*
X20124900Y-9220066D01*
X20126825Y-9210386D01*
X20130602Y-9201269D01*
X20136085Y-9193063D01*
X20143063Y-9186085D01*
X20151269Y-9180602D01*
X20160386Y-9176825D01*
X20170066Y-9174900D01*
X20179934Y-9174900D01*
X20189614Y-9176825D01*
X20189614Y-9176825D01*
G37*
G36*
X12790100Y-8965100D02*
X12609900Y-8965100D01*
X12609900Y-8784900D01*
X12790100Y-8784900D01*
X12790100Y-8965100D01*
X12790100Y-8965100D01*
G37*
G36*
X12711044Y-8531552D02*
X12717663Y-8532204D01*
X12728985Y-8535638D01*
X12734647Y-8537356D01*
X12748509Y-8544765D01*
X12750299Y-8545722D01*
X12753873Y-8548655D01*
X12764019Y-8556981D01*
X12772345Y-8567127D01*
X12775278Y-8570701D01*
X12775278Y-8570701D01*
X12783644Y-8586353D01*
X12783644Y-8586353D01*
X12788796Y-8603337D01*
X12790536Y-8621000D01*
X12788796Y-8638663D01*
X12785362Y-8649985D01*
X12783644Y-8655647D01*
X12776235Y-8669509D01*
X12775278Y-8671299D01*
X12772345Y-8674873D01*
X12764019Y-8685019D01*
X12753873Y-8693345D01*
X12750299Y-8696278D01*
X12750299Y-8696278D01*
X12734647Y-8704644D01*
X12728985Y-8706362D01*
X12717663Y-8709796D01*
X12711044Y-8710448D01*
X12704426Y-8711100D01*
X12695574Y-8711100D01*
X12688956Y-8710448D01*
X12682337Y-8709796D01*
X12671015Y-8706362D01*
X12665353Y-8704644D01*
X12649701Y-8696278D01*
X12649701Y-8696278D01*
X12646127Y-8693345D01*
X12635981Y-8685019D01*
X12627655Y-8674873D01*
X12624722Y-8671299D01*
X12623765Y-8669509D01*
X12616356Y-8655647D01*
X12614638Y-8649985D01*
X12611204Y-8638663D01*
X12609464Y-8621000D01*
X12611204Y-8603337D01*
X12616356Y-8586353D01*
X12616356Y-8586353D01*
X12624722Y-8570701D01*
X12624722Y-8570701D01*
X12627655Y-8567127D01*
X12635981Y-8556981D01*
X12646127Y-8548655D01*
X12649701Y-8545722D01*
X12651491Y-8544765D01*
X12665353Y-8537356D01*
X12671015Y-8535638D01*
X12682337Y-8532204D01*
X12688956Y-8531552D01*
X12695574Y-8530900D01*
X12704426Y-8530900D01*
X12711044Y-8531552D01*
X12711044Y-8531552D01*
G37*
G36*
X12711044Y-8277552D02*
X12717663Y-8278204D01*
X12728985Y-8281638D01*
X12734647Y-8283356D01*
X12748509Y-8290765D01*
X12750299Y-8291722D01*
X12753873Y-8294655D01*
X12764019Y-8302981D01*
X12772345Y-8313127D01*
X12775278Y-8316701D01*
X12775278Y-8316701D01*
X12783644Y-8332353D01*
X12783644Y-8332353D01*
X12788796Y-8349337D01*
X12790536Y-8367000D01*
X12788796Y-8384663D01*
X12785362Y-8395985D01*
X12783644Y-8401647D01*
X12776235Y-8415509D01*
X12775278Y-8417299D01*
X12772345Y-8420873D01*
X12764019Y-8431019D01*
X12753873Y-8439345D01*
X12750299Y-8442278D01*
X12750299Y-8442278D01*
X12734647Y-8450644D01*
X12728985Y-8452362D01*
X12717663Y-8455796D01*
X12711044Y-8456448D01*
X12704426Y-8457100D01*
X12695574Y-8457100D01*
X12688956Y-8456448D01*
X12682337Y-8455796D01*
X12671015Y-8452362D01*
X12665353Y-8450644D01*
X12649701Y-8442278D01*
X12649701Y-8442278D01*
X12646127Y-8439345D01*
X12635981Y-8431019D01*
X12627655Y-8420873D01*
X12624722Y-8417299D01*
X12623765Y-8415509D01*
X12616356Y-8401647D01*
X12614638Y-8395985D01*
X12611204Y-8384663D01*
X12609464Y-8367000D01*
X12611204Y-8349337D01*
X12616356Y-8332353D01*
X12616356Y-8332353D01*
X12624722Y-8316701D01*
X12624722Y-8316701D01*
X12627655Y-8313127D01*
X12635981Y-8302981D01*
X12646127Y-8294655D01*
X12649701Y-8291722D01*
X12651491Y-8290765D01*
X12665353Y-8283356D01*
X12671015Y-8281638D01*
X12682337Y-8278204D01*
X12688956Y-8277552D01*
X12695574Y-8276900D01*
X12704426Y-8276900D01*
X12711044Y-8277552D01*
X12711044Y-8277552D01*
G37*
G36*
X18758886Y-8035214D02*
X18765262Y-8035842D01*
X18773443Y-8038324D01*
X18777533Y-8039564D01*
X18787549Y-8044918D01*
X18788843Y-8045609D01*
X18798755Y-8053745D01*
X18806891Y-8063657D01*
X18806891Y-8063658D01*
X18812936Y-8074967D01*
X18812936Y-8074967D01*
X18816658Y-8087238D01*
X18817915Y-8100000D01*
X18816658Y-8112762D01*
X18814176Y-8120943D01*
X18812936Y-8125033D01*
X18807582Y-8135049D01*
X18806891Y-8136343D01*
X18798755Y-8146255D01*
X18788843Y-8154390D01*
X18788842Y-8154391D01*
X18777533Y-8160435D01*
X18773443Y-8161676D01*
X18765262Y-8164158D01*
X18758886Y-8164786D01*
X18755697Y-8165100D01*
X18694303Y-8165100D01*
X18691115Y-8164786D01*
X18684738Y-8164158D01*
X18676557Y-8161676D01*
X18672467Y-8160435D01*
X18661158Y-8154391D01*
X18661157Y-8154390D01*
X18651245Y-8146255D01*
X18643110Y-8136343D01*
X18642418Y-8135049D01*
X18637065Y-8125033D01*
X18635824Y-8120943D01*
X18633342Y-8112762D01*
X18632085Y-8100000D01*
X18633342Y-8087238D01*
X18637065Y-8074967D01*
X18637065Y-8074967D01*
X18643109Y-8063658D01*
X18643110Y-8063657D01*
X18651245Y-8053745D01*
X18661157Y-8045609D01*
X18662451Y-8044918D01*
X18672467Y-8039564D01*
X18676557Y-8038324D01*
X18684738Y-8035842D01*
X18691115Y-8035214D01*
X18694303Y-8034900D01*
X18755697Y-8034900D01*
X18758886Y-8035214D01*
X18758886Y-8035214D01*
G37*
G36*
X19508886Y-8035214D02*
X19515262Y-8035842D01*
X19523443Y-8038324D01*
X19527533Y-8039564D01*
X19537549Y-8044918D01*
X19538843Y-8045609D01*
X19548755Y-8053745D01*
X19556891Y-8063657D01*
X19556891Y-8063658D01*
X19562936Y-8074967D01*
X19562936Y-8074967D01*
X19566658Y-8087238D01*
X19567915Y-8100000D01*
X19566658Y-8112762D01*
X19564176Y-8120943D01*
X19562936Y-8125033D01*
X19557582Y-8135049D01*
X19556891Y-8136343D01*
X19548755Y-8146255D01*
X19538843Y-8154390D01*
X19538842Y-8154391D01*
X19527533Y-8160435D01*
X19523443Y-8161676D01*
X19515262Y-8164158D01*
X19508886Y-8164786D01*
X19505697Y-8165100D01*
X19444303Y-8165100D01*
X19441115Y-8164786D01*
X19434738Y-8164158D01*
X19426557Y-8161676D01*
X19422467Y-8160435D01*
X19411158Y-8154391D01*
X19411157Y-8154390D01*
X19401245Y-8146255D01*
X19393110Y-8136343D01*
X19392418Y-8135049D01*
X19387065Y-8125033D01*
X19385824Y-8120943D01*
X19383342Y-8112762D01*
X19382085Y-8100000D01*
X19383342Y-8087238D01*
X19387065Y-8074967D01*
X19387065Y-8074967D01*
X19393109Y-8063658D01*
X19393110Y-8063657D01*
X19401245Y-8053745D01*
X19411157Y-8045609D01*
X19412451Y-8044918D01*
X19422467Y-8039564D01*
X19426557Y-8038324D01*
X19434738Y-8035842D01*
X19441115Y-8035214D01*
X19444303Y-8034900D01*
X19505697Y-8034900D01*
X19508886Y-8035214D01*
X19508886Y-8035214D01*
G37*
G36*
X16508885Y-8035214D02*
X16515262Y-8035842D01*
X16523443Y-8038324D01*
X16527533Y-8039564D01*
X16537549Y-8044918D01*
X16538843Y-8045609D01*
X16548755Y-8053745D01*
X16556890Y-8063657D01*
X16556891Y-8063658D01*
X16562935Y-8074967D01*
X16562935Y-8074967D01*
X16566658Y-8087238D01*
X16567915Y-8100000D01*
X16566658Y-8112762D01*
X16564176Y-8120943D01*
X16562935Y-8125033D01*
X16557582Y-8135049D01*
X16556890Y-8136343D01*
X16548755Y-8146255D01*
X16538843Y-8154390D01*
X16538842Y-8154391D01*
X16527533Y-8160435D01*
X16523443Y-8161676D01*
X16515262Y-8164158D01*
X16508885Y-8164786D01*
X16505697Y-8165100D01*
X16444303Y-8165100D01*
X16441114Y-8164786D01*
X16434738Y-8164158D01*
X16426557Y-8161676D01*
X16422467Y-8160435D01*
X16411158Y-8154391D01*
X16411157Y-8154390D01*
X16401245Y-8146255D01*
X16393109Y-8136343D01*
X16392418Y-8135049D01*
X16387064Y-8125033D01*
X16385824Y-8120943D01*
X16383342Y-8112762D01*
X16382085Y-8100000D01*
X16383342Y-8087238D01*
X16387064Y-8074967D01*
X16387064Y-8074967D01*
X16393109Y-8063658D01*
X16393109Y-8063657D01*
X16401245Y-8053745D01*
X16411157Y-8045609D01*
X16412451Y-8044918D01*
X16422467Y-8039564D01*
X16426557Y-8038324D01*
X16434738Y-8035842D01*
X16441114Y-8035214D01*
X16444303Y-8034900D01*
X16505697Y-8034900D01*
X16508885Y-8035214D01*
X16508885Y-8035214D01*
G37*
G36*
X18008886Y-8035214D02*
X18015262Y-8035842D01*
X18023443Y-8038324D01*
X18027533Y-8039564D01*
X18037549Y-8044918D01*
X18038843Y-8045609D01*
X18048755Y-8053745D01*
X18056891Y-8063657D01*
X18056891Y-8063658D01*
X18062936Y-8074967D01*
X18062936Y-8074967D01*
X18066658Y-8087238D01*
X18067915Y-8100000D01*
X18066658Y-8112762D01*
X18064176Y-8120943D01*
X18062936Y-8125033D01*
X18057582Y-8135049D01*
X18056891Y-8136343D01*
X18048755Y-8146255D01*
X18038843Y-8154390D01*
X18038842Y-8154391D01*
X18027533Y-8160435D01*
X18023443Y-8161676D01*
X18015262Y-8164158D01*
X18008886Y-8164786D01*
X18005697Y-8165100D01*
X17944303Y-8165100D01*
X17941115Y-8164786D01*
X17934738Y-8164158D01*
X17926557Y-8161676D01*
X17922467Y-8160435D01*
X17911158Y-8154391D01*
X17911157Y-8154390D01*
X17901245Y-8146255D01*
X17893110Y-8136343D01*
X17892418Y-8135049D01*
X17887065Y-8125033D01*
X17885824Y-8120943D01*
X17883342Y-8112762D01*
X17882085Y-8100000D01*
X17883342Y-8087238D01*
X17887065Y-8074967D01*
X17887065Y-8074967D01*
X17893109Y-8063658D01*
X17893110Y-8063657D01*
X17901245Y-8053745D01*
X17911157Y-8045609D01*
X17912451Y-8044918D01*
X17922467Y-8039564D01*
X17926557Y-8038324D01*
X17934738Y-8035842D01*
X17941115Y-8035214D01*
X17944303Y-8034900D01*
X18005697Y-8034900D01*
X18008886Y-8035214D01*
X18008886Y-8035214D01*
G37*
G36*
X17258886Y-8035214D02*
X17265262Y-8035842D01*
X17273443Y-8038324D01*
X17277533Y-8039564D01*
X17287549Y-8044918D01*
X17288843Y-8045609D01*
X17298755Y-8053745D01*
X17306891Y-8063657D01*
X17306891Y-8063658D01*
X17312936Y-8074967D01*
X17312936Y-8074967D01*
X17316658Y-8087238D01*
X17317915Y-8100000D01*
X17316658Y-8112762D01*
X17314176Y-8120943D01*
X17312936Y-8125033D01*
X17307582Y-8135049D01*
X17306891Y-8136343D01*
X17298755Y-8146255D01*
X17288843Y-8154390D01*
X17288842Y-8154391D01*
X17277533Y-8160435D01*
X17273443Y-8161676D01*
X17265262Y-8164158D01*
X17258886Y-8164786D01*
X17255697Y-8165100D01*
X17194303Y-8165100D01*
X17191115Y-8164786D01*
X17184738Y-8164158D01*
X17176557Y-8161676D01*
X17172467Y-8160435D01*
X17161158Y-8154391D01*
X17161157Y-8154390D01*
X17151245Y-8146255D01*
X17143110Y-8136343D01*
X17142418Y-8135049D01*
X17137065Y-8125033D01*
X17135824Y-8120943D01*
X17133342Y-8112762D01*
X17132085Y-8100000D01*
X17133342Y-8087238D01*
X17137065Y-8074967D01*
X17137065Y-8074967D01*
X17143109Y-8063658D01*
X17143110Y-8063657D01*
X17151245Y-8053745D01*
X17161157Y-8045609D01*
X17162451Y-8044918D01*
X17172467Y-8039564D01*
X17176557Y-8038324D01*
X17184738Y-8035842D01*
X17191115Y-8035214D01*
X17194303Y-8034900D01*
X17255697Y-8034900D01*
X17258886Y-8035214D01*
X17258886Y-8035214D01*
G37*
G36*
X18758886Y-7835214D02*
X18765262Y-7835842D01*
X18773443Y-7838324D01*
X18777533Y-7839564D01*
X18787549Y-7844918D01*
X18788843Y-7845609D01*
X18798755Y-7853745D01*
X18806891Y-7863657D01*
X18806891Y-7863658D01*
X18812936Y-7874967D01*
X18812936Y-7874967D01*
X18816658Y-7887238D01*
X18817915Y-7900000D01*
X18816658Y-7912762D01*
X18814176Y-7920943D01*
X18812936Y-7925033D01*
X18807582Y-7935049D01*
X18806891Y-7936343D01*
X18798755Y-7946255D01*
X18788843Y-7954390D01*
X18788842Y-7954391D01*
X18777533Y-7960435D01*
X18773443Y-7961676D01*
X18765262Y-7964158D01*
X18758886Y-7964786D01*
X18755697Y-7965100D01*
X18694303Y-7965100D01*
X18691115Y-7964786D01*
X18684738Y-7964158D01*
X18676557Y-7961676D01*
X18672467Y-7960435D01*
X18661158Y-7954391D01*
X18661157Y-7954390D01*
X18651245Y-7946255D01*
X18643110Y-7936343D01*
X18642418Y-7935049D01*
X18637065Y-7925033D01*
X18635824Y-7920943D01*
X18633342Y-7912762D01*
X18632085Y-7900000D01*
X18633342Y-7887238D01*
X18637065Y-7874967D01*
X18637065Y-7874967D01*
X18643109Y-7863658D01*
X18643110Y-7863657D01*
X18651245Y-7853745D01*
X18661157Y-7845609D01*
X18662451Y-7844918D01*
X18672467Y-7839564D01*
X18676557Y-7838324D01*
X18684738Y-7835842D01*
X18691115Y-7835214D01*
X18694303Y-7834900D01*
X18755697Y-7834900D01*
X18758886Y-7835214D01*
X18758886Y-7835214D01*
G37*
G36*
X19508886Y-7835214D02*
X19515262Y-7835842D01*
X19523443Y-7838324D01*
X19527533Y-7839564D01*
X19537549Y-7844918D01*
X19538843Y-7845609D01*
X19548755Y-7853745D01*
X19556891Y-7863657D01*
X19556891Y-7863658D01*
X19562936Y-7874967D01*
X19562936Y-7874967D01*
X19566658Y-7887238D01*
X19567915Y-7900000D01*
X19566658Y-7912762D01*
X19564176Y-7920943D01*
X19562936Y-7925033D01*
X19557582Y-7935049D01*
X19556891Y-7936343D01*
X19548755Y-7946255D01*
X19538843Y-7954390D01*
X19538842Y-7954391D01*
X19527533Y-7960435D01*
X19523443Y-7961676D01*
X19515262Y-7964158D01*
X19508886Y-7964786D01*
X19505697Y-7965100D01*
X19444303Y-7965100D01*
X19441115Y-7964786D01*
X19434738Y-7964158D01*
X19426557Y-7961676D01*
X19422467Y-7960435D01*
X19411158Y-7954391D01*
X19411157Y-7954390D01*
X19401245Y-7946255D01*
X19393110Y-7936343D01*
X19392418Y-7935049D01*
X19387065Y-7925033D01*
X19385824Y-7920943D01*
X19383342Y-7912762D01*
X19382085Y-7900000D01*
X19383342Y-7887238D01*
X19387065Y-7874967D01*
X19387065Y-7874967D01*
X19393109Y-7863658D01*
X19393110Y-7863657D01*
X19401245Y-7853745D01*
X19411157Y-7845609D01*
X19412451Y-7844918D01*
X19422467Y-7839564D01*
X19426557Y-7838324D01*
X19434738Y-7835842D01*
X19441115Y-7835214D01*
X19444303Y-7834900D01*
X19505697Y-7834900D01*
X19508886Y-7835214D01*
X19508886Y-7835214D01*
G37*
G36*
X18008886Y-7835214D02*
X18015262Y-7835842D01*
X18023443Y-7838324D01*
X18027533Y-7839564D01*
X18037549Y-7844918D01*
X18038843Y-7845609D01*
X18048755Y-7853745D01*
X18056891Y-7863657D01*
X18056891Y-7863658D01*
X18062936Y-7874967D01*
X18062936Y-7874967D01*
X18066658Y-7887238D01*
X18067915Y-7900000D01*
X18066658Y-7912762D01*
X18064176Y-7920943D01*
X18062936Y-7925033D01*
X18057582Y-7935049D01*
X18056891Y-7936343D01*
X18048755Y-7946255D01*
X18038843Y-7954390D01*
X18038842Y-7954391D01*
X18027533Y-7960435D01*
X18023443Y-7961676D01*
X18015262Y-7964158D01*
X18008886Y-7964786D01*
X18005697Y-7965100D01*
X17944303Y-7965100D01*
X17941115Y-7964786D01*
X17934738Y-7964158D01*
X17926557Y-7961676D01*
X17922467Y-7960435D01*
X17911158Y-7954391D01*
X17911157Y-7954390D01*
X17901245Y-7946255D01*
X17893110Y-7936343D01*
X17892418Y-7935049D01*
X17887065Y-7925033D01*
X17885824Y-7920943D01*
X17883342Y-7912762D01*
X17882085Y-7900000D01*
X17883342Y-7887238D01*
X17887065Y-7874967D01*
X17887065Y-7874967D01*
X17893109Y-7863658D01*
X17893110Y-7863657D01*
X17901245Y-7853745D01*
X17911157Y-7845609D01*
X17912451Y-7844918D01*
X17922467Y-7839564D01*
X17926557Y-7838324D01*
X17934738Y-7835842D01*
X17941115Y-7835214D01*
X17944303Y-7834900D01*
X18005697Y-7834900D01*
X18008886Y-7835214D01*
X18008886Y-7835214D01*
G37*
G36*
X17258886Y-7835214D02*
X17265262Y-7835842D01*
X17273443Y-7838324D01*
X17277533Y-7839564D01*
X17287549Y-7844918D01*
X17288843Y-7845609D01*
X17298755Y-7853745D01*
X17306891Y-7863657D01*
X17306891Y-7863658D01*
X17312936Y-7874967D01*
X17312936Y-7874967D01*
X17316658Y-7887238D01*
X17317915Y-7900000D01*
X17316658Y-7912762D01*
X17314176Y-7920943D01*
X17312936Y-7925033D01*
X17307582Y-7935049D01*
X17306891Y-7936343D01*
X17298755Y-7946255D01*
X17288843Y-7954390D01*
X17288842Y-7954391D01*
X17277533Y-7960435D01*
X17273443Y-7961676D01*
X17265262Y-7964158D01*
X17258886Y-7964786D01*
X17255697Y-7965100D01*
X17194303Y-7965100D01*
X17191115Y-7964786D01*
X17184738Y-7964158D01*
X17176557Y-7961676D01*
X17172467Y-7960435D01*
X17161158Y-7954391D01*
X17161157Y-7954390D01*
X17151245Y-7946255D01*
X17143110Y-7936343D01*
X17142418Y-7935049D01*
X17137065Y-7925033D01*
X17135824Y-7920943D01*
X17133342Y-7912762D01*
X17132085Y-7900000D01*
X17133342Y-7887238D01*
X17137065Y-7874967D01*
X17137065Y-7874967D01*
X17143109Y-7863658D01*
X17143110Y-7863657D01*
X17151245Y-7853745D01*
X17161157Y-7845609D01*
X17162451Y-7844918D01*
X17172467Y-7839564D01*
X17176557Y-7838324D01*
X17184738Y-7835842D01*
X17191115Y-7835214D01*
X17194303Y-7834900D01*
X17255697Y-7834900D01*
X17258886Y-7835214D01*
X17258886Y-7835214D01*
G37*
G36*
X16508885Y-7835214D02*
X16515262Y-7835842D01*
X16523443Y-7838324D01*
X16527533Y-7839564D01*
X16537549Y-7844918D01*
X16538843Y-7845609D01*
X16548755Y-7853745D01*
X16556890Y-7863657D01*
X16556891Y-7863658D01*
X16562935Y-7874967D01*
X16562935Y-7874967D01*
X16566658Y-7887238D01*
X16567915Y-7900000D01*
X16566658Y-7912762D01*
X16564176Y-7920943D01*
X16562935Y-7925033D01*
X16557582Y-7935049D01*
X16556890Y-7936343D01*
X16548755Y-7946255D01*
X16538843Y-7954390D01*
X16538842Y-7954391D01*
X16527533Y-7960435D01*
X16523443Y-7961676D01*
X16515262Y-7964158D01*
X16508885Y-7964786D01*
X16505697Y-7965100D01*
X16444303Y-7965100D01*
X16441114Y-7964786D01*
X16434738Y-7964158D01*
X16426557Y-7961676D01*
X16422467Y-7960435D01*
X16411158Y-7954391D01*
X16411157Y-7954390D01*
X16401245Y-7946255D01*
X16393109Y-7936343D01*
X16392418Y-7935049D01*
X16387064Y-7925033D01*
X16385824Y-7920943D01*
X16383342Y-7912762D01*
X16382085Y-7900000D01*
X16383342Y-7887238D01*
X16387064Y-7874967D01*
X16387064Y-7874967D01*
X16393109Y-7863658D01*
X16393109Y-7863657D01*
X16401245Y-7853745D01*
X16411157Y-7845609D01*
X16412451Y-7844918D01*
X16422467Y-7839564D01*
X16426557Y-7838324D01*
X16434738Y-7835842D01*
X16441114Y-7835214D01*
X16444303Y-7834900D01*
X16505697Y-7834900D01*
X16508885Y-7835214D01*
X16508885Y-7835214D01*
G37*
G36*
X20152533Y-7476821D02*
X20185309Y-7490397D01*
X20214807Y-7510107D01*
X20239893Y-7535193D01*
X20259603Y-7564691D01*
X20273179Y-7597467D01*
X20280100Y-7632262D01*
X20280100Y-7667738D01*
X20273179Y-7702533D01*
X20259603Y-7735309D01*
X20239893Y-7764807D01*
X20214807Y-7789893D01*
X20185309Y-7809603D01*
X20152533Y-7823179D01*
X20117738Y-7830100D01*
X20082262Y-7830100D01*
X20047467Y-7823179D01*
X20014691Y-7809603D01*
X19985193Y-7789893D01*
X19960107Y-7764807D01*
X19940397Y-7735309D01*
X19926821Y-7702533D01*
X19919900Y-7667738D01*
X19919900Y-7632262D01*
X19926821Y-7597467D01*
X19940397Y-7564691D01*
X19960107Y-7535193D01*
X19985193Y-7510107D01*
X20014691Y-7490397D01*
X20047467Y-7476821D01*
X20082262Y-7469900D01*
X20117738Y-7469900D01*
X20152533Y-7476821D01*
X20152533Y-7476821D01*
G37*
G36*
X12952533Y-7476821D02*
X12985309Y-7490397D01*
X13014807Y-7510107D01*
X13039893Y-7535193D01*
X13059603Y-7564691D01*
X13073179Y-7597467D01*
X13080100Y-7632262D01*
X13080100Y-7667738D01*
X13073179Y-7702533D01*
X13059603Y-7735309D01*
X13039893Y-7764807D01*
X13014807Y-7789893D01*
X12985309Y-7809603D01*
X12952533Y-7823179D01*
X12917738Y-7830100D01*
X12882262Y-7830100D01*
X12847467Y-7823179D01*
X12814691Y-7809603D01*
X12785193Y-7789893D01*
X12760107Y-7764807D01*
X12740397Y-7735309D01*
X12726821Y-7702533D01*
X12719900Y-7667738D01*
X12719900Y-7632262D01*
X12726821Y-7597467D01*
X12740397Y-7564691D01*
X12760107Y-7535193D01*
X12785193Y-7510107D01*
X12814691Y-7490397D01*
X12847467Y-7476821D01*
X12882262Y-7469900D01*
X12917738Y-7469900D01*
X12952533Y-7476821D01*
X12952533Y-7476821D01*
G37*
G36*
X18758886Y-7635214D02*
X18765262Y-7635842D01*
X18773443Y-7638324D01*
X18777533Y-7639564D01*
X18787549Y-7644918D01*
X18788843Y-7645609D01*
X18798755Y-7653745D01*
X18806891Y-7663657D01*
X18806891Y-7663658D01*
X18812936Y-7674967D01*
X18812936Y-7674967D01*
X18816658Y-7687238D01*
X18817915Y-7700000D01*
X18816658Y-7712762D01*
X18814176Y-7720943D01*
X18812936Y-7725033D01*
X18807582Y-7735049D01*
X18806891Y-7736343D01*
X18798755Y-7746255D01*
X18788843Y-7754390D01*
X18788842Y-7754391D01*
X18777533Y-7760435D01*
X18773443Y-7761676D01*
X18765262Y-7764158D01*
X18758886Y-7764786D01*
X18755697Y-7765100D01*
X18694303Y-7765100D01*
X18691115Y-7764786D01*
X18684738Y-7764158D01*
X18676557Y-7761676D01*
X18672467Y-7760435D01*
X18661158Y-7754391D01*
X18661157Y-7754390D01*
X18651245Y-7746255D01*
X18643110Y-7736343D01*
X18642418Y-7735049D01*
X18637065Y-7725033D01*
X18635824Y-7720943D01*
X18633342Y-7712762D01*
X18632085Y-7700000D01*
X18633342Y-7687238D01*
X18637065Y-7674967D01*
X18637065Y-7674967D01*
X18643109Y-7663658D01*
X18643110Y-7663657D01*
X18651245Y-7653745D01*
X18661157Y-7645609D01*
X18662451Y-7644918D01*
X18672467Y-7639564D01*
X18676557Y-7638324D01*
X18684738Y-7635842D01*
X18691115Y-7635214D01*
X18694303Y-7634900D01*
X18755697Y-7634900D01*
X18758886Y-7635214D01*
X18758886Y-7635214D01*
G37*
G36*
X19508886Y-7635214D02*
X19515262Y-7635842D01*
X19523443Y-7638324D01*
X19527533Y-7639564D01*
X19537549Y-7644918D01*
X19538843Y-7645609D01*
X19548755Y-7653745D01*
X19556891Y-7663657D01*
X19556891Y-7663658D01*
X19562936Y-7674967D01*
X19562936Y-7674967D01*
X19566658Y-7687238D01*
X19567915Y-7700000D01*
X19566658Y-7712762D01*
X19564176Y-7720943D01*
X19562936Y-7725033D01*
X19557582Y-7735049D01*
X19556891Y-7736343D01*
X19548755Y-7746255D01*
X19538843Y-7754390D01*
X19538842Y-7754391D01*
X19527533Y-7760435D01*
X19523443Y-7761676D01*
X19515262Y-7764158D01*
X19508886Y-7764786D01*
X19505697Y-7765100D01*
X19444303Y-7765100D01*
X19441115Y-7764786D01*
X19434738Y-7764158D01*
X19426557Y-7761676D01*
X19422467Y-7760435D01*
X19411158Y-7754391D01*
X19411157Y-7754390D01*
X19401245Y-7746255D01*
X19393110Y-7736343D01*
X19392418Y-7735049D01*
X19387065Y-7725033D01*
X19385824Y-7720943D01*
X19383342Y-7712762D01*
X19382085Y-7700000D01*
X19383342Y-7687238D01*
X19387065Y-7674967D01*
X19387065Y-7674967D01*
X19393109Y-7663658D01*
X19393110Y-7663657D01*
X19401245Y-7653745D01*
X19411157Y-7645609D01*
X19412451Y-7644918D01*
X19422467Y-7639564D01*
X19426557Y-7638324D01*
X19434738Y-7635842D01*
X19441115Y-7635214D01*
X19444303Y-7634900D01*
X19505697Y-7634900D01*
X19508886Y-7635214D01*
X19508886Y-7635214D01*
G37*
G36*
X18008886Y-7635214D02*
X18015262Y-7635842D01*
X18023443Y-7638324D01*
X18027533Y-7639564D01*
X18037549Y-7644918D01*
X18038843Y-7645609D01*
X18048755Y-7653745D01*
X18056891Y-7663657D01*
X18056891Y-7663658D01*
X18062936Y-7674967D01*
X18062936Y-7674967D01*
X18066658Y-7687238D01*
X18067915Y-7700000D01*
X18066658Y-7712762D01*
X18064176Y-7720943D01*
X18062936Y-7725033D01*
X18057582Y-7735049D01*
X18056891Y-7736343D01*
X18048755Y-7746255D01*
X18038843Y-7754390D01*
X18038842Y-7754391D01*
X18027533Y-7760435D01*
X18023443Y-7761676D01*
X18015262Y-7764158D01*
X18008886Y-7764786D01*
X18005697Y-7765100D01*
X17944303Y-7765100D01*
X17941115Y-7764786D01*
X17934738Y-7764158D01*
X17926557Y-7761676D01*
X17922467Y-7760435D01*
X17911158Y-7754391D01*
X17911157Y-7754390D01*
X17901245Y-7746255D01*
X17893110Y-7736343D01*
X17892418Y-7735049D01*
X17887065Y-7725033D01*
X17885824Y-7720943D01*
X17883342Y-7712762D01*
X17882085Y-7700000D01*
X17883342Y-7687238D01*
X17887065Y-7674967D01*
X17887065Y-7674967D01*
X17893109Y-7663658D01*
X17893110Y-7663657D01*
X17901245Y-7653745D01*
X17911157Y-7645609D01*
X17912451Y-7644918D01*
X17922467Y-7639564D01*
X17926557Y-7638324D01*
X17934738Y-7635842D01*
X17941115Y-7635214D01*
X17944303Y-7634900D01*
X18005697Y-7634900D01*
X18008886Y-7635214D01*
X18008886Y-7635214D01*
G37*
G36*
X17258886Y-7635214D02*
X17265262Y-7635842D01*
X17273443Y-7638324D01*
X17277533Y-7639564D01*
X17287549Y-7644918D01*
X17288843Y-7645609D01*
X17298755Y-7653745D01*
X17306891Y-7663657D01*
X17306891Y-7663658D01*
X17312936Y-7674967D01*
X17312936Y-7674967D01*
X17316658Y-7687238D01*
X17317915Y-7700000D01*
X17316658Y-7712762D01*
X17314176Y-7720943D01*
X17312936Y-7725033D01*
X17307582Y-7735049D01*
X17306891Y-7736343D01*
X17298755Y-7746255D01*
X17288843Y-7754390D01*
X17288842Y-7754391D01*
X17277533Y-7760435D01*
X17273443Y-7761676D01*
X17265262Y-7764158D01*
X17258886Y-7764786D01*
X17255697Y-7765100D01*
X17194303Y-7765100D01*
X17191115Y-7764786D01*
X17184738Y-7764158D01*
X17176557Y-7761676D01*
X17172467Y-7760435D01*
X17161158Y-7754391D01*
X17161157Y-7754390D01*
X17151245Y-7746255D01*
X17143110Y-7736343D01*
X17142418Y-7735049D01*
X17137065Y-7725033D01*
X17135824Y-7720943D01*
X17133342Y-7712762D01*
X17132085Y-7700000D01*
X17133342Y-7687238D01*
X17137065Y-7674967D01*
X17137065Y-7674967D01*
X17143109Y-7663658D01*
X17143110Y-7663657D01*
X17151245Y-7653745D01*
X17161157Y-7645609D01*
X17162451Y-7644918D01*
X17172467Y-7639564D01*
X17176557Y-7638324D01*
X17184738Y-7635842D01*
X17191115Y-7635214D01*
X17194303Y-7634900D01*
X17255697Y-7634900D01*
X17258886Y-7635214D01*
X17258886Y-7635214D01*
G37*
G36*
X16508885Y-7635214D02*
X16515262Y-7635842D01*
X16523443Y-7638324D01*
X16527533Y-7639564D01*
X16537549Y-7644918D01*
X16538843Y-7645609D01*
X16548755Y-7653745D01*
X16556890Y-7663657D01*
X16556891Y-7663658D01*
X16562935Y-7674967D01*
X16562935Y-7674967D01*
X16566658Y-7687238D01*
X16567915Y-7700000D01*
X16566658Y-7712762D01*
X16564176Y-7720943D01*
X16562935Y-7725033D01*
X16557582Y-7735049D01*
X16556890Y-7736343D01*
X16548755Y-7746255D01*
X16538843Y-7754390D01*
X16538842Y-7754391D01*
X16527533Y-7760435D01*
X16523443Y-7761676D01*
X16515262Y-7764158D01*
X16508885Y-7764786D01*
X16505697Y-7765100D01*
X16444303Y-7765100D01*
X16441114Y-7764786D01*
X16434738Y-7764158D01*
X16426557Y-7761676D01*
X16422467Y-7760435D01*
X16411158Y-7754391D01*
X16411157Y-7754390D01*
X16401245Y-7746255D01*
X16393109Y-7736343D01*
X16392418Y-7735049D01*
X16387064Y-7725033D01*
X16385824Y-7720943D01*
X16383342Y-7712762D01*
X16382085Y-7700000D01*
X16383342Y-7687238D01*
X16387064Y-7674967D01*
X16387064Y-7674967D01*
X16393109Y-7663658D01*
X16393109Y-7663657D01*
X16401245Y-7653745D01*
X16411157Y-7645609D01*
X16412451Y-7644918D01*
X16422467Y-7639564D01*
X16426557Y-7638324D01*
X16434738Y-7635842D01*
X16441114Y-7635214D01*
X16444303Y-7634900D01*
X16505697Y-7634900D01*
X16508885Y-7635214D01*
X16508885Y-7635214D01*
G37*
G36*
X19551624Y-7435340D02*
X19555334Y-7436466D01*
X19558752Y-7438293D01*
X19561748Y-7440752D01*
X19564207Y-7443748D01*
X19566034Y-7447166D01*
X19567160Y-7450876D01*
X19567600Y-7455347D01*
X19567600Y-7544653D01*
X19567160Y-7549124D01*
X19566034Y-7552834D01*
X19564207Y-7556252D01*
X19561748Y-7559248D01*
X19558752Y-7561707D01*
X19555334Y-7563534D01*
X19551624Y-7564660D01*
X19547153Y-7565100D01*
X19402847Y-7565100D01*
X19398376Y-7564660D01*
X19394666Y-7563534D01*
X19391248Y-7561707D01*
X19388252Y-7559248D01*
X19385793Y-7556252D01*
X19383966Y-7552834D01*
X19382840Y-7549124D01*
X19382400Y-7544653D01*
X19382400Y-7455347D01*
X19382840Y-7450876D01*
X19383966Y-7447166D01*
X19385793Y-7443748D01*
X19388252Y-7440752D01*
X19391248Y-7438293D01*
X19394666Y-7436466D01*
X19398376Y-7435340D01*
X19402847Y-7434900D01*
X19547153Y-7434900D01*
X19551624Y-7435340D01*
X19551624Y-7435340D01*
G37*
G36*
X18801624Y-7435340D02*
X18805334Y-7436466D01*
X18808752Y-7438293D01*
X18811748Y-7440752D01*
X18814207Y-7443748D01*
X18816034Y-7447166D01*
X18817160Y-7450876D01*
X18817600Y-7455347D01*
X18817600Y-7544653D01*
X18817160Y-7549124D01*
X18816034Y-7552834D01*
X18814207Y-7556252D01*
X18811748Y-7559248D01*
X18808752Y-7561707D01*
X18805334Y-7563534D01*
X18801624Y-7564660D01*
X18797153Y-7565100D01*
X18652847Y-7565100D01*
X18648376Y-7564660D01*
X18644666Y-7563534D01*
X18641248Y-7561707D01*
X18638252Y-7559248D01*
X18635793Y-7556252D01*
X18633966Y-7552834D01*
X18632840Y-7549124D01*
X18632400Y-7544653D01*
X18632400Y-7455347D01*
X18632840Y-7450876D01*
X18633966Y-7447166D01*
X18635793Y-7443748D01*
X18638252Y-7440752D01*
X18641248Y-7438293D01*
X18644666Y-7436466D01*
X18648376Y-7435340D01*
X18652847Y-7434900D01*
X18797153Y-7434900D01*
X18801624Y-7435340D01*
X18801624Y-7435340D01*
G37*
G36*
X18051624Y-7435340D02*
X18055334Y-7436466D01*
X18058752Y-7438293D01*
X18061748Y-7440752D01*
X18064207Y-7443748D01*
X18066034Y-7447166D01*
X18067160Y-7450876D01*
X18067600Y-7455347D01*
X18067600Y-7544653D01*
X18067160Y-7549124D01*
X18066034Y-7552834D01*
X18064207Y-7556252D01*
X18061748Y-7559248D01*
X18058752Y-7561707D01*
X18055334Y-7563534D01*
X18051624Y-7564660D01*
X18047153Y-7565100D01*
X17902847Y-7565100D01*
X17898376Y-7564660D01*
X17894666Y-7563534D01*
X17891248Y-7561707D01*
X17888252Y-7559248D01*
X17885793Y-7556252D01*
X17883966Y-7552834D01*
X17882840Y-7549124D01*
X17882400Y-7544653D01*
X17882400Y-7455347D01*
X17882840Y-7450876D01*
X17883966Y-7447166D01*
X17885793Y-7443748D01*
X17888252Y-7440752D01*
X17891248Y-7438293D01*
X17894666Y-7436466D01*
X17898376Y-7435340D01*
X17902847Y-7434900D01*
X18047153Y-7434900D01*
X18051624Y-7435340D01*
X18051624Y-7435340D01*
G37*
G36*
X17301624Y-7435340D02*
X17305334Y-7436466D01*
X17308752Y-7438293D01*
X17311748Y-7440752D01*
X17314207Y-7443748D01*
X17316034Y-7447166D01*
X17317160Y-7450876D01*
X17317600Y-7455347D01*
X17317600Y-7544653D01*
X17317160Y-7549124D01*
X17316034Y-7552834D01*
X17314207Y-7556252D01*
X17311748Y-7559248D01*
X17308752Y-7561707D01*
X17305334Y-7563534D01*
X17301624Y-7564660D01*
X17297153Y-7565100D01*
X17152847Y-7565100D01*
X17148376Y-7564660D01*
X17144666Y-7563534D01*
X17141248Y-7561707D01*
X17138252Y-7559248D01*
X17135793Y-7556252D01*
X17133966Y-7552834D01*
X17132840Y-7549124D01*
X17132400Y-7544653D01*
X17132400Y-7455347D01*
X17132840Y-7450876D01*
X17133966Y-7447166D01*
X17135793Y-7443748D01*
X17138252Y-7440752D01*
X17141248Y-7438293D01*
X17144666Y-7436466D01*
X17148376Y-7435340D01*
X17152847Y-7434900D01*
X17297153Y-7434900D01*
X17301624Y-7435340D01*
X17301624Y-7435340D01*
G37*
G36*
X16551624Y-7435340D02*
X16555334Y-7436466D01*
X16558752Y-7438293D01*
X16561748Y-7440752D01*
X16564207Y-7443748D01*
X16566034Y-7447166D01*
X16567160Y-7450876D01*
X16567600Y-7455347D01*
X16567600Y-7544653D01*
X16567160Y-7549124D01*
X16566034Y-7552834D01*
X16564207Y-7556252D01*
X16561748Y-7559248D01*
X16558752Y-7561707D01*
X16555334Y-7563534D01*
X16551624Y-7564660D01*
X16547153Y-7565100D01*
X16402847Y-7565100D01*
X16398376Y-7564660D01*
X16394666Y-7563534D01*
X16391248Y-7561707D01*
X16388252Y-7559248D01*
X16385793Y-7556252D01*
X16383966Y-7552834D01*
X16382840Y-7549124D01*
X16382400Y-7544653D01*
X16382400Y-7455347D01*
X16382840Y-7450876D01*
X16383966Y-7447166D01*
X16385793Y-7443748D01*
X16388252Y-7440752D01*
X16391248Y-7438293D01*
X16394666Y-7436466D01*
X16398376Y-7435340D01*
X16402847Y-7434900D01*
X16547153Y-7434900D01*
X16551624Y-7435340D01*
X16551624Y-7435340D01*
G37*
M02*
