G04 #@! TF.GenerationSoftware,KiCad,Pcbnew,5.1.5-1.fc31*
G04 #@! TF.CreationDate,2020-07-10T22:42:19+07:00*
G04 #@! TF.ProjectId,MP_SamBaseBoard_V1,4d505f53-616d-4426-9173-65426f617264,rev?*
G04 #@! TF.SameCoordinates,Original*
G04 #@! TF.FileFunction,Legend,Top*
G04 #@! TF.FilePolarity,Positive*
%FSLAX45Y45*%
G04 Gerber Fmt 4.5, Leading zero omitted, Abs format (unit mm)*
G04 Created by KiCad (PCBNEW 5.1.5-1.fc31) date 2020-07-10 22:42:19*
%MOMM*%
%LPD*%
G04 APERTURE LIST*
%ADD10C,0.150000*%
%ADD11C,0.200000*%
%ADD12C,0.212500*%
%ADD13C,0.250000*%
%ADD14C,0.185000*%
%ADD15C,0.175000*%
%ADD16C,0.125000*%
%ADD17C,0.162500*%
%ADD18C,0.500000*%
%ADD19C,0.120000*%
%ADD20C,0.100000*%
G04 APERTURE END LIST*
D10*
X16400000Y-8475000D02*
X16450000Y-8425000D01*
X16400000Y-8425000D02*
X16450000Y-8475000D01*
X18575000Y-8350000D02*
X18575000Y-8775000D01*
X18575000Y-8775000D02*
X18750000Y-8775000D01*
X17825000Y-8350000D02*
X17825000Y-8775000D01*
X17825000Y-8775000D02*
X18000000Y-8775000D01*
X17075000Y-8350000D02*
X17075000Y-8775000D01*
X17075000Y-8775000D02*
X17250000Y-8775000D01*
X16325000Y-8775000D02*
X16500000Y-8775000D01*
X16325000Y-8350000D02*
X16325000Y-8775000D01*
X16135355Y-8100000D02*
G75*
G03X16135355Y-8100000I-35355J0D01*
G01*
X16135355Y-7900000D02*
G75*
G03X16135355Y-7900000I-35355J0D01*
G01*
X16106071Y-7732381D02*
X16106071Y-7667619D01*
X16138452Y-7700000D02*
X16073690Y-7700000D01*
X16106071Y-7532381D02*
X16106071Y-7467619D01*
X18851310Y-8528929D02*
X18854405Y-8519643D01*
X18854405Y-8504167D01*
X18851310Y-8497976D01*
X18848214Y-8494881D01*
X18842024Y-8491786D01*
X18835833Y-8491786D01*
X18829643Y-8494881D01*
X18826548Y-8497976D01*
X18823452Y-8504167D01*
X18820357Y-8516548D01*
X18817262Y-8522738D01*
X18814167Y-8525833D01*
X18807976Y-8528929D01*
X18801786Y-8528929D01*
X18795595Y-8525833D01*
X18792500Y-8522738D01*
X18789405Y-8516548D01*
X18789405Y-8501071D01*
X18792500Y-8491786D01*
X18854405Y-8463929D02*
X18789405Y-8463929D01*
X18789405Y-8448452D01*
X18792500Y-8439167D01*
X18798690Y-8432976D01*
X18804881Y-8429881D01*
X18817262Y-8426786D01*
X18826548Y-8426786D01*
X18838929Y-8429881D01*
X18845119Y-8432976D01*
X18851310Y-8439167D01*
X18854405Y-8448452D01*
X18854405Y-8463929D01*
X18835833Y-8402024D02*
X18835833Y-8371071D01*
X18854405Y-8408214D02*
X18789405Y-8386548D01*
X18854405Y-8364881D01*
X18851310Y-8752381D02*
X18854405Y-8743095D01*
X18854405Y-8727619D01*
X18851310Y-8721429D01*
X18848214Y-8718333D01*
X18842024Y-8715238D01*
X18835833Y-8715238D01*
X18829643Y-8718333D01*
X18826548Y-8721429D01*
X18823452Y-8727619D01*
X18820357Y-8740000D01*
X18817262Y-8746190D01*
X18814167Y-8749286D01*
X18807976Y-8752381D01*
X18801786Y-8752381D01*
X18795595Y-8749286D01*
X18792500Y-8746190D01*
X18789405Y-8740000D01*
X18789405Y-8724524D01*
X18792500Y-8715238D01*
X18848214Y-8650238D02*
X18851310Y-8653333D01*
X18854405Y-8662619D01*
X18854405Y-8668810D01*
X18851310Y-8678095D01*
X18845119Y-8684286D01*
X18838929Y-8687381D01*
X18826548Y-8690476D01*
X18817262Y-8690476D01*
X18804881Y-8687381D01*
X18798690Y-8684286D01*
X18792500Y-8678095D01*
X18789405Y-8668810D01*
X18789405Y-8662619D01*
X18792500Y-8653333D01*
X18795595Y-8650238D01*
X18854405Y-8591429D02*
X18854405Y-8622381D01*
X18789405Y-8622381D01*
X18087500Y-8728571D02*
X18087500Y-8692857D01*
X18108929Y-8735714D02*
X18033929Y-8710714D01*
X18108929Y-8685714D01*
X18108929Y-8621429D02*
X18108929Y-8664286D01*
X18108929Y-8642857D02*
X18033929Y-8642857D01*
X18044643Y-8650000D01*
X18051786Y-8657143D01*
X18055357Y-8664286D01*
X18108929Y-8505357D02*
X18033929Y-8505357D01*
X18033929Y-8487500D01*
X18037500Y-8476786D01*
X18044643Y-8469643D01*
X18051786Y-8466071D01*
X18066071Y-8462500D01*
X18076786Y-8462500D01*
X18091071Y-8466071D01*
X18098214Y-8469643D01*
X18105357Y-8476786D01*
X18108929Y-8487500D01*
X18108929Y-8505357D01*
X18033929Y-8416071D02*
X18033929Y-8408929D01*
X18037500Y-8401786D01*
X18041071Y-8398214D01*
X18048214Y-8394643D01*
X18062500Y-8391071D01*
X18080357Y-8391071D01*
X18094643Y-8394643D01*
X18101786Y-8398214D01*
X18105357Y-8401786D01*
X18108929Y-8408929D01*
X18108929Y-8416071D01*
X18105357Y-8423214D01*
X18101786Y-8426786D01*
X18094643Y-8430357D01*
X18080357Y-8433929D01*
X18062500Y-8433929D01*
X18048214Y-8430357D01*
X18041071Y-8426786D01*
X18037500Y-8423214D01*
X18033929Y-8416071D01*
X17358929Y-8505357D02*
X17283929Y-8505357D01*
X17283929Y-8487500D01*
X17287500Y-8476786D01*
X17294643Y-8469643D01*
X17301786Y-8466071D01*
X17316071Y-8462500D01*
X17326786Y-8462500D01*
X17341071Y-8466071D01*
X17348214Y-8469643D01*
X17355357Y-8476786D01*
X17358929Y-8487500D01*
X17358929Y-8505357D01*
X17358929Y-8391071D02*
X17358929Y-8433929D01*
X17358929Y-8412500D02*
X17283929Y-8412500D01*
X17294643Y-8419643D01*
X17301786Y-8426786D01*
X17305357Y-8433929D01*
X17337500Y-8728571D02*
X17337500Y-8692857D01*
X17358929Y-8735714D02*
X17283929Y-8710714D01*
X17358929Y-8685714D01*
X17291071Y-8664286D02*
X17287500Y-8660714D01*
X17283929Y-8653571D01*
X17283929Y-8635714D01*
X17287500Y-8628571D01*
X17291071Y-8625000D01*
X17298214Y-8621429D01*
X17305357Y-8621429D01*
X17316071Y-8625000D01*
X17358929Y-8667857D01*
X17358929Y-8621429D01*
X18710355Y-8450000D02*
G75*
G03X18710355Y-8450000I-35355J0D01*
G01*
X18710355Y-8675000D02*
G75*
G03X18710355Y-8675000I-35355J0D01*
G01*
X17960355Y-8450000D02*
G75*
G03X17960355Y-8450000I-35355J0D01*
G01*
X17960355Y-8675000D02*
G75*
G03X17960355Y-8675000I-35355J0D01*
G01*
X17210355Y-8675000D02*
G75*
G03X17210355Y-8675000I-35355J0D01*
G01*
X17210355Y-8450000D02*
G75*
G03X17210355Y-8450000I-35355J0D01*
G01*
X16587500Y-8728571D02*
X16587500Y-8692857D01*
X16608928Y-8735714D02*
X16533928Y-8710714D01*
X16608928Y-8685714D01*
X16533928Y-8667857D02*
X16533928Y-8621429D01*
X16562500Y-8646429D01*
X16562500Y-8635714D01*
X16566071Y-8628571D01*
X16569643Y-8625000D01*
X16576786Y-8621429D01*
X16594643Y-8621429D01*
X16601786Y-8625000D01*
X16605357Y-8628571D01*
X16608928Y-8635714D01*
X16608928Y-8657143D01*
X16605357Y-8664286D01*
X16601786Y-8667857D01*
X16460355Y-8450000D02*
G75*
G03X16460355Y-8450000I-35355J0D01*
G01*
X16460355Y-8675000D02*
G75*
G03X16460355Y-8675000I-35355J0D01*
G01*
X17000000Y-12470000D02*
X17000000Y-12530000D01*
X16890000Y-12435000D02*
X17000000Y-12375000D01*
X17020000Y-12450000D02*
G75*
G03X17020000Y-12450000I-20000J0D01*
G01*
X16895000Y-12450000D02*
G75*
G03X16895000Y-12450000I-20000J0D01*
G01*
D11*
X14813452Y-9138333D02*
X14813452Y-9178810D01*
X14728452Y-9178810D01*
X14813452Y-9110000D02*
X14728452Y-9110000D01*
X14732500Y-9025000D02*
X14728452Y-9033095D01*
X14728452Y-9045238D01*
X14732500Y-9057381D01*
X14740595Y-9065476D01*
X14748690Y-9069524D01*
X14764881Y-9073571D01*
X14777024Y-9073571D01*
X14793214Y-9069524D01*
X14801309Y-9065476D01*
X14809405Y-9057381D01*
X14813452Y-9045238D01*
X14813452Y-9037143D01*
X14809405Y-9025000D01*
X14805357Y-9020952D01*
X14777024Y-9020952D01*
X14777024Y-9037143D01*
X14813452Y-8984524D02*
X14728452Y-8984524D01*
X14768928Y-8984524D02*
X14768928Y-8935952D01*
X14813452Y-8935952D02*
X14728452Y-8935952D01*
X14728452Y-8907619D02*
X14728452Y-8859048D01*
X14813452Y-8883333D02*
X14728452Y-8883333D01*
D10*
X14550000Y-7275000D02*
X14550000Y-8425000D01*
X14550000Y-8425000D02*
X16000000Y-8425000D01*
X16000000Y-7275000D02*
X16000000Y-8425000D01*
X14550000Y-7275000D02*
X16000000Y-7275000D01*
X19800000Y-9275000D02*
X19825000Y-9325000D01*
X19800000Y-9275000D02*
X19775000Y-9325000D01*
X19800000Y-9275000D02*
X19800000Y-9625000D01*
X19764405Y-9215238D02*
X19764405Y-9202857D01*
X19767500Y-9196667D01*
X19773690Y-9190476D01*
X19786071Y-9187381D01*
X19807738Y-9187381D01*
X19820119Y-9190476D01*
X19826310Y-9196667D01*
X19829405Y-9202857D01*
X19829405Y-9215238D01*
X19826310Y-9221429D01*
X19820119Y-9227619D01*
X19807738Y-9230714D01*
X19786071Y-9230714D01*
X19773690Y-9227619D01*
X19767500Y-9221429D01*
X19764405Y-9215238D01*
X19829405Y-9159524D02*
X19764405Y-9159524D01*
X19829405Y-9122381D01*
X19764405Y-9122381D01*
D12*
X18828452Y-13140714D02*
X18828452Y-13084048D01*
X18913452Y-13120476D01*
X18881071Y-13051667D02*
X18881071Y-12986905D01*
X18913452Y-12901905D02*
X18913452Y-12950476D01*
X18913452Y-12926190D02*
X18828452Y-12926190D01*
X18840595Y-12934286D01*
X18848690Y-12942381D01*
X18852738Y-12950476D01*
X18828452Y-12825000D02*
X18828452Y-12865476D01*
X18868929Y-12869524D01*
X18864881Y-12865476D01*
X18860833Y-12857381D01*
X18860833Y-12837143D01*
X18864881Y-12829048D01*
X18868929Y-12825000D01*
X18877024Y-12820952D01*
X18897262Y-12820952D01*
X18905357Y-12825000D01*
X18909405Y-12829048D01*
X18913452Y-12837143D01*
X18913452Y-12857381D01*
X18909405Y-12865476D01*
X18905357Y-12869524D01*
X18828452Y-12731905D02*
X18913452Y-12703571D01*
X18828452Y-12675238D01*
X18913452Y-12646905D02*
X18828452Y-12646905D01*
X18828452Y-12626667D01*
X18832500Y-12614524D01*
X18840595Y-12606428D01*
X18848690Y-12602381D01*
X18864881Y-12598333D01*
X18877024Y-12598333D01*
X18893214Y-12602381D01*
X18901310Y-12606428D01*
X18909405Y-12614524D01*
X18913452Y-12626667D01*
X18913452Y-12646905D01*
X18905357Y-12513333D02*
X18909405Y-12517381D01*
X18913452Y-12529524D01*
X18913452Y-12537619D01*
X18909405Y-12549762D01*
X18901310Y-12557857D01*
X18893214Y-12561905D01*
X18877024Y-12565952D01*
X18864881Y-12565952D01*
X18848690Y-12561905D01*
X18840595Y-12557857D01*
X18832500Y-12549762D01*
X18828452Y-12537619D01*
X18828452Y-12529524D01*
X18832500Y-12517381D01*
X18836548Y-12513333D01*
D13*
X18658929Y-12572619D02*
X18658929Y-12477381D01*
X18706548Y-12525000D02*
X18611310Y-12525000D01*
X18658929Y-13172619D02*
X18658929Y-13077381D01*
D12*
X19216429Y-12313452D02*
X19175952Y-12313452D01*
X19175952Y-12228452D01*
X19244762Y-12313452D02*
X19244762Y-12256786D01*
X19244762Y-12228452D02*
X19240714Y-12232500D01*
X19244762Y-12236548D01*
X19248810Y-12232500D01*
X19244762Y-12228452D01*
X19244762Y-12236548D01*
X19285238Y-12281071D02*
X19350000Y-12281071D01*
X19390476Y-12313452D02*
X19390476Y-12228452D01*
X19422857Y-12228452D01*
X19430952Y-12232500D01*
X19435000Y-12236548D01*
X19439048Y-12244643D01*
X19439048Y-12256786D01*
X19435000Y-12264881D01*
X19430952Y-12268928D01*
X19422857Y-12272976D01*
X19390476Y-12272976D01*
X19491667Y-12228452D02*
X19507857Y-12228452D01*
X19515952Y-12232500D01*
X19524048Y-12240595D01*
X19528095Y-12256786D01*
X19528095Y-12285119D01*
X19524048Y-12301309D01*
X19515952Y-12309405D01*
X19507857Y-12313452D01*
X19491667Y-12313452D01*
X19483571Y-12309405D01*
X19475476Y-12301309D01*
X19471429Y-12285119D01*
X19471429Y-12256786D01*
X19475476Y-12240595D01*
X19483571Y-12232500D01*
X19491667Y-12228452D01*
D10*
X17175000Y-12350000D02*
X17175000Y-12500000D01*
X16800000Y-12450000D02*
X16855000Y-12450000D01*
X16525000Y-12350000D02*
X17475000Y-12350000D01*
D12*
X17236667Y-12488452D02*
X17236667Y-12403452D01*
X17269048Y-12403452D01*
X17277143Y-12407500D01*
X17281190Y-12411548D01*
X17285238Y-12419643D01*
X17285238Y-12431786D01*
X17281190Y-12439881D01*
X17277143Y-12443928D01*
X17269048Y-12447976D01*
X17236667Y-12447976D01*
X17313571Y-12403452D02*
X17333810Y-12488452D01*
X17350000Y-12427738D01*
X17366190Y-12488452D01*
X17386429Y-12403452D01*
X17467381Y-12488452D02*
X17439048Y-12447976D01*
X17418810Y-12488452D02*
X17418810Y-12403452D01*
X17451190Y-12403452D01*
X17459286Y-12407500D01*
X17463333Y-12411548D01*
X17467381Y-12419643D01*
X17467381Y-12431786D01*
X17463333Y-12439881D01*
X17459286Y-12443928D01*
X17451190Y-12447976D01*
X17418810Y-12447976D01*
X16585238Y-12407500D02*
X16577143Y-12403452D01*
X16565000Y-12403452D01*
X16552857Y-12407500D01*
X16544762Y-12415595D01*
X16540714Y-12423690D01*
X16536667Y-12439881D01*
X16536667Y-12452024D01*
X16540714Y-12468214D01*
X16544762Y-12476309D01*
X16552857Y-12484405D01*
X16565000Y-12488452D01*
X16573095Y-12488452D01*
X16585238Y-12484405D01*
X16589286Y-12480357D01*
X16589286Y-12452024D01*
X16573095Y-12452024D01*
X16625714Y-12488452D02*
X16625714Y-12403452D01*
X16674286Y-12488452D01*
X16674286Y-12403452D01*
X16714762Y-12488452D02*
X16714762Y-12403452D01*
X16735000Y-12403452D01*
X16747143Y-12407500D01*
X16755238Y-12415595D01*
X16759286Y-12423690D01*
X16763333Y-12439881D01*
X16763333Y-12452024D01*
X16759286Y-12468214D01*
X16755238Y-12476309D01*
X16747143Y-12484405D01*
X16735000Y-12488452D01*
X16714762Y-12488452D01*
D14*
X20426786Y-10902261D02*
X20430357Y-10905832D01*
X20433929Y-10916546D01*
X20433929Y-10923689D01*
X20430357Y-10934404D01*
X20423214Y-10941546D01*
X20416071Y-10945118D01*
X20401786Y-10948689D01*
X20391071Y-10948689D01*
X20376786Y-10945118D01*
X20369643Y-10941546D01*
X20362500Y-10934404D01*
X20358929Y-10923689D01*
X20358929Y-10916546D01*
X20362500Y-10905832D01*
X20366071Y-10902261D01*
X20433929Y-10870118D02*
X20358929Y-10870118D01*
X20394643Y-10870118D02*
X20394643Y-10827261D01*
X20433929Y-10827261D02*
X20358929Y-10827261D01*
X20362500Y-10752261D02*
X20358929Y-10759404D01*
X20358929Y-10770118D01*
X20362500Y-10780832D01*
X20369643Y-10787975D01*
X20376786Y-10791546D01*
X20391071Y-10795118D01*
X20401786Y-10795118D01*
X20416071Y-10791546D01*
X20423214Y-10787975D01*
X20430357Y-10780832D01*
X20433929Y-10770118D01*
X20433929Y-10762975D01*
X20430357Y-10752261D01*
X20426786Y-10748689D01*
X20401786Y-10748689D01*
X20401786Y-10762975D01*
X20283929Y-10945118D02*
X20208929Y-10945118D01*
X20208929Y-10916546D01*
X20212500Y-10909404D01*
X20216071Y-10905832D01*
X20223214Y-10902261D01*
X20233929Y-10902261D01*
X20241071Y-10905832D01*
X20244643Y-10909404D01*
X20248214Y-10916546D01*
X20248214Y-10945118D01*
X20212500Y-10830832D02*
X20208929Y-10837975D01*
X20208929Y-10848689D01*
X20212500Y-10859404D01*
X20219643Y-10866546D01*
X20226786Y-10870118D01*
X20241071Y-10873689D01*
X20251786Y-10873689D01*
X20266071Y-10870118D01*
X20273214Y-10866546D01*
X20280357Y-10859404D01*
X20283929Y-10848689D01*
X20283929Y-10841546D01*
X20280357Y-10830832D01*
X20276786Y-10827261D01*
X20251786Y-10827261D01*
X20251786Y-10841546D01*
D10*
X15375000Y-12350000D02*
X15375000Y-12500000D01*
X16100000Y-12350000D02*
X16100000Y-12500000D01*
D11*
X16351602Y-11542614D02*
X16266602Y-11542614D01*
X16266602Y-11522376D01*
X16270650Y-11510233D01*
X16278745Y-11502138D01*
X16286840Y-11498090D01*
X16303031Y-11494043D01*
X16315174Y-11494043D01*
X16331364Y-11498090D01*
X16339459Y-11502138D01*
X16347555Y-11510233D01*
X16351602Y-11522376D01*
X16351602Y-11542614D01*
X16266602Y-11417138D02*
X16266602Y-11457614D01*
X16307078Y-11461662D01*
X16303031Y-11457614D01*
X16298983Y-11449519D01*
X16298983Y-11429281D01*
X16303031Y-11421186D01*
X16307078Y-11417138D01*
X16315174Y-11413090D01*
X16335412Y-11413090D01*
X16343507Y-11417138D01*
X16347555Y-11421186D01*
X16351602Y-11429281D01*
X16351602Y-11449519D01*
X16347555Y-11457614D01*
X16343507Y-11461662D01*
D10*
X15800000Y-12350000D02*
X16400000Y-12350000D01*
X15075000Y-12350000D02*
X15675000Y-12350000D01*
D11*
X16240595Y-12443928D02*
X16252738Y-12447976D01*
X16256786Y-12452024D01*
X16260833Y-12460119D01*
X16260833Y-12472262D01*
X16256786Y-12480357D01*
X16252738Y-12484405D01*
X16244643Y-12488452D01*
X16212262Y-12488452D01*
X16212262Y-12403452D01*
X16240595Y-12403452D01*
X16248690Y-12407500D01*
X16252738Y-12411548D01*
X16256786Y-12419643D01*
X16256786Y-12427738D01*
X16252738Y-12435833D01*
X16248690Y-12439881D01*
X16240595Y-12443928D01*
X16212262Y-12443928D01*
X16341786Y-12488452D02*
X16293214Y-12488452D01*
X16317500Y-12488452D02*
X16317500Y-12403452D01*
X16309405Y-12415595D01*
X16301309Y-12423690D01*
X16293214Y-12427738D01*
X15890595Y-12443928D02*
X15902738Y-12447976D01*
X15906786Y-12452024D01*
X15910833Y-12460119D01*
X15910833Y-12472262D01*
X15906786Y-12480357D01*
X15902738Y-12484405D01*
X15894643Y-12488452D01*
X15862262Y-12488452D01*
X15862262Y-12403452D01*
X15890595Y-12403452D01*
X15898690Y-12407500D01*
X15902738Y-12411548D01*
X15906786Y-12419643D01*
X15906786Y-12427738D01*
X15902738Y-12435833D01*
X15898690Y-12439881D01*
X15890595Y-12443928D01*
X15862262Y-12443928D01*
X15943214Y-12411548D02*
X15947262Y-12407500D01*
X15955357Y-12403452D01*
X15975595Y-12403452D01*
X15983690Y-12407500D01*
X15987738Y-12411548D01*
X15991786Y-12419643D01*
X15991786Y-12427738D01*
X15987738Y-12439881D01*
X15939167Y-12488452D01*
X15991786Y-12488452D01*
X15489286Y-12464167D02*
X15529762Y-12464167D01*
X15481190Y-12488452D02*
X15509524Y-12403452D01*
X15537857Y-12488452D01*
X15562143Y-12411548D02*
X15566190Y-12407500D01*
X15574286Y-12403452D01*
X15594524Y-12403452D01*
X15602619Y-12407500D01*
X15606667Y-12411548D01*
X15610714Y-12419643D01*
X15610714Y-12427738D01*
X15606667Y-12439881D01*
X15558095Y-12488452D01*
X15610714Y-12488452D01*
X15139286Y-12464167D02*
X15179762Y-12464167D01*
X15131190Y-12488452D02*
X15159524Y-12403452D01*
X15187857Y-12488452D01*
X15260714Y-12488452D02*
X15212143Y-12488452D01*
X15236428Y-12488452D02*
X15236428Y-12403452D01*
X15228333Y-12415595D01*
X15220238Y-12423690D01*
X15212143Y-12427738D01*
X15113928Y-12313452D02*
X15113928Y-12228452D01*
X15142262Y-12289167D01*
X15170595Y-12228452D01*
X15170595Y-12313452D01*
X15227262Y-12228452D02*
X15243452Y-12228452D01*
X15251548Y-12232500D01*
X15259643Y-12240595D01*
X15263690Y-12256786D01*
X15263690Y-12285119D01*
X15259643Y-12301309D01*
X15251548Y-12309405D01*
X15243452Y-12313452D01*
X15227262Y-12313452D01*
X15219167Y-12309405D01*
X15211071Y-12301309D01*
X15207024Y-12285119D01*
X15207024Y-12256786D01*
X15211071Y-12240595D01*
X15219167Y-12232500D01*
X15227262Y-12228452D01*
X15287976Y-12228452D02*
X15336548Y-12228452D01*
X15312262Y-12313452D02*
X15312262Y-12228452D01*
X15381071Y-12228452D02*
X15397262Y-12228452D01*
X15405357Y-12232500D01*
X15413452Y-12240595D01*
X15417500Y-12256786D01*
X15417500Y-12285119D01*
X15413452Y-12301309D01*
X15405357Y-12309405D01*
X15397262Y-12313452D01*
X15381071Y-12313452D01*
X15372976Y-12309405D01*
X15364881Y-12301309D01*
X15360833Y-12285119D01*
X15360833Y-12256786D01*
X15364881Y-12240595D01*
X15372976Y-12232500D01*
X15381071Y-12228452D01*
X15502500Y-12313452D02*
X15474167Y-12272976D01*
X15453928Y-12313452D02*
X15453928Y-12228452D01*
X15486309Y-12228452D01*
X15494405Y-12232500D01*
X15498452Y-12236548D01*
X15502500Y-12244643D01*
X15502500Y-12256786D01*
X15498452Y-12264881D01*
X15494405Y-12268928D01*
X15486309Y-12272976D01*
X15453928Y-12272976D01*
X15599643Y-12289167D02*
X15640119Y-12289167D01*
X15591548Y-12313452D02*
X15619881Y-12228452D01*
X15648214Y-12313452D01*
D10*
X13275000Y-12850000D02*
G75*
G03X13275000Y-12850000I-375000J0D01*
G01*
X20471652Y-12850000D02*
G75*
G03X20471652Y-12850000I-371652J0D01*
G01*
X13271652Y-7650000D02*
G75*
G03X13271652Y-7650000I-371652J0D01*
G01*
X20471652Y-7650000D02*
G75*
G03X20471652Y-7650000I-371652J0D01*
G01*
X12832537Y-11329239D02*
G75*
G02X13135000Y-11325000I152463J-85761D01*
G01*
X12871024Y-11351680D02*
G75*
G02X13095000Y-11345000I113976J-63320D01*
G01*
X12903090Y-11368194D02*
G75*
G02X13065000Y-11365000I81910J-46806D01*
G01*
X12935000Y-11385000D02*
G75*
G02X13035000Y-11385000I50000J-30000D01*
G01*
X13007361Y-11415000D02*
G75*
G03X13007361Y-11415000I-22361J0D01*
G01*
D15*
X14043928Y-7991786D02*
X14008214Y-8016786D01*
X14043928Y-8034643D02*
X13968928Y-8034643D01*
X13968928Y-8006071D01*
X13972500Y-7998928D01*
X13976071Y-7995357D01*
X13983214Y-7991786D01*
X13993928Y-7991786D01*
X14001071Y-7995357D01*
X14004643Y-7998928D01*
X14008214Y-8006071D01*
X14008214Y-8034643D01*
X13972500Y-7920357D02*
X13968928Y-7927500D01*
X13968928Y-7938214D01*
X13972500Y-7948928D01*
X13979643Y-7956071D01*
X13986786Y-7959643D01*
X14001071Y-7963214D01*
X14011786Y-7963214D01*
X14026071Y-7959643D01*
X14033214Y-7956071D01*
X14040357Y-7948928D01*
X14043928Y-7938214D01*
X14043928Y-7931071D01*
X14040357Y-7920357D01*
X14036786Y-7916786D01*
X14011786Y-7916786D01*
X14011786Y-7931071D01*
X14004643Y-7859643D02*
X14008214Y-7848928D01*
X14011786Y-7845357D01*
X14018928Y-7841786D01*
X14029643Y-7841786D01*
X14036786Y-7845357D01*
X14040357Y-7848928D01*
X14043928Y-7856071D01*
X14043928Y-7884643D01*
X13968928Y-7884643D01*
X13968928Y-7859643D01*
X13972500Y-7852500D01*
X13976071Y-7848928D01*
X13983214Y-7845357D01*
X13990357Y-7845357D01*
X13997500Y-7848928D01*
X14001071Y-7852500D01*
X14004643Y-7859643D01*
X14004643Y-7884643D01*
X14173928Y-7988214D02*
X14173928Y-8023928D01*
X14098928Y-8023928D01*
X14134643Y-7963214D02*
X14134643Y-7938214D01*
X14173928Y-7927500D02*
X14173928Y-7963214D01*
X14098928Y-7963214D01*
X14098928Y-7927500D01*
X14173928Y-7895357D02*
X14098928Y-7895357D01*
X14098928Y-7877500D01*
X14102500Y-7866786D01*
X14109643Y-7859643D01*
X14116786Y-7856071D01*
X14131071Y-7852500D01*
X14141786Y-7852500D01*
X14156071Y-7856071D01*
X14163214Y-7859643D01*
X14170357Y-7866786D01*
X14173928Y-7877500D01*
X14173928Y-7895357D01*
D10*
X15826309Y-11554988D02*
X15829405Y-11545702D01*
X15829405Y-11530226D01*
X15826309Y-11524036D01*
X15823214Y-11520940D01*
X15817024Y-11517845D01*
X15810833Y-11517845D01*
X15804643Y-11520940D01*
X15801548Y-11524036D01*
X15798452Y-11530226D01*
X15795357Y-11542607D01*
X15792262Y-11548798D01*
X15789167Y-11551893D01*
X15782976Y-11554988D01*
X15776786Y-11554988D01*
X15770595Y-11551893D01*
X15767500Y-11548798D01*
X15764405Y-11542607D01*
X15764405Y-11527131D01*
X15767500Y-11517845D01*
X15829405Y-11489988D02*
X15764405Y-11489988D01*
X15764405Y-11474512D01*
X15767500Y-11465226D01*
X15773690Y-11459036D01*
X15779881Y-11455940D01*
X15792262Y-11452845D01*
X15801548Y-11452845D01*
X15813928Y-11455940D01*
X15820119Y-11459036D01*
X15826309Y-11465226D01*
X15829405Y-11474512D01*
X15829405Y-11489988D01*
X15810833Y-11428083D02*
X15810833Y-11397131D01*
X15829405Y-11434274D02*
X15764405Y-11412607D01*
X15829405Y-11390940D01*
X16087209Y-11551893D02*
X16090305Y-11542607D01*
X16090305Y-11527131D01*
X16087209Y-11520940D01*
X16084114Y-11517845D01*
X16077924Y-11514750D01*
X16071733Y-11514750D01*
X16065543Y-11517845D01*
X16062448Y-11520940D01*
X16059352Y-11527131D01*
X16056257Y-11539512D01*
X16053162Y-11545702D01*
X16050067Y-11548798D01*
X16043876Y-11551893D01*
X16037686Y-11551893D01*
X16031495Y-11548798D01*
X16028400Y-11545702D01*
X16025305Y-11539512D01*
X16025305Y-11524036D01*
X16028400Y-11514750D01*
X16084114Y-11449750D02*
X16087209Y-11452845D01*
X16090305Y-11462131D01*
X16090305Y-11468321D01*
X16087209Y-11477607D01*
X16081019Y-11483798D01*
X16074828Y-11486893D01*
X16062448Y-11489988D01*
X16053162Y-11489988D01*
X16040781Y-11486893D01*
X16034590Y-11483798D01*
X16028400Y-11477607D01*
X16025305Y-11468321D01*
X16025305Y-11462131D01*
X16028400Y-11452845D01*
X16031495Y-11449750D01*
X16090305Y-11390940D02*
X16090305Y-11421893D01*
X16025305Y-11421893D01*
D11*
X16607352Y-11542614D02*
X16522352Y-11542614D01*
X16522352Y-11522376D01*
X16526400Y-11510233D01*
X16534495Y-11502138D01*
X16542590Y-11498090D01*
X16558781Y-11494043D01*
X16570924Y-11494043D01*
X16587114Y-11498090D01*
X16595209Y-11502138D01*
X16603305Y-11510233D01*
X16607352Y-11522376D01*
X16607352Y-11542614D01*
X16522352Y-11421186D02*
X16522352Y-11437376D01*
X16526400Y-11445471D01*
X16530448Y-11449519D01*
X16542590Y-11457614D01*
X16558781Y-11461662D01*
X16591162Y-11461662D01*
X16599257Y-11457614D01*
X16603305Y-11453567D01*
X16607352Y-11445471D01*
X16607352Y-11429281D01*
X16603305Y-11421186D01*
X16599257Y-11417138D01*
X16591162Y-11413090D01*
X16570924Y-11413090D01*
X16562828Y-11417138D01*
X16558781Y-11421186D01*
X16554733Y-11429281D01*
X16554733Y-11445471D01*
X16558781Y-11453567D01*
X16562828Y-11457614D01*
X16570924Y-11461662D01*
X16861352Y-11542614D02*
X16776352Y-11542614D01*
X16776352Y-11522376D01*
X16780400Y-11510233D01*
X16788495Y-11502138D01*
X16796590Y-11498090D01*
X16812781Y-11494043D01*
X16824924Y-11494043D01*
X16841114Y-11498090D01*
X16849210Y-11502138D01*
X16857305Y-11510233D01*
X16861352Y-11522376D01*
X16861352Y-11542614D01*
X16861352Y-11453567D02*
X16861352Y-11437376D01*
X16857305Y-11429281D01*
X16853257Y-11425233D01*
X16841114Y-11417138D01*
X16824924Y-11413090D01*
X16792543Y-11413090D01*
X16784448Y-11417138D01*
X16780400Y-11421186D01*
X16776352Y-11429281D01*
X16776352Y-11445471D01*
X16780400Y-11453567D01*
X16784448Y-11457614D01*
X16792543Y-11461662D01*
X16812781Y-11461662D01*
X16820876Y-11457614D01*
X16824924Y-11453567D01*
X16828971Y-11445471D01*
X16828971Y-11429281D01*
X16824924Y-11421186D01*
X16820876Y-11417138D01*
X16812781Y-11413090D01*
D10*
X17106305Y-11566983D02*
X17041305Y-11566983D01*
X17041305Y-11551507D01*
X17044400Y-11542221D01*
X17050590Y-11536031D01*
X17056781Y-11532936D01*
X17069162Y-11529840D01*
X17078448Y-11529840D01*
X17090829Y-11532936D01*
X17097019Y-11536031D01*
X17103210Y-11542221D01*
X17106305Y-11551507D01*
X17106305Y-11566983D01*
X17106305Y-11467936D02*
X17106305Y-11505078D01*
X17106305Y-11486507D02*
X17041305Y-11486507D01*
X17050590Y-11492698D01*
X17056781Y-11498888D01*
X17059876Y-11505078D01*
X17041305Y-11427698D02*
X17041305Y-11421507D01*
X17044400Y-11415317D01*
X17047495Y-11412221D01*
X17053686Y-11409126D01*
X17066067Y-11406031D01*
X17081543Y-11406031D01*
X17093924Y-11409126D01*
X17100114Y-11412221D01*
X17103210Y-11415317D01*
X17106305Y-11421507D01*
X17106305Y-11427698D01*
X17103210Y-11433888D01*
X17100114Y-11436983D01*
X17093924Y-11440078D01*
X17081543Y-11443174D01*
X17066067Y-11443174D01*
X17053686Y-11440078D01*
X17047495Y-11436983D01*
X17044400Y-11433888D01*
X17041305Y-11427698D01*
X17360305Y-11566983D02*
X17295305Y-11566983D01*
X17295305Y-11551507D01*
X17298400Y-11542221D01*
X17304590Y-11536031D01*
X17310781Y-11532936D01*
X17323162Y-11529840D01*
X17332448Y-11529840D01*
X17344829Y-11532936D01*
X17351019Y-11536031D01*
X17357210Y-11542221D01*
X17360305Y-11551507D01*
X17360305Y-11566983D01*
X17360305Y-11467936D02*
X17360305Y-11505078D01*
X17360305Y-11486507D02*
X17295305Y-11486507D01*
X17304590Y-11492698D01*
X17310781Y-11498888D01*
X17313876Y-11505078D01*
X17360305Y-11406031D02*
X17360305Y-11443174D01*
X17360305Y-11424602D02*
X17295305Y-11424602D01*
X17304590Y-11430793D01*
X17310781Y-11436983D01*
X17313876Y-11443174D01*
D15*
X19548250Y-9088625D02*
X19548250Y-9013625D01*
X19658929Y-9027911D02*
X19623214Y-9052911D01*
X19658929Y-9070768D02*
X19583929Y-9070768D01*
X19583929Y-9042196D01*
X19587500Y-9035054D01*
X19591071Y-9031482D01*
X19598214Y-9027911D01*
X19608929Y-9027911D01*
X19616071Y-9031482D01*
X19619643Y-9035054D01*
X19623214Y-9042196D01*
X19623214Y-9070768D01*
X19548250Y-9013625D02*
X19548250Y-8942196D01*
X19655357Y-8999339D02*
X19658929Y-8988625D01*
X19658929Y-8970768D01*
X19655357Y-8963625D01*
X19651786Y-8960054D01*
X19644643Y-8956482D01*
X19637500Y-8956482D01*
X19630357Y-8960054D01*
X19626786Y-8963625D01*
X19623214Y-8970768D01*
X19619643Y-8985054D01*
X19616071Y-8992196D01*
X19612500Y-8995768D01*
X19605357Y-8999339D01*
X19598214Y-8999339D01*
X19591071Y-8995768D01*
X19587500Y-8992196D01*
X19583929Y-8985054D01*
X19583929Y-8967196D01*
X19587500Y-8956482D01*
X19548250Y-8942196D02*
X19548250Y-8885054D01*
X19583929Y-8935054D02*
X19583929Y-8892196D01*
X19658929Y-8913625D02*
X19583929Y-8913625D01*
X19321829Y-9077911D02*
X19321829Y-9031482D01*
X19350400Y-9056482D01*
X19350400Y-9045768D01*
X19353971Y-9038625D01*
X19357543Y-9035054D01*
X19364686Y-9031482D01*
X19382543Y-9031482D01*
X19389686Y-9035054D01*
X19393257Y-9038625D01*
X19396829Y-9045768D01*
X19396829Y-9067196D01*
X19393257Y-9074339D01*
X19389686Y-9077911D01*
X19346829Y-9006482D02*
X19396829Y-8988625D01*
X19346829Y-8970768D01*
X19321829Y-8949339D02*
X19321829Y-8902911D01*
X19350400Y-8927911D01*
X19350400Y-8917196D01*
X19353971Y-8910054D01*
X19357543Y-8906482D01*
X19364686Y-8902911D01*
X19382543Y-8902911D01*
X19389686Y-8906482D01*
X19393257Y-8910054D01*
X19396829Y-8917196D01*
X19396829Y-8938625D01*
X19393257Y-8945768D01*
X19389686Y-8949339D01*
X19121400Y-9074339D02*
X19121400Y-9038625D01*
X19142829Y-9081482D02*
X19067829Y-9056482D01*
X19142829Y-9031482D01*
X19142829Y-8963625D02*
X19107114Y-8988625D01*
X19142829Y-9006482D02*
X19067829Y-9006482D01*
X19067829Y-8977911D01*
X19071400Y-8970768D01*
X19074971Y-8967196D01*
X19082114Y-8963625D01*
X19092829Y-8963625D01*
X19099971Y-8967196D01*
X19103543Y-8970768D01*
X19107114Y-8977911D01*
X19107114Y-9006482D01*
X19103543Y-8931482D02*
X19103543Y-8906482D01*
X19142829Y-8895768D02*
X19142829Y-8931482D01*
X19067829Y-8931482D01*
X19067829Y-8895768D01*
X19103543Y-8838625D02*
X19103543Y-8863625D01*
X19142829Y-8863625D02*
X19067829Y-8863625D01*
X19067829Y-8827911D01*
X18817400Y-9031482D02*
X18813829Y-9038625D01*
X18813829Y-9049339D01*
X18817400Y-9060054D01*
X18824543Y-9067196D01*
X18831686Y-9070768D01*
X18845971Y-9074339D01*
X18856686Y-9074339D01*
X18870971Y-9070768D01*
X18878114Y-9067196D01*
X18885257Y-9060054D01*
X18888829Y-9049339D01*
X18888829Y-9042196D01*
X18885257Y-9031482D01*
X18881686Y-9027911D01*
X18856686Y-9027911D01*
X18856686Y-9042196D01*
X18888829Y-8995768D02*
X18813829Y-8995768D01*
X18888829Y-8952911D01*
X18813829Y-8952911D01*
X18888829Y-8917196D02*
X18813829Y-8917196D01*
X18813829Y-8899339D01*
X18817400Y-8888625D01*
X18824543Y-8881482D01*
X18831686Y-8877911D01*
X18845971Y-8874339D01*
X18856686Y-8874339D01*
X18870971Y-8877911D01*
X18878114Y-8881482D01*
X18885257Y-8888625D01*
X18888829Y-8899339D01*
X18888829Y-8917196D01*
D11*
X18614167Y-9070810D02*
X18614167Y-9030333D01*
X18638452Y-9078905D02*
X18553452Y-9050571D01*
X18638452Y-9022238D01*
X18553452Y-8977714D02*
X18553452Y-8969619D01*
X18557500Y-8961524D01*
X18561548Y-8957476D01*
X18569643Y-8953429D01*
X18585833Y-8949381D01*
X18606071Y-8949381D01*
X18622262Y-8953429D01*
X18630357Y-8957476D01*
X18634405Y-8961524D01*
X18638452Y-8969619D01*
X18638452Y-8977714D01*
X18634405Y-8985810D01*
X18630357Y-8989857D01*
X18622262Y-8993905D01*
X18606071Y-8997952D01*
X18585833Y-8997952D01*
X18569643Y-8993905D01*
X18561548Y-8989857D01*
X18557500Y-8985810D01*
X18553452Y-8977714D01*
X18361067Y-9070810D02*
X18361067Y-9030333D01*
X18385352Y-9078905D02*
X18300352Y-9050571D01*
X18385352Y-9022238D01*
X18385352Y-8949381D02*
X18385352Y-8997952D01*
X18385352Y-8973667D02*
X18300352Y-8973667D01*
X18312495Y-8981762D01*
X18320590Y-8989857D01*
X18324638Y-8997952D01*
X18107067Y-9070810D02*
X18107067Y-9030333D01*
X18131352Y-9078905D02*
X18046352Y-9050571D01*
X18131352Y-9022238D01*
X18054448Y-8997952D02*
X18050400Y-8993905D01*
X18046352Y-8985810D01*
X18046352Y-8965571D01*
X18050400Y-8957476D01*
X18054448Y-8953429D01*
X18062543Y-8949381D01*
X18070638Y-8949381D01*
X18082781Y-8953429D01*
X18131352Y-9002000D01*
X18131352Y-8949381D01*
X17853067Y-9070810D02*
X17853067Y-9030333D01*
X17877352Y-9078905D02*
X17792352Y-9050571D01*
X17877352Y-9022238D01*
X17792352Y-9002000D02*
X17792352Y-8949381D01*
X17824733Y-8977714D01*
X17824733Y-8965571D01*
X17828781Y-8957476D01*
X17832829Y-8953429D01*
X17840924Y-8949381D01*
X17861162Y-8949381D01*
X17869257Y-8953429D01*
X17873305Y-8957476D01*
X17877352Y-8965571D01*
X17877352Y-8989857D01*
X17873305Y-8997952D01*
X17869257Y-9002000D01*
X17599067Y-9068710D02*
X17599067Y-9028233D01*
X17623352Y-9076805D02*
X17538352Y-9048471D01*
X17623352Y-9020138D01*
X17566686Y-8955376D02*
X17623352Y-8955376D01*
X17534305Y-8975614D02*
X17595019Y-8995852D01*
X17595019Y-8943233D01*
X17345067Y-9068710D02*
X17345067Y-9028233D01*
X17369352Y-9076805D02*
X17284352Y-9048471D01*
X17369352Y-9020138D01*
X17284352Y-8951329D02*
X17284352Y-8991805D01*
X17324829Y-8995852D01*
X17320781Y-8991805D01*
X17316733Y-8983710D01*
X17316733Y-8963471D01*
X17320781Y-8955376D01*
X17324829Y-8951329D01*
X17332924Y-8947281D01*
X17353162Y-8947281D01*
X17361257Y-8951329D01*
X17365305Y-8955376D01*
X17369352Y-8963471D01*
X17369352Y-8983710D01*
X17365305Y-8991805D01*
X17361257Y-8995852D01*
D10*
X17101186Y-9076721D02*
X17104043Y-9068150D01*
X17104043Y-9053864D01*
X17101186Y-9048150D01*
X17098329Y-9045293D01*
X17092614Y-9042436D01*
X17086900Y-9042436D01*
X17081186Y-9045293D01*
X17078329Y-9048150D01*
X17075471Y-9053864D01*
X17072614Y-9065293D01*
X17069757Y-9071007D01*
X17066900Y-9073864D01*
X17061186Y-9076721D01*
X17055471Y-9076721D01*
X17049757Y-9073864D01*
X17046900Y-9071007D01*
X17044043Y-9065293D01*
X17044043Y-9051007D01*
X17046900Y-9042436D01*
X17098329Y-8982436D02*
X17101186Y-8985293D01*
X17104043Y-8993864D01*
X17104043Y-8999579D01*
X17101186Y-9008150D01*
X17095471Y-9013864D01*
X17089757Y-9016721D01*
X17078329Y-9019579D01*
X17069757Y-9019579D01*
X17058329Y-9016721D01*
X17052614Y-9013864D01*
X17046900Y-9008150D01*
X17044043Y-8999579D01*
X17044043Y-8993864D01*
X17046900Y-8985293D01*
X17049757Y-8982436D01*
X17104043Y-8956721D02*
X17044043Y-8956721D01*
X17104043Y-8922436D02*
X17069757Y-8948150D01*
X17044043Y-8922436D02*
X17078329Y-8956721D01*
X16850043Y-9073864D02*
X16790043Y-9073864D01*
X16832900Y-9053864D01*
X16790043Y-9033864D01*
X16850043Y-9033864D01*
X16790043Y-8993864D02*
X16790043Y-8982436D01*
X16792900Y-8976721D01*
X16798614Y-8971007D01*
X16810043Y-8968150D01*
X16830043Y-8968150D01*
X16841471Y-8971007D01*
X16847186Y-8976721D01*
X16850043Y-8982436D01*
X16850043Y-8993864D01*
X16847186Y-8999579D01*
X16841471Y-9005293D01*
X16830043Y-9008150D01*
X16810043Y-9008150D01*
X16798614Y-9005293D01*
X16792900Y-8999579D01*
X16790043Y-8993864D01*
X16847186Y-8945293D02*
X16850043Y-8936721D01*
X16850043Y-8922436D01*
X16847186Y-8916721D01*
X16844329Y-8913864D01*
X16838614Y-8911007D01*
X16832900Y-8911007D01*
X16827186Y-8913864D01*
X16824329Y-8916721D01*
X16821471Y-8922436D01*
X16818614Y-8933864D01*
X16815757Y-8939579D01*
X16812900Y-8942436D01*
X16807186Y-8945293D01*
X16801471Y-8945293D01*
X16795757Y-8942436D01*
X16792900Y-8939579D01*
X16790043Y-8933864D01*
X16790043Y-8919579D01*
X16792900Y-8911007D01*
X16850043Y-8885293D02*
X16790043Y-8885293D01*
X16596043Y-9073864D02*
X16536043Y-9073864D01*
X16578900Y-9053864D01*
X16536043Y-9033864D01*
X16596043Y-9033864D01*
X16596043Y-9005293D02*
X16536043Y-9005293D01*
X16593186Y-8979579D02*
X16596043Y-8971007D01*
X16596043Y-8956721D01*
X16593186Y-8951007D01*
X16590328Y-8948150D01*
X16584614Y-8945293D01*
X16578900Y-8945293D01*
X16573186Y-8948150D01*
X16570328Y-8951007D01*
X16567471Y-8956721D01*
X16564614Y-8968150D01*
X16561757Y-8973864D01*
X16558900Y-8976721D01*
X16553186Y-8979579D01*
X16547471Y-8979579D01*
X16541757Y-8976721D01*
X16538900Y-8973864D01*
X16536043Y-8968150D01*
X16536043Y-8953864D01*
X16538900Y-8945293D01*
X16536043Y-8908150D02*
X16536043Y-8896721D01*
X16538900Y-8891007D01*
X16544614Y-8885293D01*
X16556043Y-8882436D01*
X16576043Y-8882436D01*
X16587471Y-8885293D01*
X16593186Y-8891007D01*
X16596043Y-8896721D01*
X16596043Y-8908150D01*
X16593186Y-8913864D01*
X16587471Y-8919579D01*
X16576043Y-8922436D01*
X16556043Y-8922436D01*
X16544614Y-8919579D01*
X16538900Y-8913864D01*
X16536043Y-8908150D01*
D11*
X16353352Y-9064662D02*
X16268352Y-9064662D01*
X16268352Y-9044424D01*
X16272400Y-9032281D01*
X16280495Y-9024186D01*
X16288590Y-9020138D01*
X16304781Y-9016090D01*
X16316924Y-9016090D01*
X16333114Y-9020138D01*
X16341209Y-9024186D01*
X16349305Y-9032281D01*
X16353352Y-9044424D01*
X16353352Y-9064662D01*
X16268352Y-8963471D02*
X16268352Y-8955376D01*
X16272400Y-8947281D01*
X16276448Y-8943233D01*
X16284543Y-8939186D01*
X16300733Y-8935138D01*
X16320971Y-8935138D01*
X16337162Y-8939186D01*
X16345257Y-8943233D01*
X16349305Y-8947281D01*
X16353352Y-8955376D01*
X16353352Y-8963471D01*
X16349305Y-8971567D01*
X16345257Y-8975614D01*
X16337162Y-8979662D01*
X16320971Y-8983710D01*
X16300733Y-8983710D01*
X16284543Y-8979662D01*
X16276448Y-8975614D01*
X16272400Y-8971567D01*
X16268352Y-8963471D01*
X16099352Y-9064662D02*
X16014352Y-9064662D01*
X16014352Y-9044424D01*
X16018400Y-9032281D01*
X16026495Y-9024186D01*
X16034590Y-9020138D01*
X16050781Y-9016090D01*
X16062924Y-9016090D01*
X16079114Y-9020138D01*
X16087209Y-9024186D01*
X16095305Y-9032281D01*
X16099352Y-9044424D01*
X16099352Y-9064662D01*
X16099352Y-8935138D02*
X16099352Y-8983710D01*
X16099352Y-8959424D02*
X16014352Y-8959424D01*
X16026495Y-8967519D01*
X16034590Y-8975614D01*
X16038638Y-8983710D01*
X15845352Y-9064662D02*
X15760352Y-9064662D01*
X15760352Y-9044424D01*
X15764400Y-9032281D01*
X15772495Y-9024186D01*
X15780590Y-9020138D01*
X15796781Y-9016090D01*
X15808924Y-9016090D01*
X15825114Y-9020138D01*
X15833209Y-9024186D01*
X15841305Y-9032281D01*
X15845352Y-9044424D01*
X15845352Y-9064662D01*
X15788686Y-8943233D02*
X15845352Y-8943233D01*
X15756305Y-8963471D02*
X15817019Y-8983710D01*
X15817019Y-8931090D01*
D10*
X17614305Y-11566983D02*
X17549305Y-11566983D01*
X17549305Y-11551507D01*
X17552400Y-11542221D01*
X17558590Y-11536031D01*
X17564781Y-11532936D01*
X17577162Y-11529840D01*
X17586448Y-11529840D01*
X17598829Y-11532936D01*
X17605019Y-11536031D01*
X17611210Y-11542221D01*
X17614305Y-11551507D01*
X17614305Y-11566983D01*
X17614305Y-11467936D02*
X17614305Y-11505078D01*
X17614305Y-11486507D02*
X17549305Y-11486507D01*
X17558590Y-11492698D01*
X17564781Y-11498888D01*
X17567876Y-11505078D01*
X17555495Y-11443174D02*
X17552400Y-11440078D01*
X17549305Y-11433888D01*
X17549305Y-11418412D01*
X17552400Y-11412221D01*
X17555495Y-11409126D01*
X17561686Y-11406031D01*
X17567876Y-11406031D01*
X17577162Y-11409126D01*
X17614305Y-11446269D01*
X17614305Y-11406031D01*
D11*
X19657000Y-8723900D02*
X19692000Y-8688900D01*
X19657000Y-8723900D02*
X19642000Y-8673900D01*
X19657000Y-8723900D02*
G75*
G02X19757000Y-8823900I100000J0D01*
G01*
D16*
X19060000Y-9900714D02*
X19060000Y-9872143D01*
X19077143Y-9906429D02*
X19017143Y-9886429D01*
X19077143Y-9866429D01*
X19071429Y-9812143D02*
X19074286Y-9815000D01*
X19077143Y-9823571D01*
X19077143Y-9829286D01*
X19074286Y-9837857D01*
X19068571Y-9843571D01*
X19062857Y-9846429D01*
X19051429Y-9849286D01*
X19042857Y-9849286D01*
X19031429Y-9846429D01*
X19025714Y-9843571D01*
X19020000Y-9837857D01*
X19017143Y-9829286D01*
X19017143Y-9823571D01*
X19020000Y-9815000D01*
X19022857Y-9812143D01*
X19071429Y-9752143D02*
X19074286Y-9755000D01*
X19077143Y-9763571D01*
X19077143Y-9769286D01*
X19074286Y-9777857D01*
X19068571Y-9783571D01*
X19062857Y-9786429D01*
X19051429Y-9789286D01*
X19042857Y-9789286D01*
X19031429Y-9786429D01*
X19025714Y-9783571D01*
X19020000Y-9777857D01*
X19017143Y-9769286D01*
X19017143Y-9763571D01*
X19020000Y-9755000D01*
X19022857Y-9752143D01*
X19045714Y-9726429D02*
X19045714Y-9706429D01*
X19077143Y-9697857D02*
X19077143Y-9726429D01*
X19017143Y-9726429D01*
X19017143Y-9697857D01*
X19077143Y-9643571D02*
X19077143Y-9672143D01*
X19017143Y-9672143D01*
D10*
X18465000Y-9855000D02*
X18440000Y-9880000D01*
X18448122Y-9995019D02*
G75*
G02X18444495Y-9856484I26878J70019D01*
G01*
D17*
X18671905Y-9996667D02*
X18671905Y-9953333D01*
X18736905Y-9996667D01*
X18736905Y-9953333D01*
X18589405Y-9571667D02*
X18654405Y-9528333D01*
X18589405Y-9528333D02*
X18654405Y-9571667D01*
D10*
X18625000Y-9997500D02*
X18595000Y-10007500D01*
X18625000Y-9995000D02*
X18600000Y-9970000D01*
X18625000Y-9995711D02*
G75*
G02X18675000Y-9875000I0J70711D01*
G01*
X18465000Y-9855000D02*
X18425000Y-9845000D01*
X18695000Y-9765000D02*
X18710000Y-9730000D01*
X18670000Y-9740000D02*
X18695000Y-9765000D01*
X18695000Y-9765000D02*
X18670000Y-9740000D01*
X18625000Y-9600000D02*
X18650000Y-9650000D01*
X18600000Y-9650000D02*
X18625000Y-9600000D01*
X18554982Y-9748122D02*
G75*
G02X18693516Y-9744495I70019J-26878D01*
G01*
D17*
X18223452Y-9925000D02*
X18254405Y-9925000D01*
X18189405Y-9946667D02*
X18223452Y-9925000D01*
X18189405Y-9903333D01*
D10*
X18300000Y-9925000D02*
X18350000Y-9900000D01*
X18600000Y-9925000D02*
X18300000Y-9925000D01*
X18350000Y-9950000D02*
X18300000Y-9925000D01*
X18625000Y-9900000D02*
X18625000Y-9600000D01*
X18650000Y-9925000D02*
G75*
G03X18650000Y-9925000I-25000J0D01*
G01*
X15109643Y-11663214D02*
X15113214Y-11652500D01*
X15116786Y-11648928D01*
X15123928Y-11645357D01*
X15134643Y-11645357D01*
X15141786Y-11648928D01*
X15145357Y-11652500D01*
X15148928Y-11659643D01*
X15148928Y-11688214D01*
X15073928Y-11688214D01*
X15073928Y-11663214D01*
X15077500Y-11656071D01*
X15081071Y-11652500D01*
X15088214Y-11648928D01*
X15095357Y-11648928D01*
X15102500Y-11652500D01*
X15106071Y-11656071D01*
X15109643Y-11663214D01*
X15109643Y-11688214D01*
X15148928Y-11577500D02*
X15148928Y-11613214D01*
X15073928Y-11613214D01*
X15073928Y-11552500D02*
X15134643Y-11552500D01*
X15141786Y-11548928D01*
X15145357Y-11545357D01*
X15148928Y-11538214D01*
X15148928Y-11523928D01*
X15145357Y-11516786D01*
X15141786Y-11513214D01*
X15134643Y-11509643D01*
X15073928Y-11509643D01*
X15109643Y-11473928D02*
X15109643Y-11448928D01*
X15148928Y-11438214D02*
X15148928Y-11473928D01*
X15073928Y-11473928D01*
X15073928Y-11438214D01*
X14878928Y-11643214D02*
X14843214Y-11668214D01*
X14878928Y-11686071D02*
X14803928Y-11686071D01*
X14803928Y-11657500D01*
X14807500Y-11650357D01*
X14811071Y-11646786D01*
X14818214Y-11643214D01*
X14828928Y-11643214D01*
X14836071Y-11646786D01*
X14839643Y-11650357D01*
X14843214Y-11657500D01*
X14843214Y-11686071D01*
X14839643Y-11611071D02*
X14839643Y-11586071D01*
X14878928Y-11575357D02*
X14878928Y-11611071D01*
X14803928Y-11611071D01*
X14803928Y-11575357D01*
X14878928Y-11543214D02*
X14803928Y-11543214D01*
X14803928Y-11525357D01*
X14807500Y-11514643D01*
X14814643Y-11507500D01*
X14821786Y-11503928D01*
X14836071Y-11500357D01*
X14846786Y-11500357D01*
X14861071Y-11503928D01*
X14868214Y-11507500D01*
X14875357Y-11514643D01*
X14878928Y-11525357D01*
X14878928Y-11543214D01*
X14527500Y-11650000D02*
X14523928Y-11657143D01*
X14523928Y-11667857D01*
X14527500Y-11678571D01*
X14534643Y-11685714D01*
X14541786Y-11689286D01*
X14556071Y-11692857D01*
X14566786Y-11692857D01*
X14581071Y-11689286D01*
X14588214Y-11685714D01*
X14595357Y-11678571D01*
X14598928Y-11667857D01*
X14598928Y-11660714D01*
X14595357Y-11650000D01*
X14591786Y-11646428D01*
X14566786Y-11646428D01*
X14566786Y-11660714D01*
X14598928Y-11571428D02*
X14563214Y-11596428D01*
X14598928Y-11614286D02*
X14523928Y-11614286D01*
X14523928Y-11585714D01*
X14527500Y-11578571D01*
X14531071Y-11575000D01*
X14538214Y-11571428D01*
X14548928Y-11571428D01*
X14556071Y-11575000D01*
X14559643Y-11578571D01*
X14563214Y-11585714D01*
X14563214Y-11614286D01*
X14559643Y-11539286D02*
X14559643Y-11514286D01*
X14598928Y-11503571D02*
X14598928Y-11539286D01*
X14523928Y-11539286D01*
X14523928Y-11503571D01*
X14559643Y-11471428D02*
X14559643Y-11446428D01*
X14598928Y-11435714D02*
X14598928Y-11471428D01*
X14523928Y-11471428D01*
X14523928Y-11435714D01*
X14598928Y-11403571D02*
X14523928Y-11403571D01*
X14598928Y-11360714D01*
X14523928Y-11360714D01*
D13*
X16867857Y-8285714D02*
X16717857Y-8285714D01*
X16717857Y-8228571D01*
X16725000Y-8214286D01*
X16732143Y-8207143D01*
X16746428Y-8200000D01*
X16767857Y-8200000D01*
X16782143Y-8207143D01*
X16789286Y-8214286D01*
X16796429Y-8228571D01*
X16796429Y-8285714D01*
X16717857Y-8150000D02*
X16717857Y-8057143D01*
X16775000Y-8107143D01*
X16775000Y-8085714D01*
X16782143Y-8071428D01*
X16789286Y-8064286D01*
X16803571Y-8057143D01*
X16839286Y-8057143D01*
X16853571Y-8064286D01*
X16860714Y-8071428D01*
X16867857Y-8085714D01*
X16867857Y-8128571D01*
X16860714Y-8142857D01*
X16853571Y-8150000D01*
X17617857Y-8285714D02*
X17467857Y-8285714D01*
X17467857Y-8228571D01*
X17475000Y-8214286D01*
X17482143Y-8207143D01*
X17496429Y-8200000D01*
X17517857Y-8200000D01*
X17532143Y-8207143D01*
X17539286Y-8214286D01*
X17546429Y-8228571D01*
X17546429Y-8285714D01*
X17482143Y-8142857D02*
X17475000Y-8135714D01*
X17467857Y-8121428D01*
X17467857Y-8085714D01*
X17475000Y-8071428D01*
X17482143Y-8064286D01*
X17496429Y-8057143D01*
X17510714Y-8057143D01*
X17532143Y-8064286D01*
X17617857Y-8150000D01*
X17617857Y-8057143D01*
X18367857Y-8285714D02*
X18217857Y-8285714D01*
X18217857Y-8228571D01*
X18225000Y-8214286D01*
X18232143Y-8207143D01*
X18246429Y-8200000D01*
X18267857Y-8200000D01*
X18282143Y-8207143D01*
X18289286Y-8214286D01*
X18296429Y-8228571D01*
X18296429Y-8285714D01*
X18367857Y-8057143D02*
X18367857Y-8142857D01*
X18367857Y-8100000D02*
X18217857Y-8100000D01*
X18239286Y-8114286D01*
X18253571Y-8128571D01*
X18260714Y-8142857D01*
X19117857Y-8296428D02*
X18967857Y-8296428D01*
X18982143Y-8232143D02*
X18975000Y-8225000D01*
X18967857Y-8210714D01*
X18967857Y-8175000D01*
X18975000Y-8160714D01*
X18982143Y-8153571D01*
X18996429Y-8146428D01*
X19010714Y-8146428D01*
X19032143Y-8153571D01*
X19117857Y-8239286D01*
X19117857Y-8146428D01*
X19103571Y-7996428D02*
X19110714Y-8003571D01*
X19117857Y-8025000D01*
X19117857Y-8039286D01*
X19110714Y-8060714D01*
X19096429Y-8075000D01*
X19082143Y-8082143D01*
X19053571Y-8089286D01*
X19032143Y-8089286D01*
X19003571Y-8082143D01*
X18989286Y-8075000D01*
X18975000Y-8060714D01*
X18967857Y-8039286D01*
X18967857Y-8025000D01*
X18975000Y-8003571D01*
X18982143Y-7996428D01*
X19867857Y-8296428D02*
X19717857Y-8296428D01*
X19732143Y-8232143D02*
X19725000Y-8225000D01*
X19717857Y-8210714D01*
X19717857Y-8175000D01*
X19725000Y-8160714D01*
X19732143Y-8153571D01*
X19746429Y-8146428D01*
X19760714Y-8146428D01*
X19782143Y-8153571D01*
X19867857Y-8239286D01*
X19867857Y-8146428D01*
X19853571Y-7996428D02*
X19860714Y-8003571D01*
X19867857Y-8025000D01*
X19867857Y-8039286D01*
X19860714Y-8060714D01*
X19846429Y-8075000D01*
X19832143Y-8082143D01*
X19803571Y-8089286D01*
X19782143Y-8089286D01*
X19753571Y-8082143D01*
X19739286Y-8075000D01*
X19725000Y-8060714D01*
X19717857Y-8039286D01*
X19717857Y-8025000D01*
X19725000Y-8003571D01*
X19732143Y-7996428D01*
D11*
X15613452Y-9116071D02*
X15528452Y-9116071D01*
X15589167Y-9087738D01*
X15528452Y-9059405D01*
X15613452Y-9059405D01*
X15613452Y-9018929D02*
X15528452Y-9018929D01*
X15605357Y-8929881D02*
X15609405Y-8933929D01*
X15613452Y-8946071D01*
X15613452Y-8954167D01*
X15609405Y-8966310D01*
X15601309Y-8974405D01*
X15593214Y-8978452D01*
X15577024Y-8982500D01*
X15564881Y-8982500D01*
X15548690Y-8978452D01*
X15540595Y-8974405D01*
X15532500Y-8966310D01*
X15528452Y-8954167D01*
X15528452Y-8946071D01*
X15532500Y-8933929D01*
X15536548Y-8929881D01*
X19838452Y-9883095D02*
X19797976Y-9911429D01*
X19838452Y-9931667D02*
X19753452Y-9931667D01*
X19753452Y-9899286D01*
X19757500Y-9891190D01*
X19761548Y-9887143D01*
X19769643Y-9883095D01*
X19781786Y-9883095D01*
X19789881Y-9887143D01*
X19793929Y-9891190D01*
X19797976Y-9899286D01*
X19797976Y-9931667D01*
X19838452Y-9854762D02*
X19781786Y-9810238D01*
X19781786Y-9854762D02*
X19838452Y-9810238D01*
X19753452Y-10108690D02*
X19753452Y-10060119D01*
X19838452Y-10084405D02*
X19753452Y-10084405D01*
X19838452Y-10039881D02*
X19781786Y-9995357D01*
X19781786Y-10039881D02*
X19838452Y-9995357D01*
D15*
X14628571Y-12291071D02*
X14632143Y-12287500D01*
X14639286Y-12283928D01*
X14657143Y-12283928D01*
X14664286Y-12287500D01*
X14667857Y-12291071D01*
X14671428Y-12298214D01*
X14671428Y-12305357D01*
X14667857Y-12316071D01*
X14625000Y-12358928D01*
X14671428Y-12358928D01*
D11*
X13415476Y-8383333D02*
X13420238Y-8369048D01*
X13420238Y-8345238D01*
X13415476Y-8335714D01*
X13410714Y-8330952D01*
X13401190Y-8326190D01*
X13391667Y-8326190D01*
X13382143Y-8330952D01*
X13377381Y-8335714D01*
X13372619Y-8345238D01*
X13367857Y-8364286D01*
X13363095Y-8373809D01*
X13358333Y-8378571D01*
X13348809Y-8383333D01*
X13339286Y-8383333D01*
X13329762Y-8378571D01*
X13325000Y-8373809D01*
X13320238Y-8364286D01*
X13320238Y-8340476D01*
X13325000Y-8326190D01*
X13320238Y-8292857D02*
X13420238Y-8269048D01*
X13348809Y-8250000D01*
X13420238Y-8230952D01*
X13320238Y-8207143D01*
X13420238Y-8116667D02*
X13420238Y-8173809D01*
X13420238Y-8145238D02*
X13320238Y-8145238D01*
X13334524Y-8154762D01*
X13344048Y-8164286D01*
X13348809Y-8173809D01*
X12982143Y-8663095D02*
X12982143Y-8586905D01*
X13020238Y-8625000D02*
X12944048Y-8625000D01*
D10*
X12500000Y-8200000D02*
X13200000Y-8200000D01*
D15*
X14921428Y-12519643D02*
X14910714Y-12516071D01*
X14892857Y-12516071D01*
X14885714Y-12519643D01*
X14882143Y-12523214D01*
X14878571Y-12530357D01*
X14878571Y-12537500D01*
X14882143Y-12544643D01*
X14885714Y-12548214D01*
X14892857Y-12551786D01*
X14907143Y-12555357D01*
X14914286Y-12558928D01*
X14917857Y-12562500D01*
X14921428Y-12569643D01*
X14921428Y-12576786D01*
X14917857Y-12583928D01*
X14914286Y-12587500D01*
X14907143Y-12591071D01*
X14889286Y-12591071D01*
X14878571Y-12587500D01*
D11*
X13095238Y-8905952D02*
X13195238Y-8882143D01*
X13123809Y-8863095D01*
X13195238Y-8844048D01*
X13095238Y-8820238D01*
X13190476Y-8786905D02*
X13195238Y-8772619D01*
X13195238Y-8748810D01*
X13190476Y-8739286D01*
X13185714Y-8734524D01*
X13176190Y-8729762D01*
X13166667Y-8729762D01*
X13157143Y-8734524D01*
X13152381Y-8739286D01*
X13147619Y-8748810D01*
X13142857Y-8767857D01*
X13138095Y-8777381D01*
X13133333Y-8782143D01*
X13123809Y-8786905D01*
X13114286Y-8786905D01*
X13104762Y-8782143D01*
X13100000Y-8777381D01*
X13095238Y-8767857D01*
X13095238Y-8744048D01*
X13100000Y-8729762D01*
X13104762Y-8691667D02*
X13100000Y-8686905D01*
X13095238Y-8677381D01*
X13095238Y-8653571D01*
X13100000Y-8644048D01*
X13104762Y-8639286D01*
X13114286Y-8634524D01*
X13123809Y-8634524D01*
X13138095Y-8639286D01*
X13195238Y-8696429D01*
X13195238Y-8634524D01*
X13138095Y-8577381D02*
X13133333Y-8586905D01*
X13128571Y-8591667D01*
X13119048Y-8596429D01*
X13114286Y-8596429D01*
X13104762Y-8591667D01*
X13100000Y-8586905D01*
X13095238Y-8577381D01*
X13095238Y-8558333D01*
X13100000Y-8548810D01*
X13104762Y-8544048D01*
X13114286Y-8539286D01*
X13119048Y-8539286D01*
X13128571Y-8544048D01*
X13133333Y-8548810D01*
X13138095Y-8558333D01*
X13138095Y-8577381D01*
X13142857Y-8586905D01*
X13147619Y-8591667D01*
X13157143Y-8596429D01*
X13176190Y-8596429D01*
X13185714Y-8591667D01*
X13190476Y-8586905D01*
X13195238Y-8577381D01*
X13195238Y-8558333D01*
X13190476Y-8548810D01*
X13185714Y-8544048D01*
X13176190Y-8539286D01*
X13157143Y-8539286D01*
X13147619Y-8544048D01*
X13142857Y-8548810D01*
X13138095Y-8558333D01*
X13195238Y-8444048D02*
X13195238Y-8501190D01*
X13195238Y-8472619D02*
X13095238Y-8472619D01*
X13109524Y-8482143D01*
X13119048Y-8491667D01*
X13123809Y-8501190D01*
X13104762Y-8405952D02*
X13100000Y-8401190D01*
X13095238Y-8391667D01*
X13095238Y-8367857D01*
X13100000Y-8358333D01*
X13104762Y-8353571D01*
X13114286Y-8348809D01*
X13123809Y-8348809D01*
X13138095Y-8353571D01*
X13195238Y-8410714D01*
X13195238Y-8348809D01*
D15*
X14421428Y-12358928D02*
X14378571Y-12358928D01*
X14400000Y-12358928D02*
X14400000Y-12283928D01*
X14392857Y-12294643D01*
X14385714Y-12301786D01*
X14378571Y-12305357D01*
D11*
X12982143Y-8913095D02*
X12982143Y-8836905D01*
X15832857Y-12313452D02*
X15832857Y-12228452D01*
X15861190Y-12289167D01*
X15889524Y-12228452D01*
X15889524Y-12313452D01*
X15946190Y-12228452D02*
X15962381Y-12228452D01*
X15970476Y-12232500D01*
X15978571Y-12240595D01*
X15982619Y-12256786D01*
X15982619Y-12285119D01*
X15978571Y-12301309D01*
X15970476Y-12309405D01*
X15962381Y-12313452D01*
X15946190Y-12313452D01*
X15938095Y-12309405D01*
X15930000Y-12301309D01*
X15925952Y-12285119D01*
X15925952Y-12256786D01*
X15930000Y-12240595D01*
X15938095Y-12232500D01*
X15946190Y-12228452D01*
X16006905Y-12228452D02*
X16055476Y-12228452D01*
X16031190Y-12313452D02*
X16031190Y-12228452D01*
X16100000Y-12228452D02*
X16116190Y-12228452D01*
X16124286Y-12232500D01*
X16132381Y-12240595D01*
X16136428Y-12256786D01*
X16136428Y-12285119D01*
X16132381Y-12301309D01*
X16124286Y-12309405D01*
X16116190Y-12313452D01*
X16100000Y-12313452D01*
X16091905Y-12309405D01*
X16083809Y-12301309D01*
X16079762Y-12285119D01*
X16079762Y-12256786D01*
X16083809Y-12240595D01*
X16091905Y-12232500D01*
X16100000Y-12228452D01*
X16221428Y-12313452D02*
X16193095Y-12272976D01*
X16172857Y-12313452D02*
X16172857Y-12228452D01*
X16205238Y-12228452D01*
X16213333Y-12232500D01*
X16217381Y-12236548D01*
X16221428Y-12244643D01*
X16221428Y-12256786D01*
X16217381Y-12264881D01*
X16213333Y-12268928D01*
X16205238Y-12272976D01*
X16172857Y-12272976D01*
X16350952Y-12268928D02*
X16363095Y-12272976D01*
X16367143Y-12277024D01*
X16371190Y-12285119D01*
X16371190Y-12297262D01*
X16367143Y-12305357D01*
X16363095Y-12309405D01*
X16355000Y-12313452D01*
X16322619Y-12313452D01*
X16322619Y-12228452D01*
X16350952Y-12228452D01*
X16359048Y-12232500D01*
X16363095Y-12236548D01*
X16367143Y-12244643D01*
X16367143Y-12252738D01*
X16363095Y-12260833D01*
X16359048Y-12264881D01*
X16350952Y-12268928D01*
X16322619Y-12268928D01*
D13*
X14251190Y-12200595D02*
X14269048Y-12206548D01*
X14298809Y-12206548D01*
X14310714Y-12200595D01*
X14316667Y-12194643D01*
X14322619Y-12182738D01*
X14322619Y-12170833D01*
X14316667Y-12158928D01*
X14310714Y-12152976D01*
X14298809Y-12147024D01*
X14275000Y-12141071D01*
X14263095Y-12135119D01*
X14257143Y-12129167D01*
X14251190Y-12117262D01*
X14251190Y-12105357D01*
X14257143Y-12093452D01*
X14263095Y-12087500D01*
X14275000Y-12081548D01*
X14304762Y-12081548D01*
X14322619Y-12087500D01*
X14376190Y-12141071D02*
X14417857Y-12141071D01*
X14435714Y-12206548D02*
X14376190Y-12206548D01*
X14376190Y-12081548D01*
X14435714Y-12081548D01*
X14560714Y-12206548D02*
X14519048Y-12147024D01*
X14489286Y-12206548D02*
X14489286Y-12081548D01*
X14536905Y-12081548D01*
X14548809Y-12087500D01*
X14554762Y-12093452D01*
X14560714Y-12105357D01*
X14560714Y-12123214D01*
X14554762Y-12135119D01*
X14548809Y-12141071D01*
X14536905Y-12147024D01*
X14489286Y-12147024D01*
X14596428Y-12081548D02*
X14638095Y-12206548D01*
X14679762Y-12081548D01*
X14745238Y-12081548D02*
X14769048Y-12081548D01*
X14780952Y-12087500D01*
X14792857Y-12099405D01*
X14798809Y-12123214D01*
X14798809Y-12164881D01*
X14792857Y-12188690D01*
X14780952Y-12200595D01*
X14769048Y-12206548D01*
X14745238Y-12206548D01*
X14733333Y-12200595D01*
X14721428Y-12188690D01*
X14715476Y-12164881D01*
X14715476Y-12123214D01*
X14721428Y-12099405D01*
X14733333Y-12087500D01*
X14745238Y-12081548D01*
D16*
X20392143Y-8512143D02*
X20392143Y-8477857D01*
X20452143Y-8495000D02*
X20392143Y-8495000D01*
X20420714Y-8457857D02*
X20420714Y-8437857D01*
X20452143Y-8429286D02*
X20452143Y-8457857D01*
X20392143Y-8457857D01*
X20392143Y-8429286D01*
X20452143Y-8403571D02*
X20392143Y-8403571D01*
X20435000Y-8383571D01*
X20392143Y-8363571D01*
X20452143Y-8363571D01*
X20452143Y-8335000D02*
X20392143Y-8335000D01*
X20392143Y-8312143D01*
X20395000Y-8306428D01*
X20397857Y-8303571D01*
X20403571Y-8300714D01*
X20412143Y-8300714D01*
X20417857Y-8303571D01*
X20420714Y-8306428D01*
X20423571Y-8312143D01*
X20423571Y-8335000D01*
X20452143Y-8226428D02*
X20452143Y-8229286D01*
X20449286Y-8235000D01*
X20440714Y-8243571D01*
X20423571Y-8257857D01*
X20415000Y-8263571D01*
X20406429Y-8266428D01*
X20400714Y-8266428D01*
X20395000Y-8263571D01*
X20392143Y-8257857D01*
X20392143Y-8255000D01*
X20395000Y-8249286D01*
X20400714Y-8246428D01*
X20403571Y-8246428D01*
X20409286Y-8249286D01*
X20412143Y-8252143D01*
X20423571Y-8269286D01*
X20426429Y-8272143D01*
X20432143Y-8275000D01*
X20440714Y-8275000D01*
X20446429Y-8272143D01*
X20449286Y-8269286D01*
X20452143Y-8263571D01*
X20452143Y-8255000D01*
X20449286Y-8249286D01*
X20446429Y-8246428D01*
X20435000Y-8237857D01*
X20426429Y-8235000D01*
X20420714Y-8235000D01*
X20452143Y-8200714D02*
X20392143Y-8200714D01*
X20420714Y-8200714D02*
X20420714Y-8166428D01*
X20452143Y-8166428D02*
X20392143Y-8166428D01*
X20392143Y-8137857D02*
X20440714Y-8137857D01*
X20446429Y-8135000D01*
X20449286Y-8132143D01*
X20452143Y-8126428D01*
X20452143Y-8115000D01*
X20449286Y-8109286D01*
X20446429Y-8106428D01*
X20440714Y-8103571D01*
X20392143Y-8103571D01*
X20452143Y-8075000D02*
X20392143Y-8075000D01*
X20435000Y-8055000D01*
X20392143Y-8035000D01*
X20452143Y-8035000D01*
X20452143Y-8006428D02*
X20392143Y-8006428D01*
X20452143Y-7977857D02*
X20392143Y-7977857D01*
X20392143Y-7963571D01*
X20395000Y-7955000D01*
X20400714Y-7949286D01*
X20406429Y-7946428D01*
X20417857Y-7943571D01*
X20426429Y-7943571D01*
X20437857Y-7946428D01*
X20443571Y-7949286D01*
X20449286Y-7955000D01*
X20452143Y-7963571D01*
X20452143Y-7977857D01*
D10*
X13200000Y-8200000D02*
G75*
G02X13275000Y-8275000I0J-75000D01*
G01*
D15*
X16583928Y-12258928D02*
X16583928Y-12308928D01*
X16566071Y-12230357D02*
X16548214Y-12283928D01*
X16594643Y-12283928D01*
X16619643Y-12287500D02*
X16655357Y-12287500D01*
X16612500Y-12308928D02*
X16637500Y-12233928D01*
X16662500Y-12308928D01*
X16780357Y-12308928D02*
X16744643Y-12308928D01*
X16744643Y-12233928D01*
X16819643Y-12233928D02*
X16833929Y-12233928D01*
X16841071Y-12237500D01*
X16848214Y-12244643D01*
X16851786Y-12258928D01*
X16851786Y-12283928D01*
X16848214Y-12298214D01*
X16841071Y-12305357D01*
X16833929Y-12308928D01*
X16819643Y-12308928D01*
X16812500Y-12305357D01*
X16805357Y-12298214D01*
X16801786Y-12283928D01*
X16801786Y-12258928D01*
X16805357Y-12244643D01*
X16812500Y-12237500D01*
X16819643Y-12233928D01*
X16880357Y-12287500D02*
X16916071Y-12287500D01*
X16873214Y-12308928D02*
X16898214Y-12233928D01*
X16923214Y-12308928D01*
X16948214Y-12308928D02*
X16948214Y-12233928D01*
X16966071Y-12233928D01*
X16976786Y-12237500D01*
X16983929Y-12244643D01*
X16987500Y-12251786D01*
X16991071Y-12266071D01*
X16991071Y-12276786D01*
X16987500Y-12291071D01*
X16983929Y-12298214D01*
X16976786Y-12305357D01*
X16966071Y-12308928D01*
X16948214Y-12308928D01*
X17076786Y-12305357D02*
X17087500Y-12308928D01*
X17105357Y-12308928D01*
X17112500Y-12305357D01*
X17116071Y-12301786D01*
X17119643Y-12294643D01*
X17119643Y-12287500D01*
X17116071Y-12280357D01*
X17112500Y-12276786D01*
X17105357Y-12273214D01*
X17091071Y-12269643D01*
X17083929Y-12266071D01*
X17080357Y-12262500D01*
X17076786Y-12255357D01*
X17076786Y-12248214D01*
X17080357Y-12241071D01*
X17083929Y-12237500D01*
X17091071Y-12233928D01*
X17108929Y-12233928D01*
X17119643Y-12237500D01*
X17144643Y-12233928D02*
X17162500Y-12308928D01*
X17176786Y-12255357D01*
X17191071Y-12308928D01*
X17208929Y-12233928D01*
X17237500Y-12308928D02*
X17237500Y-12233928D01*
X17262500Y-12233928D02*
X17305357Y-12233928D01*
X17283929Y-12308928D02*
X17283929Y-12233928D01*
X17373214Y-12301786D02*
X17369643Y-12305357D01*
X17358929Y-12308928D01*
X17351786Y-12308928D01*
X17341071Y-12305357D01*
X17333929Y-12298214D01*
X17330357Y-12291071D01*
X17326786Y-12276786D01*
X17326786Y-12266071D01*
X17330357Y-12251786D01*
X17333929Y-12244643D01*
X17341071Y-12237500D01*
X17351786Y-12233928D01*
X17358929Y-12233928D01*
X17369643Y-12237500D01*
X17373214Y-12241071D01*
X17405357Y-12308928D02*
X17405357Y-12233928D01*
X17405357Y-12269643D02*
X17448214Y-12269643D01*
X17448214Y-12308928D02*
X17448214Y-12233928D01*
D10*
X13275000Y-8975000D02*
G75*
G02X13200000Y-9050000I-75000J0D01*
G01*
X12500000Y-9050000D02*
X13200000Y-9050000D01*
D11*
X13415476Y-7758333D02*
X13420238Y-7744048D01*
X13420238Y-7720238D01*
X13415476Y-7710714D01*
X13410714Y-7705952D01*
X13401190Y-7701190D01*
X13391667Y-7701190D01*
X13382143Y-7705952D01*
X13377381Y-7710714D01*
X13372619Y-7720238D01*
X13367857Y-7739286D01*
X13363095Y-7748809D01*
X13358333Y-7753571D01*
X13348809Y-7758333D01*
X13339286Y-7758333D01*
X13329762Y-7753571D01*
X13325000Y-7748809D01*
X13320238Y-7739286D01*
X13320238Y-7715476D01*
X13325000Y-7701190D01*
X13320238Y-7667857D02*
X13420238Y-7644048D01*
X13348809Y-7625000D01*
X13420238Y-7605952D01*
X13320238Y-7582143D01*
X13329762Y-7548809D02*
X13325000Y-7544048D01*
X13320238Y-7534524D01*
X13320238Y-7510714D01*
X13325000Y-7501190D01*
X13329762Y-7496428D01*
X13339286Y-7491667D01*
X13348809Y-7491667D01*
X13363095Y-7496428D01*
X13420238Y-7553571D01*
X13420238Y-7491667D01*
X13020238Y-8453571D02*
X12920238Y-8453571D01*
X12920238Y-8429762D01*
X12925000Y-8415476D01*
X12934524Y-8405952D01*
X12944048Y-8401190D01*
X12963095Y-8396429D01*
X12977381Y-8396429D01*
X12996428Y-8401190D01*
X13005952Y-8405952D01*
X13015476Y-8415476D01*
X13020238Y-8429762D01*
X13020238Y-8453571D01*
X12920238Y-8334524D02*
X12920238Y-8315476D01*
X12925000Y-8305952D01*
X12934524Y-8296428D01*
X12953571Y-8291667D01*
X12986905Y-8291667D01*
X13005952Y-8296428D01*
X13015476Y-8305952D01*
X13020238Y-8315476D01*
X13020238Y-8334524D01*
X13015476Y-8344048D01*
X13005952Y-8353571D01*
X12986905Y-8358333D01*
X12953571Y-8358333D01*
X12934524Y-8353571D01*
X12925000Y-8344048D01*
X12920238Y-8334524D01*
D15*
X14871428Y-13055357D02*
X14928571Y-13055357D01*
D13*
X19477381Y-12433928D02*
X19572619Y-12433928D01*
X19525000Y-12481548D02*
X19525000Y-12386309D01*
D14*
X20133929Y-10945118D02*
X20058929Y-10945118D01*
X20058929Y-10916546D01*
X20062500Y-10909404D01*
X20066071Y-10905832D01*
X20073214Y-10902261D01*
X20083929Y-10902261D01*
X20091071Y-10905832D01*
X20094643Y-10909404D01*
X20098214Y-10916546D01*
X20098214Y-10945118D01*
X20058929Y-10877261D02*
X20133929Y-10859404D01*
X20080357Y-10845118D01*
X20133929Y-10830832D01*
X20058929Y-10812975D01*
X20133929Y-10741546D02*
X20098214Y-10766546D01*
X20133929Y-10784404D02*
X20058929Y-10784404D01*
X20058929Y-10755832D01*
X20062500Y-10748689D01*
X20066071Y-10745118D01*
X20073214Y-10741546D01*
X20083929Y-10741546D01*
X20091071Y-10745118D01*
X20094643Y-10748689D01*
X20098214Y-10755832D01*
X20098214Y-10784404D01*
D13*
X19127381Y-12433928D02*
X19222619Y-12433928D01*
D15*
X14871428Y-12805357D02*
X14928571Y-12805357D01*
X14900000Y-12833928D02*
X14900000Y-12776786D01*
D11*
X13484881Y-12459405D02*
X13497024Y-12463452D01*
X13517262Y-12463452D01*
X13525357Y-12459405D01*
X13529405Y-12455357D01*
X13533452Y-12447262D01*
X13533452Y-12439167D01*
X13529405Y-12431071D01*
X13525357Y-12427024D01*
X13517262Y-12422976D01*
X13501071Y-12418928D01*
X13492976Y-12414881D01*
X13488928Y-12410833D01*
X13484881Y-12402738D01*
X13484881Y-12394643D01*
X13488928Y-12386548D01*
X13492976Y-12382500D01*
X13501071Y-12378452D01*
X13521309Y-12378452D01*
X13533452Y-12382500D01*
X13569881Y-12463452D02*
X13569881Y-12378452D01*
X13602262Y-12378452D01*
X13610357Y-12382500D01*
X13614405Y-12386548D01*
X13618452Y-12394643D01*
X13618452Y-12406786D01*
X13614405Y-12414881D01*
X13610357Y-12418928D01*
X13602262Y-12422976D01*
X13569881Y-12422976D01*
X13654881Y-12418928D02*
X13683214Y-12418928D01*
X13695357Y-12463452D02*
X13654881Y-12463452D01*
X13654881Y-12378452D01*
X13695357Y-12378452D01*
X13727738Y-12439167D02*
X13768214Y-12439167D01*
X13719643Y-12463452D02*
X13747976Y-12378452D01*
X13776309Y-12463452D01*
X13804643Y-12463452D02*
X13804643Y-12378452D01*
X13853214Y-12463452D02*
X13816786Y-12414881D01*
X13853214Y-12378452D02*
X13804643Y-12427024D01*
X13889643Y-12418928D02*
X13917976Y-12418928D01*
X13930119Y-12463452D02*
X13889643Y-12463452D01*
X13889643Y-12378452D01*
X13930119Y-12378452D01*
X14015119Y-12463452D02*
X13986786Y-12422976D01*
X13966548Y-12463452D02*
X13966548Y-12378452D01*
X13998928Y-12378452D01*
X14007024Y-12382500D01*
X14011071Y-12386548D01*
X14015119Y-12394643D01*
X14015119Y-12406786D01*
X14011071Y-12414881D01*
X14007024Y-12418928D01*
X13998928Y-12422976D01*
X13966548Y-12422976D01*
D13*
X12950298Y-12169048D02*
X12825298Y-12169048D01*
X12825298Y-12121428D01*
X12831250Y-12109524D01*
X12837202Y-12103571D01*
X12849107Y-12097619D01*
X12866964Y-12097619D01*
X12878869Y-12103571D01*
X12884821Y-12109524D01*
X12890774Y-12121428D01*
X12890774Y-12169048D01*
X12950298Y-12044048D02*
X12825298Y-12044048D01*
X12884821Y-11984524D02*
X12884821Y-11942857D01*
X12950298Y-11925000D02*
X12950298Y-11984524D01*
X12825298Y-11984524D01*
X12825298Y-11925000D01*
X12825298Y-11883333D02*
X12825298Y-11800000D01*
X12950298Y-11883333D01*
X12950298Y-11800000D01*
X12825298Y-11728571D02*
X12825298Y-11704762D01*
X12831250Y-11692857D01*
X12843155Y-11680952D01*
X12866964Y-11675000D01*
X12908631Y-11675000D01*
X12932440Y-11680952D01*
X12944345Y-11692857D01*
X12950298Y-11704762D01*
X12950298Y-11728571D01*
X12944345Y-11740476D01*
X12932440Y-11752381D01*
X12908631Y-11758333D01*
X12866964Y-11758333D01*
X12843155Y-11752381D01*
X12831250Y-11740476D01*
X12825298Y-11728571D01*
X13097321Y-12219643D02*
X13103274Y-12201786D01*
X13109226Y-12195833D01*
X13121131Y-12189881D01*
X13138988Y-12189881D01*
X13150893Y-12195833D01*
X13156845Y-12201786D01*
X13162798Y-12213690D01*
X13162798Y-12261309D01*
X13037798Y-12261309D01*
X13037798Y-12219643D01*
X13043750Y-12207738D01*
X13049702Y-12201786D01*
X13061607Y-12195833D01*
X13073512Y-12195833D01*
X13085417Y-12201786D01*
X13091369Y-12207738D01*
X13097321Y-12219643D01*
X13097321Y-12261309D01*
X13037798Y-12136309D02*
X13138988Y-12136309D01*
X13150893Y-12130357D01*
X13156845Y-12124405D01*
X13162798Y-12112500D01*
X13162798Y-12088690D01*
X13156845Y-12076786D01*
X13150893Y-12070833D01*
X13138988Y-12064881D01*
X13037798Y-12064881D01*
X13037798Y-12017262D02*
X13037798Y-11933928D01*
X13162798Y-12017262D01*
X13162798Y-11933928D01*
X13037798Y-11898214D02*
X13037798Y-11814881D01*
X13162798Y-11898214D01*
X13162798Y-11814881D01*
X13097321Y-11767262D02*
X13097321Y-11725595D01*
X13162798Y-11707738D02*
X13162798Y-11767262D01*
X13037798Y-11767262D01*
X13037798Y-11707738D01*
X13162798Y-11582738D02*
X13103274Y-11624405D01*
X13162798Y-11654167D02*
X13037798Y-11654167D01*
X13037798Y-11606548D01*
X13043750Y-11594643D01*
X13049702Y-11588690D01*
X13061607Y-11582738D01*
X13079464Y-11582738D01*
X13091369Y-11588690D01*
X13097321Y-11594643D01*
X13103274Y-11606548D01*
X13103274Y-11654167D01*
D10*
X18582500Y-12757500D02*
G75*
G03X18725000Y-12750000I75000J-67500D01*
G01*
D18*
X18675000Y-12825000D02*
G75*
G03X18675000Y-12825000I-17500J0D01*
G01*
D10*
X18750000Y-12525000D02*
G75*
G03X18750000Y-12525000I-92500J0D01*
G01*
X18750000Y-13125000D02*
G75*
G03X18750000Y-13125000I-92500J0D01*
G01*
X18657500Y-13025000D02*
X18657500Y-12935000D01*
X18657500Y-12825000D02*
X18657500Y-12625000D01*
D19*
X18410000Y-11305000D02*
X18410000Y-11585000D01*
X18410000Y-11585000D02*
X18090000Y-11585000D01*
X18090000Y-11585000D02*
X18090000Y-11265000D01*
X18090000Y-11265000D02*
X18370000Y-11265000D01*
X18410000Y-11305000D02*
X18370000Y-11265000D01*
X20308722Y-11976000D02*
X20341278Y-11976000D01*
X20308722Y-11874000D02*
X20341278Y-11874000D01*
X18665000Y-10915000D02*
X18615000Y-10915000D01*
X18665000Y-10915000D02*
G75*
G02X18705000Y-10915000I20000J0D01*
G01*
X18935000Y-10635000D02*
G75*
G02X18955000Y-10655000I0J-20000D01*
G01*
X18955000Y-10895000D02*
G75*
G02X18935000Y-10915000I-20000J0D01*
G01*
X18615000Y-10915000D02*
G75*
G02X18595000Y-10895000I0J20000D01*
G01*
X18595000Y-10655000D02*
G75*
G02X18615000Y-10635000I20000J0D01*
G01*
X18955000Y-10895000D02*
X18955000Y-10655000D01*
X18595000Y-10895000D02*
X18595000Y-10655000D01*
X18705000Y-10915000D02*
X18935000Y-10915000D01*
X18615000Y-10635000D02*
X18935000Y-10635000D01*
X19891278Y-10924000D02*
X19858722Y-10924000D01*
X19891278Y-11026000D02*
X19858722Y-11026000D01*
X19891278Y-10774000D02*
X19858722Y-10774000D01*
X19891278Y-10876000D02*
X19858722Y-10876000D01*
X17541278Y-10549000D02*
X17508722Y-10549000D01*
X17541278Y-10651000D02*
X17508722Y-10651000D01*
X17541278Y-10399000D02*
X17508722Y-10399000D01*
X17541278Y-10501000D02*
X17508722Y-10501000D01*
X17541278Y-9999000D02*
X17508722Y-9999000D01*
X17541278Y-10101000D02*
X17508722Y-10101000D01*
X17541278Y-9849000D02*
X17508722Y-9849000D01*
X17541278Y-9951000D02*
X17508722Y-9951000D01*
X17508722Y-9551000D02*
X17541278Y-9551000D01*
X17508722Y-9449000D02*
X17541278Y-9449000D01*
X17508722Y-9701000D02*
X17541278Y-9701000D01*
X17508722Y-9599000D02*
X17541278Y-9599000D01*
X19291278Y-11574000D02*
X19258722Y-11574000D01*
X19291278Y-11676000D02*
X19258722Y-11676000D01*
X15274000Y-10883722D02*
X15274000Y-10916278D01*
X15376000Y-10883722D02*
X15376000Y-10916278D01*
X16406500Y-11694000D02*
X16406500Y-12085000D01*
X16593500Y-11694000D02*
X16406500Y-11694000D01*
X16593500Y-12085000D02*
X16593500Y-11694000D01*
X19291278Y-11424000D02*
X19258722Y-11424000D01*
X19291278Y-11526000D02*
X19258722Y-11526000D01*
X15424000Y-10883722D02*
X15424000Y-10916278D01*
X15526000Y-10883722D02*
X15526000Y-10916278D01*
X19291278Y-11274000D02*
X19258722Y-11274000D01*
X19291278Y-11376000D02*
X19258722Y-11376000D01*
X15574000Y-10883722D02*
X15574000Y-10916278D01*
X15676000Y-10883722D02*
X15676000Y-10916278D01*
X18921500Y-11719000D02*
X18921500Y-12110000D01*
X19108500Y-11719000D02*
X18921500Y-11719000D01*
X19108500Y-12110000D02*
X19108500Y-11719000D01*
X18306000Y-10981500D02*
X17915000Y-10981500D01*
X18306000Y-11168500D02*
X18306000Y-10981500D01*
X17915000Y-11168500D02*
X18306000Y-11168500D01*
X15176000Y-9041278D02*
X15176000Y-9008722D01*
X15074000Y-9041278D02*
X15074000Y-9008722D01*
X16249000Y-11683722D02*
X16249000Y-11716278D01*
X16351000Y-11683722D02*
X16351000Y-11716278D01*
X20001000Y-11441278D02*
X20001000Y-11408722D01*
X19899000Y-11441278D02*
X19899000Y-11408722D01*
X20026000Y-8241278D02*
X20026000Y-8208722D01*
X19924000Y-8241278D02*
X19924000Y-8208722D01*
X20019000Y-11818500D02*
X20410000Y-11818500D01*
X20019000Y-11631500D02*
X20019000Y-11818500D01*
X20410000Y-11631500D02*
X20019000Y-11631500D01*
X15391278Y-11999000D02*
X15358722Y-11999000D01*
X15391278Y-12101000D02*
X15358722Y-12101000D01*
X16241278Y-11999000D02*
X16208722Y-11999000D01*
X16241278Y-12101000D02*
X16208722Y-12101000D01*
X15249000Y-11683722D02*
X15249000Y-11716278D01*
X15351000Y-11683722D02*
X15351000Y-11716278D01*
X19258722Y-9576000D02*
X19291278Y-9576000D01*
X19258722Y-9474000D02*
X19291278Y-9474000D01*
X18991278Y-9999000D02*
X18958722Y-9999000D01*
X18991278Y-10101000D02*
X18958722Y-10101000D01*
X16851000Y-7441278D02*
X16851000Y-7408722D01*
X16749000Y-7441278D02*
X16749000Y-7408722D01*
X17499000Y-7708722D02*
X17499000Y-7741278D01*
X17601000Y-7708722D02*
X17601000Y-7741278D01*
X18249000Y-7708722D02*
X18249000Y-7741278D01*
X18351000Y-7708722D02*
X18351000Y-7741278D01*
X18999000Y-7708722D02*
X18999000Y-7741278D01*
X19101000Y-7708722D02*
X19101000Y-7741278D01*
X16749000Y-7708722D02*
X16749000Y-7741278D01*
X16851000Y-7708722D02*
X16851000Y-7741278D01*
X17601000Y-7441278D02*
X17601000Y-7408722D01*
X17499000Y-7441278D02*
X17499000Y-7408722D01*
X18351000Y-7445028D02*
X18351000Y-7412472D01*
X18249000Y-7445028D02*
X18249000Y-7412472D01*
X19101000Y-7441278D02*
X19101000Y-7408722D01*
X18999000Y-7441278D02*
X18999000Y-7408722D01*
X20176500Y-10976500D02*
X20176500Y-11205000D01*
X20323500Y-10976500D02*
X20176500Y-10976500D01*
X20323500Y-11205000D02*
X20323500Y-10976500D01*
X20326500Y-10976500D02*
X20326500Y-11205000D01*
X20473500Y-10976500D02*
X20326500Y-10976500D01*
X20473500Y-11205000D02*
X20473500Y-10976500D01*
X19426500Y-10123500D02*
X19655000Y-10123500D01*
X19426500Y-9976500D02*
X19426500Y-10123500D01*
X19655000Y-9976500D02*
X19426500Y-9976500D01*
X19426500Y-9948500D02*
X19655000Y-9948500D01*
X19426500Y-9801500D02*
X19426500Y-9948500D01*
X19655000Y-9801500D02*
X19426500Y-9801500D01*
D10*
X14155000Y-8250000D02*
G75*
G03X14155000Y-8250000I-80000J0D01*
G01*
X13935000Y-8430000D02*
X13895000Y-8390000D01*
X13895000Y-8070000D02*
X13895000Y-8390000D01*
X13935000Y-8070000D02*
X13895000Y-8070000D01*
X14115000Y-8070000D02*
X14035000Y-8070000D01*
X14115000Y-8430000D02*
X14035000Y-8430000D01*
X14255000Y-8430000D02*
X14215000Y-8430000D01*
X14255000Y-8070000D02*
X14255000Y-8430000D01*
X14215000Y-8070000D02*
X14255000Y-8070000D01*
X14155000Y-7625000D02*
G75*
G03X14155000Y-7625000I-80000J0D01*
G01*
X13935000Y-7805000D02*
X13895000Y-7765000D01*
X13895000Y-7445000D02*
X13895000Y-7765000D01*
X13935000Y-7445000D02*
X13895000Y-7445000D01*
X14115000Y-7445000D02*
X14035000Y-7445000D01*
X14115000Y-7805000D02*
X14035000Y-7805000D01*
X14255000Y-7805000D02*
X14215000Y-7805000D01*
X14255000Y-7445000D02*
X14255000Y-7805000D01*
X14215000Y-7445000D02*
X14255000Y-7445000D01*
D19*
X14267000Y-12417000D02*
X14400000Y-12417000D01*
X14267000Y-12550000D02*
X14267000Y-12417000D01*
X14527000Y-12417000D02*
X14787000Y-12417000D01*
X14527000Y-12677000D02*
X14527000Y-12417000D01*
X14267000Y-12677000D02*
X14527000Y-12677000D01*
X14787000Y-12417000D02*
X14787000Y-13191000D01*
X14267000Y-12677000D02*
X14267000Y-13191000D01*
X14267000Y-13191000D02*
X14787000Y-13191000D01*
X16686000Y-7264000D02*
X16561000Y-7264000D01*
X16686000Y-7389000D02*
X16686000Y-7264000D01*
X16245000Y-8000000D02*
X16295000Y-8000000D01*
X16295000Y-8010000D02*
X16245000Y-8010000D01*
X16295000Y-7990000D02*
X16295000Y-8010000D01*
X16245000Y-7990000D02*
X16295000Y-7990000D01*
X16245000Y-7800000D02*
X16295000Y-7800000D01*
X16295000Y-7810000D02*
X16245000Y-7810000D01*
X16295000Y-7790000D02*
X16295000Y-7810000D01*
X16245000Y-7790000D02*
X16295000Y-7790000D01*
X16245000Y-7600000D02*
X16295000Y-7600000D01*
X16295000Y-7610000D02*
X16245000Y-7610000D01*
X16295000Y-7590000D02*
X16295000Y-7610000D01*
X16245000Y-7590000D02*
X16295000Y-7590000D01*
X16395000Y-8306000D02*
X16395000Y-8245000D01*
X16525000Y-8306000D02*
X16525000Y-8245000D01*
X16395000Y-7294000D02*
X16395000Y-7355000D01*
X16525000Y-7294000D02*
X16525000Y-7355000D01*
X16595000Y-8050000D02*
X16656000Y-8050000D01*
X16595000Y-8245000D02*
X16595000Y-8050000D01*
X16245000Y-8245000D02*
X16595000Y-8245000D01*
X16245000Y-7355000D02*
X16245000Y-8245000D01*
X16595000Y-7355000D02*
X16245000Y-7355000D01*
X16595000Y-7550000D02*
X16595000Y-7355000D01*
X16656000Y-7550000D02*
X16595000Y-7550000D01*
X16666000Y-7470000D02*
X16666000Y-7440000D01*
X16676000Y-7440000D02*
X16656000Y-7440000D01*
X16676000Y-7470000D02*
X16676000Y-7440000D01*
X16656000Y-7470000D02*
X16676000Y-7470000D01*
X16656000Y-8306000D02*
X16656000Y-7294000D01*
X16184000Y-8306000D02*
X16656000Y-8306000D01*
X16184000Y-7294000D02*
X16184000Y-8306000D01*
X16656000Y-7294000D02*
X16184000Y-7294000D01*
X17436000Y-7264000D02*
X17311000Y-7264000D01*
X17436000Y-7389000D02*
X17436000Y-7264000D01*
X16995000Y-8000000D02*
X17045000Y-8000000D01*
X17045000Y-8010000D02*
X16995000Y-8010000D01*
X17045000Y-7990000D02*
X17045000Y-8010000D01*
X16995000Y-7990000D02*
X17045000Y-7990000D01*
X16995000Y-7800000D02*
X17045000Y-7800000D01*
X17045000Y-7810000D02*
X16995000Y-7810000D01*
X17045000Y-7790000D02*
X17045000Y-7810000D01*
X16995000Y-7790000D02*
X17045000Y-7790000D01*
X16995000Y-7600000D02*
X17045000Y-7600000D01*
X17045000Y-7610000D02*
X16995000Y-7610000D01*
X17045000Y-7590000D02*
X17045000Y-7610000D01*
X16995000Y-7590000D02*
X17045000Y-7590000D01*
X17145000Y-8306000D02*
X17145000Y-8245000D01*
X17275000Y-8306000D02*
X17275000Y-8245000D01*
X17145000Y-7294000D02*
X17145000Y-7355000D01*
X17275000Y-7294000D02*
X17275000Y-7355000D01*
X17345000Y-8050000D02*
X17406000Y-8050000D01*
X17345000Y-8245000D02*
X17345000Y-8050000D01*
X16995000Y-8245000D02*
X17345000Y-8245000D01*
X16995000Y-7355000D02*
X16995000Y-8245000D01*
X17345000Y-7355000D02*
X16995000Y-7355000D01*
X17345000Y-7550000D02*
X17345000Y-7355000D01*
X17406000Y-7550000D02*
X17345000Y-7550000D01*
X17416000Y-7470000D02*
X17416000Y-7440000D01*
X17426000Y-7440000D02*
X17406000Y-7440000D01*
X17426000Y-7470000D02*
X17426000Y-7440000D01*
X17406000Y-7470000D02*
X17426000Y-7470000D01*
X17406000Y-8306000D02*
X17406000Y-7294000D01*
X16934000Y-8306000D02*
X17406000Y-8306000D01*
X16934000Y-7294000D02*
X16934000Y-8306000D01*
X17406000Y-7294000D02*
X16934000Y-7294000D01*
X18186000Y-7264000D02*
X18061000Y-7264000D01*
X18186000Y-7389000D02*
X18186000Y-7264000D01*
X17745000Y-8000000D02*
X17795000Y-8000000D01*
X17795000Y-8010000D02*
X17745000Y-8010000D01*
X17795000Y-7990000D02*
X17795000Y-8010000D01*
X17745000Y-7990000D02*
X17795000Y-7990000D01*
X17745000Y-7800000D02*
X17795000Y-7800000D01*
X17795000Y-7810000D02*
X17745000Y-7810000D01*
X17795000Y-7790000D02*
X17795000Y-7810000D01*
X17745000Y-7790000D02*
X17795000Y-7790000D01*
X17745000Y-7600000D02*
X17795000Y-7600000D01*
X17795000Y-7610000D02*
X17745000Y-7610000D01*
X17795000Y-7590000D02*
X17795000Y-7610000D01*
X17745000Y-7590000D02*
X17795000Y-7590000D01*
X17895000Y-8306000D02*
X17895000Y-8245000D01*
X18025000Y-8306000D02*
X18025000Y-8245000D01*
X17895000Y-7294000D02*
X17895000Y-7355000D01*
X18025000Y-7294000D02*
X18025000Y-7355000D01*
X18095000Y-8050000D02*
X18156000Y-8050000D01*
X18095000Y-8245000D02*
X18095000Y-8050000D01*
X17745000Y-8245000D02*
X18095000Y-8245000D01*
X17745000Y-7355000D02*
X17745000Y-8245000D01*
X18095000Y-7355000D02*
X17745000Y-7355000D01*
X18095000Y-7550000D02*
X18095000Y-7355000D01*
X18156000Y-7550000D02*
X18095000Y-7550000D01*
X18166000Y-7470000D02*
X18166000Y-7440000D01*
X18176000Y-7440000D02*
X18156000Y-7440000D01*
X18176000Y-7470000D02*
X18176000Y-7440000D01*
X18156000Y-7470000D02*
X18176000Y-7470000D01*
X18156000Y-8306000D02*
X18156000Y-7294000D01*
X17684000Y-8306000D02*
X18156000Y-8306000D01*
X17684000Y-7294000D02*
X17684000Y-8306000D01*
X18156000Y-7294000D02*
X17684000Y-7294000D01*
X18936000Y-7264000D02*
X18811000Y-7264000D01*
X18936000Y-7389000D02*
X18936000Y-7264000D01*
X18495000Y-8000000D02*
X18545000Y-8000000D01*
X18545000Y-8010000D02*
X18495000Y-8010000D01*
X18545000Y-7990000D02*
X18545000Y-8010000D01*
X18495000Y-7990000D02*
X18545000Y-7990000D01*
X18495000Y-7800000D02*
X18545000Y-7800000D01*
X18545000Y-7810000D02*
X18495000Y-7810000D01*
X18545000Y-7790000D02*
X18545000Y-7810000D01*
X18495000Y-7790000D02*
X18545000Y-7790000D01*
X18495000Y-7600000D02*
X18545000Y-7600000D01*
X18545000Y-7610000D02*
X18495000Y-7610000D01*
X18545000Y-7590000D02*
X18545000Y-7610000D01*
X18495000Y-7590000D02*
X18545000Y-7590000D01*
X18645000Y-8306000D02*
X18645000Y-8245000D01*
X18775000Y-8306000D02*
X18775000Y-8245000D01*
X18645000Y-7294000D02*
X18645000Y-7355000D01*
X18775000Y-7294000D02*
X18775000Y-7355000D01*
X18845000Y-8050000D02*
X18906000Y-8050000D01*
X18845000Y-8245000D02*
X18845000Y-8050000D01*
X18495000Y-8245000D02*
X18845000Y-8245000D01*
X18495000Y-7355000D02*
X18495000Y-8245000D01*
X18845000Y-7355000D02*
X18495000Y-7355000D01*
X18845000Y-7550000D02*
X18845000Y-7355000D01*
X18906000Y-7550000D02*
X18845000Y-7550000D01*
X18916000Y-7470000D02*
X18916000Y-7440000D01*
X18926000Y-7440000D02*
X18906000Y-7440000D01*
X18926000Y-7470000D02*
X18926000Y-7440000D01*
X18906000Y-7470000D02*
X18926000Y-7470000D01*
X18906000Y-8306000D02*
X18906000Y-7294000D01*
X18434000Y-8306000D02*
X18906000Y-8306000D01*
X18434000Y-7294000D02*
X18434000Y-8306000D01*
X18906000Y-7294000D02*
X18434000Y-7294000D01*
X19686000Y-7264000D02*
X19561000Y-7264000D01*
X19686000Y-7389000D02*
X19686000Y-7264000D01*
X19245000Y-8000000D02*
X19295000Y-8000000D01*
X19295000Y-8010000D02*
X19245000Y-8010000D01*
X19295000Y-7990000D02*
X19295000Y-8010000D01*
X19245000Y-7990000D02*
X19295000Y-7990000D01*
X19245000Y-7800000D02*
X19295000Y-7800000D01*
X19295000Y-7810000D02*
X19245000Y-7810000D01*
X19295000Y-7790000D02*
X19295000Y-7810000D01*
X19245000Y-7790000D02*
X19295000Y-7790000D01*
X19245000Y-7600000D02*
X19295000Y-7600000D01*
X19295000Y-7610000D02*
X19245000Y-7610000D01*
X19295000Y-7590000D02*
X19295000Y-7610000D01*
X19245000Y-7590000D02*
X19295000Y-7590000D01*
X19395000Y-8306000D02*
X19395000Y-8245000D01*
X19525000Y-8306000D02*
X19525000Y-8245000D01*
X19395000Y-7294000D02*
X19395000Y-7355000D01*
X19525000Y-7294000D02*
X19525000Y-7355000D01*
X19595000Y-8050000D02*
X19656000Y-8050000D01*
X19595000Y-8245000D02*
X19595000Y-8050000D01*
X19245000Y-8245000D02*
X19595000Y-8245000D01*
X19245000Y-7355000D02*
X19245000Y-8245000D01*
X19595000Y-7355000D02*
X19245000Y-7355000D01*
X19595000Y-7550000D02*
X19595000Y-7355000D01*
X19656000Y-7550000D02*
X19595000Y-7550000D01*
X19666000Y-7470000D02*
X19666000Y-7440000D01*
X19676000Y-7440000D02*
X19656000Y-7440000D01*
X19676000Y-7470000D02*
X19676000Y-7440000D01*
X19656000Y-7470000D02*
X19676000Y-7470000D01*
X19656000Y-8306000D02*
X19656000Y-7294000D01*
X19184000Y-8306000D02*
X19656000Y-8306000D01*
X19184000Y-7294000D02*
X19184000Y-8306000D01*
X19656000Y-7294000D02*
X19184000Y-7294000D01*
X18113000Y-10551000D02*
X18000000Y-10551000D01*
X18113000Y-10475000D02*
X18113000Y-10551000D01*
X17842247Y-10544500D02*
X17760000Y-10544500D01*
X17924000Y-10544500D02*
X17903753Y-10544500D01*
X17924000Y-10531347D02*
X17924000Y-10544500D01*
X17924000Y-10404347D02*
X17924000Y-10418653D01*
X17943653Y-10399000D02*
X17929347Y-10399000D01*
X18113000Y-10399000D02*
X18056347Y-10399000D01*
X17760000Y-10544500D02*
X17760000Y-9897500D01*
X18113000Y-10399000D02*
X18113000Y-9897500D01*
X17969247Y-9897500D02*
X17903753Y-9897500D01*
X17842247Y-9897500D02*
X17760000Y-9897500D01*
X18113000Y-9897500D02*
X18030753Y-9897500D01*
X12833000Y-9008000D02*
X12700000Y-9008000D01*
X12833000Y-8875000D02*
X12833000Y-9008000D01*
X12833000Y-8748000D02*
X12567000Y-8748000D01*
X12567000Y-8748000D02*
X12567000Y-8234000D01*
X12833000Y-8748000D02*
X12833000Y-8234000D01*
X12833000Y-8234000D02*
X12567000Y-8234000D01*
X17565000Y-11735000D02*
X17825000Y-11735000D01*
X17565000Y-13205000D02*
X17565000Y-11735000D01*
X18485000Y-11735000D02*
X18485000Y-11925000D01*
X18215000Y-11735000D02*
X18485000Y-11735000D01*
X18485000Y-13205000D02*
X17565000Y-13205000D01*
X18485000Y-12325000D02*
X18485000Y-13205000D01*
X17545000Y-11820000D02*
X17545000Y-11715000D01*
X17650000Y-11715000D02*
X17545000Y-11715000D01*
X17499142Y-10321000D02*
X17550858Y-10321000D01*
X17499142Y-10179000D02*
X17550858Y-10179000D01*
X15372500Y-9082000D02*
G75*
G03X15372500Y-9082000I-22500J0D01*
G01*
D20*
X15480000Y-8857000D02*
G75*
G02X15490000Y-8867000I0J-10000D01*
G01*
X15210000Y-8867000D02*
G75*
G02X15220000Y-8857000I10000J0D01*
G01*
X15220000Y-9197000D02*
G75*
G02X15210000Y-9187000I0J10000D01*
G01*
X15210000Y-9187000D02*
X15210000Y-8867000D01*
X15490000Y-9147000D02*
X15490000Y-8867000D01*
X15440000Y-9197000D02*
X15220000Y-9197000D01*
X15480000Y-8857000D02*
X15220000Y-8857000D01*
D19*
X18849000Y-10192000D02*
X18995000Y-10192000D01*
X18849000Y-10508000D02*
X19065000Y-10508000D01*
X18849000Y-10508000D02*
X18849000Y-10415000D01*
X18849000Y-10192000D02*
X18849000Y-10285000D01*
X14399000Y-9008722D02*
X14399000Y-9041278D01*
X14501000Y-9008722D02*
X14501000Y-9041278D01*
X13851000Y-11841278D02*
X13851000Y-11808722D01*
X13749000Y-11841278D02*
X13749000Y-11808722D01*
X19258722Y-10576000D02*
X19291278Y-10576000D01*
X19258722Y-10474000D02*
X19291278Y-10474000D01*
X19291278Y-10324000D02*
X19258722Y-10324000D01*
X19291278Y-10426000D02*
X19258722Y-10426000D01*
X19558722Y-11026000D02*
X19591278Y-11026000D01*
X19558722Y-10924000D02*
X19591278Y-10924000D01*
X19291278Y-11074000D02*
X19258722Y-11074000D01*
X19291278Y-11176000D02*
X19258722Y-11176000D01*
X19258722Y-11026000D02*
X19291278Y-11026000D01*
X19258722Y-10924000D02*
X19291278Y-10924000D01*
X19291278Y-10774000D02*
X19258722Y-10774000D01*
X19291278Y-10876000D02*
X19258722Y-10876000D01*
X15458722Y-9726000D02*
X15491278Y-9726000D01*
X15458722Y-9624000D02*
X15491278Y-9624000D01*
X19291278Y-9649000D02*
X19258722Y-9649000D01*
X19291278Y-9751000D02*
X19258722Y-9751000D01*
X19291278Y-11924000D02*
X19258722Y-11924000D01*
X19291278Y-12026000D02*
X19258722Y-12026000D01*
X19291278Y-11774000D02*
X19258722Y-11774000D01*
X19291278Y-11876000D02*
X19258722Y-11876000D01*
X19291278Y-12074000D02*
X19258722Y-12074000D01*
X19291278Y-12176000D02*
X19258722Y-12176000D01*
X20341278Y-12024000D02*
X20308722Y-12024000D01*
X20341278Y-12126000D02*
X20308722Y-12126000D01*
X20301000Y-11441278D02*
X20301000Y-11408722D01*
X20199000Y-11441278D02*
X20199000Y-11408722D01*
X20341278Y-12174000D02*
X20308722Y-12174000D01*
X20341278Y-12276000D02*
X20308722Y-12276000D01*
X20451000Y-11441278D02*
X20451000Y-11408722D01*
X20349000Y-11441278D02*
X20349000Y-11408722D01*
X15026000Y-9041278D02*
X15026000Y-9008722D01*
X14924000Y-9041278D02*
X14924000Y-9008722D01*
X19441278Y-8399000D02*
X19408722Y-8399000D01*
X19441278Y-8501000D02*
X19408722Y-8501000D01*
X19441278Y-8549000D02*
X19408722Y-8549000D01*
X19441278Y-8651000D02*
X19408722Y-8651000D01*
X16741000Y-11966278D02*
X16741000Y-11933722D01*
X16639000Y-11966278D02*
X16639000Y-11933722D01*
X19291278Y-9999000D02*
X19258722Y-9999000D01*
X19291278Y-10101000D02*
X19258722Y-10101000D01*
X19291278Y-9824000D02*
X19258722Y-9824000D01*
X19291278Y-9926000D02*
X19258722Y-9926000D01*
X13155500Y-11162000D02*
X13155500Y-11200000D01*
X12513500Y-11162000D02*
X13155500Y-11162000D01*
X12513500Y-9338000D02*
X13155500Y-9338000D01*
X12513500Y-11162000D02*
X12513500Y-9338000D01*
X15088000Y-9338000D02*
X15088000Y-9438000D01*
X15010000Y-9338000D02*
X15088000Y-9338000D01*
X15088000Y-11162000D02*
X15088000Y-11062000D01*
X15010000Y-11162000D02*
X15088000Y-11162000D01*
X16966000Y-9739000D02*
X16966000Y-9610000D01*
X17061000Y-9739000D02*
X16966000Y-9739000D01*
X17061000Y-9834000D02*
X17061000Y-9739000D01*
X17061000Y-10761000D02*
X16966000Y-10761000D01*
X17061000Y-10666000D02*
X17061000Y-10761000D01*
X16039000Y-9739000D02*
X16134000Y-9739000D01*
X16039000Y-9834000D02*
X16039000Y-9739000D01*
X16039000Y-10761000D02*
X16134000Y-10761000D01*
X16039000Y-10666000D02*
X16039000Y-10761000D01*
X17615000Y-10739000D02*
X17370000Y-10739000D01*
X17435000Y-11061000D02*
X17615000Y-11061000D01*
X15588358Y-11990358D02*
X15588358Y-12060358D01*
X16010358Y-11638358D02*
X15940358Y-11638358D01*
X16010358Y-11708358D02*
X16010358Y-11638358D01*
X16010358Y-12060358D02*
X15940358Y-12060358D01*
X16010358Y-11990358D02*
X16010358Y-12060358D01*
X15588358Y-11638358D02*
X15658358Y-11638358D01*
X15588358Y-11708358D02*
X15588358Y-11638358D01*
X17170000Y-9455000D02*
X17170000Y-9695000D01*
X17330000Y-9455000D02*
X17170000Y-9455000D01*
X17330000Y-9695000D02*
X17330000Y-9455000D01*
X13437000Y-12200000D02*
X13275000Y-12362000D01*
X13437000Y-12200000D02*
X13437000Y-11725000D01*
X13200000Y-11488000D02*
X12800000Y-11488000D01*
X12563000Y-11725000D02*
X12563000Y-12125000D01*
X12800000Y-12362000D02*
X13275000Y-12362000D01*
X20200000Y-9900000D02*
X20250000Y-9900000D01*
X20200000Y-10600000D02*
X20250000Y-10600000D01*
X20020000Y-9900000D02*
X20020000Y-10050000D01*
X20020000Y-10600000D02*
X20020000Y-10450000D01*
X19591278Y-10774000D02*
X19558722Y-10774000D01*
X19591278Y-10876000D02*
X19558722Y-10876000D01*
X19000000Y-13125000D02*
X19700000Y-13125000D01*
X19000000Y-13215000D02*
X19000000Y-12535000D01*
X19700000Y-13215000D02*
X19000000Y-13215000D01*
X19700000Y-12535000D02*
X19700000Y-13215000D01*
X19000000Y-12535000D02*
X19700000Y-12535000D01*
X13400000Y-13125000D02*
X14100000Y-13125000D01*
X13400000Y-13215000D02*
X13400000Y-12535000D01*
X14100000Y-13215000D02*
X13400000Y-13215000D01*
X14100000Y-12535000D02*
X14100000Y-13215000D01*
X13400000Y-12535000D02*
X14100000Y-12535000D01*
X14299000Y-8233722D02*
X14299000Y-8266278D01*
X14401000Y-8233722D02*
X14401000Y-8266278D01*
X14299000Y-7608722D02*
X14299000Y-7641278D01*
X14401000Y-7608722D02*
X14401000Y-7641278D01*
X15721500Y-9975250D02*
X15721500Y-9810000D01*
X15749750Y-9975250D02*
X15721500Y-9975250D01*
X15749750Y-10250000D02*
X15749750Y-9975250D01*
X15749750Y-10524750D02*
X15721500Y-10524750D01*
X15749750Y-10250000D02*
X15749750Y-10524750D01*
X15200250Y-9975250D02*
X15228500Y-9975250D01*
X15200250Y-10250000D02*
X15200250Y-9975250D01*
X15200250Y-10524750D02*
X15228500Y-10524750D01*
X15200250Y-10250000D02*
X15200250Y-10524750D01*
X14498500Y-11698500D02*
X14498500Y-11470000D01*
X14351500Y-11698500D02*
X14498500Y-11698500D01*
X14351500Y-11470000D02*
X14351500Y-11698500D01*
X14773500Y-11698500D02*
X14773500Y-11470000D01*
X14626500Y-11698500D02*
X14773500Y-11698500D01*
X14626500Y-11470000D02*
X14626500Y-11698500D01*
X15048500Y-11698500D02*
X15048500Y-11470000D01*
X14901500Y-11698500D02*
X15048500Y-11698500D01*
X14901500Y-11470000D02*
X14901500Y-11698500D01*
X14374000Y-11833722D02*
X14374000Y-11866278D01*
X14476000Y-11833722D02*
X14476000Y-11866278D01*
X14649000Y-11833722D02*
X14649000Y-11866278D01*
X14751000Y-11833722D02*
X14751000Y-11866278D01*
X14924000Y-11833722D02*
X14924000Y-11866278D01*
X15026000Y-11833722D02*
X15026000Y-11866278D01*
X14051000Y-11841278D02*
X14051000Y-11808722D01*
X13949000Y-11841278D02*
X13949000Y-11808722D01*
X20308722Y-12426000D02*
X20341278Y-12426000D01*
X20308722Y-12324000D02*
X20341278Y-12324000D01*
X19494000Y-11268500D02*
X19885000Y-11268500D01*
X19494000Y-11081500D02*
X19494000Y-11268500D01*
X19885000Y-11081500D02*
X19494000Y-11081500D01*
X18706500Y-11719000D02*
X18706500Y-12110000D01*
X18893500Y-11719000D02*
X18706500Y-11719000D01*
X18893500Y-12110000D02*
X18893500Y-11719000D01*
X18450000Y-11025000D02*
G75*
G02X18525000Y-10950000I75000J0D01*
G01*
X19100000Y-11625000D02*
G75*
G02X19025000Y-11700000I-75000J0D01*
G01*
X18575000Y-11680000D02*
X18450000Y-11525000D01*
X18975000Y-10970000D02*
X19100000Y-11125000D01*
X19025000Y-11700000D02*
X18975000Y-11700000D01*
X18575000Y-10950000D02*
X18525000Y-10950000D01*
X19100000Y-11125000D02*
X19100000Y-11625000D01*
X18450000Y-11025000D02*
X18450000Y-11525000D01*
X14551500Y-8876500D02*
X14551500Y-9105000D01*
X14698500Y-8876500D02*
X14551500Y-8876500D01*
X14698500Y-9105000D02*
X14698500Y-8876500D01*
X19955000Y-8720000D02*
X19955000Y-8730000D01*
X20395000Y-8550000D02*
X19955000Y-8550000D01*
X19955000Y-8900000D02*
X20395000Y-8900000D01*
X20395000Y-8720000D02*
X20395000Y-8730000D01*
X20315000Y-9665000D02*
X20315000Y-9085000D01*
X20125000Y-9035000D02*
X20225000Y-9035000D01*
X20035000Y-9545000D02*
X20035000Y-9355000D01*
X20125000Y-9715000D02*
X20225000Y-9715000D01*
X13655000Y-8030000D02*
X13645000Y-8030000D01*
X13825000Y-8470000D02*
X13825000Y-8030000D01*
X13475000Y-8030000D02*
X13475000Y-8470000D01*
X13655000Y-8470000D02*
X13645000Y-8470000D01*
X13655000Y-7405000D02*
X13645000Y-7405000D01*
X13825000Y-7845000D02*
X13825000Y-7405000D01*
X13475000Y-7405000D02*
X13475000Y-7845000D01*
X13655000Y-7845000D02*
X13645000Y-7845000D01*
X13810000Y-12336000D02*
X14055000Y-12336000D01*
X13990000Y-12014000D02*
X13810000Y-12014000D01*
X19664000Y-12238500D02*
X19664000Y-12286000D01*
X19986000Y-11964000D02*
X19938500Y-11964000D01*
X19986000Y-12011500D02*
X19986000Y-11964000D01*
X19986000Y-12286000D02*
X19938500Y-12286000D01*
X19986000Y-12238500D02*
X19986000Y-12286000D01*
X19664000Y-11964000D02*
X19711500Y-11964000D01*
X19664000Y-12011500D02*
X19664000Y-11964000D01*
D20*
X20102500Y-8100000D02*
X20347500Y-8100000D01*
X20102500Y-8350000D02*
X20347500Y-8350000D01*
X20350000Y-8100000D02*
X20350000Y-8350000D01*
X20100000Y-8100000D02*
X20100000Y-8350000D01*
X20329142Y-8145000D02*
G75*
G03X20329142Y-8145000I-14142J0D01*
G01*
D10*
X19815000Y-11475000D02*
X19815000Y-11625000D01*
X19485000Y-11325000D02*
X19485000Y-11625000D01*
D19*
X18985000Y-9665000D02*
X18985000Y-9665000D01*
X18985000Y-9715000D02*
X18985000Y-9665000D01*
X18815000Y-9665000D02*
X18815000Y-9665000D01*
X18765000Y-9665000D02*
X18815000Y-9665000D01*
X18765000Y-9715000D02*
X18765000Y-9665000D01*
X18765000Y-9835000D02*
X18765000Y-9835000D01*
X18765000Y-9885000D02*
X18765000Y-9835000D01*
X18815000Y-9885000D02*
X18765000Y-9885000D01*
X18935000Y-9885000D02*
X18935000Y-9885000D01*
X18985000Y-9885000D02*
X18935000Y-9885000D01*
X18985000Y-9835000D02*
X18985000Y-9885000D01*
X20026500Y-10976500D02*
X20026500Y-11205000D01*
X20173500Y-10976500D02*
X20026500Y-10976500D01*
X20173500Y-11205000D02*
X20173500Y-10976500D01*
X15025000Y-13125000D02*
X15725000Y-13125000D01*
X15025000Y-13215000D02*
X15025000Y-12535000D01*
X15725000Y-13215000D02*
X15025000Y-13215000D01*
X15725000Y-12535000D02*
X15725000Y-13215000D01*
X15025000Y-12535000D02*
X15725000Y-12535000D01*
X20151000Y-11441278D02*
X20151000Y-11408722D01*
X20049000Y-11441278D02*
X20049000Y-11408722D01*
X15750000Y-13125000D02*
X16450000Y-13125000D01*
X15750000Y-13215000D02*
X15750000Y-12535000D01*
X16450000Y-13215000D02*
X15750000Y-13215000D01*
X16450000Y-12535000D02*
X16450000Y-13215000D01*
X15750000Y-12535000D02*
X16450000Y-12535000D01*
X13549000Y-12158722D02*
X13549000Y-12191278D01*
X13651000Y-12158722D02*
X13651000Y-12191278D01*
X16475000Y-13125000D02*
X17525000Y-13125000D01*
X16475000Y-13215000D02*
X16475000Y-12535000D01*
X17525000Y-13215000D02*
X16475000Y-13215000D01*
X17525000Y-12535000D02*
X17525000Y-13215000D01*
X16475000Y-12535000D02*
X17525000Y-12535000D01*
X19614794Y-10616000D02*
X19735206Y-10616000D01*
X19614794Y-10434000D02*
X19735206Y-10434000D01*
X17179000Y-11736375D02*
X17179000Y-12013625D01*
X17521000Y-11736375D02*
X17521000Y-12013625D01*
X13511375Y-9021000D02*
X13788625Y-9021000D01*
X13511375Y-8679000D02*
X13788625Y-8679000D01*
X18499000Y-10192000D02*
X18645000Y-10192000D01*
X18499000Y-10508000D02*
X18715000Y-10508000D01*
X18499000Y-10508000D02*
X18499000Y-10415000D01*
X18499000Y-10192000D02*
X18499000Y-10285000D01*
X19258722Y-10726000D02*
X19291278Y-10726000D01*
X19258722Y-10624000D02*
X19291278Y-10624000D01*
X17120000Y-11915000D02*
X17120000Y-11830000D01*
X16780000Y-11915000D02*
X16780000Y-11780000D01*
X16780000Y-12120000D02*
X16780000Y-11985000D01*
X17120000Y-12120000D02*
X17120000Y-11985000D01*
X17090000Y-12120000D02*
X17120000Y-12120000D01*
X16780000Y-12120000D02*
X16810000Y-12120000D01*
X16780000Y-11780000D02*
X16810000Y-11780000D01*
X17120000Y-11830000D02*
X17090000Y-11800000D01*
X18060000Y-11305000D02*
X18060000Y-11585000D01*
X18060000Y-11585000D02*
X17740000Y-11585000D01*
X17740000Y-11585000D02*
X17740000Y-11265000D01*
X17740000Y-11265000D02*
X18020000Y-11265000D01*
X18060000Y-11305000D02*
X18020000Y-11265000D01*
X15476000Y-8716278D02*
X15476000Y-8683722D01*
X15374000Y-8716278D02*
X15374000Y-8683722D01*
X15326000Y-8716278D02*
X15326000Y-8683722D01*
X15224000Y-8716278D02*
X15224000Y-8683722D01*
X15026000Y-8716278D02*
X15026000Y-8683722D01*
X14924000Y-8716278D02*
X14924000Y-8683722D01*
X15176000Y-8716278D02*
X15176000Y-8683722D01*
X15074000Y-8716278D02*
X15074000Y-8683722D01*
X15976000Y-8716278D02*
X15976000Y-8683722D01*
X15874000Y-8716278D02*
X15874000Y-8683722D01*
X14676000Y-8716278D02*
X14676000Y-8683722D01*
X14574000Y-8716278D02*
X14574000Y-8683722D01*
X14724000Y-8683722D02*
X14724000Y-8716278D01*
X14826000Y-8683722D02*
X14826000Y-8716278D01*
X14925000Y-7275000D02*
X15625000Y-7275000D01*
X14925000Y-7825000D02*
X14925000Y-7275000D01*
X15625000Y-7825000D02*
X15625000Y-7275000D01*
X14775000Y-7875000D02*
X14875000Y-7875000D01*
X15675000Y-7875000D02*
X15775000Y-7875000D01*
X15675000Y-7875000D02*
G75*
G02X15625000Y-7825000I0J50000D01*
G01*
X14925000Y-7825000D02*
G75*
G02X14875000Y-7875000I-50000J0D01*
G01*
X15775000Y-7875000D02*
G75*
G02X15875000Y-7975000I0J-100000D01*
G01*
X14675000Y-7975000D02*
G75*
G02X14775000Y-7875000I100000J0D01*
G01*
X15875000Y-7975000D02*
X15875000Y-8350000D01*
X14675000Y-7975000D02*
X14675000Y-8350000D01*
X15825000Y-8400000D02*
X14725000Y-8400000D01*
X15875000Y-8350000D02*
G75*
G02X15825000Y-8400000I-50000J0D01*
G01*
X14725000Y-8400000D02*
G75*
G02X14675000Y-8350000I0J50000D01*
G01*
X14830902Y-7975000D02*
G75*
G03X14830902Y-7975000I-55902J0D01*
G01*
X15830902Y-7975000D02*
G75*
G03X15830902Y-7975000I-55902J0D01*
G01*
X15626000Y-8716278D02*
X15626000Y-8683722D01*
X15524000Y-8716278D02*
X15524000Y-8683722D01*
X15724000Y-8683722D02*
X15724000Y-8716278D01*
X15826000Y-8683722D02*
X15826000Y-8716278D01*
X13515000Y-11975000D02*
X13515000Y-11720000D01*
X13685000Y-11975000D02*
X13685000Y-11720000D01*
X13515000Y-11975000D02*
X13685000Y-11975000D01*
D20*
X15765476Y-8122619D02*
X15736905Y-8122619D01*
X15751190Y-8122619D02*
X15751190Y-8072619D01*
X15746428Y-8079762D01*
X15741667Y-8084524D01*
X15736905Y-8086905D01*
X15808333Y-8089286D02*
X15808333Y-8122619D01*
X15796428Y-8070238D02*
X15784524Y-8105952D01*
X15815476Y-8105952D01*
X14789286Y-8122619D02*
X14760714Y-8122619D01*
X14775000Y-8122619D02*
X14775000Y-8072619D01*
X14770238Y-8079762D01*
X14765476Y-8084524D01*
X14760714Y-8086905D01*
M02*
