G04 #@! TF.GenerationSoftware,KiCad,Pcbnew,5.1.5-1.fc31*
G04 #@! TF.CreationDate,2020-07-10T22:42:19+07:00*
G04 #@! TF.ProjectId,MP_SamBaseBoard_V1,4d505f53-616d-4426-9173-65426f617264,rev?*
G04 #@! TF.SameCoordinates,Original*
G04 #@! TF.FileFunction,Soldermask,Bot*
G04 #@! TF.FilePolarity,Negative*
%FSLAX45Y45*%
G04 Gerber Fmt 4.5, Leading zero omitted, Abs format (unit mm)*
G04 Created by KiCad (PCBNEW 5.1.5-1.fc31) date 2020-07-10 22:42:19*
%MOMM*%
%LPD*%
G04 APERTURE LIST*
%ADD10C,0.100000*%
G04 APERTURE END LIST*
D10*
G36*
X14665351Y-12968393D02*
G01*
X14680281Y-12971362D01*
X14696678Y-12978154D01*
X14711435Y-12988015D01*
X14723985Y-13000565D01*
X14733846Y-13015322D01*
X14740638Y-13031719D01*
X14744100Y-13049126D01*
X14744100Y-13066874D01*
X14740638Y-13084281D01*
X14733846Y-13100678D01*
X14723985Y-13115435D01*
X14711435Y-13127985D01*
X14696678Y-13137846D01*
X14680281Y-13144638D01*
X14665351Y-13147607D01*
X14662874Y-13148100D01*
X14645126Y-13148100D01*
X14642649Y-13147607D01*
X14627719Y-13144638D01*
X14611322Y-13137846D01*
X14596565Y-13127985D01*
X14584015Y-13115435D01*
X14574154Y-13100678D01*
X14567362Y-13084281D01*
X14563900Y-13066874D01*
X14563900Y-13049126D01*
X14567362Y-13031719D01*
X14574154Y-13015322D01*
X14584015Y-13000565D01*
X14596565Y-12988015D01*
X14611322Y-12978154D01*
X14627719Y-12971362D01*
X14642649Y-12968393D01*
X14645126Y-12967900D01*
X14662874Y-12967900D01*
X14665351Y-12968393D01*
G37*
G36*
X14411351Y-12968393D02*
G01*
X14426281Y-12971362D01*
X14442678Y-12978154D01*
X14457435Y-12988015D01*
X14469985Y-13000565D01*
X14479846Y-13015322D01*
X14486638Y-13031719D01*
X14490100Y-13049126D01*
X14490100Y-13066874D01*
X14486638Y-13084281D01*
X14479846Y-13100678D01*
X14469985Y-13115435D01*
X14457435Y-13127985D01*
X14442678Y-13137846D01*
X14426281Y-13144638D01*
X14411351Y-13147607D01*
X14408874Y-13148100D01*
X14391126Y-13148100D01*
X14388649Y-13147607D01*
X14373719Y-13144638D01*
X14357322Y-13137846D01*
X14342565Y-13127985D01*
X14330015Y-13115435D01*
X14320154Y-13100678D01*
X14313362Y-13084281D01*
X14309900Y-13066874D01*
X14309900Y-13049126D01*
X14313362Y-13031719D01*
X14320154Y-13015322D01*
X14330015Y-13000565D01*
X14342565Y-12988015D01*
X14357322Y-12978154D01*
X14373719Y-12971362D01*
X14388649Y-12968393D01*
X14391126Y-12967900D01*
X14408874Y-12967900D01*
X14411351Y-12968393D01*
G37*
G36*
X12952533Y-12676821D02*
G01*
X12985309Y-12690397D01*
X13014807Y-12710107D01*
X13039893Y-12735193D01*
X13059603Y-12764691D01*
X13073179Y-12797467D01*
X13080100Y-12832262D01*
X13080100Y-12867738D01*
X13073179Y-12902533D01*
X13059603Y-12935309D01*
X13039893Y-12964807D01*
X13014807Y-12989893D01*
X12985309Y-13009603D01*
X12952533Y-13023179D01*
X12917738Y-13030100D01*
X12882262Y-13030100D01*
X12847467Y-13023179D01*
X12814691Y-13009603D01*
X12785193Y-12989893D01*
X12760107Y-12964807D01*
X12740397Y-12935309D01*
X12726821Y-12902533D01*
X12719900Y-12867738D01*
X12719900Y-12832262D01*
X12726821Y-12797467D01*
X12740397Y-12764691D01*
X12760107Y-12735193D01*
X12785193Y-12710107D01*
X12814691Y-12690397D01*
X12847467Y-12676821D01*
X12882262Y-12669900D01*
X12917738Y-12669900D01*
X12952533Y-12676821D01*
G37*
G36*
X20152533Y-12676821D02*
G01*
X20185309Y-12690397D01*
X20214807Y-12710107D01*
X20239893Y-12735193D01*
X20259603Y-12764691D01*
X20273179Y-12797467D01*
X20280100Y-12832262D01*
X20280100Y-12867738D01*
X20273179Y-12902533D01*
X20259603Y-12935309D01*
X20239893Y-12964807D01*
X20214807Y-12989893D01*
X20185309Y-13009603D01*
X20152533Y-13023179D01*
X20117738Y-13030100D01*
X20082262Y-13030100D01*
X20047467Y-13023179D01*
X20014691Y-13009603D01*
X19985193Y-12989893D01*
X19960107Y-12964807D01*
X19940397Y-12935309D01*
X19926821Y-12902533D01*
X19919900Y-12867738D01*
X19919900Y-12832262D01*
X19926821Y-12797467D01*
X19940397Y-12764691D01*
X19960107Y-12735193D01*
X19985193Y-12710107D01*
X20014691Y-12690397D01*
X20047467Y-12676821D01*
X20082262Y-12669900D01*
X20117738Y-12669900D01*
X20152533Y-12676821D01*
G37*
G36*
X19561490Y-12754707D02*
G01*
X19584257Y-12764138D01*
X19604747Y-12777828D01*
X19622172Y-12795253D01*
X19623651Y-12797467D01*
X19635862Y-12815743D01*
X19645293Y-12838510D01*
X19650100Y-12862679D01*
X19650100Y-12887321D01*
X19647074Y-12902533D01*
X19645293Y-12911490D01*
X19635862Y-12934257D01*
X19622172Y-12954747D01*
X19604747Y-12972171D01*
X19584257Y-12985862D01*
X19584257Y-12985862D01*
X19584257Y-12985862D01*
X19561490Y-12995292D01*
X19537321Y-13000100D01*
X19512679Y-13000100D01*
X19488510Y-12995292D01*
X19465743Y-12985862D01*
X19465743Y-12985862D01*
X19465743Y-12985862D01*
X19445253Y-12972171D01*
X19427829Y-12954747D01*
X19414138Y-12934257D01*
X19404708Y-12911490D01*
X19402926Y-12902533D01*
X19399900Y-12887321D01*
X19399900Y-12862679D01*
X19404708Y-12838510D01*
X19414138Y-12815743D01*
X19426350Y-12797467D01*
X19427829Y-12795253D01*
X19445253Y-12777828D01*
X19465743Y-12764138D01*
X19488510Y-12754707D01*
X19512679Y-12749900D01*
X19537321Y-12749900D01*
X19561490Y-12754707D01*
G37*
G36*
X16775100Y-13000100D02*
G01*
X16524900Y-13000100D01*
X16524900Y-12749900D01*
X16775100Y-12749900D01*
X16775100Y-13000100D01*
G37*
G36*
X19300100Y-13000100D02*
G01*
X19049900Y-13000100D01*
X19049900Y-12749900D01*
X19300100Y-12749900D01*
X19300100Y-13000100D01*
G37*
G36*
X13961490Y-12754707D02*
G01*
X13984257Y-12764138D01*
X14004747Y-12777828D01*
X14022171Y-12795253D01*
X14023650Y-12797467D01*
X14035862Y-12815743D01*
X14045292Y-12838510D01*
X14050100Y-12862679D01*
X14050100Y-12887321D01*
X14047074Y-12902533D01*
X14045292Y-12911490D01*
X14035862Y-12934257D01*
X14022171Y-12954747D01*
X14004747Y-12972171D01*
X13984257Y-12985862D01*
X13984257Y-12985862D01*
X13984257Y-12985862D01*
X13961490Y-12995292D01*
X13937321Y-13000100D01*
X13912679Y-13000100D01*
X13888510Y-12995292D01*
X13865743Y-12985862D01*
X13865743Y-12985862D01*
X13865743Y-12985862D01*
X13845253Y-12972171D01*
X13827828Y-12954747D01*
X13814138Y-12934257D01*
X13804707Y-12911490D01*
X13802926Y-12902533D01*
X13799900Y-12887321D01*
X13799900Y-12862679D01*
X13804707Y-12838510D01*
X13814138Y-12815743D01*
X13826349Y-12797467D01*
X13827828Y-12795253D01*
X13845253Y-12777828D01*
X13865743Y-12764138D01*
X13888510Y-12754707D01*
X13912679Y-12749900D01*
X13937321Y-12749900D01*
X13961490Y-12754707D01*
G37*
G36*
X13700100Y-13000100D02*
G01*
X13449900Y-13000100D01*
X13449900Y-12749900D01*
X13700100Y-12749900D01*
X13700100Y-13000100D01*
G37*
G36*
X15325100Y-13000100D02*
G01*
X15074900Y-13000100D01*
X15074900Y-12749900D01*
X15325100Y-12749900D01*
X15325100Y-13000100D01*
G37*
G36*
X16311490Y-12754707D02*
G01*
X16334257Y-12764138D01*
X16354747Y-12777828D01*
X16372171Y-12795253D01*
X16373650Y-12797467D01*
X16385862Y-12815743D01*
X16395292Y-12838510D01*
X16400100Y-12862679D01*
X16400100Y-12887321D01*
X16397074Y-12902533D01*
X16395292Y-12911490D01*
X16385862Y-12934257D01*
X16372171Y-12954747D01*
X16354747Y-12972171D01*
X16334257Y-12985862D01*
X16334257Y-12985862D01*
X16334257Y-12985862D01*
X16311490Y-12995292D01*
X16287321Y-13000100D01*
X16262679Y-13000100D01*
X16238510Y-12995292D01*
X16215743Y-12985862D01*
X16215743Y-12985862D01*
X16215743Y-12985862D01*
X16195253Y-12972171D01*
X16177828Y-12954747D01*
X16164138Y-12934257D01*
X16154707Y-12911490D01*
X16152926Y-12902533D01*
X16149900Y-12887321D01*
X16149900Y-12862679D01*
X16154707Y-12838510D01*
X16164138Y-12815743D01*
X16176349Y-12797467D01*
X16177828Y-12795253D01*
X16195253Y-12777828D01*
X16215743Y-12764138D01*
X16238510Y-12754707D01*
X16262679Y-12749900D01*
X16287321Y-12749900D01*
X16311490Y-12754707D01*
G37*
G36*
X16050100Y-13000100D02*
G01*
X15799900Y-13000100D01*
X15799900Y-12749900D01*
X16050100Y-12749900D01*
X16050100Y-13000100D01*
G37*
G36*
X17386490Y-12754707D02*
G01*
X17409257Y-12764138D01*
X17429747Y-12777828D01*
X17447172Y-12795253D01*
X17448651Y-12797467D01*
X17460862Y-12815743D01*
X17470293Y-12838510D01*
X17475100Y-12862679D01*
X17475100Y-12887321D01*
X17472074Y-12902533D01*
X17470293Y-12911490D01*
X17460862Y-12934257D01*
X17447172Y-12954747D01*
X17429747Y-12972171D01*
X17409257Y-12985862D01*
X17409257Y-12985862D01*
X17409257Y-12985862D01*
X17386490Y-12995292D01*
X17362321Y-13000100D01*
X17337679Y-13000100D01*
X17313510Y-12995292D01*
X17290743Y-12985862D01*
X17290743Y-12985862D01*
X17290743Y-12985862D01*
X17270253Y-12972171D01*
X17252829Y-12954747D01*
X17239138Y-12934257D01*
X17229708Y-12911490D01*
X17227926Y-12902533D01*
X17224900Y-12887321D01*
X17224900Y-12862679D01*
X17229708Y-12838510D01*
X17239138Y-12815743D01*
X17251350Y-12797467D01*
X17252829Y-12795253D01*
X17270253Y-12777828D01*
X17290743Y-12764138D01*
X17313510Y-12754707D01*
X17337679Y-12749900D01*
X17362321Y-12749900D01*
X17386490Y-12754707D01*
G37*
G36*
X17036490Y-12754707D02*
G01*
X17059257Y-12764138D01*
X17079747Y-12777828D01*
X17097172Y-12795253D01*
X17098651Y-12797467D01*
X17110862Y-12815743D01*
X17120293Y-12838510D01*
X17125100Y-12862679D01*
X17125100Y-12887321D01*
X17122074Y-12902533D01*
X17120293Y-12911490D01*
X17110862Y-12934257D01*
X17097172Y-12954747D01*
X17079747Y-12972171D01*
X17059257Y-12985862D01*
X17059257Y-12985862D01*
X17059257Y-12985862D01*
X17036490Y-12995292D01*
X17012321Y-13000100D01*
X16987679Y-13000100D01*
X16963510Y-12995292D01*
X16940743Y-12985862D01*
X16940743Y-12985862D01*
X16940743Y-12985862D01*
X16920253Y-12972171D01*
X16902829Y-12954747D01*
X16889138Y-12934257D01*
X16879708Y-12911490D01*
X16877926Y-12902533D01*
X16874900Y-12887321D01*
X16874900Y-12862679D01*
X16879708Y-12838510D01*
X16889138Y-12815743D01*
X16901350Y-12797467D01*
X16902829Y-12795253D01*
X16920253Y-12777828D01*
X16940743Y-12764138D01*
X16963510Y-12754707D01*
X16987679Y-12749900D01*
X17012321Y-12749900D01*
X17036490Y-12754707D01*
G37*
G36*
X15586490Y-12754707D02*
G01*
X15609257Y-12764138D01*
X15629747Y-12777828D01*
X15647171Y-12795253D01*
X15648650Y-12797467D01*
X15660862Y-12815743D01*
X15670292Y-12838510D01*
X15675100Y-12862679D01*
X15675100Y-12887321D01*
X15672074Y-12902533D01*
X15670292Y-12911490D01*
X15660862Y-12934257D01*
X15647171Y-12954747D01*
X15629747Y-12972171D01*
X15609257Y-12985862D01*
X15609257Y-12985862D01*
X15609257Y-12985862D01*
X15586490Y-12995292D01*
X15562321Y-13000100D01*
X15537679Y-13000100D01*
X15513510Y-12995292D01*
X15490743Y-12985862D01*
X15490743Y-12985862D01*
X15490743Y-12985862D01*
X15470253Y-12972171D01*
X15452828Y-12954747D01*
X15439138Y-12934257D01*
X15429707Y-12911490D01*
X15427926Y-12902533D01*
X15424900Y-12887321D01*
X15424900Y-12862679D01*
X15429707Y-12838510D01*
X15439138Y-12815743D01*
X15451349Y-12797467D01*
X15452828Y-12795253D01*
X15470253Y-12777828D01*
X15490743Y-12764138D01*
X15513510Y-12754707D01*
X15537679Y-12749900D01*
X15562321Y-12749900D01*
X15586490Y-12754707D01*
G37*
G36*
X14411351Y-12714393D02*
G01*
X14426281Y-12717362D01*
X14442678Y-12724154D01*
X14457435Y-12734015D01*
X14469985Y-12746565D01*
X14479846Y-12761322D01*
X14486638Y-12777719D01*
X14490100Y-12795126D01*
X14490100Y-12812874D01*
X14486638Y-12830281D01*
X14479846Y-12846678D01*
X14469985Y-12861435D01*
X14457435Y-12873985D01*
X14442678Y-12883846D01*
X14426281Y-12890638D01*
X14411351Y-12893607D01*
X14408874Y-12894100D01*
X14391126Y-12894100D01*
X14388649Y-12893607D01*
X14373719Y-12890638D01*
X14357322Y-12883846D01*
X14342565Y-12873985D01*
X14330015Y-12861435D01*
X14320154Y-12846678D01*
X14313362Y-12830281D01*
X14309900Y-12812874D01*
X14309900Y-12795126D01*
X14313362Y-12777719D01*
X14320154Y-12761322D01*
X14330015Y-12746565D01*
X14342565Y-12734015D01*
X14357322Y-12724154D01*
X14373719Y-12717362D01*
X14388649Y-12714393D01*
X14391126Y-12713900D01*
X14408874Y-12713900D01*
X14411351Y-12714393D01*
G37*
G36*
X14665351Y-12714393D02*
G01*
X14680281Y-12717362D01*
X14696678Y-12724154D01*
X14711435Y-12734015D01*
X14723985Y-12746565D01*
X14733846Y-12761322D01*
X14740638Y-12777719D01*
X14744100Y-12795126D01*
X14744100Y-12812874D01*
X14740638Y-12830281D01*
X14733846Y-12846678D01*
X14723985Y-12861435D01*
X14711435Y-12873985D01*
X14696678Y-12883846D01*
X14680281Y-12890638D01*
X14665351Y-12893607D01*
X14662874Y-12894100D01*
X14645126Y-12894100D01*
X14642649Y-12893607D01*
X14627719Y-12890638D01*
X14611322Y-12883846D01*
X14596565Y-12873985D01*
X14584015Y-12861435D01*
X14574154Y-12846678D01*
X14567362Y-12830281D01*
X14563900Y-12812874D01*
X14563900Y-12795126D01*
X14567362Y-12777719D01*
X14574154Y-12761322D01*
X14584015Y-12746565D01*
X14596565Y-12734015D01*
X14611322Y-12724154D01*
X14627719Y-12717362D01*
X14642649Y-12714393D01*
X14645126Y-12713900D01*
X14662874Y-12713900D01*
X14665351Y-12714393D01*
G37*
G36*
X14490100Y-12640100D02*
G01*
X14309900Y-12640100D01*
X14309900Y-12459900D01*
X14490100Y-12459900D01*
X14490100Y-12640100D01*
G37*
G36*
X14665351Y-12460393D02*
G01*
X14680281Y-12463362D01*
X14696678Y-12470154D01*
X14711435Y-12480015D01*
X14723985Y-12492565D01*
X14733846Y-12507322D01*
X14740638Y-12523719D01*
X14743607Y-12538649D01*
X14744100Y-12541126D01*
X14744100Y-12558874D01*
X14743607Y-12561351D01*
X14740638Y-12576281D01*
X14733846Y-12592678D01*
X14723985Y-12607435D01*
X14711435Y-12619985D01*
X14696678Y-12629846D01*
X14680281Y-12636638D01*
X14665351Y-12639607D01*
X14662874Y-12640100D01*
X14645126Y-12640100D01*
X14642649Y-12639607D01*
X14627719Y-12636638D01*
X14611322Y-12629846D01*
X14596565Y-12619985D01*
X14584015Y-12607435D01*
X14574154Y-12592678D01*
X14567362Y-12576281D01*
X14564393Y-12561351D01*
X14563900Y-12558874D01*
X14563900Y-12541126D01*
X14564393Y-12538649D01*
X14567362Y-12523719D01*
X14574154Y-12507322D01*
X14584015Y-12492565D01*
X14596565Y-12480015D01*
X14611322Y-12470154D01*
X14627719Y-12463362D01*
X14642649Y-12460393D01*
X14645126Y-12459900D01*
X14662874Y-12459900D01*
X14665351Y-12460393D01*
G37*
G36*
X18147698Y-12271329D02*
G01*
X18161063Y-12275383D01*
X18173378Y-12281966D01*
X18184174Y-12290826D01*
X18193034Y-12301622D01*
X18199617Y-12313937D01*
X18203671Y-12327302D01*
X18205100Y-12341814D01*
X18205100Y-12508186D01*
X18203671Y-12522698D01*
X18199617Y-12536062D01*
X18193034Y-12548378D01*
X18184174Y-12559174D01*
X18173378Y-12568034D01*
X18161063Y-12574617D01*
X18147698Y-12578671D01*
X18133186Y-12580100D01*
X17916814Y-12580100D01*
X17902302Y-12578671D01*
X17888938Y-12574617D01*
X17876622Y-12568034D01*
X17865826Y-12559174D01*
X17856966Y-12548378D01*
X17850383Y-12536062D01*
X17846329Y-12522698D01*
X17844900Y-12508186D01*
X17844900Y-12341814D01*
X17846329Y-12327302D01*
X17850383Y-12313937D01*
X17856966Y-12301622D01*
X17865826Y-12290826D01*
X17876622Y-12281966D01*
X17888938Y-12275383D01*
X17902302Y-12271329D01*
X17916814Y-12269900D01*
X18133186Y-12269900D01*
X18147698Y-12271329D01*
G37*
G36*
X18607637Y-11946569D02*
G01*
X18623346Y-11951335D01*
X18637823Y-11959073D01*
X18650513Y-11969487D01*
X18660927Y-11982177D01*
X18668665Y-11996654D01*
X18673431Y-12012363D01*
X18675100Y-12029314D01*
X18675100Y-12220686D01*
X18673431Y-12237637D01*
X18668665Y-12253346D01*
X18660927Y-12267823D01*
X18650513Y-12280513D01*
X18637823Y-12290927D01*
X18623346Y-12298665D01*
X18607637Y-12303430D01*
X18590686Y-12305100D01*
X18399314Y-12305100D01*
X18382363Y-12303430D01*
X18366654Y-12298665D01*
X18352177Y-12290927D01*
X18339487Y-12280513D01*
X18329073Y-12267823D01*
X18321335Y-12253346D01*
X18316570Y-12237637D01*
X18314900Y-12220686D01*
X18314900Y-12029314D01*
X18316570Y-12012363D01*
X18321335Y-11996654D01*
X18329073Y-11982177D01*
X18339487Y-11969487D01*
X18352177Y-11959073D01*
X18366654Y-11951335D01*
X18382363Y-11946569D01*
X18399314Y-11944900D01*
X18590686Y-11944900D01*
X18607637Y-11946569D01*
G37*
G36*
X18205100Y-12005100D02*
G01*
X17844900Y-12005100D01*
X17844900Y-11644900D01*
X18205100Y-11644900D01*
X18205100Y-12005100D01*
G37*
G36*
X16080361Y-11167428D02*
G01*
X16086413Y-11168632D01*
X16103516Y-11175716D01*
X16118909Y-11186001D01*
X16131999Y-11199091D01*
X16142284Y-11214484D01*
X16149368Y-11231587D01*
X16152980Y-11249744D01*
X16152980Y-11268256D01*
X16149368Y-11286413D01*
X16142284Y-11303516D01*
X16131999Y-11318909D01*
X16118909Y-11331999D01*
X16103516Y-11342284D01*
X16086413Y-11349368D01*
X16080361Y-11350572D01*
X16068256Y-11352980D01*
X16049744Y-11352980D01*
X16037639Y-11350572D01*
X16031587Y-11349368D01*
X16014484Y-11342284D01*
X15999091Y-11331999D01*
X15986001Y-11318909D01*
X15975716Y-11303516D01*
X15968632Y-11286413D01*
X15965020Y-11268256D01*
X15965020Y-11249744D01*
X15968632Y-11231587D01*
X15975716Y-11214484D01*
X15986001Y-11199091D01*
X15999091Y-11186001D01*
X16014484Y-11175716D01*
X16031587Y-11168632D01*
X16037639Y-11167428D01*
X16049744Y-11165020D01*
X16068256Y-11165020D01*
X16080361Y-11167428D01*
G37*
G36*
X17604361Y-11167428D02*
G01*
X17610413Y-11168632D01*
X17627516Y-11175716D01*
X17642909Y-11186001D01*
X17655999Y-11199091D01*
X17666284Y-11214484D01*
X17673368Y-11231587D01*
X17676980Y-11249744D01*
X17676980Y-11268256D01*
X17673368Y-11286413D01*
X17666284Y-11303516D01*
X17655999Y-11318909D01*
X17642909Y-11331999D01*
X17627516Y-11342284D01*
X17610413Y-11349368D01*
X17604361Y-11350572D01*
X17592256Y-11352980D01*
X17573744Y-11352980D01*
X17561639Y-11350572D01*
X17555587Y-11349368D01*
X17538484Y-11342284D01*
X17523091Y-11331999D01*
X17510001Y-11318909D01*
X17499716Y-11303516D01*
X17492632Y-11286413D01*
X17489020Y-11268256D01*
X17489020Y-11249744D01*
X17492632Y-11231587D01*
X17499716Y-11214484D01*
X17510001Y-11199091D01*
X17523091Y-11186001D01*
X17538484Y-11175716D01*
X17555587Y-11168632D01*
X17561639Y-11167428D01*
X17573744Y-11165020D01*
X17592256Y-11165020D01*
X17604361Y-11167428D01*
G37*
G36*
X17096361Y-11167428D02*
G01*
X17102413Y-11168632D01*
X17119516Y-11175716D01*
X17134909Y-11186001D01*
X17147999Y-11199091D01*
X17158284Y-11214484D01*
X17165368Y-11231587D01*
X17168980Y-11249744D01*
X17168980Y-11268256D01*
X17165368Y-11286413D01*
X17158284Y-11303516D01*
X17147999Y-11318909D01*
X17134909Y-11331999D01*
X17119516Y-11342284D01*
X17102413Y-11349368D01*
X17096361Y-11350572D01*
X17084256Y-11352980D01*
X17065744Y-11352980D01*
X17053639Y-11350572D01*
X17047587Y-11349368D01*
X17030484Y-11342284D01*
X17015091Y-11331999D01*
X17002001Y-11318909D01*
X16991716Y-11303516D01*
X16984632Y-11286413D01*
X16981020Y-11268256D01*
X16981020Y-11249744D01*
X16984632Y-11231587D01*
X16991716Y-11214484D01*
X17002001Y-11199091D01*
X17015091Y-11186001D01*
X17030484Y-11175716D01*
X17047587Y-11168632D01*
X17053639Y-11167428D01*
X17065744Y-11165020D01*
X17084256Y-11165020D01*
X17096361Y-11167428D01*
G37*
G36*
X16842361Y-11167428D02*
G01*
X16848413Y-11168632D01*
X16865516Y-11175716D01*
X16880909Y-11186001D01*
X16893999Y-11199091D01*
X16904284Y-11214484D01*
X16911368Y-11231587D01*
X16914980Y-11249744D01*
X16914980Y-11268256D01*
X16911368Y-11286413D01*
X16904284Y-11303516D01*
X16893999Y-11318909D01*
X16880909Y-11331999D01*
X16865516Y-11342284D01*
X16848413Y-11349368D01*
X16842361Y-11350572D01*
X16830256Y-11352980D01*
X16811744Y-11352980D01*
X16799639Y-11350572D01*
X16793587Y-11349368D01*
X16776484Y-11342284D01*
X16761091Y-11331999D01*
X16748001Y-11318909D01*
X16737716Y-11303516D01*
X16730632Y-11286413D01*
X16727020Y-11268256D01*
X16727020Y-11249744D01*
X16730632Y-11231587D01*
X16737716Y-11214484D01*
X16748001Y-11199091D01*
X16761091Y-11186001D01*
X16776484Y-11175716D01*
X16793587Y-11168632D01*
X16799639Y-11167428D01*
X16811744Y-11165020D01*
X16830256Y-11165020D01*
X16842361Y-11167428D01*
G37*
G36*
X16334361Y-11167428D02*
G01*
X16340413Y-11168632D01*
X16357516Y-11175716D01*
X16372909Y-11186001D01*
X16385999Y-11199091D01*
X16396284Y-11214484D01*
X16403368Y-11231587D01*
X16406980Y-11249744D01*
X16406980Y-11268256D01*
X16403368Y-11286413D01*
X16396284Y-11303516D01*
X16385999Y-11318909D01*
X16372909Y-11331999D01*
X16357516Y-11342284D01*
X16340413Y-11349368D01*
X16334361Y-11350572D01*
X16322256Y-11352980D01*
X16303744Y-11352980D01*
X16291639Y-11350572D01*
X16285587Y-11349368D01*
X16268484Y-11342284D01*
X16253091Y-11331999D01*
X16240001Y-11318909D01*
X16229716Y-11303516D01*
X16222632Y-11286413D01*
X16219020Y-11268256D01*
X16219020Y-11249744D01*
X16222632Y-11231587D01*
X16229716Y-11214484D01*
X16240001Y-11199091D01*
X16253091Y-11186001D01*
X16268484Y-11175716D01*
X16285587Y-11168632D01*
X16291639Y-11167428D01*
X16303744Y-11165020D01*
X16322256Y-11165020D01*
X16334361Y-11167428D01*
G37*
G36*
X15826361Y-11167428D02*
G01*
X15832413Y-11168632D01*
X15849516Y-11175716D01*
X15864909Y-11186001D01*
X15877999Y-11199091D01*
X15888284Y-11214484D01*
X15895368Y-11231587D01*
X15898980Y-11249744D01*
X15898980Y-11268256D01*
X15895368Y-11286413D01*
X15888284Y-11303516D01*
X15877999Y-11318909D01*
X15864909Y-11331999D01*
X15849516Y-11342284D01*
X15832413Y-11349368D01*
X15826361Y-11350572D01*
X15814256Y-11352980D01*
X15795744Y-11352980D01*
X15783639Y-11350572D01*
X15777587Y-11349368D01*
X15760484Y-11342284D01*
X15745091Y-11331999D01*
X15732001Y-11318909D01*
X15721716Y-11303516D01*
X15714632Y-11286413D01*
X15711020Y-11268256D01*
X15711020Y-11249744D01*
X15714632Y-11231587D01*
X15721716Y-11214484D01*
X15732001Y-11199091D01*
X15745091Y-11186001D01*
X15760484Y-11175716D01*
X15777587Y-11168632D01*
X15783639Y-11167428D01*
X15795744Y-11165020D01*
X15814256Y-11165020D01*
X15826361Y-11167428D01*
G37*
G36*
X17350361Y-11167428D02*
G01*
X17356413Y-11168632D01*
X17373516Y-11175716D01*
X17388909Y-11186001D01*
X17401999Y-11199091D01*
X17412284Y-11214484D01*
X17419368Y-11231587D01*
X17422980Y-11249744D01*
X17422980Y-11268256D01*
X17419368Y-11286413D01*
X17412284Y-11303516D01*
X17401999Y-11318909D01*
X17388909Y-11331999D01*
X17373516Y-11342284D01*
X17356413Y-11349368D01*
X17350361Y-11350572D01*
X17338256Y-11352980D01*
X17319744Y-11352980D01*
X17307639Y-11350572D01*
X17301587Y-11349368D01*
X17284484Y-11342284D01*
X17269091Y-11331999D01*
X17256001Y-11318909D01*
X17245716Y-11303516D01*
X17238632Y-11286413D01*
X17235020Y-11268256D01*
X17235020Y-11249744D01*
X17238632Y-11231587D01*
X17245716Y-11214484D01*
X17256001Y-11199091D01*
X17269091Y-11186001D01*
X17284484Y-11175716D01*
X17301587Y-11168632D01*
X17307639Y-11167428D01*
X17319744Y-11165020D01*
X17338256Y-11165020D01*
X17350361Y-11167428D01*
G37*
G36*
X16588361Y-11167428D02*
G01*
X16594413Y-11168632D01*
X16611516Y-11175716D01*
X16626909Y-11186001D01*
X16639999Y-11199091D01*
X16650284Y-11214484D01*
X16657368Y-11231587D01*
X16660980Y-11249744D01*
X16660980Y-11268256D01*
X16657368Y-11286413D01*
X16650284Y-11303516D01*
X16639999Y-11318909D01*
X16626909Y-11331999D01*
X16611516Y-11342284D01*
X16594413Y-11349368D01*
X16588361Y-11350572D01*
X16576256Y-11352980D01*
X16557744Y-11352980D01*
X16545639Y-11350572D01*
X16539587Y-11349368D01*
X16522484Y-11342284D01*
X16507091Y-11331999D01*
X16494001Y-11318909D01*
X16483716Y-11303516D01*
X16476632Y-11286413D01*
X16473020Y-11268256D01*
X16473020Y-11249744D01*
X16476632Y-11231587D01*
X16483716Y-11214484D01*
X16494001Y-11199091D01*
X16507091Y-11186001D01*
X16522484Y-11175716D01*
X16539587Y-11168632D01*
X16545639Y-11167428D01*
X16557744Y-11165020D01*
X16576256Y-11165020D01*
X16588361Y-11167428D01*
G37*
G36*
X20394821Y-10530625D02*
G01*
X20404265Y-10533490D01*
X20412969Y-10538142D01*
X20420598Y-10544403D01*
X20426858Y-10552031D01*
X20431510Y-10560735D01*
X20434375Y-10570179D01*
X20435342Y-10580000D01*
X20434375Y-10589821D01*
X20431510Y-10599265D01*
X20426858Y-10607969D01*
X20420598Y-10615598D01*
X20412969Y-10621858D01*
X20404265Y-10626510D01*
X20394821Y-10629375D01*
X20387461Y-10630100D01*
X20312539Y-10630100D01*
X20305179Y-10629375D01*
X20295735Y-10626510D01*
X20287031Y-10621858D01*
X20279403Y-10615598D01*
X20273142Y-10607969D01*
X20268490Y-10599265D01*
X20265625Y-10589821D01*
X20264658Y-10580000D01*
X20265625Y-10570179D01*
X20268490Y-10560735D01*
X20273142Y-10552031D01*
X20279403Y-10544403D01*
X20287031Y-10538142D01*
X20295735Y-10533490D01*
X20305179Y-10530625D01*
X20312539Y-10529900D01*
X20387461Y-10529900D01*
X20394821Y-10530625D01*
G37*
G36*
X17889072Y-9914017D02*
G01*
X17899100Y-9918171D01*
X17899100Y-9918171D01*
X17908124Y-9924201D01*
X17915799Y-9931876D01*
X17915799Y-9931876D01*
X17921829Y-9940901D01*
X17924952Y-9948439D01*
X17926107Y-9950600D01*
X17927661Y-9952494D01*
X17929555Y-9954049D01*
X17931717Y-9955204D01*
X17934061Y-9955915D01*
X17936500Y-9956155D01*
X17938939Y-9955915D01*
X17941284Y-9955204D01*
X17943445Y-9954049D01*
X17945339Y-9952494D01*
X17946893Y-9950600D01*
X17948048Y-9948439D01*
X17951171Y-9940901D01*
X17957201Y-9931876D01*
X17957201Y-9931876D01*
X17964876Y-9924201D01*
X17973900Y-9918171D01*
X17973901Y-9918171D01*
X17983928Y-9914017D01*
X17994573Y-9911900D01*
X18005427Y-9911900D01*
X18016072Y-9914017D01*
X18026100Y-9918171D01*
X18026100Y-9918171D01*
X18035124Y-9924201D01*
X18042799Y-9931876D01*
X18042799Y-9931876D01*
X18048829Y-9940901D01*
X18052983Y-9950928D01*
X18055100Y-9961573D01*
X18055100Y-9972427D01*
X18052983Y-9983072D01*
X18048829Y-9993100D01*
X18048829Y-9993100D01*
X18042799Y-10002124D01*
X18035124Y-10009799D01*
X18030581Y-10012835D01*
X18026100Y-10015829D01*
X18018561Y-10018952D01*
X18016400Y-10020107D01*
X18014506Y-10021661D01*
X18012951Y-10023555D01*
X18011796Y-10025717D01*
X18011085Y-10028061D01*
X18010845Y-10030500D01*
X18011085Y-10032939D01*
X18011796Y-10035284D01*
X18012951Y-10037445D01*
X18014506Y-10039339D01*
X18016400Y-10040893D01*
X18018561Y-10042048D01*
X18026100Y-10045171D01*
X18026100Y-10045171D01*
X18035124Y-10051201D01*
X18042799Y-10058876D01*
X18042799Y-10058876D01*
X18048829Y-10067901D01*
X18052983Y-10077928D01*
X18055100Y-10088573D01*
X18055100Y-10099427D01*
X18052983Y-10110072D01*
X18048829Y-10120100D01*
X18048829Y-10120100D01*
X18042799Y-10129124D01*
X18035124Y-10136799D01*
X18030581Y-10139835D01*
X18026100Y-10142829D01*
X18018561Y-10145952D01*
X18016400Y-10147107D01*
X18014506Y-10148661D01*
X18012951Y-10150555D01*
X18011796Y-10152717D01*
X18011085Y-10155061D01*
X18010845Y-10157500D01*
X18011085Y-10159939D01*
X18011796Y-10162284D01*
X18012951Y-10164445D01*
X18014506Y-10166339D01*
X18016400Y-10167893D01*
X18018561Y-10169048D01*
X18026100Y-10172171D01*
X18026100Y-10172171D01*
X18035124Y-10178201D01*
X18042799Y-10185876D01*
X18042799Y-10185876D01*
X18048829Y-10194901D01*
X18052983Y-10204928D01*
X18055100Y-10215573D01*
X18055100Y-10226427D01*
X18052983Y-10237072D01*
X18048829Y-10247100D01*
X18048829Y-10247100D01*
X18042799Y-10256124D01*
X18035124Y-10263799D01*
X18030581Y-10266835D01*
X18026100Y-10269829D01*
X18018561Y-10272952D01*
X18016400Y-10274107D01*
X18014506Y-10275661D01*
X18012951Y-10277555D01*
X18011796Y-10279717D01*
X18011085Y-10282061D01*
X18010845Y-10284500D01*
X18011085Y-10286939D01*
X18011796Y-10289284D01*
X18012951Y-10291445D01*
X18014506Y-10293339D01*
X18016400Y-10294893D01*
X18018561Y-10296048D01*
X18026100Y-10299171D01*
X18026100Y-10299171D01*
X18035124Y-10305201D01*
X18042799Y-10312876D01*
X18042799Y-10312876D01*
X18048829Y-10321901D01*
X18052983Y-10331928D01*
X18055100Y-10342573D01*
X18055100Y-10353427D01*
X18052983Y-10364072D01*
X18048829Y-10374100D01*
X18048829Y-10374100D01*
X18042799Y-10383124D01*
X18035124Y-10390799D01*
X18031982Y-10392899D01*
X18025834Y-10397007D01*
X18023939Y-10398561D01*
X18022385Y-10400456D01*
X18021230Y-10402617D01*
X18020519Y-10404962D01*
X18020278Y-10407400D01*
X18020519Y-10409839D01*
X18021230Y-10412184D01*
X18022385Y-10414345D01*
X18023940Y-10416239D01*
X18025834Y-10417793D01*
X18027995Y-10418949D01*
X18030340Y-10419660D01*
X18032778Y-10419900D01*
X18055100Y-10419900D01*
X18055100Y-10530100D01*
X17944900Y-10530100D01*
X17944900Y-10507778D01*
X17944660Y-10505340D01*
X17943949Y-10502995D01*
X17942793Y-10500834D01*
X17941239Y-10498939D01*
X17939345Y-10497385D01*
X17937184Y-10496230D01*
X17934839Y-10495519D01*
X17932400Y-10495278D01*
X17929962Y-10495519D01*
X17927617Y-10496230D01*
X17925456Y-10497385D01*
X17923561Y-10498939D01*
X17922007Y-10500834D01*
X17917899Y-10506982D01*
X17915799Y-10510124D01*
X17908124Y-10517799D01*
X17903581Y-10520835D01*
X17899100Y-10523829D01*
X17889072Y-10527983D01*
X17878427Y-10530100D01*
X17867573Y-10530100D01*
X17856928Y-10527983D01*
X17846901Y-10523829D01*
X17842419Y-10520835D01*
X17837876Y-10517799D01*
X17830201Y-10510124D01*
X17827004Y-10505340D01*
X17824171Y-10501100D01*
X17820017Y-10491072D01*
X17817900Y-10480427D01*
X17817900Y-10469573D01*
X17820017Y-10458928D01*
X17824171Y-10448901D01*
X17830201Y-10439876D01*
X17830201Y-10439876D01*
X17837876Y-10432201D01*
X17846900Y-10426171D01*
X17846901Y-10426171D01*
X17854439Y-10423048D01*
X17856600Y-10421893D01*
X17858494Y-10420339D01*
X17860049Y-10418445D01*
X17861204Y-10416284D01*
X17861915Y-10413939D01*
X17862155Y-10411500D01*
X17883845Y-10411500D01*
X17884085Y-10413939D01*
X17884796Y-10416284D01*
X17885951Y-10418445D01*
X17887506Y-10420339D01*
X17889400Y-10421893D01*
X17891561Y-10423048D01*
X17899100Y-10426171D01*
X17899100Y-10426171D01*
X17908124Y-10432201D01*
X17915799Y-10439876D01*
X17915799Y-10439876D01*
X17922007Y-10449166D01*
X17923561Y-10451061D01*
X17925456Y-10452615D01*
X17927617Y-10453770D01*
X17929962Y-10454482D01*
X17932400Y-10454722D01*
X17934839Y-10454482D01*
X17937184Y-10453770D01*
X17939345Y-10452615D01*
X17941239Y-10451061D01*
X17942793Y-10449166D01*
X17943949Y-10447005D01*
X17944660Y-10444660D01*
X17944900Y-10442222D01*
X17944900Y-10419900D01*
X17967222Y-10419900D01*
X17969660Y-10419660D01*
X17972005Y-10418949D01*
X17974166Y-10417793D01*
X17976061Y-10416239D01*
X17977615Y-10414345D01*
X17978770Y-10412184D01*
X17979482Y-10409839D01*
X17979722Y-10407400D01*
X17979482Y-10404962D01*
X17978770Y-10402617D01*
X17977615Y-10400456D01*
X17976061Y-10398561D01*
X17974166Y-10397007D01*
X17968018Y-10392899D01*
X17964876Y-10390799D01*
X17957201Y-10383124D01*
X17951171Y-10374100D01*
X17951171Y-10374100D01*
X17948048Y-10366561D01*
X17946893Y-10364400D01*
X17945339Y-10362506D01*
X17943445Y-10360951D01*
X17941284Y-10359796D01*
X17938939Y-10359085D01*
X17936500Y-10358845D01*
X17934061Y-10359085D01*
X17931717Y-10359796D01*
X17929555Y-10360951D01*
X17927661Y-10362506D01*
X17926107Y-10364400D01*
X17924952Y-10366561D01*
X17921829Y-10374100D01*
X17921829Y-10374100D01*
X17915799Y-10383124D01*
X17908124Y-10390799D01*
X17903581Y-10393835D01*
X17899100Y-10396829D01*
X17891561Y-10399952D01*
X17889400Y-10401107D01*
X17887506Y-10402661D01*
X17885951Y-10404555D01*
X17884796Y-10406717D01*
X17884085Y-10409061D01*
X17883845Y-10411500D01*
X17862155Y-10411500D01*
X17861915Y-10409061D01*
X17861204Y-10406717D01*
X17860049Y-10404555D01*
X17858494Y-10402661D01*
X17856600Y-10401107D01*
X17854439Y-10399952D01*
X17846901Y-10396829D01*
X17842419Y-10393835D01*
X17837876Y-10390799D01*
X17830201Y-10383124D01*
X17824171Y-10374100D01*
X17824171Y-10374100D01*
X17820017Y-10364072D01*
X17817900Y-10353427D01*
X17817900Y-10342573D01*
X17820017Y-10331928D01*
X17824171Y-10321901D01*
X17830201Y-10312876D01*
X17830201Y-10312876D01*
X17837876Y-10305201D01*
X17846900Y-10299171D01*
X17846901Y-10299171D01*
X17854439Y-10296048D01*
X17856600Y-10294893D01*
X17858494Y-10293339D01*
X17860049Y-10291445D01*
X17861204Y-10289284D01*
X17861915Y-10286939D01*
X17862155Y-10284500D01*
X17883845Y-10284500D01*
X17884085Y-10286939D01*
X17884796Y-10289284D01*
X17885951Y-10291445D01*
X17887506Y-10293339D01*
X17889400Y-10294893D01*
X17891561Y-10296048D01*
X17899100Y-10299171D01*
X17899100Y-10299171D01*
X17908124Y-10305201D01*
X17915799Y-10312876D01*
X17915799Y-10312876D01*
X17921829Y-10321901D01*
X17924952Y-10329439D01*
X17926107Y-10331600D01*
X17927661Y-10333494D01*
X17929555Y-10335049D01*
X17931717Y-10336204D01*
X17934061Y-10336915D01*
X17936500Y-10337155D01*
X17938939Y-10336915D01*
X17941284Y-10336204D01*
X17943445Y-10335049D01*
X17945339Y-10333494D01*
X17946893Y-10331600D01*
X17948048Y-10329439D01*
X17951171Y-10321901D01*
X17957201Y-10312876D01*
X17957201Y-10312876D01*
X17964876Y-10305201D01*
X17973900Y-10299171D01*
X17973901Y-10299171D01*
X17981439Y-10296048D01*
X17983600Y-10294893D01*
X17985494Y-10293339D01*
X17987049Y-10291445D01*
X17988204Y-10289284D01*
X17988915Y-10286939D01*
X17989155Y-10284500D01*
X17988915Y-10282061D01*
X17988204Y-10279717D01*
X17987049Y-10277555D01*
X17985494Y-10275661D01*
X17983600Y-10274107D01*
X17981439Y-10272952D01*
X17973901Y-10269829D01*
X17969419Y-10266835D01*
X17964876Y-10263799D01*
X17957201Y-10256124D01*
X17951171Y-10247100D01*
X17951171Y-10247100D01*
X17948048Y-10239561D01*
X17946893Y-10237400D01*
X17945339Y-10235506D01*
X17943445Y-10233951D01*
X17941284Y-10232796D01*
X17938939Y-10232085D01*
X17936500Y-10231845D01*
X17934061Y-10232085D01*
X17931717Y-10232796D01*
X17929555Y-10233951D01*
X17927661Y-10235506D01*
X17926107Y-10237400D01*
X17924952Y-10239561D01*
X17921829Y-10247100D01*
X17921829Y-10247100D01*
X17915799Y-10256124D01*
X17908124Y-10263799D01*
X17903581Y-10266835D01*
X17899100Y-10269829D01*
X17891561Y-10272952D01*
X17889400Y-10274107D01*
X17887506Y-10275661D01*
X17885951Y-10277555D01*
X17884796Y-10279717D01*
X17884085Y-10282061D01*
X17883845Y-10284500D01*
X17862155Y-10284500D01*
X17861915Y-10282061D01*
X17861204Y-10279717D01*
X17860049Y-10277555D01*
X17858494Y-10275661D01*
X17856600Y-10274107D01*
X17854439Y-10272952D01*
X17846901Y-10269829D01*
X17842419Y-10266835D01*
X17837876Y-10263799D01*
X17830201Y-10256124D01*
X17824171Y-10247100D01*
X17824171Y-10247100D01*
X17820017Y-10237072D01*
X17817900Y-10226427D01*
X17817900Y-10215573D01*
X17820017Y-10204928D01*
X17824171Y-10194901D01*
X17830201Y-10185876D01*
X17830201Y-10185876D01*
X17837876Y-10178201D01*
X17846900Y-10172171D01*
X17846901Y-10172171D01*
X17854439Y-10169048D01*
X17856600Y-10167893D01*
X17858494Y-10166339D01*
X17860049Y-10164445D01*
X17861204Y-10162284D01*
X17861915Y-10159939D01*
X17862155Y-10157500D01*
X17883845Y-10157500D01*
X17884085Y-10159939D01*
X17884796Y-10162284D01*
X17885951Y-10164445D01*
X17887506Y-10166339D01*
X17889400Y-10167893D01*
X17891561Y-10169048D01*
X17899100Y-10172171D01*
X17899100Y-10172171D01*
X17908124Y-10178201D01*
X17915799Y-10185876D01*
X17915799Y-10185876D01*
X17921829Y-10194901D01*
X17924952Y-10202439D01*
X17926107Y-10204600D01*
X17927661Y-10206494D01*
X17929555Y-10208049D01*
X17931717Y-10209204D01*
X17934061Y-10209915D01*
X17936500Y-10210155D01*
X17938939Y-10209915D01*
X17941284Y-10209204D01*
X17943445Y-10208049D01*
X17945339Y-10206494D01*
X17946893Y-10204600D01*
X17948048Y-10202439D01*
X17951171Y-10194901D01*
X17957201Y-10185876D01*
X17957201Y-10185876D01*
X17964876Y-10178201D01*
X17973900Y-10172171D01*
X17973901Y-10172171D01*
X17981439Y-10169048D01*
X17983600Y-10167893D01*
X17985494Y-10166339D01*
X17987049Y-10164445D01*
X17988204Y-10162284D01*
X17988915Y-10159939D01*
X17989155Y-10157500D01*
X17988915Y-10155061D01*
X17988204Y-10152717D01*
X17987049Y-10150555D01*
X17985494Y-10148661D01*
X17983600Y-10147107D01*
X17981439Y-10145952D01*
X17973901Y-10142829D01*
X17969419Y-10139835D01*
X17964876Y-10136799D01*
X17957201Y-10129124D01*
X17951171Y-10120100D01*
X17951171Y-10120100D01*
X17948048Y-10112561D01*
X17946893Y-10110400D01*
X17945339Y-10108506D01*
X17943445Y-10106951D01*
X17941284Y-10105796D01*
X17938939Y-10105085D01*
X17936500Y-10104845D01*
X17934061Y-10105085D01*
X17931717Y-10105796D01*
X17929555Y-10106951D01*
X17927661Y-10108506D01*
X17926107Y-10110400D01*
X17924952Y-10112561D01*
X17921829Y-10120100D01*
X17921829Y-10120100D01*
X17915799Y-10129124D01*
X17908124Y-10136799D01*
X17903581Y-10139835D01*
X17899100Y-10142829D01*
X17891561Y-10145952D01*
X17889400Y-10147107D01*
X17887506Y-10148661D01*
X17885951Y-10150555D01*
X17884796Y-10152717D01*
X17884085Y-10155061D01*
X17883845Y-10157500D01*
X17862155Y-10157500D01*
X17861915Y-10155061D01*
X17861204Y-10152717D01*
X17860049Y-10150555D01*
X17858494Y-10148661D01*
X17856600Y-10147107D01*
X17854439Y-10145952D01*
X17846901Y-10142829D01*
X17842419Y-10139835D01*
X17837876Y-10136799D01*
X17830201Y-10129124D01*
X17824171Y-10120100D01*
X17824171Y-10120100D01*
X17820017Y-10110072D01*
X17817900Y-10099427D01*
X17817900Y-10088573D01*
X17820017Y-10077928D01*
X17824171Y-10067901D01*
X17830201Y-10058876D01*
X17830201Y-10058876D01*
X17837876Y-10051201D01*
X17846900Y-10045171D01*
X17846901Y-10045171D01*
X17854439Y-10042048D01*
X17856600Y-10040893D01*
X17858494Y-10039339D01*
X17860049Y-10037445D01*
X17861204Y-10035284D01*
X17861915Y-10032939D01*
X17862155Y-10030500D01*
X17883845Y-10030500D01*
X17884085Y-10032939D01*
X17884796Y-10035284D01*
X17885951Y-10037445D01*
X17887506Y-10039339D01*
X17889400Y-10040893D01*
X17891561Y-10042048D01*
X17899100Y-10045171D01*
X17899100Y-10045171D01*
X17908124Y-10051201D01*
X17915799Y-10058876D01*
X17915799Y-10058876D01*
X17921829Y-10067901D01*
X17924952Y-10075439D01*
X17926107Y-10077600D01*
X17927661Y-10079494D01*
X17929555Y-10081049D01*
X17931717Y-10082204D01*
X17934061Y-10082915D01*
X17936500Y-10083155D01*
X17938939Y-10082915D01*
X17941284Y-10082204D01*
X17943445Y-10081049D01*
X17945339Y-10079494D01*
X17946893Y-10077600D01*
X17948048Y-10075439D01*
X17951171Y-10067901D01*
X17957201Y-10058876D01*
X17957201Y-10058876D01*
X17964876Y-10051201D01*
X17973900Y-10045171D01*
X17973901Y-10045171D01*
X17981439Y-10042048D01*
X17983600Y-10040893D01*
X17985494Y-10039339D01*
X17987049Y-10037445D01*
X17988204Y-10035284D01*
X17988915Y-10032939D01*
X17989155Y-10030500D01*
X17988915Y-10028061D01*
X17988204Y-10025717D01*
X17987049Y-10023555D01*
X17985494Y-10021661D01*
X17983600Y-10020107D01*
X17981439Y-10018952D01*
X17973901Y-10015829D01*
X17969419Y-10012835D01*
X17964876Y-10009799D01*
X17957201Y-10002124D01*
X17951171Y-9993100D01*
X17951171Y-9993100D01*
X17948048Y-9985561D01*
X17946893Y-9983400D01*
X17945339Y-9981506D01*
X17943445Y-9979951D01*
X17941284Y-9978796D01*
X17938939Y-9978085D01*
X17936500Y-9977845D01*
X17934061Y-9978085D01*
X17931717Y-9978796D01*
X17929555Y-9979951D01*
X17927661Y-9981506D01*
X17926107Y-9983400D01*
X17924952Y-9985561D01*
X17921829Y-9993100D01*
X17921829Y-9993100D01*
X17915799Y-10002124D01*
X17908124Y-10009799D01*
X17903581Y-10012835D01*
X17899100Y-10015829D01*
X17891561Y-10018952D01*
X17889400Y-10020107D01*
X17887506Y-10021661D01*
X17885951Y-10023555D01*
X17884796Y-10025717D01*
X17884085Y-10028061D01*
X17883845Y-10030500D01*
X17862155Y-10030500D01*
X17861915Y-10028061D01*
X17861204Y-10025717D01*
X17860049Y-10023555D01*
X17858494Y-10021661D01*
X17856600Y-10020107D01*
X17854439Y-10018952D01*
X17846901Y-10015829D01*
X17842419Y-10012835D01*
X17837876Y-10009799D01*
X17830201Y-10002124D01*
X17824171Y-9993100D01*
X17824171Y-9993100D01*
X17820017Y-9983072D01*
X17817900Y-9972427D01*
X17817900Y-9961573D01*
X17820017Y-9950928D01*
X17824171Y-9940901D01*
X17830201Y-9931876D01*
X17830201Y-9931876D01*
X17837876Y-9924201D01*
X17846900Y-9918171D01*
X17846901Y-9918171D01*
X17856928Y-9914017D01*
X17867573Y-9911900D01*
X17878427Y-9911900D01*
X17889072Y-9914017D01*
G37*
G36*
X20394821Y-9870625D02*
G01*
X20404265Y-9873490D01*
X20412969Y-9878142D01*
X20420598Y-9884403D01*
X20426858Y-9892031D01*
X20431510Y-9900735D01*
X20434375Y-9910179D01*
X20435342Y-9920000D01*
X20434375Y-9929821D01*
X20431510Y-9939265D01*
X20426858Y-9947969D01*
X20420598Y-9955598D01*
X20412969Y-9961858D01*
X20404265Y-9966510D01*
X20394821Y-9969375D01*
X20387461Y-9970100D01*
X20312539Y-9970100D01*
X20305179Y-9969375D01*
X20295735Y-9966510D01*
X20287031Y-9961858D01*
X20279403Y-9955598D01*
X20273142Y-9947969D01*
X20268490Y-9939265D01*
X20265625Y-9929821D01*
X20264658Y-9920000D01*
X20265625Y-9910179D01*
X20268490Y-9900735D01*
X20273142Y-9892031D01*
X20279403Y-9884403D01*
X20287031Y-9878142D01*
X20295735Y-9873490D01*
X20305179Y-9870625D01*
X20312539Y-9869900D01*
X20387461Y-9869900D01*
X20394821Y-9870625D01*
G37*
G36*
X20184774Y-9475863D02*
G01*
X20189614Y-9476825D01*
X20193390Y-9478390D01*
X20198731Y-9480602D01*
X20198731Y-9480602D01*
X20206937Y-9486085D01*
X20213915Y-9493063D01*
X20213915Y-9493063D01*
X20219398Y-9501269D01*
X20223175Y-9510387D01*
X20225100Y-9520066D01*
X20225100Y-9529935D01*
X20223175Y-9539614D01*
X20219398Y-9548731D01*
X20219398Y-9548731D01*
X20213915Y-9556937D01*
X20206937Y-9563915D01*
X20202806Y-9566675D01*
X20198731Y-9569398D01*
X20193390Y-9571610D01*
X20189614Y-9573175D01*
X20184774Y-9574137D01*
X20179935Y-9575100D01*
X20170066Y-9575100D01*
X20165226Y-9574137D01*
X20160386Y-9573175D01*
X20156610Y-9571610D01*
X20151269Y-9569398D01*
X20147194Y-9566675D01*
X20143063Y-9563915D01*
X20136085Y-9556937D01*
X20130602Y-9548731D01*
X20130602Y-9548731D01*
X20126825Y-9539614D01*
X20124900Y-9529935D01*
X20124900Y-9520066D01*
X20126825Y-9510387D01*
X20130602Y-9501269D01*
X20136085Y-9493063D01*
X20136085Y-9493063D01*
X20143063Y-9486085D01*
X20151269Y-9480602D01*
X20151269Y-9480602D01*
X20156610Y-9478390D01*
X20160386Y-9476825D01*
X20165226Y-9475863D01*
X20170066Y-9474900D01*
X20179935Y-9474900D01*
X20184774Y-9475863D01*
G37*
G36*
X16588361Y-9135428D02*
G01*
X16594413Y-9136632D01*
X16611516Y-9143716D01*
X16626909Y-9154001D01*
X16639999Y-9167091D01*
X16650284Y-9182484D01*
X16654666Y-9193063D01*
X16657368Y-9199587D01*
X16660980Y-9217744D01*
X16660980Y-9236256D01*
X16657368Y-9254413D01*
X16651161Y-9269398D01*
X16650284Y-9271516D01*
X16639999Y-9286909D01*
X16626909Y-9299999D01*
X16611516Y-9310284D01*
X16594413Y-9317368D01*
X16588361Y-9318572D01*
X16576256Y-9320980D01*
X16557744Y-9320980D01*
X16545639Y-9318572D01*
X16539587Y-9317368D01*
X16522484Y-9310284D01*
X16507091Y-9299999D01*
X16494001Y-9286909D01*
X16483716Y-9271516D01*
X16482839Y-9269398D01*
X16476632Y-9254413D01*
X16473020Y-9236256D01*
X16473020Y-9217744D01*
X16476632Y-9199587D01*
X16479334Y-9193063D01*
X16483716Y-9182484D01*
X16494001Y-9167091D01*
X16507091Y-9154001D01*
X16522484Y-9143716D01*
X16539587Y-9136632D01*
X16545639Y-9135428D01*
X16557744Y-9133020D01*
X16576256Y-9133020D01*
X16588361Y-9135428D01*
G37*
G36*
X18112361Y-9135428D02*
G01*
X18118413Y-9136632D01*
X18135516Y-9143716D01*
X18150909Y-9154001D01*
X18163999Y-9167091D01*
X18174284Y-9182484D01*
X18178666Y-9193063D01*
X18181368Y-9199587D01*
X18184980Y-9217744D01*
X18184980Y-9236256D01*
X18181368Y-9254413D01*
X18175161Y-9269398D01*
X18174284Y-9271516D01*
X18163999Y-9286909D01*
X18150909Y-9299999D01*
X18135516Y-9310284D01*
X18118413Y-9317368D01*
X18112361Y-9318572D01*
X18100256Y-9320980D01*
X18081744Y-9320980D01*
X18069639Y-9318572D01*
X18063587Y-9317368D01*
X18046484Y-9310284D01*
X18031091Y-9299999D01*
X18018001Y-9286909D01*
X18007716Y-9271516D01*
X18006839Y-9269398D01*
X18000632Y-9254413D01*
X17997020Y-9236256D01*
X17997020Y-9217744D01*
X18000632Y-9199587D01*
X18003334Y-9193063D01*
X18007716Y-9182484D01*
X18018001Y-9167091D01*
X18031091Y-9154001D01*
X18046484Y-9143716D01*
X18063587Y-9136632D01*
X18069639Y-9135428D01*
X18081744Y-9133020D01*
X18100256Y-9133020D01*
X18112361Y-9135428D01*
G37*
G36*
X16842361Y-9135428D02*
G01*
X16848413Y-9136632D01*
X16865516Y-9143716D01*
X16880909Y-9154001D01*
X16893999Y-9167091D01*
X16904284Y-9182484D01*
X16908666Y-9193063D01*
X16911368Y-9199587D01*
X16914980Y-9217744D01*
X16914980Y-9236256D01*
X16911368Y-9254413D01*
X16905161Y-9269398D01*
X16904284Y-9271516D01*
X16893999Y-9286909D01*
X16880909Y-9299999D01*
X16865516Y-9310284D01*
X16848413Y-9317368D01*
X16842361Y-9318572D01*
X16830256Y-9320980D01*
X16811744Y-9320980D01*
X16799639Y-9318572D01*
X16793587Y-9317368D01*
X16776484Y-9310284D01*
X16761091Y-9299999D01*
X16748001Y-9286909D01*
X16737716Y-9271516D01*
X16736839Y-9269398D01*
X16730632Y-9254413D01*
X16727020Y-9236256D01*
X16727020Y-9217744D01*
X16730632Y-9199587D01*
X16733334Y-9193063D01*
X16737716Y-9182484D01*
X16748001Y-9167091D01*
X16761091Y-9154001D01*
X16776484Y-9143716D01*
X16793587Y-9136632D01*
X16799639Y-9135428D01*
X16811744Y-9133020D01*
X16830256Y-9133020D01*
X16842361Y-9135428D01*
G37*
G36*
X17096361Y-9135428D02*
G01*
X17102413Y-9136632D01*
X17119516Y-9143716D01*
X17134909Y-9154001D01*
X17147999Y-9167091D01*
X17158284Y-9182484D01*
X17162666Y-9193063D01*
X17165368Y-9199587D01*
X17168980Y-9217744D01*
X17168980Y-9236256D01*
X17165368Y-9254413D01*
X17159161Y-9269398D01*
X17158284Y-9271516D01*
X17147999Y-9286909D01*
X17134909Y-9299999D01*
X17119516Y-9310284D01*
X17102413Y-9317368D01*
X17096361Y-9318572D01*
X17084256Y-9320980D01*
X17065744Y-9320980D01*
X17053639Y-9318572D01*
X17047587Y-9317368D01*
X17030484Y-9310284D01*
X17015091Y-9299999D01*
X17002001Y-9286909D01*
X16991716Y-9271516D01*
X16990839Y-9269398D01*
X16984632Y-9254413D01*
X16981020Y-9236256D01*
X16981020Y-9217744D01*
X16984632Y-9199587D01*
X16987334Y-9193063D01*
X16991716Y-9182484D01*
X17002001Y-9167091D01*
X17015091Y-9154001D01*
X17030484Y-9143716D01*
X17047587Y-9136632D01*
X17053639Y-9135428D01*
X17065744Y-9133020D01*
X17084256Y-9133020D01*
X17096361Y-9135428D01*
G37*
G36*
X17604361Y-9135428D02*
G01*
X17610413Y-9136632D01*
X17627516Y-9143716D01*
X17642909Y-9154001D01*
X17655999Y-9167091D01*
X17666284Y-9182484D01*
X17670666Y-9193063D01*
X17673368Y-9199587D01*
X17676980Y-9217744D01*
X17676980Y-9236256D01*
X17673368Y-9254413D01*
X17667161Y-9269398D01*
X17666284Y-9271516D01*
X17655999Y-9286909D01*
X17642909Y-9299999D01*
X17627516Y-9310284D01*
X17610413Y-9317368D01*
X17604361Y-9318572D01*
X17592256Y-9320980D01*
X17573744Y-9320980D01*
X17561639Y-9318572D01*
X17555587Y-9317368D01*
X17538484Y-9310284D01*
X17523091Y-9299999D01*
X17510001Y-9286909D01*
X17499716Y-9271516D01*
X17498839Y-9269398D01*
X17492632Y-9254413D01*
X17489020Y-9236256D01*
X17489020Y-9217744D01*
X17492632Y-9199587D01*
X17495334Y-9193063D01*
X17499716Y-9182484D01*
X17510001Y-9167091D01*
X17523091Y-9154001D01*
X17538484Y-9143716D01*
X17555587Y-9136632D01*
X17561639Y-9135428D01*
X17573744Y-9133020D01*
X17592256Y-9133020D01*
X17604361Y-9135428D01*
G37*
G36*
X17350361Y-9135428D02*
G01*
X17356413Y-9136632D01*
X17373516Y-9143716D01*
X17388909Y-9154001D01*
X17401999Y-9167091D01*
X17412284Y-9182484D01*
X17416666Y-9193063D01*
X17419368Y-9199587D01*
X17422980Y-9217744D01*
X17422980Y-9236256D01*
X17419368Y-9254413D01*
X17413161Y-9269398D01*
X17412284Y-9271516D01*
X17401999Y-9286909D01*
X17388909Y-9299999D01*
X17373516Y-9310284D01*
X17356413Y-9317368D01*
X17350361Y-9318572D01*
X17338256Y-9320980D01*
X17319744Y-9320980D01*
X17307639Y-9318572D01*
X17301587Y-9317368D01*
X17284484Y-9310284D01*
X17269091Y-9299999D01*
X17256001Y-9286909D01*
X17245716Y-9271516D01*
X17244839Y-9269398D01*
X17238632Y-9254413D01*
X17235020Y-9236256D01*
X17235020Y-9217744D01*
X17238632Y-9199587D01*
X17241334Y-9193063D01*
X17245716Y-9182484D01*
X17256001Y-9167091D01*
X17269091Y-9154001D01*
X17284484Y-9143716D01*
X17301587Y-9136632D01*
X17307639Y-9135428D01*
X17319744Y-9133020D01*
X17338256Y-9133020D01*
X17350361Y-9135428D01*
G37*
G36*
X18874361Y-9135428D02*
G01*
X18880413Y-9136632D01*
X18897516Y-9143716D01*
X18912909Y-9154001D01*
X18925999Y-9167091D01*
X18936284Y-9182484D01*
X18940666Y-9193063D01*
X18943368Y-9199587D01*
X18946980Y-9217744D01*
X18946980Y-9236256D01*
X18943368Y-9254413D01*
X18937161Y-9269398D01*
X18936284Y-9271516D01*
X18925999Y-9286909D01*
X18912909Y-9299999D01*
X18897516Y-9310284D01*
X18880413Y-9317368D01*
X18874361Y-9318572D01*
X18862256Y-9320980D01*
X18843744Y-9320980D01*
X18831639Y-9318572D01*
X18825587Y-9317368D01*
X18808484Y-9310284D01*
X18793091Y-9299999D01*
X18780001Y-9286909D01*
X18769716Y-9271516D01*
X18768839Y-9269398D01*
X18762632Y-9254413D01*
X18759020Y-9236256D01*
X18759020Y-9217744D01*
X18762632Y-9199587D01*
X18765334Y-9193063D01*
X18769716Y-9182484D01*
X18780001Y-9167091D01*
X18793091Y-9154001D01*
X18808484Y-9143716D01*
X18825587Y-9136632D01*
X18831639Y-9135428D01*
X18843744Y-9133020D01*
X18862256Y-9133020D01*
X18874361Y-9135428D01*
G37*
G36*
X19636361Y-9135428D02*
G01*
X19642413Y-9136632D01*
X19659516Y-9143716D01*
X19674909Y-9154001D01*
X19687999Y-9167091D01*
X19698284Y-9182484D01*
X19702666Y-9193063D01*
X19705368Y-9199587D01*
X19708980Y-9217744D01*
X19708980Y-9236256D01*
X19705368Y-9254413D01*
X19699161Y-9269398D01*
X19698284Y-9271516D01*
X19687999Y-9286909D01*
X19674909Y-9299999D01*
X19659516Y-9310284D01*
X19642413Y-9317368D01*
X19636361Y-9318572D01*
X19624256Y-9320980D01*
X19605744Y-9320980D01*
X19593639Y-9318572D01*
X19587587Y-9317368D01*
X19570484Y-9310284D01*
X19555091Y-9299999D01*
X19542001Y-9286909D01*
X19531716Y-9271516D01*
X19530839Y-9269398D01*
X19524632Y-9254413D01*
X19521020Y-9236256D01*
X19521020Y-9217744D01*
X19524632Y-9199587D01*
X19527334Y-9193063D01*
X19531716Y-9182484D01*
X19542001Y-9167091D01*
X19555091Y-9154001D01*
X19570484Y-9143716D01*
X19587587Y-9136632D01*
X19593639Y-9135428D01*
X19605744Y-9133020D01*
X19624256Y-9133020D01*
X19636361Y-9135428D01*
G37*
G36*
X16334361Y-9135428D02*
G01*
X16340413Y-9136632D01*
X16357516Y-9143716D01*
X16372909Y-9154001D01*
X16385999Y-9167091D01*
X16396284Y-9182484D01*
X16400666Y-9193063D01*
X16403368Y-9199587D01*
X16406980Y-9217744D01*
X16406980Y-9236256D01*
X16403368Y-9254413D01*
X16397161Y-9269398D01*
X16396284Y-9271516D01*
X16385999Y-9286909D01*
X16372909Y-9299999D01*
X16357516Y-9310284D01*
X16340413Y-9317368D01*
X16334361Y-9318572D01*
X16322256Y-9320980D01*
X16303744Y-9320980D01*
X16291639Y-9318572D01*
X16285587Y-9317368D01*
X16268484Y-9310284D01*
X16253091Y-9299999D01*
X16240001Y-9286909D01*
X16229716Y-9271516D01*
X16228839Y-9269398D01*
X16222632Y-9254413D01*
X16219020Y-9236256D01*
X16219020Y-9217744D01*
X16222632Y-9199587D01*
X16225334Y-9193063D01*
X16229716Y-9182484D01*
X16240001Y-9167091D01*
X16253091Y-9154001D01*
X16268484Y-9143716D01*
X16285587Y-9136632D01*
X16291639Y-9135428D01*
X16303744Y-9133020D01*
X16322256Y-9133020D01*
X16334361Y-9135428D01*
G37*
G36*
X19128361Y-9135428D02*
G01*
X19134413Y-9136632D01*
X19151516Y-9143716D01*
X19166909Y-9154001D01*
X19179999Y-9167091D01*
X19190284Y-9182484D01*
X19194666Y-9193063D01*
X19197368Y-9199587D01*
X19200980Y-9217744D01*
X19200980Y-9236256D01*
X19197368Y-9254413D01*
X19191161Y-9269398D01*
X19190284Y-9271516D01*
X19179999Y-9286909D01*
X19166909Y-9299999D01*
X19151516Y-9310284D01*
X19134413Y-9317368D01*
X19128361Y-9318572D01*
X19116256Y-9320980D01*
X19097744Y-9320980D01*
X19085639Y-9318572D01*
X19079587Y-9317368D01*
X19062484Y-9310284D01*
X19047091Y-9299999D01*
X19034001Y-9286909D01*
X19023716Y-9271516D01*
X19022839Y-9269398D01*
X19016632Y-9254413D01*
X19013020Y-9236256D01*
X19013020Y-9217744D01*
X19016632Y-9199587D01*
X19019334Y-9193063D01*
X19023716Y-9182484D01*
X19034001Y-9167091D01*
X19047091Y-9154001D01*
X19062484Y-9143716D01*
X19079587Y-9136632D01*
X19085639Y-9135428D01*
X19097744Y-9133020D01*
X19116256Y-9133020D01*
X19128361Y-9135428D01*
G37*
G36*
X16080361Y-9135428D02*
G01*
X16086413Y-9136632D01*
X16103516Y-9143716D01*
X16118909Y-9154001D01*
X16131999Y-9167091D01*
X16142284Y-9182484D01*
X16146666Y-9193063D01*
X16149368Y-9199587D01*
X16152980Y-9217744D01*
X16152980Y-9236256D01*
X16149368Y-9254413D01*
X16143161Y-9269398D01*
X16142284Y-9271516D01*
X16131999Y-9286909D01*
X16118909Y-9299999D01*
X16103516Y-9310284D01*
X16086413Y-9317368D01*
X16080361Y-9318572D01*
X16068256Y-9320980D01*
X16049744Y-9320980D01*
X16037639Y-9318572D01*
X16031587Y-9317368D01*
X16014484Y-9310284D01*
X15999091Y-9299999D01*
X15986001Y-9286909D01*
X15975716Y-9271516D01*
X15974839Y-9269398D01*
X15968632Y-9254413D01*
X15965020Y-9236256D01*
X15965020Y-9217744D01*
X15968632Y-9199587D01*
X15971334Y-9193063D01*
X15975716Y-9182484D01*
X15986001Y-9167091D01*
X15999091Y-9154001D01*
X16014484Y-9143716D01*
X16031587Y-9136632D01*
X16037639Y-9135428D01*
X16049744Y-9133020D01*
X16068256Y-9133020D01*
X16080361Y-9135428D01*
G37*
G36*
X15826361Y-9135428D02*
G01*
X15832413Y-9136632D01*
X15849516Y-9143716D01*
X15864909Y-9154001D01*
X15877999Y-9167091D01*
X15888284Y-9182484D01*
X15892666Y-9193063D01*
X15895368Y-9199587D01*
X15898980Y-9217744D01*
X15898980Y-9236256D01*
X15895368Y-9254413D01*
X15889161Y-9269398D01*
X15888284Y-9271516D01*
X15877999Y-9286909D01*
X15864909Y-9299999D01*
X15849516Y-9310284D01*
X15832413Y-9317368D01*
X15826361Y-9318572D01*
X15814256Y-9320980D01*
X15795744Y-9320980D01*
X15783639Y-9318572D01*
X15777587Y-9317368D01*
X15760484Y-9310284D01*
X15745091Y-9299999D01*
X15732001Y-9286909D01*
X15721716Y-9271516D01*
X15720839Y-9269398D01*
X15714632Y-9254413D01*
X15711020Y-9236256D01*
X15711020Y-9217744D01*
X15714632Y-9199587D01*
X15717334Y-9193063D01*
X15721716Y-9182484D01*
X15732001Y-9167091D01*
X15745091Y-9154001D01*
X15760484Y-9143716D01*
X15777587Y-9136632D01*
X15783639Y-9135428D01*
X15795744Y-9133020D01*
X15814256Y-9133020D01*
X15826361Y-9135428D01*
G37*
G36*
X18620361Y-9135428D02*
G01*
X18626413Y-9136632D01*
X18643516Y-9143716D01*
X18658909Y-9154001D01*
X18671999Y-9167091D01*
X18682284Y-9182484D01*
X18686666Y-9193063D01*
X18689368Y-9199587D01*
X18692980Y-9217744D01*
X18692980Y-9236256D01*
X18689368Y-9254413D01*
X18683161Y-9269398D01*
X18682284Y-9271516D01*
X18671999Y-9286909D01*
X18658909Y-9299999D01*
X18643516Y-9310284D01*
X18626413Y-9317368D01*
X18620361Y-9318572D01*
X18608256Y-9320980D01*
X18589744Y-9320980D01*
X18577639Y-9318572D01*
X18571587Y-9317368D01*
X18554484Y-9310284D01*
X18539091Y-9299999D01*
X18526001Y-9286909D01*
X18515716Y-9271516D01*
X18514839Y-9269398D01*
X18508632Y-9254413D01*
X18505020Y-9236256D01*
X18505020Y-9217744D01*
X18508632Y-9199587D01*
X18511334Y-9193063D01*
X18515716Y-9182484D01*
X18526001Y-9167091D01*
X18539091Y-9154001D01*
X18554484Y-9143716D01*
X18571587Y-9136632D01*
X18577639Y-9135428D01*
X18589744Y-9133020D01*
X18608256Y-9133020D01*
X18620361Y-9135428D01*
G37*
G36*
X18366361Y-9135428D02*
G01*
X18372413Y-9136632D01*
X18389516Y-9143716D01*
X18404909Y-9154001D01*
X18417999Y-9167091D01*
X18428284Y-9182484D01*
X18432666Y-9193063D01*
X18435368Y-9199587D01*
X18438980Y-9217744D01*
X18438980Y-9236256D01*
X18435368Y-9254413D01*
X18429161Y-9269398D01*
X18428284Y-9271516D01*
X18417999Y-9286909D01*
X18404909Y-9299999D01*
X18389516Y-9310284D01*
X18372413Y-9317368D01*
X18366361Y-9318572D01*
X18354256Y-9320980D01*
X18335744Y-9320980D01*
X18323639Y-9318572D01*
X18317587Y-9317368D01*
X18300484Y-9310284D01*
X18285091Y-9299999D01*
X18272001Y-9286909D01*
X18261716Y-9271516D01*
X18260839Y-9269398D01*
X18254632Y-9254413D01*
X18251020Y-9236256D01*
X18251020Y-9217744D01*
X18254632Y-9199587D01*
X18257334Y-9193063D01*
X18261716Y-9182484D01*
X18272001Y-9167091D01*
X18285091Y-9154001D01*
X18300484Y-9143716D01*
X18317587Y-9136632D01*
X18323639Y-9135428D01*
X18335744Y-9133020D01*
X18354256Y-9133020D01*
X18366361Y-9135428D01*
G37*
G36*
X17858361Y-9135428D02*
G01*
X17864413Y-9136632D01*
X17881516Y-9143716D01*
X17896909Y-9154001D01*
X17909999Y-9167091D01*
X17920284Y-9182484D01*
X17924666Y-9193063D01*
X17927368Y-9199587D01*
X17930980Y-9217744D01*
X17930980Y-9236256D01*
X17927368Y-9254413D01*
X17921161Y-9269398D01*
X17920284Y-9271516D01*
X17909999Y-9286909D01*
X17896909Y-9299999D01*
X17881516Y-9310284D01*
X17864413Y-9317368D01*
X17858361Y-9318572D01*
X17846256Y-9320980D01*
X17827744Y-9320980D01*
X17815639Y-9318572D01*
X17809587Y-9317368D01*
X17792484Y-9310284D01*
X17777091Y-9299999D01*
X17764001Y-9286909D01*
X17753716Y-9271516D01*
X17752839Y-9269398D01*
X17746632Y-9254413D01*
X17743020Y-9236256D01*
X17743020Y-9217744D01*
X17746632Y-9199587D01*
X17749334Y-9193063D01*
X17753716Y-9182484D01*
X17764001Y-9167091D01*
X17777091Y-9154001D01*
X17792484Y-9143716D01*
X17809587Y-9136632D01*
X17815639Y-9135428D01*
X17827744Y-9133020D01*
X17846256Y-9133020D01*
X17858361Y-9135428D01*
G37*
G36*
X19382361Y-9135428D02*
G01*
X19388413Y-9136632D01*
X19405516Y-9143716D01*
X19420909Y-9154001D01*
X19433999Y-9167091D01*
X19444284Y-9182484D01*
X19448666Y-9193063D01*
X19451368Y-9199587D01*
X19454980Y-9217744D01*
X19454980Y-9236256D01*
X19451368Y-9254413D01*
X19445161Y-9269398D01*
X19444284Y-9271516D01*
X19433999Y-9286909D01*
X19420909Y-9299999D01*
X19405516Y-9310284D01*
X19388413Y-9317368D01*
X19382361Y-9318572D01*
X19370256Y-9320980D01*
X19351744Y-9320980D01*
X19339639Y-9318572D01*
X19333587Y-9317368D01*
X19316484Y-9310284D01*
X19301091Y-9299999D01*
X19288001Y-9286909D01*
X19277716Y-9271516D01*
X19276839Y-9269398D01*
X19270632Y-9254413D01*
X19267020Y-9236256D01*
X19267020Y-9217744D01*
X19270632Y-9199587D01*
X19273334Y-9193063D01*
X19277716Y-9182484D01*
X19288001Y-9167091D01*
X19301091Y-9154001D01*
X19316484Y-9143716D01*
X19333587Y-9136632D01*
X19339639Y-9135428D01*
X19351744Y-9133020D01*
X19370256Y-9133020D01*
X19382361Y-9135428D01*
G37*
G36*
X20184774Y-9175863D02*
G01*
X20189614Y-9176825D01*
X20193390Y-9178390D01*
X20198731Y-9180602D01*
X20202806Y-9183325D01*
X20206937Y-9186085D01*
X20213915Y-9193063D01*
X20213915Y-9193063D01*
X20219398Y-9201269D01*
X20223175Y-9210387D01*
X20225100Y-9220066D01*
X20225100Y-9229935D01*
X20223175Y-9239614D01*
X20219398Y-9248731D01*
X20219398Y-9248731D01*
X20213915Y-9256937D01*
X20206937Y-9263915D01*
X20202806Y-9266675D01*
X20198731Y-9269398D01*
X20193618Y-9271516D01*
X20189614Y-9273175D01*
X20184774Y-9274137D01*
X20179935Y-9275100D01*
X20170066Y-9275100D01*
X20165226Y-9274137D01*
X20160386Y-9273175D01*
X20156382Y-9271516D01*
X20151269Y-9269398D01*
X20147194Y-9266675D01*
X20143063Y-9263915D01*
X20136085Y-9256937D01*
X20130602Y-9248731D01*
X20130602Y-9248731D01*
X20126825Y-9239614D01*
X20124900Y-9229935D01*
X20124900Y-9220066D01*
X20126825Y-9210387D01*
X20130602Y-9201269D01*
X20136085Y-9193063D01*
X20136085Y-9193063D01*
X20143063Y-9186085D01*
X20147194Y-9183325D01*
X20151269Y-9180602D01*
X20156610Y-9178390D01*
X20160386Y-9176825D01*
X20165226Y-9175863D01*
X20170066Y-9174900D01*
X20179935Y-9174900D01*
X20184774Y-9175863D01*
G37*
G36*
X12790100Y-8965100D02*
G01*
X12609900Y-8965100D01*
X12609900Y-8784900D01*
X12790100Y-8784900D01*
X12790100Y-8965100D01*
G37*
G36*
X12711351Y-8531393D02*
G01*
X12726281Y-8534362D01*
X12742678Y-8541154D01*
X12757435Y-8551015D01*
X12769985Y-8563565D01*
X12779846Y-8578322D01*
X12786638Y-8594719D01*
X12790100Y-8612126D01*
X12790100Y-8629874D01*
X12786638Y-8647281D01*
X12779846Y-8663678D01*
X12769985Y-8678435D01*
X12757435Y-8690985D01*
X12742678Y-8700846D01*
X12726281Y-8707638D01*
X12711351Y-8710607D01*
X12708874Y-8711100D01*
X12691126Y-8711100D01*
X12688649Y-8710607D01*
X12673719Y-8707638D01*
X12657322Y-8700846D01*
X12642565Y-8690985D01*
X12630015Y-8678435D01*
X12620154Y-8663678D01*
X12613362Y-8647281D01*
X12609900Y-8629874D01*
X12609900Y-8612126D01*
X12613362Y-8594719D01*
X12620154Y-8578322D01*
X12630015Y-8563565D01*
X12642565Y-8551015D01*
X12657322Y-8541154D01*
X12673719Y-8534362D01*
X12688649Y-8531393D01*
X12691126Y-8530900D01*
X12708874Y-8530900D01*
X12711351Y-8531393D01*
G37*
G36*
X12711351Y-8277393D02*
G01*
X12726281Y-8280362D01*
X12742678Y-8287154D01*
X12757435Y-8297015D01*
X12769985Y-8309565D01*
X12779846Y-8324322D01*
X12786638Y-8340719D01*
X12790100Y-8358126D01*
X12790100Y-8375874D01*
X12786638Y-8393281D01*
X12779846Y-8409678D01*
X12769985Y-8424435D01*
X12757435Y-8436985D01*
X12742678Y-8446846D01*
X12726281Y-8453638D01*
X12711351Y-8456607D01*
X12708874Y-8457100D01*
X12691126Y-8457100D01*
X12688649Y-8456607D01*
X12673719Y-8453638D01*
X12657322Y-8446846D01*
X12642565Y-8436985D01*
X12630015Y-8424435D01*
X12620154Y-8409678D01*
X12613362Y-8393281D01*
X12609900Y-8375874D01*
X12609900Y-8358126D01*
X12613362Y-8340719D01*
X12620154Y-8324322D01*
X12630015Y-8309565D01*
X12642565Y-8297015D01*
X12657322Y-8287154D01*
X12673719Y-8280362D01*
X12688649Y-8277393D01*
X12691126Y-8276900D01*
X12708874Y-8276900D01*
X12711351Y-8277393D01*
G37*
G36*
X18758886Y-8035214D02*
G01*
X18765262Y-8035842D01*
X18774340Y-8038596D01*
X18777534Y-8039565D01*
X18788843Y-8045609D01*
X18798755Y-8053745D01*
X18806891Y-8063657D01*
X18812935Y-8074966D01*
X18812936Y-8074967D01*
X18816658Y-8087238D01*
X18817915Y-8100000D01*
X18816658Y-8112762D01*
X18813904Y-8121840D01*
X18812935Y-8125034D01*
X18806891Y-8136342D01*
X18798755Y-8146255D01*
X18788843Y-8154391D01*
X18777534Y-8160435D01*
X18774340Y-8161404D01*
X18765262Y-8164158D01*
X18758886Y-8164786D01*
X18755697Y-8165100D01*
X18694303Y-8165100D01*
X18691115Y-8164786D01*
X18684738Y-8164158D01*
X18675660Y-8161404D01*
X18672466Y-8160435D01*
X18661158Y-8154391D01*
X18651245Y-8146255D01*
X18643109Y-8136342D01*
X18637065Y-8125034D01*
X18636096Y-8121840D01*
X18633342Y-8112762D01*
X18632085Y-8100000D01*
X18633342Y-8087238D01*
X18637065Y-8074967D01*
X18637065Y-8074966D01*
X18643109Y-8063657D01*
X18651245Y-8053745D01*
X18661158Y-8045609D01*
X18672466Y-8039565D01*
X18675660Y-8038596D01*
X18684738Y-8035842D01*
X18691115Y-8035214D01*
X18694303Y-8034900D01*
X18755697Y-8034900D01*
X18758886Y-8035214D01*
G37*
G36*
X19508886Y-8035214D02*
G01*
X19515262Y-8035842D01*
X19524340Y-8038596D01*
X19527534Y-8039565D01*
X19538843Y-8045609D01*
X19548755Y-8053745D01*
X19556891Y-8063657D01*
X19562935Y-8074966D01*
X19562936Y-8074967D01*
X19566658Y-8087238D01*
X19567915Y-8100000D01*
X19566658Y-8112762D01*
X19563904Y-8121840D01*
X19562935Y-8125034D01*
X19556891Y-8136342D01*
X19548755Y-8146255D01*
X19538843Y-8154391D01*
X19527534Y-8160435D01*
X19524340Y-8161404D01*
X19515262Y-8164158D01*
X19508886Y-8164786D01*
X19505697Y-8165100D01*
X19444303Y-8165100D01*
X19441115Y-8164786D01*
X19434738Y-8164158D01*
X19425660Y-8161404D01*
X19422466Y-8160435D01*
X19411158Y-8154391D01*
X19401245Y-8146255D01*
X19393109Y-8136342D01*
X19387065Y-8125034D01*
X19386096Y-8121840D01*
X19383342Y-8112762D01*
X19382085Y-8100000D01*
X19383342Y-8087238D01*
X19387065Y-8074967D01*
X19387065Y-8074966D01*
X19393109Y-8063657D01*
X19401245Y-8053745D01*
X19411158Y-8045609D01*
X19422466Y-8039565D01*
X19425660Y-8038596D01*
X19434738Y-8035842D01*
X19441115Y-8035214D01*
X19444303Y-8034900D01*
X19505697Y-8034900D01*
X19508886Y-8035214D01*
G37*
G36*
X16508885Y-8035214D02*
G01*
X16515262Y-8035842D01*
X16524340Y-8038596D01*
X16527534Y-8039565D01*
X16538842Y-8045609D01*
X16548755Y-8053745D01*
X16556891Y-8063657D01*
X16562935Y-8074966D01*
X16562935Y-8074967D01*
X16566658Y-8087238D01*
X16567915Y-8100000D01*
X16566658Y-8112762D01*
X16563904Y-8121840D01*
X16562935Y-8125034D01*
X16556891Y-8136342D01*
X16548755Y-8146255D01*
X16538842Y-8154391D01*
X16527534Y-8160435D01*
X16524340Y-8161404D01*
X16515262Y-8164158D01*
X16508885Y-8164786D01*
X16505697Y-8165100D01*
X16444303Y-8165100D01*
X16441114Y-8164786D01*
X16434738Y-8164158D01*
X16425660Y-8161404D01*
X16422466Y-8160435D01*
X16411157Y-8154391D01*
X16401245Y-8146255D01*
X16393109Y-8136342D01*
X16387065Y-8125034D01*
X16386096Y-8121840D01*
X16383342Y-8112762D01*
X16382085Y-8100000D01*
X16383342Y-8087238D01*
X16387064Y-8074967D01*
X16387065Y-8074966D01*
X16393109Y-8063657D01*
X16401245Y-8053745D01*
X16411157Y-8045609D01*
X16422466Y-8039565D01*
X16425660Y-8038596D01*
X16434738Y-8035842D01*
X16441114Y-8035214D01*
X16444303Y-8034900D01*
X16505697Y-8034900D01*
X16508885Y-8035214D01*
G37*
G36*
X18008886Y-8035214D02*
G01*
X18015262Y-8035842D01*
X18024340Y-8038596D01*
X18027534Y-8039565D01*
X18038843Y-8045609D01*
X18048755Y-8053745D01*
X18056891Y-8063657D01*
X18062935Y-8074966D01*
X18062936Y-8074967D01*
X18066658Y-8087238D01*
X18067915Y-8100000D01*
X18066658Y-8112762D01*
X18063904Y-8121840D01*
X18062935Y-8125034D01*
X18056891Y-8136342D01*
X18048755Y-8146255D01*
X18038843Y-8154391D01*
X18027534Y-8160435D01*
X18024340Y-8161404D01*
X18015262Y-8164158D01*
X18008886Y-8164786D01*
X18005697Y-8165100D01*
X17944303Y-8165100D01*
X17941115Y-8164786D01*
X17934738Y-8164158D01*
X17925660Y-8161404D01*
X17922466Y-8160435D01*
X17911158Y-8154391D01*
X17901245Y-8146255D01*
X17893109Y-8136342D01*
X17887065Y-8125034D01*
X17886096Y-8121840D01*
X17883342Y-8112762D01*
X17882085Y-8100000D01*
X17883342Y-8087238D01*
X17887065Y-8074967D01*
X17887065Y-8074966D01*
X17893109Y-8063657D01*
X17901245Y-8053745D01*
X17911158Y-8045609D01*
X17922466Y-8039565D01*
X17925660Y-8038596D01*
X17934738Y-8035842D01*
X17941115Y-8035214D01*
X17944303Y-8034900D01*
X18005697Y-8034900D01*
X18008886Y-8035214D01*
G37*
G36*
X17258886Y-8035214D02*
G01*
X17265262Y-8035842D01*
X17274340Y-8038596D01*
X17277534Y-8039565D01*
X17288843Y-8045609D01*
X17298755Y-8053745D01*
X17306891Y-8063657D01*
X17312935Y-8074966D01*
X17312936Y-8074967D01*
X17316658Y-8087238D01*
X17317915Y-8100000D01*
X17316658Y-8112762D01*
X17313904Y-8121840D01*
X17312935Y-8125034D01*
X17306891Y-8136342D01*
X17298755Y-8146255D01*
X17288843Y-8154391D01*
X17277534Y-8160435D01*
X17274340Y-8161404D01*
X17265262Y-8164158D01*
X17258886Y-8164786D01*
X17255697Y-8165100D01*
X17194303Y-8165100D01*
X17191115Y-8164786D01*
X17184738Y-8164158D01*
X17175660Y-8161404D01*
X17172466Y-8160435D01*
X17161158Y-8154391D01*
X17151245Y-8146255D01*
X17143109Y-8136342D01*
X17137065Y-8125034D01*
X17136096Y-8121840D01*
X17133342Y-8112762D01*
X17132085Y-8100000D01*
X17133342Y-8087238D01*
X17137065Y-8074967D01*
X17137065Y-8074966D01*
X17143109Y-8063657D01*
X17151245Y-8053745D01*
X17161158Y-8045609D01*
X17172466Y-8039565D01*
X17175660Y-8038596D01*
X17184738Y-8035842D01*
X17191115Y-8035214D01*
X17194303Y-8034900D01*
X17255697Y-8034900D01*
X17258886Y-8035214D01*
G37*
G36*
X18758886Y-7835214D02*
G01*
X18765262Y-7835842D01*
X18774340Y-7838596D01*
X18777534Y-7839565D01*
X18788843Y-7845609D01*
X18798755Y-7853745D01*
X18806891Y-7863657D01*
X18812935Y-7874966D01*
X18812936Y-7874967D01*
X18816658Y-7887238D01*
X18817915Y-7900000D01*
X18816658Y-7912762D01*
X18813904Y-7921840D01*
X18812935Y-7925034D01*
X18806891Y-7936342D01*
X18798755Y-7946255D01*
X18788843Y-7954391D01*
X18777534Y-7960435D01*
X18774340Y-7961404D01*
X18765262Y-7964158D01*
X18758886Y-7964786D01*
X18755697Y-7965100D01*
X18694303Y-7965100D01*
X18691115Y-7964786D01*
X18684738Y-7964158D01*
X18675660Y-7961404D01*
X18672466Y-7960435D01*
X18661158Y-7954391D01*
X18651245Y-7946255D01*
X18643109Y-7936342D01*
X18637065Y-7925034D01*
X18636096Y-7921840D01*
X18633342Y-7912762D01*
X18632085Y-7900000D01*
X18633342Y-7887238D01*
X18637065Y-7874967D01*
X18637065Y-7874966D01*
X18643109Y-7863657D01*
X18651245Y-7853745D01*
X18661158Y-7845609D01*
X18672466Y-7839565D01*
X18675660Y-7838596D01*
X18684738Y-7835842D01*
X18691115Y-7835214D01*
X18694303Y-7834900D01*
X18755697Y-7834900D01*
X18758886Y-7835214D01*
G37*
G36*
X19508886Y-7835214D02*
G01*
X19515262Y-7835842D01*
X19524340Y-7838596D01*
X19527534Y-7839565D01*
X19538843Y-7845609D01*
X19548755Y-7853745D01*
X19556891Y-7863657D01*
X19562935Y-7874966D01*
X19562936Y-7874967D01*
X19566658Y-7887238D01*
X19567915Y-7900000D01*
X19566658Y-7912762D01*
X19563904Y-7921840D01*
X19562935Y-7925034D01*
X19556891Y-7936342D01*
X19548755Y-7946255D01*
X19538843Y-7954391D01*
X19527534Y-7960435D01*
X19524340Y-7961404D01*
X19515262Y-7964158D01*
X19508886Y-7964786D01*
X19505697Y-7965100D01*
X19444303Y-7965100D01*
X19441115Y-7964786D01*
X19434738Y-7964158D01*
X19425660Y-7961404D01*
X19422466Y-7960435D01*
X19411158Y-7954391D01*
X19401245Y-7946255D01*
X19393109Y-7936342D01*
X19387065Y-7925034D01*
X19386096Y-7921840D01*
X19383342Y-7912762D01*
X19382085Y-7900000D01*
X19383342Y-7887238D01*
X19387065Y-7874967D01*
X19387065Y-7874966D01*
X19393109Y-7863657D01*
X19401245Y-7853745D01*
X19411158Y-7845609D01*
X19422466Y-7839565D01*
X19425660Y-7838596D01*
X19434738Y-7835842D01*
X19441115Y-7835214D01*
X19444303Y-7834900D01*
X19505697Y-7834900D01*
X19508886Y-7835214D01*
G37*
G36*
X18008886Y-7835214D02*
G01*
X18015262Y-7835842D01*
X18024340Y-7838596D01*
X18027534Y-7839565D01*
X18038843Y-7845609D01*
X18048755Y-7853745D01*
X18056891Y-7863657D01*
X18062935Y-7874966D01*
X18062936Y-7874967D01*
X18066658Y-7887238D01*
X18067915Y-7900000D01*
X18066658Y-7912762D01*
X18063904Y-7921840D01*
X18062935Y-7925034D01*
X18056891Y-7936342D01*
X18048755Y-7946255D01*
X18038843Y-7954391D01*
X18027534Y-7960435D01*
X18024340Y-7961404D01*
X18015262Y-7964158D01*
X18008886Y-7964786D01*
X18005697Y-7965100D01*
X17944303Y-7965100D01*
X17941115Y-7964786D01*
X17934738Y-7964158D01*
X17925660Y-7961404D01*
X17922466Y-7960435D01*
X17911158Y-7954391D01*
X17901245Y-7946255D01*
X17893109Y-7936342D01*
X17887065Y-7925034D01*
X17886096Y-7921840D01*
X17883342Y-7912762D01*
X17882085Y-7900000D01*
X17883342Y-7887238D01*
X17887065Y-7874967D01*
X17887065Y-7874966D01*
X17893109Y-7863657D01*
X17901245Y-7853745D01*
X17911158Y-7845609D01*
X17922466Y-7839565D01*
X17925660Y-7838596D01*
X17934738Y-7835842D01*
X17941115Y-7835214D01*
X17944303Y-7834900D01*
X18005697Y-7834900D01*
X18008886Y-7835214D01*
G37*
G36*
X17258886Y-7835214D02*
G01*
X17265262Y-7835842D01*
X17274340Y-7838596D01*
X17277534Y-7839565D01*
X17288843Y-7845609D01*
X17298755Y-7853745D01*
X17306891Y-7863657D01*
X17312935Y-7874966D01*
X17312936Y-7874967D01*
X17316658Y-7887238D01*
X17317915Y-7900000D01*
X17316658Y-7912762D01*
X17313904Y-7921840D01*
X17312935Y-7925034D01*
X17306891Y-7936342D01*
X17298755Y-7946255D01*
X17288843Y-7954391D01*
X17277534Y-7960435D01*
X17274340Y-7961404D01*
X17265262Y-7964158D01*
X17258886Y-7964786D01*
X17255697Y-7965100D01*
X17194303Y-7965100D01*
X17191115Y-7964786D01*
X17184738Y-7964158D01*
X17175660Y-7961404D01*
X17172466Y-7960435D01*
X17161158Y-7954391D01*
X17151245Y-7946255D01*
X17143109Y-7936342D01*
X17137065Y-7925034D01*
X17136096Y-7921840D01*
X17133342Y-7912762D01*
X17132085Y-7900000D01*
X17133342Y-7887238D01*
X17137065Y-7874967D01*
X17137065Y-7874966D01*
X17143109Y-7863657D01*
X17151245Y-7853745D01*
X17161158Y-7845609D01*
X17172466Y-7839565D01*
X17175660Y-7838596D01*
X17184738Y-7835842D01*
X17191115Y-7835214D01*
X17194303Y-7834900D01*
X17255697Y-7834900D01*
X17258886Y-7835214D01*
G37*
G36*
X16508885Y-7835214D02*
G01*
X16515262Y-7835842D01*
X16524340Y-7838596D01*
X16527534Y-7839565D01*
X16538842Y-7845609D01*
X16548755Y-7853745D01*
X16556891Y-7863657D01*
X16562935Y-7874966D01*
X16562935Y-7874967D01*
X16566658Y-7887238D01*
X16567915Y-7900000D01*
X16566658Y-7912762D01*
X16563904Y-7921840D01*
X16562935Y-7925034D01*
X16556891Y-7936342D01*
X16548755Y-7946255D01*
X16538842Y-7954391D01*
X16527534Y-7960435D01*
X16524340Y-7961404D01*
X16515262Y-7964158D01*
X16508885Y-7964786D01*
X16505697Y-7965100D01*
X16444303Y-7965100D01*
X16441114Y-7964786D01*
X16434738Y-7964158D01*
X16425660Y-7961404D01*
X16422466Y-7960435D01*
X16411157Y-7954391D01*
X16401245Y-7946255D01*
X16393109Y-7936342D01*
X16387065Y-7925034D01*
X16386096Y-7921840D01*
X16383342Y-7912762D01*
X16382085Y-7900000D01*
X16383342Y-7887238D01*
X16387064Y-7874967D01*
X16387065Y-7874966D01*
X16393109Y-7863657D01*
X16401245Y-7853745D01*
X16411157Y-7845609D01*
X16422466Y-7839565D01*
X16425660Y-7838596D01*
X16434738Y-7835842D01*
X16441114Y-7835214D01*
X16444303Y-7834900D01*
X16505697Y-7834900D01*
X16508885Y-7835214D01*
G37*
G36*
X20152533Y-7476821D02*
G01*
X20185309Y-7490397D01*
X20214807Y-7510107D01*
X20239893Y-7535193D01*
X20259603Y-7564691D01*
X20273179Y-7597467D01*
X20280100Y-7632262D01*
X20280100Y-7667738D01*
X20273179Y-7702533D01*
X20259603Y-7735309D01*
X20239893Y-7764807D01*
X20214807Y-7789893D01*
X20185309Y-7809603D01*
X20152533Y-7823179D01*
X20117738Y-7830100D01*
X20082262Y-7830100D01*
X20047467Y-7823179D01*
X20014691Y-7809603D01*
X19985193Y-7789893D01*
X19960107Y-7764807D01*
X19940397Y-7735309D01*
X19926821Y-7702533D01*
X19919900Y-7667738D01*
X19919900Y-7632262D01*
X19926821Y-7597467D01*
X19940397Y-7564691D01*
X19960107Y-7535193D01*
X19985193Y-7510107D01*
X20014691Y-7490397D01*
X20047467Y-7476821D01*
X20082262Y-7469900D01*
X20117738Y-7469900D01*
X20152533Y-7476821D01*
G37*
G36*
X12952533Y-7476821D02*
G01*
X12985309Y-7490397D01*
X13014807Y-7510107D01*
X13039893Y-7535193D01*
X13059603Y-7564691D01*
X13073179Y-7597467D01*
X13080100Y-7632262D01*
X13080100Y-7667738D01*
X13073179Y-7702533D01*
X13059603Y-7735309D01*
X13039893Y-7764807D01*
X13014807Y-7789893D01*
X12985309Y-7809603D01*
X12952533Y-7823179D01*
X12917738Y-7830100D01*
X12882262Y-7830100D01*
X12847467Y-7823179D01*
X12814691Y-7809603D01*
X12785193Y-7789893D01*
X12760107Y-7764807D01*
X12740397Y-7735309D01*
X12726821Y-7702533D01*
X12719900Y-7667738D01*
X12719900Y-7632262D01*
X12726821Y-7597467D01*
X12740397Y-7564691D01*
X12760107Y-7535193D01*
X12785193Y-7510107D01*
X12814691Y-7490397D01*
X12847467Y-7476821D01*
X12882262Y-7469900D01*
X12917738Y-7469900D01*
X12952533Y-7476821D01*
G37*
G36*
X18758886Y-7635214D02*
G01*
X18765262Y-7635842D01*
X18774340Y-7638596D01*
X18777534Y-7639565D01*
X18788843Y-7645609D01*
X18798755Y-7653745D01*
X18806891Y-7663657D01*
X18812935Y-7674966D01*
X18812936Y-7674967D01*
X18816658Y-7687238D01*
X18817915Y-7700000D01*
X18816658Y-7712762D01*
X18813904Y-7721840D01*
X18812935Y-7725034D01*
X18806891Y-7736342D01*
X18798755Y-7746255D01*
X18788843Y-7754391D01*
X18777534Y-7760435D01*
X18774340Y-7761404D01*
X18765262Y-7764158D01*
X18758886Y-7764786D01*
X18755697Y-7765100D01*
X18694303Y-7765100D01*
X18691115Y-7764786D01*
X18684738Y-7764158D01*
X18675660Y-7761404D01*
X18672466Y-7760435D01*
X18661158Y-7754391D01*
X18651245Y-7746255D01*
X18643109Y-7736342D01*
X18637065Y-7725034D01*
X18636096Y-7721840D01*
X18633342Y-7712762D01*
X18632085Y-7700000D01*
X18633342Y-7687238D01*
X18637065Y-7674967D01*
X18637065Y-7674966D01*
X18643109Y-7663657D01*
X18651245Y-7653745D01*
X18661158Y-7645609D01*
X18672466Y-7639565D01*
X18675660Y-7638596D01*
X18684738Y-7635842D01*
X18691115Y-7635214D01*
X18694303Y-7634900D01*
X18755697Y-7634900D01*
X18758886Y-7635214D01*
G37*
G36*
X19508886Y-7635214D02*
G01*
X19515262Y-7635842D01*
X19524340Y-7638596D01*
X19527534Y-7639565D01*
X19538843Y-7645609D01*
X19548755Y-7653745D01*
X19556891Y-7663657D01*
X19562935Y-7674966D01*
X19562936Y-7674967D01*
X19566658Y-7687238D01*
X19567915Y-7700000D01*
X19566658Y-7712762D01*
X19563904Y-7721840D01*
X19562935Y-7725034D01*
X19556891Y-7736342D01*
X19548755Y-7746255D01*
X19538843Y-7754391D01*
X19527534Y-7760435D01*
X19524340Y-7761404D01*
X19515262Y-7764158D01*
X19508886Y-7764786D01*
X19505697Y-7765100D01*
X19444303Y-7765100D01*
X19441115Y-7764786D01*
X19434738Y-7764158D01*
X19425660Y-7761404D01*
X19422466Y-7760435D01*
X19411158Y-7754391D01*
X19401245Y-7746255D01*
X19393109Y-7736342D01*
X19387065Y-7725034D01*
X19386096Y-7721840D01*
X19383342Y-7712762D01*
X19382085Y-7700000D01*
X19383342Y-7687238D01*
X19387065Y-7674967D01*
X19387065Y-7674966D01*
X19393109Y-7663657D01*
X19401245Y-7653745D01*
X19411158Y-7645609D01*
X19422466Y-7639565D01*
X19425660Y-7638596D01*
X19434738Y-7635842D01*
X19441115Y-7635214D01*
X19444303Y-7634900D01*
X19505697Y-7634900D01*
X19508886Y-7635214D01*
G37*
G36*
X18008886Y-7635214D02*
G01*
X18015262Y-7635842D01*
X18024340Y-7638596D01*
X18027534Y-7639565D01*
X18038843Y-7645609D01*
X18048755Y-7653745D01*
X18056891Y-7663657D01*
X18062935Y-7674966D01*
X18062936Y-7674967D01*
X18066658Y-7687238D01*
X18067915Y-7700000D01*
X18066658Y-7712762D01*
X18063904Y-7721840D01*
X18062935Y-7725034D01*
X18056891Y-7736342D01*
X18048755Y-7746255D01*
X18038843Y-7754391D01*
X18027534Y-7760435D01*
X18024340Y-7761404D01*
X18015262Y-7764158D01*
X18008886Y-7764786D01*
X18005697Y-7765100D01*
X17944303Y-7765100D01*
X17941115Y-7764786D01*
X17934738Y-7764158D01*
X17925660Y-7761404D01*
X17922466Y-7760435D01*
X17911158Y-7754391D01*
X17901245Y-7746255D01*
X17893109Y-7736342D01*
X17887065Y-7725034D01*
X17886096Y-7721840D01*
X17883342Y-7712762D01*
X17882085Y-7700000D01*
X17883342Y-7687238D01*
X17887065Y-7674967D01*
X17887065Y-7674966D01*
X17893109Y-7663657D01*
X17901245Y-7653745D01*
X17911158Y-7645609D01*
X17922466Y-7639565D01*
X17925660Y-7638596D01*
X17934738Y-7635842D01*
X17941115Y-7635214D01*
X17944303Y-7634900D01*
X18005697Y-7634900D01*
X18008886Y-7635214D01*
G37*
G36*
X17258886Y-7635214D02*
G01*
X17265262Y-7635842D01*
X17274340Y-7638596D01*
X17277534Y-7639565D01*
X17288843Y-7645609D01*
X17298755Y-7653745D01*
X17306891Y-7663657D01*
X17312935Y-7674966D01*
X17312936Y-7674967D01*
X17316658Y-7687238D01*
X17317915Y-7700000D01*
X17316658Y-7712762D01*
X17313904Y-7721840D01*
X17312935Y-7725034D01*
X17306891Y-7736342D01*
X17298755Y-7746255D01*
X17288843Y-7754391D01*
X17277534Y-7760435D01*
X17274340Y-7761404D01*
X17265262Y-7764158D01*
X17258886Y-7764786D01*
X17255697Y-7765100D01*
X17194303Y-7765100D01*
X17191115Y-7764786D01*
X17184738Y-7764158D01*
X17175660Y-7761404D01*
X17172466Y-7760435D01*
X17161158Y-7754391D01*
X17151245Y-7746255D01*
X17143109Y-7736342D01*
X17137065Y-7725034D01*
X17136096Y-7721840D01*
X17133342Y-7712762D01*
X17132085Y-7700000D01*
X17133342Y-7687238D01*
X17137065Y-7674967D01*
X17137065Y-7674966D01*
X17143109Y-7663657D01*
X17151245Y-7653745D01*
X17161158Y-7645609D01*
X17172466Y-7639565D01*
X17175660Y-7638596D01*
X17184738Y-7635842D01*
X17191115Y-7635214D01*
X17194303Y-7634900D01*
X17255697Y-7634900D01*
X17258886Y-7635214D01*
G37*
G36*
X16508885Y-7635214D02*
G01*
X16515262Y-7635842D01*
X16524340Y-7638596D01*
X16527534Y-7639565D01*
X16538842Y-7645609D01*
X16548755Y-7653745D01*
X16556891Y-7663657D01*
X16562935Y-7674966D01*
X16562935Y-7674967D01*
X16566658Y-7687238D01*
X16567915Y-7700000D01*
X16566658Y-7712762D01*
X16563904Y-7721840D01*
X16562935Y-7725034D01*
X16556891Y-7736342D01*
X16548755Y-7746255D01*
X16538842Y-7754391D01*
X16527534Y-7760435D01*
X16524340Y-7761404D01*
X16515262Y-7764158D01*
X16508885Y-7764786D01*
X16505697Y-7765100D01*
X16444303Y-7765100D01*
X16441114Y-7764786D01*
X16434738Y-7764158D01*
X16425660Y-7761404D01*
X16422466Y-7760435D01*
X16411157Y-7754391D01*
X16401245Y-7746255D01*
X16393109Y-7736342D01*
X16387065Y-7725034D01*
X16386096Y-7721840D01*
X16383342Y-7712762D01*
X16382085Y-7700000D01*
X16383342Y-7687238D01*
X16387064Y-7674967D01*
X16387065Y-7674966D01*
X16393109Y-7663657D01*
X16401245Y-7653745D01*
X16411157Y-7645609D01*
X16422466Y-7639565D01*
X16425660Y-7638596D01*
X16434738Y-7635842D01*
X16441114Y-7635214D01*
X16444303Y-7634900D01*
X16505697Y-7634900D01*
X16508885Y-7635214D01*
G37*
G36*
X19551624Y-7435340D02*
G01*
X19555334Y-7436466D01*
X19558752Y-7438292D01*
X19561748Y-7440752D01*
X19564208Y-7443748D01*
X19566034Y-7447166D01*
X19567160Y-7450876D01*
X19567600Y-7455347D01*
X19567600Y-7544653D01*
X19567160Y-7549124D01*
X19566034Y-7552834D01*
X19564208Y-7556251D01*
X19561748Y-7559248D01*
X19558752Y-7561707D01*
X19555334Y-7563534D01*
X19551624Y-7564660D01*
X19547153Y-7565100D01*
X19402847Y-7565100D01*
X19398376Y-7564660D01*
X19394666Y-7563534D01*
X19391249Y-7561707D01*
X19388252Y-7559248D01*
X19385793Y-7556251D01*
X19383966Y-7552834D01*
X19382840Y-7549124D01*
X19382400Y-7544653D01*
X19382400Y-7455347D01*
X19382840Y-7450876D01*
X19383966Y-7447166D01*
X19385793Y-7443748D01*
X19388252Y-7440752D01*
X19391249Y-7438292D01*
X19394666Y-7436466D01*
X19398376Y-7435340D01*
X19402847Y-7434900D01*
X19547153Y-7434900D01*
X19551624Y-7435340D01*
G37*
G36*
X18801624Y-7435340D02*
G01*
X18805334Y-7436466D01*
X18808752Y-7438292D01*
X18811748Y-7440752D01*
X18814208Y-7443748D01*
X18816034Y-7447166D01*
X18817160Y-7450876D01*
X18817600Y-7455347D01*
X18817600Y-7544653D01*
X18817160Y-7549124D01*
X18816034Y-7552834D01*
X18814208Y-7556251D01*
X18811748Y-7559248D01*
X18808752Y-7561707D01*
X18805334Y-7563534D01*
X18801624Y-7564660D01*
X18797153Y-7565100D01*
X18652847Y-7565100D01*
X18648376Y-7564660D01*
X18644666Y-7563534D01*
X18641249Y-7561707D01*
X18638252Y-7559248D01*
X18635793Y-7556251D01*
X18633966Y-7552834D01*
X18632840Y-7549124D01*
X18632400Y-7544653D01*
X18632400Y-7455347D01*
X18632840Y-7450876D01*
X18633966Y-7447166D01*
X18635793Y-7443748D01*
X18638252Y-7440752D01*
X18641249Y-7438292D01*
X18644666Y-7436466D01*
X18648376Y-7435340D01*
X18652847Y-7434900D01*
X18797153Y-7434900D01*
X18801624Y-7435340D01*
G37*
G36*
X18051624Y-7435340D02*
G01*
X18055334Y-7436466D01*
X18058752Y-7438292D01*
X18061748Y-7440752D01*
X18064208Y-7443748D01*
X18066034Y-7447166D01*
X18067160Y-7450876D01*
X18067600Y-7455347D01*
X18067600Y-7544653D01*
X18067160Y-7549124D01*
X18066034Y-7552834D01*
X18064208Y-7556251D01*
X18061748Y-7559248D01*
X18058752Y-7561707D01*
X18055334Y-7563534D01*
X18051624Y-7564660D01*
X18047153Y-7565100D01*
X17902847Y-7565100D01*
X17898376Y-7564660D01*
X17894666Y-7563534D01*
X17891249Y-7561707D01*
X17888252Y-7559248D01*
X17885793Y-7556251D01*
X17883966Y-7552834D01*
X17882840Y-7549124D01*
X17882400Y-7544653D01*
X17882400Y-7455347D01*
X17882840Y-7450876D01*
X17883966Y-7447166D01*
X17885793Y-7443748D01*
X17888252Y-7440752D01*
X17891249Y-7438292D01*
X17894666Y-7436466D01*
X17898376Y-7435340D01*
X17902847Y-7434900D01*
X18047153Y-7434900D01*
X18051624Y-7435340D01*
G37*
G36*
X17301624Y-7435340D02*
G01*
X17305334Y-7436466D01*
X17308752Y-7438292D01*
X17311748Y-7440752D01*
X17314208Y-7443748D01*
X17316034Y-7447166D01*
X17317160Y-7450876D01*
X17317600Y-7455347D01*
X17317600Y-7544653D01*
X17317160Y-7549124D01*
X17316034Y-7552834D01*
X17314208Y-7556251D01*
X17311748Y-7559248D01*
X17308752Y-7561707D01*
X17305334Y-7563534D01*
X17301624Y-7564660D01*
X17297153Y-7565100D01*
X17152847Y-7565100D01*
X17148376Y-7564660D01*
X17144666Y-7563534D01*
X17141249Y-7561707D01*
X17138252Y-7559248D01*
X17135793Y-7556251D01*
X17133966Y-7552834D01*
X17132840Y-7549124D01*
X17132400Y-7544653D01*
X17132400Y-7455347D01*
X17132840Y-7450876D01*
X17133966Y-7447166D01*
X17135793Y-7443748D01*
X17138252Y-7440752D01*
X17141249Y-7438292D01*
X17144666Y-7436466D01*
X17148376Y-7435340D01*
X17152847Y-7434900D01*
X17297153Y-7434900D01*
X17301624Y-7435340D01*
G37*
G36*
X16551624Y-7435340D02*
G01*
X16555334Y-7436466D01*
X16558751Y-7438292D01*
X16561748Y-7440752D01*
X16564207Y-7443748D01*
X16566034Y-7447166D01*
X16567160Y-7450876D01*
X16567600Y-7455347D01*
X16567600Y-7544653D01*
X16567160Y-7549124D01*
X16566034Y-7552834D01*
X16564207Y-7556251D01*
X16561748Y-7559248D01*
X16558751Y-7561707D01*
X16555334Y-7563534D01*
X16551624Y-7564660D01*
X16547153Y-7565100D01*
X16402847Y-7565100D01*
X16398376Y-7564660D01*
X16394666Y-7563534D01*
X16391248Y-7561707D01*
X16388252Y-7559248D01*
X16385792Y-7556251D01*
X16383966Y-7552834D01*
X16382840Y-7549124D01*
X16382400Y-7544653D01*
X16382400Y-7455347D01*
X16382840Y-7450876D01*
X16383966Y-7447166D01*
X16385792Y-7443748D01*
X16388252Y-7440752D01*
X16391248Y-7438292D01*
X16394666Y-7436466D01*
X16398376Y-7435340D01*
X16402847Y-7434900D01*
X16547153Y-7434900D01*
X16551624Y-7435340D01*
G37*
M02*
