M48
; DRILL file {KiCad 5.1.5-1.fc31} date Fri 10 Jul 2020 10:42:23 PM +07
; FORMAT={-:-/ absolute / metric / decimal}
; #@! TF.CreationDate,2020-07-10T22:42:23+07:00
; #@! TF.GenerationSoftware,Kicad,Pcbnew,5.1.5-1.fc31
; #@! TF.FileFunction,Plated,1,4,PTH
FMAT,2
METRIC
T1C0.200
T2C0.300
T3C0.500
T4C0.650
T5C0.750
T6C1.000
T7C1.200
%
G90
G05
T1
X197.7Y-120.7
X197.7Y-121.8
X198.8Y-120.7
X198.8Y-121.8
X157.194Y-117.694
X157.194Y-118.494
X157.194Y-119.294
X157.994Y-117.694
X157.994Y-118.494
X157.994Y-119.294
X158.794Y-117.694
X158.794Y-118.494
X158.794Y-119.294
T2
X127.75Y-114.5
X127.75Y-115.5
X127.75Y-116.5
X132.75Y-92.75
X132.75Y-95.25
X132.75Y-109.75
X132.75Y-112.25
X133.5Y-87.0
X133.5Y-88.5
X133.5Y-90.0
X133.75Y-117.25
X134.0Y-92.75
X135.25Y-112.25
X135.75Y-76.25
X135.75Y-82.5
X136.0Y-115.25
X136.0Y-123.0
X136.75Y-92.75
X137.5Y-75.25
X137.5Y-77.25
X137.5Y-81.5
X137.5Y-83.5
X137.75Y-92.75
X138.0Y-115.25
X138.25Y-101.5
X138.25Y-105.5
X139.0Y-73.75
X139.0Y-78.75
X139.0Y-85.0
X139.25Y-121.75
X140.0Y-115.25
X140.0Y-116.75
X140.25Y-103.5
X141.0Y-121.75
X141.75Y-83.0
X142.25Y-101.5
X142.25Y-105.5
X142.75Y-112.25
X143.0Y-95.25
X143.5Y-77.75
X143.5Y-84.0
X144.25Y-95.5
X148.0Y-112.25
X148.75Y-90.25
X149.25Y-95.5
X149.75Y-88.25
X149.75Y-89.0
X149.75Y-112.25
X149.75Y-113.5
X151.0Y-112.25
X151.0Y-113.5
X151.25Y-88.25
X151.25Y-89.0
X152.05Y-80.5
X152.05Y-81.25
X152.05Y-84.25
X152.05Y-85.0
X152.25Y-112.25
X152.25Y-113.5
X152.25Y-117.25
X152.5Y-107.0
X152.75Y-88.25
X152.75Y-90.0
X152.75Y-100.5
X152.75Y-101.5
X152.75Y-102.5
X153.0Y-131.75
X153.5Y-96.75
X153.5Y-112.25
X153.5Y-113.5
X153.75Y-101.5
X153.75Y-102.5
X153.75Y-107.0
X153.75Y-117.25
X153.75Y-131.75
X154.25Y-88.25
X154.25Y-90.0
X154.5Y-80.25
X154.5Y-81.25
X154.5Y-131.75
X154.75Y-107.5
X154.75Y-112.25
X154.75Y-113.5
X154.75Y-118.0
X155.25Y-117.25
X155.75Y-95.0
X155.75Y-120.5
X155.75Y-121.25
X156.0Y-102.0
X156.0Y-112.25
X156.0Y-113.5
X156.25Y-104.5
X156.5Y-121.25
X156.655Y-97.645
X156.75Y-95.0
X156.75Y-102.5
X157.25Y-104.5
X157.75Y-88.25
X157.75Y-95.0
X158.0Y-98.5
X158.55Y-101.1
X158.75Y-95.0
X159.2Y-107.25
X159.25Y-88.25
X159.5Y-121.25
X159.85Y-107.25
X160.25Y-120.5
X160.25Y-121.25
X160.75Y-117.25
X161.25Y-101.75
X161.25Y-103.25
X161.25Y-118.0
X161.5Y-95.0
X161.5Y-98.25
X161.5Y-106.75
X162.5Y-102.5
X162.5Y-105.25
X162.5Y-106.25
X162.75Y-95.0
X163.5Y-100.0
X163.75Y-82.75
X163.75Y-95.0
X164.0Y-98.25
X164.0Y-99.25
X164.0Y-104.0
X164.0Y-105.0
X164.25Y-100.75
X164.4Y-93.3
X164.5Y-116.75
X164.75Y-82.75
X164.75Y-95.0
X164.75Y-105.75
X165.0Y-99.75
X165.25Y-109.5
X165.5Y-106.5
X165.5Y-116.75
X165.75Y-99.0
X166.25Y-95.5
X166.5Y-98.25
X166.75Y-109.5
X167.0Y-95.5
X167.25Y-73.0
X167.25Y-74.0
X167.5Y-78.75
X167.5Y-98.25
X167.5Y-106.0
X168.25Y-106.5
X168.5Y-78.75
X168.75Y-73.0
X168.75Y-74.0
X168.75Y-100.5
X168.75Y-102.0
X169.25Y-101.25
X169.25Y-102.75
X169.25Y-117.25
X169.5Y-99.75
X169.75Y-105.5
X170.0Y-103.75
X170.0Y-108.5
X170.0Y-117.25
X170.75Y-117.25
X171.0Y-107.5
X171.0Y-108.5
X171.0Y-109.5
X171.25Y-82.75
X171.5Y-97.75
X172.0Y-107.5
X172.25Y-82.75
X172.5Y-99.25
X173.0Y-106.5
X173.25Y-98.5
X173.5Y-109.0
X174.75Y-73.0
X174.75Y-74.0
X175.0Y-78.75
X175.5Y-105.25
X175.75Y-108.5
X176.0Y-78.75
X176.25Y-73.0
X176.25Y-74.0
X176.75Y-106.0
X177.0Y-100.0
X177.0Y-101.0
X177.0Y-109.5
X178.75Y-82.75
X178.75Y-108.75
X179.75Y-82.75
X179.75Y-108.75
X180.25Y-112.0
X180.75Y-108.75
X181.0Y-112.0
X181.0Y-112.75
X181.75Y-108.75
X181.75Y-112.0
X182.25Y-73.0
X182.25Y-74.0
X182.5Y-78.75
X182.75Y-108.75
X183.5Y-78.75
X183.75Y-73.0
X183.75Y-74.0
X184.1Y-105.6
X185.0Y-105.6
X185.5Y-108.0
X185.5Y-108.5
X185.5Y-110.0
X185.5Y-111.0
X185.5Y-112.0
X185.5Y-113.0
X185.5Y-114.0
X185.5Y-115.0
X185.5Y-117.75
X185.5Y-118.75
X185.9Y-105.6
X186.25Y-82.75
X186.5Y-112.0
X186.5Y-117.75
X186.5Y-118.75
X186.8Y-105.6
X187.25Y-82.75
X187.5Y-112.0
X187.7Y-105.6
X188.25Y-114.75
X188.5Y-112.0
X188.6Y-105.6
X188.75Y-97.75
X189.0Y-94.75
X189.0Y-114.75
X189.25Y-102.5
X189.5Y-122.0
X189.75Y-73.0
X189.75Y-74.0
X189.75Y-102.5
X189.75Y-114.75
X190.25Y-95.5
X190.25Y-107.5
X190.75Y-122.0
X191.25Y-73.0
X191.25Y-74.0
X191.75Y-125.75
X192.0Y-102.5
X192.25Y-104.5
X192.25Y-114.0
X192.25Y-115.5
X192.25Y-119.0
X192.25Y-120.5
X192.5Y-98.25
X192.5Y-100.0
X192.5Y-106.75
X192.75Y-102.5
X193.5Y-102.5
X193.5Y-125.75
X193.75Y-107.5
X194.0Y-109.75
X194.75Y-109.0
X195.25Y-85.25
X195.25Y-125.75
X195.5Y-114.25
X195.5Y-115.25
X195.5Y-121.5
X196.5Y-107.5
X196.5Y-114.25
X196.5Y-115.25
X196.5Y-116.75
X196.75Y-102.75
X196.75Y-111.25
X196.75Y-111.75
X196.75Y-112.25
X197.25Y-119.0
X197.5Y-103.5
X197.5Y-114.25
X197.5Y-115.25
X198.0Y-107.5
X198.25Y-119.0
X198.5Y-102.5
X198.75Y-95.25
X198.75Y-96.75
X199.25Y-80.75
X199.25Y-119.0
X199.5Y-92.0
X199.5Y-93.5
X199.5Y-95.25
X199.5Y-96.75
X199.5Y-98.75
X199.5Y-99.5
X199.5Y-100.25
X199.5Y-101.5
X199.5Y-102.5
X199.5Y-104.75
X199.5Y-105.5
X199.5Y-106.25
X199.75Y-110.75
X199.75Y-111.75
X199.75Y-112.75
X200.25Y-80.75
X200.5Y-115.5
X200.5Y-123.0
X200.75Y-86.25
X201.25Y-118.75
X201.25Y-119.75
X201.25Y-120.75
X201.25Y-123.0
X201.75Y-86.25
X202.0Y-119.25
X202.25Y-80.25
X202.5Y-84.25
X202.5Y-115.75
X202.75Y-86.25
X203.0Y-84.25
X204.0Y-89.75
X204.0Y-97.75
X204.0Y-115.75
X204.5Y-100.75
X204.5Y-101.75
X204.5Y-103.25
X204.5Y-104.25
X204.5Y-116.75
X204.5Y-117.75
X204.5Y-119.25
X204.5Y-120.75
X204.5Y-122.25
X204.5Y-123.75
T4
X178.73Y-99.67
X178.73Y-100.94
X178.73Y-102.21
X178.73Y-103.48
X178.73Y-104.75
X180.0Y-99.67
X180.0Y-100.94
X180.0Y-102.21
X180.0Y-103.48
X180.0Y-104.75
T5
X164.75Y-75.0
X164.75Y-77.0
X164.75Y-79.0
X164.75Y-81.0
X194.75Y-75.0
X194.75Y-77.0
X194.75Y-79.0
X194.75Y-81.0
X172.25Y-75.0
X172.25Y-77.0
X172.25Y-79.0
X172.25Y-81.0
X187.25Y-75.0
X187.25Y-77.0
X187.25Y-79.0
X187.25Y-81.0
X179.75Y-75.0
X179.75Y-77.0
X179.75Y-79.0
X179.75Y-81.0
T6
X127.0Y-83.67
X127.0Y-86.21
X127.0Y-88.75
X144.0Y-125.5
X144.0Y-128.04
X144.0Y-130.58
X146.54Y-125.5
X146.54Y-128.04
X146.54Y-130.58
X158.05Y-92.27
X158.05Y-112.59
X160.59Y-92.27
X160.59Y-112.59
X163.13Y-92.27
X163.13Y-112.59
X165.67Y-92.27
X165.67Y-112.59
X168.21Y-92.27
X168.21Y-112.59
X170.75Y-92.27
X170.75Y-112.59
X173.29Y-92.27
X173.29Y-112.59
X175.83Y-92.27
X175.83Y-112.59
X178.37Y-92.27
X180.91Y-92.27
X183.45Y-92.27
X185.99Y-92.27
X188.53Y-92.27
X191.07Y-92.27
X193.61Y-92.27
X196.15Y-92.27
T7
X135.75Y-128.75
X139.25Y-128.75
X191.75Y-128.75
X195.25Y-128.75
X152.0Y-128.75
X155.5Y-128.75
X159.25Y-128.75
X162.75Y-128.75
X166.5Y-128.75
X170.0Y-128.75
X173.5Y-128.75
T3
G00X203.15Y-99.2
M15
G01X203.85Y-99.2
M16
G05
G00X203.15Y-105.8
M15
G01X203.85Y-105.8
M16
G05
T6
G00X179.25Y-118.25
M15
G01X181.25Y-118.25
M16
G05
G00X179.25Y-124.25
M15
G01X181.25Y-124.25
M16
G05
G00X184.95Y-122.25
M15
G01X184.95Y-120.25
M16
G05
T0
M30
