G04 #@! TF.GenerationSoftware,KiCad,Pcbnew,5.1.5-1.fc31*
G04 #@! TF.CreationDate,2020-07-10T22:42:19+07:00*
G04 #@! TF.ProjectId,MP_SamBaseBoard_V1,4d505f53-616d-4426-9173-65426f617264,rev?*
G04 #@! TF.SameCoordinates,Original*
G04 #@! TF.FileFunction,Legend,Bot*
G04 #@! TF.FilePolarity,Positive*
%FSLAX45Y45*%
G04 Gerber Fmt 4.5, Leading zero omitted, Abs format (unit mm)*
G04 Created by KiCad (PCBNEW 5.1.5-1.fc31) date 2020-07-10 22:42:19*
%MOMM*%
%LPD*%
G04 APERTURE LIST*
%ADD10C,0.150000*%
%ADD11C,0.250000*%
%ADD12C,0.200000*%
G04 APERTURE END LIST*
D10*
X20420238Y-12769048D02*
X20320238Y-12769048D01*
X20391667Y-12802381D01*
X20320238Y-12835714D01*
X20420238Y-12835714D01*
X20320238Y-12873809D02*
X20320238Y-12935714D01*
X20358333Y-12902381D01*
X20358333Y-12916667D01*
X20363095Y-12926190D01*
X20367857Y-12930952D01*
X20377381Y-12935714D01*
X20401190Y-12935714D01*
X20410714Y-12930952D01*
X20415476Y-12926190D01*
X20420238Y-12916667D01*
X20420238Y-12888095D01*
X20415476Y-12878571D01*
X20410714Y-12873809D01*
X20420238Y-7569048D02*
X20320238Y-7569048D01*
X20391667Y-7602381D01*
X20320238Y-7635714D01*
X20420238Y-7635714D01*
X20320238Y-7673809D02*
X20320238Y-7735714D01*
X20358333Y-7702381D01*
X20358333Y-7716667D01*
X20363095Y-7726190D01*
X20367857Y-7730952D01*
X20377381Y-7735714D01*
X20401190Y-7735714D01*
X20410714Y-7730952D01*
X20415476Y-7726190D01*
X20420238Y-7716667D01*
X20420238Y-7688095D01*
X20415476Y-7678571D01*
X20410714Y-7673809D01*
X13220238Y-7569048D02*
X13120238Y-7569048D01*
X13191667Y-7602381D01*
X13120238Y-7635714D01*
X13220238Y-7635714D01*
X13120238Y-7673809D02*
X13120238Y-7735714D01*
X13158333Y-7702381D01*
X13158333Y-7716667D01*
X13163095Y-7726190D01*
X13167857Y-7730952D01*
X13177381Y-7735714D01*
X13201190Y-7735714D01*
X13210714Y-7730952D01*
X13215476Y-7726190D01*
X13220238Y-7716667D01*
X13220238Y-7688095D01*
X13215476Y-7678571D01*
X13210714Y-7673809D01*
X13220238Y-12769048D02*
X13120238Y-12769048D01*
X13191667Y-12802381D01*
X13120238Y-12835714D01*
X13220238Y-12835714D01*
X13120238Y-12873809D02*
X13120238Y-12935714D01*
X13158333Y-12902381D01*
X13158333Y-12916667D01*
X13163095Y-12926190D01*
X13167857Y-12930952D01*
X13177381Y-12935714D01*
X13201190Y-12935714D01*
X13210714Y-12930952D01*
X13215476Y-12926190D01*
X13220238Y-12916667D01*
X13220238Y-12888095D01*
X13215476Y-12878571D01*
X13210714Y-12873809D01*
D11*
X15857495Y-11525559D02*
X15863448Y-11543417D01*
X15863448Y-11573178D01*
X15857495Y-11585083D01*
X15851543Y-11591036D01*
X15839638Y-11596988D01*
X15827733Y-11596988D01*
X15815828Y-11591036D01*
X15809876Y-11585083D01*
X15803924Y-11573178D01*
X15797971Y-11549369D01*
X15792019Y-11537464D01*
X15786067Y-11531512D01*
X15774162Y-11525559D01*
X15762257Y-11525559D01*
X15750352Y-11531512D01*
X15744400Y-11537464D01*
X15738448Y-11549369D01*
X15738448Y-11579131D01*
X15744400Y-11596988D01*
X15863448Y-11650559D02*
X15738448Y-11650559D01*
X15738448Y-11680321D01*
X15744400Y-11698178D01*
X15756305Y-11710083D01*
X15768209Y-11716036D01*
X15792019Y-11721988D01*
X15809876Y-11721988D01*
X15833686Y-11716036D01*
X15845590Y-11710083D01*
X15857495Y-11698178D01*
X15863448Y-11680321D01*
X15863448Y-11650559D01*
X15827733Y-11769607D02*
X15827733Y-11829131D01*
X15863448Y-11757702D02*
X15738448Y-11799369D01*
X15863448Y-11841036D01*
X16111495Y-11525559D02*
X16117448Y-11543417D01*
X16117448Y-11573178D01*
X16111495Y-11585083D01*
X16105543Y-11591036D01*
X16093638Y-11596988D01*
X16081733Y-11596988D01*
X16069828Y-11591036D01*
X16063876Y-11585083D01*
X16057924Y-11573178D01*
X16051971Y-11549369D01*
X16046019Y-11537464D01*
X16040067Y-11531512D01*
X16028162Y-11525559D01*
X16016257Y-11525559D01*
X16004352Y-11531512D01*
X15998400Y-11537464D01*
X15992448Y-11549369D01*
X15992448Y-11579131D01*
X15998400Y-11596988D01*
X16105543Y-11721988D02*
X16111495Y-11716036D01*
X16117448Y-11698178D01*
X16117448Y-11686274D01*
X16111495Y-11668417D01*
X16099590Y-11656512D01*
X16087686Y-11650559D01*
X16063876Y-11644607D01*
X16046019Y-11644607D01*
X16022209Y-11650559D01*
X16010305Y-11656512D01*
X15998400Y-11668417D01*
X15992448Y-11686274D01*
X15992448Y-11698178D01*
X15998400Y-11716036D01*
X16004352Y-11721988D01*
X16117448Y-11835083D02*
X16117448Y-11775559D01*
X15992448Y-11775559D01*
X16371448Y-11531512D02*
X16246448Y-11531512D01*
X16246448Y-11561274D01*
X16252400Y-11579131D01*
X16264305Y-11591036D01*
X16276209Y-11596988D01*
X16300019Y-11602940D01*
X16317876Y-11602940D01*
X16341686Y-11596988D01*
X16353590Y-11591036D01*
X16365495Y-11579131D01*
X16371448Y-11561274D01*
X16371448Y-11531512D01*
X16246448Y-11716036D02*
X16246448Y-11656512D01*
X16305971Y-11650559D01*
X16300019Y-11656512D01*
X16294067Y-11668417D01*
X16294067Y-11698178D01*
X16300019Y-11710083D01*
X16305971Y-11716036D01*
X16317876Y-11721988D01*
X16347638Y-11721988D01*
X16359543Y-11716036D01*
X16365495Y-11710083D01*
X16371448Y-11698178D01*
X16371448Y-11668417D01*
X16365495Y-11656512D01*
X16359543Y-11650559D01*
X16625448Y-11531512D02*
X16500448Y-11531512D01*
X16500448Y-11561274D01*
X16506400Y-11579131D01*
X16518305Y-11591036D01*
X16530209Y-11596988D01*
X16554019Y-11602940D01*
X16571876Y-11602940D01*
X16595686Y-11596988D01*
X16607590Y-11591036D01*
X16619495Y-11579131D01*
X16625448Y-11561274D01*
X16625448Y-11531512D01*
X16500448Y-11710083D02*
X16500448Y-11686274D01*
X16506400Y-11674369D01*
X16512352Y-11668417D01*
X16530209Y-11656512D01*
X16554019Y-11650559D01*
X16601638Y-11650559D01*
X16613543Y-11656512D01*
X16619495Y-11662464D01*
X16625448Y-11674369D01*
X16625448Y-11698178D01*
X16619495Y-11710083D01*
X16613543Y-11716036D01*
X16601638Y-11721988D01*
X16571876Y-11721988D01*
X16559971Y-11716036D01*
X16554019Y-11710083D01*
X16548067Y-11698178D01*
X16548067Y-11674369D01*
X16554019Y-11662464D01*
X16559971Y-11656512D01*
X16571876Y-11650559D01*
X16879448Y-11531512D02*
X16754448Y-11531512D01*
X16754448Y-11561274D01*
X16760400Y-11579131D01*
X16772305Y-11591036D01*
X16784210Y-11596988D01*
X16808019Y-11602940D01*
X16825876Y-11602940D01*
X16849686Y-11596988D01*
X16861590Y-11591036D01*
X16873495Y-11579131D01*
X16879448Y-11561274D01*
X16879448Y-11531512D01*
X16879448Y-11662464D02*
X16879448Y-11686274D01*
X16873495Y-11698178D01*
X16867543Y-11704131D01*
X16849686Y-11716036D01*
X16825876Y-11721988D01*
X16778257Y-11721988D01*
X16766352Y-11716036D01*
X16760400Y-11710083D01*
X16754448Y-11698178D01*
X16754448Y-11674369D01*
X16760400Y-11662464D01*
X16766352Y-11656512D01*
X16778257Y-11650559D01*
X16808019Y-11650559D01*
X16819924Y-11656512D01*
X16825876Y-11662464D01*
X16831829Y-11674369D01*
X16831829Y-11698178D01*
X16825876Y-11710083D01*
X16819924Y-11716036D01*
X16808019Y-11721988D01*
X17133448Y-11531512D02*
X17008448Y-11531512D01*
X17008448Y-11561274D01*
X17014400Y-11579131D01*
X17026305Y-11591036D01*
X17038210Y-11596988D01*
X17062019Y-11602940D01*
X17079876Y-11602940D01*
X17103686Y-11596988D01*
X17115590Y-11591036D01*
X17127495Y-11579131D01*
X17133448Y-11561274D01*
X17133448Y-11531512D01*
X17133448Y-11721988D02*
X17133448Y-11650559D01*
X17133448Y-11686274D02*
X17008448Y-11686274D01*
X17026305Y-11674369D01*
X17038210Y-11662464D01*
X17044162Y-11650559D01*
X17008448Y-11799369D02*
X17008448Y-11811274D01*
X17014400Y-11823178D01*
X17020352Y-11829131D01*
X17032257Y-11835083D01*
X17056067Y-11841036D01*
X17085829Y-11841036D01*
X17109638Y-11835083D01*
X17121543Y-11829131D01*
X17127495Y-11823178D01*
X17133448Y-11811274D01*
X17133448Y-11799369D01*
X17127495Y-11787464D01*
X17121543Y-11781512D01*
X17109638Y-11775559D01*
X17085829Y-11769607D01*
X17056067Y-11769607D01*
X17032257Y-11775559D01*
X17020352Y-11781512D01*
X17014400Y-11787464D01*
X17008448Y-11799369D01*
X17387448Y-11531512D02*
X17262448Y-11531512D01*
X17262448Y-11561274D01*
X17268400Y-11579131D01*
X17280305Y-11591036D01*
X17292210Y-11596988D01*
X17316019Y-11602940D01*
X17333876Y-11602940D01*
X17357686Y-11596988D01*
X17369590Y-11591036D01*
X17381495Y-11579131D01*
X17387448Y-11561274D01*
X17387448Y-11531512D01*
X17387448Y-11721988D02*
X17387448Y-11650559D01*
X17387448Y-11686274D02*
X17262448Y-11686274D01*
X17280305Y-11674369D01*
X17292210Y-11662464D01*
X17298162Y-11650559D01*
X17387448Y-11841036D02*
X17387448Y-11769607D01*
X17387448Y-11805321D02*
X17262448Y-11805321D01*
X17280305Y-11793417D01*
X17292210Y-11781512D01*
X17298162Y-11769607D01*
X17641448Y-11531512D02*
X17516448Y-11531512D01*
X17516448Y-11561274D01*
X17522400Y-11579131D01*
X17534305Y-11591036D01*
X17546210Y-11596988D01*
X17570019Y-11602940D01*
X17587876Y-11602940D01*
X17611686Y-11596988D01*
X17623590Y-11591036D01*
X17635495Y-11579131D01*
X17641448Y-11561274D01*
X17641448Y-11531512D01*
X17641448Y-11721988D02*
X17641448Y-11650559D01*
X17641448Y-11686274D02*
X17516448Y-11686274D01*
X17534305Y-11674369D01*
X17546210Y-11662464D01*
X17552162Y-11650559D01*
X17528352Y-11769607D02*
X17522400Y-11775559D01*
X17516448Y-11787464D01*
X17516448Y-11817226D01*
X17522400Y-11829131D01*
X17528352Y-11835083D01*
X17540257Y-11841036D01*
X17552162Y-11841036D01*
X17570019Y-11835083D01*
X17641448Y-11763655D01*
X17641448Y-11841036D01*
X19494400Y-8427274D02*
X19494400Y-8552274D01*
X19673448Y-8528464D02*
X19613924Y-8486798D01*
X19673448Y-8457036D02*
X19548448Y-8457036D01*
X19548448Y-8504655D01*
X19554400Y-8516560D01*
X19560352Y-8522512D01*
X19572257Y-8528464D01*
X19590114Y-8528464D01*
X19602019Y-8522512D01*
X19607971Y-8516560D01*
X19613924Y-8504655D01*
X19613924Y-8457036D01*
X19494400Y-8552274D02*
X19494400Y-8665369D01*
X19607971Y-8582036D02*
X19607971Y-8623702D01*
X19673448Y-8641560D02*
X19673448Y-8582036D01*
X19548448Y-8582036D01*
X19548448Y-8641560D01*
X19494400Y-8665369D02*
X19494400Y-8784417D01*
X19667495Y-8689179D02*
X19673448Y-8707036D01*
X19673448Y-8736798D01*
X19667495Y-8748702D01*
X19661543Y-8754655D01*
X19649638Y-8760607D01*
X19637733Y-8760607D01*
X19625829Y-8754655D01*
X19619876Y-8748702D01*
X19613924Y-8736798D01*
X19607971Y-8712988D01*
X19602019Y-8701083D01*
X19596067Y-8695131D01*
X19584162Y-8689179D01*
X19572257Y-8689179D01*
X19560352Y-8695131D01*
X19554400Y-8701083D01*
X19548448Y-8712988D01*
X19548448Y-8742750D01*
X19554400Y-8760607D01*
X19494400Y-8784417D02*
X19494400Y-8897512D01*
X19607971Y-8814179D02*
X19607971Y-8855845D01*
X19673448Y-8873702D02*
X19673448Y-8814179D01*
X19548448Y-8814179D01*
X19548448Y-8873702D01*
X19494400Y-8897512D02*
X19494400Y-8992750D01*
X19548448Y-8909417D02*
X19548448Y-8980845D01*
X19673448Y-8945131D02*
X19548448Y-8945131D01*
X19294448Y-8678069D02*
X19294448Y-8755450D01*
X19342067Y-8713783D01*
X19342067Y-8731640D01*
X19348019Y-8743545D01*
X19353971Y-8749498D01*
X19365876Y-8755450D01*
X19395638Y-8755450D01*
X19407543Y-8749498D01*
X19413495Y-8743545D01*
X19419448Y-8731640D01*
X19419448Y-8695926D01*
X19413495Y-8684021D01*
X19407543Y-8678069D01*
X19294448Y-8791164D02*
X19419448Y-8832831D01*
X19294448Y-8874498D01*
X19294448Y-8904260D02*
X19294448Y-8981640D01*
X19342067Y-8939974D01*
X19342067Y-8957831D01*
X19348019Y-8969736D01*
X19353971Y-8975688D01*
X19365876Y-8981640D01*
X19395638Y-8981640D01*
X19407543Y-8975688D01*
X19413495Y-8969736D01*
X19419448Y-8957831D01*
X19419448Y-8922117D01*
X19413495Y-8910212D01*
X19407543Y-8904260D01*
X19129733Y-8576879D02*
X19129733Y-8636402D01*
X19165448Y-8564974D02*
X19040448Y-8606640D01*
X19165448Y-8648307D01*
X19165448Y-8761402D02*
X19105924Y-8719736D01*
X19165448Y-8689974D02*
X19040448Y-8689974D01*
X19040448Y-8737593D01*
X19046400Y-8749498D01*
X19052352Y-8755450D01*
X19064257Y-8761402D01*
X19082114Y-8761402D01*
X19094019Y-8755450D01*
X19099971Y-8749498D01*
X19105924Y-8737593D01*
X19105924Y-8689974D01*
X19099971Y-8814974D02*
X19099971Y-8856640D01*
X19165448Y-8874498D02*
X19165448Y-8814974D01*
X19040448Y-8814974D01*
X19040448Y-8874498D01*
X19099971Y-8969736D02*
X19099971Y-8928069D01*
X19165448Y-8928069D02*
X19040448Y-8928069D01*
X19040448Y-8987593D01*
X18792400Y-8719736D02*
X18786448Y-8707831D01*
X18786448Y-8689974D01*
X18792400Y-8672117D01*
X18804305Y-8660212D01*
X18816210Y-8654260D01*
X18840019Y-8648307D01*
X18857876Y-8648307D01*
X18881686Y-8654260D01*
X18893590Y-8660212D01*
X18905495Y-8672117D01*
X18911448Y-8689974D01*
X18911448Y-8701879D01*
X18905495Y-8719736D01*
X18899543Y-8725688D01*
X18857876Y-8725688D01*
X18857876Y-8701879D01*
X18911448Y-8779260D02*
X18786448Y-8779260D01*
X18911448Y-8850688D01*
X18786448Y-8850688D01*
X18911448Y-8910212D02*
X18786448Y-8910212D01*
X18786448Y-8939974D01*
X18792400Y-8957831D01*
X18804305Y-8969736D01*
X18816210Y-8975688D01*
X18840019Y-8981640D01*
X18857876Y-8981640D01*
X18881686Y-8975688D01*
X18893590Y-8969736D01*
X18905495Y-8957831D01*
X18911448Y-8939974D01*
X18911448Y-8910212D01*
X18621733Y-8803069D02*
X18621733Y-8862593D01*
X18657448Y-8791164D02*
X18532448Y-8832831D01*
X18657448Y-8874498D01*
X18532448Y-8939974D02*
X18532448Y-8951879D01*
X18538400Y-8963783D01*
X18544352Y-8969736D01*
X18556257Y-8975688D01*
X18580067Y-8981640D01*
X18609829Y-8981640D01*
X18633638Y-8975688D01*
X18645543Y-8969736D01*
X18651495Y-8963783D01*
X18657448Y-8951879D01*
X18657448Y-8939974D01*
X18651495Y-8928069D01*
X18645543Y-8922117D01*
X18633638Y-8916164D01*
X18609829Y-8910212D01*
X18580067Y-8910212D01*
X18556257Y-8916164D01*
X18544352Y-8922117D01*
X18538400Y-8928069D01*
X18532448Y-8939974D01*
X18367733Y-8803069D02*
X18367733Y-8862593D01*
X18403448Y-8791164D02*
X18278448Y-8832831D01*
X18403448Y-8874498D01*
X18403448Y-8981640D02*
X18403448Y-8910212D01*
X18403448Y-8945926D02*
X18278448Y-8945926D01*
X18296305Y-8934021D01*
X18308210Y-8922117D01*
X18314162Y-8910212D01*
X18113733Y-8803069D02*
X18113733Y-8862593D01*
X18149448Y-8791164D02*
X18024448Y-8832831D01*
X18149448Y-8874498D01*
X18036352Y-8910212D02*
X18030400Y-8916164D01*
X18024448Y-8928069D01*
X18024448Y-8957831D01*
X18030400Y-8969736D01*
X18036352Y-8975688D01*
X18048257Y-8981640D01*
X18060162Y-8981640D01*
X18078019Y-8975688D01*
X18149448Y-8904260D01*
X18149448Y-8981640D01*
X17859733Y-8803069D02*
X17859733Y-8862593D01*
X17895448Y-8791164D02*
X17770448Y-8832831D01*
X17895448Y-8874498D01*
X17770448Y-8904260D02*
X17770448Y-8981640D01*
X17818067Y-8939974D01*
X17818067Y-8957831D01*
X17824019Y-8969736D01*
X17829971Y-8975688D01*
X17841876Y-8981640D01*
X17871638Y-8981640D01*
X17883543Y-8975688D01*
X17889495Y-8969736D01*
X17895448Y-8957831D01*
X17895448Y-8922117D01*
X17889495Y-8910212D01*
X17883543Y-8904260D01*
X17605733Y-8803069D02*
X17605733Y-8862593D01*
X17641448Y-8791164D02*
X17516448Y-8832831D01*
X17641448Y-8874498D01*
X17558114Y-8969736D02*
X17641448Y-8969736D01*
X17510495Y-8939974D02*
X17599781Y-8910212D01*
X17599781Y-8987593D01*
X17351733Y-8803069D02*
X17351733Y-8862593D01*
X17387448Y-8791164D02*
X17262448Y-8832831D01*
X17387448Y-8874498D01*
X17262448Y-8975688D02*
X17262448Y-8916164D01*
X17321971Y-8910212D01*
X17316019Y-8916164D01*
X17310067Y-8928069D01*
X17310067Y-8957831D01*
X17316019Y-8969736D01*
X17321971Y-8975688D01*
X17333876Y-8981640D01*
X17363638Y-8981640D01*
X17375543Y-8975688D01*
X17381495Y-8969736D01*
X17387448Y-8957831D01*
X17387448Y-8928069D01*
X17381495Y-8916164D01*
X17375543Y-8910212D01*
X17127495Y-8660212D02*
X17133448Y-8678069D01*
X17133448Y-8707831D01*
X17127495Y-8719736D01*
X17121543Y-8725688D01*
X17109638Y-8731640D01*
X17097733Y-8731640D01*
X17085829Y-8725688D01*
X17079876Y-8719736D01*
X17073924Y-8707831D01*
X17067971Y-8684021D01*
X17062019Y-8672117D01*
X17056067Y-8666164D01*
X17044162Y-8660212D01*
X17032257Y-8660212D01*
X17020352Y-8666164D01*
X17014400Y-8672117D01*
X17008448Y-8684021D01*
X17008448Y-8713783D01*
X17014400Y-8731640D01*
X17121543Y-8856640D02*
X17127495Y-8850688D01*
X17133448Y-8832831D01*
X17133448Y-8820926D01*
X17127495Y-8803069D01*
X17115590Y-8791164D01*
X17103686Y-8785212D01*
X17079876Y-8779260D01*
X17062019Y-8779260D01*
X17038210Y-8785212D01*
X17026305Y-8791164D01*
X17014400Y-8803069D01*
X17008448Y-8820926D01*
X17008448Y-8832831D01*
X17014400Y-8850688D01*
X17020352Y-8856640D01*
X17133448Y-8910212D02*
X17008448Y-8910212D01*
X17133448Y-8981640D02*
X17062019Y-8928069D01*
X17008448Y-8981640D02*
X17079876Y-8910212D01*
X16879448Y-8582831D02*
X16754448Y-8582831D01*
X16843733Y-8624498D01*
X16754448Y-8666164D01*
X16879448Y-8666164D01*
X16754448Y-8749498D02*
X16754448Y-8773307D01*
X16760400Y-8785212D01*
X16772305Y-8797117D01*
X16796114Y-8803069D01*
X16837781Y-8803069D01*
X16861590Y-8797117D01*
X16873495Y-8785212D01*
X16879448Y-8773307D01*
X16879448Y-8749498D01*
X16873495Y-8737593D01*
X16861590Y-8725688D01*
X16837781Y-8719736D01*
X16796114Y-8719736D01*
X16772305Y-8725688D01*
X16760400Y-8737593D01*
X16754448Y-8749498D01*
X16873495Y-8850688D02*
X16879448Y-8868545D01*
X16879448Y-8898307D01*
X16873495Y-8910212D01*
X16867543Y-8916164D01*
X16855638Y-8922117D01*
X16843733Y-8922117D01*
X16831829Y-8916164D01*
X16825876Y-8910212D01*
X16819924Y-8898307D01*
X16813971Y-8874498D01*
X16808019Y-8862593D01*
X16802067Y-8856640D01*
X16790162Y-8850688D01*
X16778257Y-8850688D01*
X16766352Y-8856640D01*
X16760400Y-8862593D01*
X16754448Y-8874498D01*
X16754448Y-8904260D01*
X16760400Y-8922117D01*
X16879448Y-8975688D02*
X16754448Y-8975688D01*
X16625448Y-8582831D02*
X16500448Y-8582831D01*
X16589733Y-8624498D01*
X16500448Y-8666164D01*
X16625448Y-8666164D01*
X16625448Y-8725688D02*
X16500448Y-8725688D01*
X16619495Y-8779260D02*
X16625448Y-8797117D01*
X16625448Y-8826879D01*
X16619495Y-8838783D01*
X16613543Y-8844736D01*
X16601638Y-8850688D01*
X16589733Y-8850688D01*
X16577828Y-8844736D01*
X16571876Y-8838783D01*
X16565924Y-8826879D01*
X16559971Y-8803069D01*
X16554019Y-8791164D01*
X16548067Y-8785212D01*
X16536162Y-8779260D01*
X16524257Y-8779260D01*
X16512352Y-8785212D01*
X16506400Y-8791164D01*
X16500448Y-8803069D01*
X16500448Y-8832831D01*
X16506400Y-8850688D01*
X16500448Y-8928069D02*
X16500448Y-8951879D01*
X16506400Y-8963783D01*
X16518305Y-8975688D01*
X16542114Y-8981640D01*
X16583781Y-8981640D01*
X16607590Y-8975688D01*
X16619495Y-8963783D01*
X16625448Y-8951879D01*
X16625448Y-8928069D01*
X16619495Y-8916164D01*
X16607590Y-8904260D01*
X16583781Y-8898307D01*
X16542114Y-8898307D01*
X16518305Y-8904260D01*
X16506400Y-8916164D01*
X16500448Y-8928069D01*
X16371448Y-8434021D02*
X16246448Y-8434021D01*
X16246448Y-8463783D01*
X16252400Y-8481640D01*
X16264305Y-8493545D01*
X16276209Y-8499498D01*
X16300019Y-8505450D01*
X16317876Y-8505450D01*
X16341686Y-8499498D01*
X16353590Y-8493545D01*
X16365495Y-8481640D01*
X16371448Y-8463783D01*
X16371448Y-8434021D01*
X16246448Y-8582831D02*
X16246448Y-8594736D01*
X16252400Y-8606640D01*
X16258352Y-8612593D01*
X16270257Y-8618545D01*
X16294067Y-8624498D01*
X16323828Y-8624498D01*
X16347638Y-8618545D01*
X16359543Y-8612593D01*
X16365495Y-8606640D01*
X16371448Y-8594736D01*
X16371448Y-8582831D01*
X16365495Y-8570926D01*
X16359543Y-8564974D01*
X16347638Y-8559021D01*
X16323828Y-8553069D01*
X16294067Y-8553069D01*
X16270257Y-8559021D01*
X16258352Y-8564974D01*
X16252400Y-8570926D01*
X16246448Y-8582831D01*
X16240495Y-8767355D02*
X16401209Y-8660212D01*
X16371448Y-8880450D02*
X16311924Y-8838783D01*
X16371448Y-8809021D02*
X16246448Y-8809021D01*
X16246448Y-8856640D01*
X16252400Y-8868545D01*
X16258352Y-8874498D01*
X16270257Y-8880450D01*
X16288114Y-8880450D01*
X16300019Y-8874498D01*
X16305971Y-8868545D01*
X16311924Y-8856640D01*
X16311924Y-8809021D01*
X16371448Y-8922117D02*
X16288114Y-8987593D01*
X16288114Y-8922117D02*
X16371448Y-8987593D01*
X16117448Y-8463783D02*
X15992448Y-8463783D01*
X15992448Y-8493545D01*
X15998400Y-8511402D01*
X16010305Y-8523307D01*
X16022209Y-8529260D01*
X16046019Y-8535212D01*
X16063876Y-8535212D01*
X16087686Y-8529260D01*
X16099590Y-8523307D01*
X16111495Y-8511402D01*
X16117448Y-8493545D01*
X16117448Y-8463783D01*
X16117448Y-8654260D02*
X16117448Y-8582831D01*
X16117448Y-8618545D02*
X15992448Y-8618545D01*
X16010305Y-8606640D01*
X16022209Y-8594736D01*
X16028162Y-8582831D01*
X15986495Y-8797117D02*
X16147209Y-8689974D01*
X15992448Y-8820926D02*
X15992448Y-8892355D01*
X16117448Y-8856640D02*
X15992448Y-8856640D01*
X16117448Y-8922117D02*
X16034114Y-8987593D01*
X16034114Y-8922117D02*
X16117448Y-8987593D01*
X15863448Y-8791164D02*
X15738448Y-8791164D01*
X15738448Y-8820926D01*
X15744400Y-8838783D01*
X15756305Y-8850688D01*
X15768209Y-8856640D01*
X15792019Y-8862593D01*
X15809876Y-8862593D01*
X15833686Y-8856640D01*
X15845590Y-8850688D01*
X15857495Y-8838783D01*
X15863448Y-8820926D01*
X15863448Y-8791164D01*
X15780114Y-8969736D02*
X15863448Y-8969736D01*
X15732495Y-8939974D02*
X15821781Y-8910212D01*
X15821781Y-8987593D01*
D12*
X13145238Y-10497619D02*
X13245238Y-10530952D01*
X13145238Y-10564286D01*
X13245238Y-10650000D02*
X13245238Y-10592857D01*
X13245238Y-10621429D02*
X13145238Y-10621429D01*
X13159524Y-10611905D01*
X13169048Y-10602381D01*
X13173809Y-10592857D01*
X13235714Y-10692857D02*
X13240476Y-10697619D01*
X13245238Y-10692857D01*
X13240476Y-10688095D01*
X13235714Y-10692857D01*
X13245238Y-10692857D01*
X13145238Y-10759524D02*
X13145238Y-10769048D01*
X13150000Y-10778571D01*
X13154762Y-10783333D01*
X13164286Y-10788095D01*
X13183333Y-10792857D01*
X13207143Y-10792857D01*
X13226190Y-10788095D01*
X13235714Y-10783333D01*
X13240476Y-10778571D01*
X13245238Y-10769048D01*
X13245238Y-10759524D01*
X13240476Y-10750000D01*
X13235714Y-10745238D01*
X13226190Y-10740476D01*
X13207143Y-10735714D01*
X13183333Y-10735714D01*
X13164286Y-10740476D01*
X13154762Y-10745238D01*
X13150000Y-10750000D01*
X13145238Y-10759524D01*
D10*
X20455317Y-7655317D02*
G75*
G03X20455317Y-7655317I-355317J0D01*
G01*
X13260555Y-7650000D02*
G75*
G03X13260555Y-7650000I-360555J0D01*
G01*
X13257107Y-12850000D02*
G75*
G03X13257107Y-12850000I-353553J0D01*
G01*
X20455317Y-12850000D02*
G75*
G03X20455317Y-12850000I-355317J0D01*
G01*
M02*
