M48
;DRILL file {KiCad 5.0.2-5.fc29} date Sat 27 Jun 2020 08:24:25 PM +07
;FORMAT={-:-/ absolute / metric / decimal}
FMAT,2
METRIC,TZ
T1C0.200
T2C0.300
T3C0.500
T4C0.650
T5C0.750
T6C1.000
T7C1.200
%
G90
G05
T1
X197.7Y-120.7
X197.7Y-121.8
X198.8Y-120.7
X198.8Y-121.8
X157.194Y-117.694
X157.194Y-118.494
X157.194Y-119.294
X157.994Y-117.694
X157.994Y-118.494
X157.994Y-119.294
X158.794Y-117.694
X158.794Y-118.494
X158.794Y-119.294
T2
X127.75Y-114.5
X127.75Y-115.5
X127.75Y-116.5
X132.75Y-92.75
X132.75Y-95.25
X132.75Y-109.75
X132.75Y-112.25
X133.5Y-87.
X133.5Y-88.5
X133.5Y-90.
X134.Y-92.75
X135.25Y-112.25
X135.75Y-76.25
X135.75Y-82.5
X136.Y-119.5
X136.Y-123.
X136.75Y-92.75
X137.5Y-75.25
X137.5Y-77.25
X137.5Y-81.5
X137.5Y-83.5
X137.75Y-92.75
X138.25Y-101.5
X138.25Y-105.5
X139.Y-73.75
X139.Y-78.75
X139.Y-85.
X139.25Y-121.75
X140.Y-116.75
X140.25Y-103.5
X141.Y-121.75
X141.75Y-83.
X142.25Y-101.5
X142.25Y-105.5
X142.75Y-112.25
X143.Y-95.25
X143.5Y-77.75
X143.5Y-84.
X144.25Y-95.5
X148.Y-112.25
X148.75Y-90.25
X149.25Y-95.5
X149.75Y-88.25
X149.75Y-89.
X149.75Y-112.25
X149.75Y-113.5
X151.Y-112.25
X151.Y-113.5
X151.25Y-88.25
X151.25Y-89.
X152.05Y-80.5
X152.05Y-81.25
X152.05Y-84.25
X152.05Y-85.
X152.25Y-112.25
X152.25Y-113.5
X152.25Y-117.25
X152.5Y-107.
X152.75Y-88.25
X152.75Y-90.
X152.75Y-100.5
X152.75Y-101.5
X152.75Y-102.5
X153.Y-131.75
X153.5Y-96.75
X153.5Y-112.25
X153.5Y-113.5
X153.75Y-101.5
X153.75Y-102.5
X153.75Y-107.
X153.75Y-117.25
X153.75Y-131.75
X154.25Y-88.25
X154.25Y-90.
X154.5Y-80.5
X154.5Y-81.25
X154.5Y-131.75
X154.75Y-107.5
X154.75Y-112.25
X154.75Y-113.5
X154.75Y-118.
X155.25Y-117.25
X155.75Y-95.
X155.75Y-120.5
X155.75Y-121.25
X156.Y-102.
X156.Y-112.25
X156.Y-113.5
X156.25Y-104.5
X156.5Y-121.25
X156.655Y-97.645
X156.75Y-95.
X156.75Y-102.5
X157.25Y-104.5
X157.75Y-88.25
X157.75Y-95.
X158.Y-98.5
X158.55Y-101.1
X158.75Y-95.
X159.2Y-107.25
X159.25Y-88.25
X159.5Y-121.25
X159.85Y-107.25
X160.25Y-120.5
X160.25Y-121.25
X160.75Y-117.25
X161.25Y-101.75
X161.25Y-103.25
X161.25Y-118.
X161.5Y-95.
X161.5Y-98.25
X161.5Y-106.75
X162.5Y-102.5
X162.5Y-105.25
X162.5Y-106.25
X162.75Y-95.
X163.5Y-100.
X163.75Y-82.75
X163.75Y-95.
X164.Y-98.25
X164.Y-99.25
X164.Y-104.
X164.Y-105.
X164.25Y-100.75
X164.4Y-93.3
X164.5Y-116.75
X164.75Y-82.75
X164.75Y-95.
X164.75Y-105.75
X165.Y-99.75
X165.25Y-109.5
X165.5Y-106.5
X165.5Y-116.75
X165.75Y-99.
X166.25Y-95.5
X166.5Y-98.25
X166.75Y-109.5
X167.Y-95.5
X167.25Y-73.
X167.25Y-74.
X167.5Y-78.75
X167.5Y-98.25
X167.5Y-106.
X168.25Y-106.5
X168.5Y-78.75
X168.75Y-73.
X168.75Y-74.
X168.75Y-100.5
X168.75Y-102.
X169.25Y-101.25
X169.25Y-102.75
X169.25Y-117.25
X169.5Y-99.75
X169.75Y-105.5
X170.Y-103.75
X170.Y-108.5
X170.Y-117.25
X170.75Y-117.25
X171.Y-107.5
X171.Y-108.5
X171.Y-109.5
X171.25Y-82.75
X171.5Y-97.75
X172.Y-107.5
X172.25Y-82.75
X172.5Y-99.25
X173.Y-106.5
X173.25Y-98.5
X173.5Y-109.
X174.75Y-73.
X174.75Y-74.
X175.Y-78.75
X175.5Y-105.25
X175.75Y-108.5
X176.Y-78.75
X176.25Y-73.
X176.25Y-74.
X176.75Y-106.
X177.Y-100.
X177.Y-101.
X177.Y-109.5
X178.75Y-82.75
X178.75Y-108.75
X179.75Y-82.75
X179.75Y-108.75
X180.25Y-112.
X180.75Y-108.75
X181.Y-112.
X181.Y-112.75
X181.75Y-108.75
X181.75Y-112.
X182.25Y-73.
X182.25Y-74.
X182.5Y-78.75
X182.75Y-108.75
X183.5Y-78.75
X183.75Y-73.
X183.75Y-74.
X184.1Y-105.6
X185.Y-105.6
X185.5Y-108.
X185.5Y-108.5
X185.5Y-110.
X185.5Y-111.
X185.5Y-112.
X185.5Y-113.
X185.5Y-114.
X185.5Y-115.
X185.5Y-117.75
X185.5Y-118.75
X185.9Y-105.6
X186.25Y-82.75
X186.5Y-112.
X186.5Y-117.75
X186.5Y-118.75
X186.8Y-105.6
X187.25Y-82.75
X187.5Y-112.
X187.7Y-105.6
X188.25Y-114.75
X188.5Y-112.
X188.6Y-105.6
X188.75Y-97.75
X189.Y-94.75
X189.Y-114.75
X189.25Y-102.5
X189.5Y-122.
X189.75Y-73.
X189.75Y-74.
X189.75Y-102.5
X189.75Y-114.75
X190.25Y-95.5
X190.25Y-107.5
X190.75Y-122.
X191.25Y-73.
X191.25Y-74.
X191.75Y-125.75
X192.Y-102.5
X192.25Y-104.5
X192.25Y-114.
X192.25Y-115.5
X192.25Y-119.
X192.25Y-120.5
X192.5Y-98.25
X192.5Y-100.
X192.5Y-106.75
X192.75Y-102.5
X193.5Y-102.5
X193.5Y-125.75
X193.75Y-107.5
X194.Y-109.75
X194.75Y-109.
X195.25Y-85.25
X195.25Y-125.75
X195.5Y-114.25
X195.5Y-115.25
X195.5Y-121.5
X196.5Y-107.5
X196.5Y-114.25
X196.5Y-115.25
X196.5Y-116.75
X196.75Y-102.75
X196.75Y-111.25
X196.75Y-111.75
X196.75Y-112.25
X197.25Y-119.
X197.5Y-103.5
X197.5Y-114.25
X197.5Y-115.25
X198.Y-107.5
X198.25Y-119.
X198.5Y-102.5
X198.75Y-95.25
X198.75Y-96.75
X199.25Y-80.75
X199.25Y-119.
X199.5Y-92.
X199.5Y-93.5
X199.5Y-95.25
X199.5Y-96.75
X199.5Y-98.75
X199.5Y-99.5
X199.5Y-100.25
X199.5Y-101.5
X199.5Y-102.5
X199.5Y-104.75
X199.5Y-105.5
X199.5Y-106.25
X199.75Y-110.75
X199.75Y-111.75
X199.75Y-112.75
X200.25Y-80.75
X200.5Y-115.5
X200.5Y-123.
X200.75Y-86.25
X201.25Y-118.75
X201.25Y-119.75
X201.25Y-120.75
X201.25Y-123.
X201.75Y-86.25
X202.Y-119.25
X202.25Y-80.25
X202.5Y-84.25
X202.5Y-115.75
X202.75Y-86.25
X203.Y-84.25
X204.Y-89.75
X204.Y-97.75
X204.Y-115.75
X204.5Y-100.75
X204.5Y-101.75
X204.5Y-103.25
X204.5Y-104.25
X204.5Y-116.75
X204.5Y-117.75
X204.5Y-119.25
X204.5Y-120.75
X204.5Y-122.25
X204.5Y-123.75
T4
X178.73Y-99.67
X178.73Y-100.94
X178.73Y-102.21
X178.73Y-103.48
X178.73Y-104.75
X180.Y-99.67
X180.Y-100.94
X180.Y-102.21
X180.Y-103.48
X180.Y-104.75
T5
X187.25Y-75.
X187.25Y-77.
X187.25Y-79.
X187.25Y-81.
X179.75Y-75.
X179.75Y-77.
X179.75Y-79.
X179.75Y-81.
X172.25Y-75.
X172.25Y-77.
X172.25Y-79.
X172.25Y-81.
X194.75Y-75.
X194.75Y-77.
X194.75Y-79.
X194.75Y-81.
X164.75Y-75.
X164.75Y-77.
X164.75Y-79.
X164.75Y-81.
T6
X158.05Y-92.27
X158.05Y-112.59
X160.59Y-92.27
X160.59Y-112.59
X163.13Y-92.27
X163.13Y-112.59
X165.67Y-92.27
X165.67Y-112.59
X168.21Y-92.27
X168.21Y-112.59
X170.75Y-92.27
X170.75Y-112.59
X173.29Y-92.27
X173.29Y-112.59
X175.83Y-92.27
X175.83Y-112.59
X178.37Y-92.27
X180.91Y-92.27
X183.45Y-92.27
X185.99Y-92.27
X188.53Y-92.27
X191.07Y-92.27
X193.61Y-92.27
X196.15Y-92.27
X144.Y-125.5
X144.Y-128.04
X144.Y-130.58
X146.54Y-125.5
X146.54Y-128.04
X146.54Y-130.58
X127.Y-83.67
X127.Y-86.21
X127.Y-88.75
T7
X135.75Y-128.75
X139.25Y-128.75
X191.75Y-128.75
X195.25Y-128.75
X159.25Y-128.75
X162.75Y-128.75
X152.Y-128.75
X155.5Y-128.75
X166.5Y-128.75
X170.Y-128.75
X173.5Y-128.75
T3
X203.15Y-99.2G85X203.85Y-99.2
G05
X203.15Y-105.8G85X203.85Y-105.8
G05
T6
X179.25Y-118.25G85X181.25Y-118.25
G05
X179.25Y-124.25G85X181.25Y-124.25
G05
X184.95Y-122.25G85X184.95Y-120.25
G05
T0
M30
