G04 #@! TF.GenerationSoftware,KiCad,Pcbnew,5.1.5-1.fc31*
G04 #@! TF.CreationDate,2020-06-03T18:37:50+07:00*
G04 #@! TF.ProjectId,MP_SamBaseBoard_V1,4d505f53-616d-4426-9173-65426f617264,rev?*
G04 #@! TF.SameCoordinates,Original*
G04 #@! TF.FileFunction,Legend,Top*
G04 #@! TF.FilePolarity,Positive*
%FSLAX45Y45*%
G04 Gerber Fmt 4.5, Leading zero omitted, Abs format (unit mm)*
G04 Created by KiCad (PCBNEW 5.1.5-1.fc31) date 2020-06-03 18:37:50*
%MOMM*%
%LPD*%
G04 APERTURE LIST*
%ADD10C,0.250000*%
%ADD11C,0.150000*%
%ADD12C,0.175000*%
%ADD13C,0.200000*%
%ADD14C,0.125000*%
%ADD15C,0.160000*%
%ADD16C,0.162500*%
%ADD17C,0.185000*%
%ADD18C,0.120000*%
%ADD19C,0.100000*%
%ADD20C,0.010000*%
G04 APERTURE END LIST*
D10*
X20575595Y-17311905D02*
X20581548Y-17294048D01*
X20581548Y-17264286D01*
X20575595Y-17252381D01*
X20569643Y-17246429D01*
X20557738Y-17240476D01*
X20545833Y-17240476D01*
X20533929Y-17246429D01*
X20527976Y-17252381D01*
X20522024Y-17264286D01*
X20516071Y-17288095D01*
X20510119Y-17300000D01*
X20504167Y-17305952D01*
X20492262Y-17311905D01*
X20480357Y-17311905D01*
X20468452Y-17305952D01*
X20462500Y-17300000D01*
X20456548Y-17288095D01*
X20456548Y-17258333D01*
X20462500Y-17240476D01*
X20581548Y-17186905D02*
X20456548Y-17186905D01*
X20456548Y-17157143D01*
X20462500Y-17139286D01*
X20474405Y-17127381D01*
X20486310Y-17121429D01*
X20510119Y-17115476D01*
X20527976Y-17115476D01*
X20551786Y-17121429D01*
X20563690Y-17127381D01*
X20575595Y-17139286D01*
X20581548Y-17157143D01*
X20581548Y-17186905D01*
X20569643Y-16895238D02*
X20575595Y-16901190D01*
X20581548Y-16919048D01*
X20581548Y-16930952D01*
X20575595Y-16948810D01*
X20563690Y-16960714D01*
X20551786Y-16966667D01*
X20527976Y-16972619D01*
X20510119Y-16972619D01*
X20486310Y-16966667D01*
X20474405Y-16960714D01*
X20462500Y-16948810D01*
X20456548Y-16930952D01*
X20456548Y-16919048D01*
X20462500Y-16901190D01*
X20468452Y-16895238D01*
X20545833Y-16847619D02*
X20545833Y-16788095D01*
X20581548Y-16859524D02*
X20456548Y-16817857D01*
X20581548Y-16776190D01*
X20581548Y-16663095D02*
X20522024Y-16704762D01*
X20581548Y-16734524D02*
X20456548Y-16734524D01*
X20456548Y-16686905D01*
X20462500Y-16675000D01*
X20468452Y-16669048D01*
X20480357Y-16663095D01*
X20498214Y-16663095D01*
X20510119Y-16669048D01*
X20516071Y-16675000D01*
X20522024Y-16686905D01*
X20522024Y-16734524D01*
X20581548Y-16609524D02*
X20456548Y-16609524D01*
X20456548Y-16579762D01*
X20462500Y-16561905D01*
X20474405Y-16550000D01*
X20486310Y-16544048D01*
X20510119Y-16538095D01*
X20527976Y-16538095D01*
X20551786Y-16544048D01*
X20563690Y-16550000D01*
X20575595Y-16561905D01*
X20581548Y-16579762D01*
X20581548Y-16609524D01*
D11*
X17307537Y-20354239D02*
G75*
G02X17610000Y-20350000I152463J-85761D01*
G01*
X17346024Y-20376680D02*
G75*
G02X17570000Y-20370000I113976J-63320D01*
G01*
X17378090Y-20393194D02*
G75*
G02X17540000Y-20390000I81910J-46806D01*
G01*
X17410000Y-20410000D02*
G75*
G02X17510000Y-20410000I50000J-30000D01*
G01*
X17482361Y-20440000D02*
G75*
G03X17482361Y-20440000I-22361J0D01*
G01*
D12*
X17893333Y-18270000D02*
X17890000Y-18266667D01*
X17886667Y-18260000D01*
X17886667Y-18243333D01*
X17890000Y-18236667D01*
X17893333Y-18233333D01*
X17900000Y-18230000D01*
X17906667Y-18230000D01*
X17916667Y-18233333D01*
X17956667Y-18273333D01*
X17956667Y-18230000D01*
X18556667Y-18230000D02*
X18556667Y-18270000D01*
X18556667Y-18250000D02*
X18486667Y-18250000D01*
X18496667Y-18256667D01*
X18503333Y-18263333D01*
X18506667Y-18270000D01*
D13*
X19089702Y-18108690D02*
X19049226Y-18137024D01*
X19089702Y-18157262D02*
X19004702Y-18157262D01*
X19004702Y-18124881D01*
X19008750Y-18116786D01*
X19012798Y-18112738D01*
X19020893Y-18108690D01*
X19033036Y-18108690D01*
X19041131Y-18112738D01*
X19045179Y-18116786D01*
X19049226Y-18124881D01*
X19049226Y-18157262D01*
X19008750Y-18027738D02*
X19004702Y-18035833D01*
X19004702Y-18047976D01*
X19008750Y-18060119D01*
X19016845Y-18068214D01*
X19024940Y-18072262D01*
X19041131Y-18076310D01*
X19053274Y-18076310D01*
X19069464Y-18072262D01*
X19077560Y-18068214D01*
X19085655Y-18060119D01*
X19089702Y-18047976D01*
X19089702Y-18039881D01*
X19085655Y-18027738D01*
X19081607Y-18023690D01*
X19053274Y-18023690D01*
X19053274Y-18039881D01*
X19045179Y-17958929D02*
X19049226Y-17946786D01*
X19053274Y-17942738D01*
X19061369Y-17938690D01*
X19073512Y-17938690D01*
X19081607Y-17942738D01*
X19085655Y-17946786D01*
X19089702Y-17954881D01*
X19089702Y-17987262D01*
X19004702Y-17987262D01*
X19004702Y-17958929D01*
X19008750Y-17950833D01*
X19012798Y-17946786D01*
X19020893Y-17942738D01*
X19028988Y-17942738D01*
X19037083Y-17946786D01*
X19041131Y-17950833D01*
X19045179Y-17958929D01*
X19045179Y-17987262D01*
X19237202Y-18104643D02*
X19237202Y-18145119D01*
X19152202Y-18145119D01*
X19192679Y-18076310D02*
X19192679Y-18047976D01*
X19237202Y-18035833D02*
X19237202Y-18076310D01*
X19152202Y-18076310D01*
X19152202Y-18035833D01*
X19237202Y-17999405D02*
X19152202Y-17999405D01*
X19152202Y-17979167D01*
X19156250Y-17967024D01*
X19164345Y-17958929D01*
X19172440Y-17954881D01*
X19188631Y-17950833D01*
X19200774Y-17950833D01*
X19216964Y-17954881D01*
X19225060Y-17958929D01*
X19233155Y-17967024D01*
X19237202Y-17979167D01*
X19237202Y-17999405D01*
X20316305Y-20125710D02*
X20320352Y-20113567D01*
X20320352Y-20093329D01*
X20316305Y-20085233D01*
X20312257Y-20081186D01*
X20304162Y-20077138D01*
X20296067Y-20077138D01*
X20287971Y-20081186D01*
X20283924Y-20085233D01*
X20279876Y-20093329D01*
X20275829Y-20109519D01*
X20271781Y-20117614D01*
X20267733Y-20121662D01*
X20259638Y-20125710D01*
X20251543Y-20125710D01*
X20243448Y-20121662D01*
X20239400Y-20117614D01*
X20235352Y-20109519D01*
X20235352Y-20089281D01*
X20239400Y-20077138D01*
X20320352Y-20040710D02*
X20235352Y-20040710D01*
X20235352Y-20020471D01*
X20239400Y-20008329D01*
X20247495Y-20000233D01*
X20255590Y-19996186D01*
X20271781Y-19992138D01*
X20283924Y-19992138D01*
X20300114Y-19996186D01*
X20308210Y-20000233D01*
X20316305Y-20008329D01*
X20320352Y-20020471D01*
X20320352Y-20040710D01*
X20296067Y-19959757D02*
X20296067Y-19919281D01*
X20320352Y-19967852D02*
X20235352Y-19939519D01*
X20320352Y-19911186D01*
X20570305Y-20125710D02*
X20574352Y-20113567D01*
X20574352Y-20093329D01*
X20570305Y-20085233D01*
X20566257Y-20081186D01*
X20558162Y-20077138D01*
X20550067Y-20077138D01*
X20541971Y-20081186D01*
X20537924Y-20085233D01*
X20533876Y-20093329D01*
X20529829Y-20109519D01*
X20525781Y-20117614D01*
X20521733Y-20121662D01*
X20513638Y-20125710D01*
X20505543Y-20125710D01*
X20497448Y-20121662D01*
X20493400Y-20117614D01*
X20489352Y-20109519D01*
X20489352Y-20089281D01*
X20493400Y-20077138D01*
X20566257Y-19992138D02*
X20570305Y-19996186D01*
X20574352Y-20008329D01*
X20574352Y-20016424D01*
X20570305Y-20028567D01*
X20562210Y-20036662D01*
X20554114Y-20040710D01*
X20537924Y-20044757D01*
X20525781Y-20044757D01*
X20509590Y-20040710D01*
X20501495Y-20036662D01*
X20493400Y-20028567D01*
X20489352Y-20016424D01*
X20489352Y-20008329D01*
X20493400Y-19996186D01*
X20497448Y-19992138D01*
X20574352Y-19915233D02*
X20574352Y-19955710D01*
X20489352Y-19955710D01*
X20828352Y-20567614D02*
X20743352Y-20567614D01*
X20743352Y-20547376D01*
X20747400Y-20535233D01*
X20755495Y-20527138D01*
X20763590Y-20523090D01*
X20779781Y-20519043D01*
X20791924Y-20519043D01*
X20808114Y-20523090D01*
X20816210Y-20527138D01*
X20824305Y-20535233D01*
X20828352Y-20547376D01*
X20828352Y-20567614D01*
X20743352Y-20442138D02*
X20743352Y-20482614D01*
X20783829Y-20486662D01*
X20779781Y-20482614D01*
X20775733Y-20474519D01*
X20775733Y-20454281D01*
X20779781Y-20446186D01*
X20783829Y-20442138D01*
X20791924Y-20438090D01*
X20812162Y-20438090D01*
X20820257Y-20442138D01*
X20824305Y-20446186D01*
X20828352Y-20454281D01*
X20828352Y-20474519D01*
X20824305Y-20482614D01*
X20820257Y-20486662D01*
X21082352Y-20567614D02*
X20997352Y-20567614D01*
X20997352Y-20547376D01*
X21001400Y-20535233D01*
X21009495Y-20527138D01*
X21017590Y-20523090D01*
X21033781Y-20519043D01*
X21045924Y-20519043D01*
X21062114Y-20523090D01*
X21070210Y-20527138D01*
X21078305Y-20535233D01*
X21082352Y-20547376D01*
X21082352Y-20567614D01*
X20997352Y-20446186D02*
X20997352Y-20462376D01*
X21001400Y-20470471D01*
X21005448Y-20474519D01*
X21017590Y-20482614D01*
X21033781Y-20486662D01*
X21066162Y-20486662D01*
X21074257Y-20482614D01*
X21078305Y-20478567D01*
X21082352Y-20470471D01*
X21082352Y-20454281D01*
X21078305Y-20446186D01*
X21074257Y-20442138D01*
X21066162Y-20438090D01*
X21045924Y-20438090D01*
X21037829Y-20442138D01*
X21033781Y-20446186D01*
X21029733Y-20454281D01*
X21029733Y-20470471D01*
X21033781Y-20478567D01*
X21037829Y-20482614D01*
X21045924Y-20486662D01*
X21336352Y-20567614D02*
X21251352Y-20567614D01*
X21251352Y-20547376D01*
X21255400Y-20535233D01*
X21263495Y-20527138D01*
X21271590Y-20523090D01*
X21287781Y-20519043D01*
X21299924Y-20519043D01*
X21316114Y-20523090D01*
X21324210Y-20527138D01*
X21332305Y-20535233D01*
X21336352Y-20547376D01*
X21336352Y-20567614D01*
X21336352Y-20478567D02*
X21336352Y-20462376D01*
X21332305Y-20454281D01*
X21328257Y-20450233D01*
X21316114Y-20442138D01*
X21299924Y-20438090D01*
X21267543Y-20438090D01*
X21259448Y-20442138D01*
X21255400Y-20446186D01*
X21251352Y-20454281D01*
X21251352Y-20470471D01*
X21255400Y-20478567D01*
X21259448Y-20482614D01*
X21267543Y-20486662D01*
X21287781Y-20486662D01*
X21295876Y-20482614D01*
X21299924Y-20478567D01*
X21303971Y-20470471D01*
X21303971Y-20454281D01*
X21299924Y-20446186D01*
X21295876Y-20442138D01*
X21287781Y-20438090D01*
X21590352Y-20648567D02*
X21505352Y-20648567D01*
X21505352Y-20628329D01*
X21509400Y-20616186D01*
X21517495Y-20608090D01*
X21525590Y-20604043D01*
X21541781Y-20599995D01*
X21553924Y-20599995D01*
X21570114Y-20604043D01*
X21578210Y-20608090D01*
X21586305Y-20616186D01*
X21590352Y-20628329D01*
X21590352Y-20648567D01*
X21590352Y-20519043D02*
X21590352Y-20567614D01*
X21590352Y-20543329D02*
X21505352Y-20543329D01*
X21517495Y-20551424D01*
X21525590Y-20559519D01*
X21529638Y-20567614D01*
X21505352Y-20466424D02*
X21505352Y-20458329D01*
X21509400Y-20450233D01*
X21513448Y-20446186D01*
X21521543Y-20442138D01*
X21537733Y-20438090D01*
X21557971Y-20438090D01*
X21574162Y-20442138D01*
X21582257Y-20446186D01*
X21586305Y-20450233D01*
X21590352Y-20458329D01*
X21590352Y-20466424D01*
X21586305Y-20474519D01*
X21582257Y-20478567D01*
X21574162Y-20482614D01*
X21557971Y-20486662D01*
X21537733Y-20486662D01*
X21521543Y-20482614D01*
X21513448Y-20478567D01*
X21509400Y-20474519D01*
X21505352Y-20466424D01*
X21844352Y-20648567D02*
X21759352Y-20648567D01*
X21759352Y-20628329D01*
X21763400Y-20616186D01*
X21771495Y-20608090D01*
X21779590Y-20604043D01*
X21795781Y-20599995D01*
X21807924Y-20599995D01*
X21824114Y-20604043D01*
X21832210Y-20608090D01*
X21840305Y-20616186D01*
X21844352Y-20628329D01*
X21844352Y-20648567D01*
X21844352Y-20519043D02*
X21844352Y-20567614D01*
X21844352Y-20543329D02*
X21759352Y-20543329D01*
X21771495Y-20551424D01*
X21779590Y-20559519D01*
X21783638Y-20567614D01*
X21844352Y-20438090D02*
X21844352Y-20486662D01*
X21844352Y-20462376D02*
X21759352Y-20462376D01*
X21771495Y-20470471D01*
X21779590Y-20478567D01*
X21783638Y-20486662D01*
D11*
X23962100Y-18667998D02*
X23962100Y-18602998D01*
X24057805Y-18615379D02*
X24026852Y-18637045D01*
X24057805Y-18652521D02*
X23992805Y-18652521D01*
X23992805Y-18627760D01*
X23995900Y-18621569D01*
X23998995Y-18618474D01*
X24005186Y-18615379D01*
X24014471Y-18615379D01*
X24020662Y-18618474D01*
X24023757Y-18621569D01*
X24026852Y-18627760D01*
X24026852Y-18652521D01*
X23962100Y-18602998D02*
X23962100Y-18544188D01*
X24023757Y-18587521D02*
X24023757Y-18565855D01*
X24057805Y-18556569D02*
X24057805Y-18587521D01*
X23992805Y-18587521D01*
X23992805Y-18556569D01*
X23962100Y-18544188D02*
X23962100Y-18482283D01*
X24054709Y-18531807D02*
X24057805Y-18522521D01*
X24057805Y-18507045D01*
X24054709Y-18500855D01*
X24051614Y-18497760D01*
X24045424Y-18494664D01*
X24039233Y-18494664D01*
X24033043Y-18497760D01*
X24029948Y-18500855D01*
X24026852Y-18507045D01*
X24023757Y-18519426D01*
X24020662Y-18525617D01*
X24017567Y-18528712D01*
X24011376Y-18531807D01*
X24005186Y-18531807D01*
X23998995Y-18528712D01*
X23995900Y-18525617D01*
X23992805Y-18519426D01*
X23992805Y-18503950D01*
X23995900Y-18494664D01*
X23962100Y-18482283D02*
X23962100Y-18423474D01*
X24023757Y-18466807D02*
X24023757Y-18445140D01*
X24057805Y-18435855D02*
X24057805Y-18466807D01*
X23992805Y-18466807D01*
X23992805Y-18435855D01*
X23962100Y-18423474D02*
X23962100Y-18373950D01*
X23992805Y-18417283D02*
X23992805Y-18380140D01*
X24057805Y-18398712D02*
X23992805Y-18398712D01*
D13*
X23791352Y-18591724D02*
X23791352Y-18539105D01*
X23823733Y-18567438D01*
X23823733Y-18555295D01*
X23827781Y-18547200D01*
X23831828Y-18543152D01*
X23839924Y-18539105D01*
X23860162Y-18539105D01*
X23868257Y-18543152D01*
X23872305Y-18547200D01*
X23876352Y-18555295D01*
X23876352Y-18579581D01*
X23872305Y-18587676D01*
X23868257Y-18591724D01*
X23819686Y-18510771D02*
X23876352Y-18490533D01*
X23819686Y-18470295D01*
X23791352Y-18446010D02*
X23791352Y-18393390D01*
X23823733Y-18421724D01*
X23823733Y-18409581D01*
X23827781Y-18401486D01*
X23831828Y-18397438D01*
X23839924Y-18393390D01*
X23860162Y-18393390D01*
X23868257Y-18397438D01*
X23872305Y-18401486D01*
X23876352Y-18409581D01*
X23876352Y-18433867D01*
X23872305Y-18441962D01*
X23868257Y-18446010D01*
X23598067Y-18668629D02*
X23598067Y-18628152D01*
X23622352Y-18676724D02*
X23537352Y-18648390D01*
X23622352Y-18620057D01*
X23622352Y-18543152D02*
X23581876Y-18571486D01*
X23622352Y-18591724D02*
X23537352Y-18591724D01*
X23537352Y-18559343D01*
X23541400Y-18551248D01*
X23545448Y-18547200D01*
X23553543Y-18543152D01*
X23565686Y-18543152D01*
X23573781Y-18547200D01*
X23577828Y-18551248D01*
X23581876Y-18559343D01*
X23581876Y-18591724D01*
X23577828Y-18506724D02*
X23577828Y-18478390D01*
X23622352Y-18466248D02*
X23622352Y-18506724D01*
X23537352Y-18506724D01*
X23537352Y-18466248D01*
X23577828Y-18401486D02*
X23577828Y-18429819D01*
X23622352Y-18429819D02*
X23537352Y-18429819D01*
X23537352Y-18389343D01*
X23287400Y-18571486D02*
X23283352Y-18579581D01*
X23283352Y-18591724D01*
X23287400Y-18603867D01*
X23295495Y-18611962D01*
X23303590Y-18616010D01*
X23319781Y-18620057D01*
X23331924Y-18620057D01*
X23348114Y-18616010D01*
X23356209Y-18611962D01*
X23364305Y-18603867D01*
X23368352Y-18591724D01*
X23368352Y-18583629D01*
X23364305Y-18571486D01*
X23360257Y-18567438D01*
X23331924Y-18567438D01*
X23331924Y-18583629D01*
X23368352Y-18531010D02*
X23283352Y-18531010D01*
X23368352Y-18482438D01*
X23283352Y-18482438D01*
X23368352Y-18441962D02*
X23283352Y-18441962D01*
X23283352Y-18421724D01*
X23287400Y-18409581D01*
X23295495Y-18401486D01*
X23303590Y-18397438D01*
X23319781Y-18393390D01*
X23331924Y-18393390D01*
X23348114Y-18397438D01*
X23356209Y-18401486D01*
X23364305Y-18409581D01*
X23368352Y-18421724D01*
X23368352Y-18441962D01*
X23090067Y-18514819D02*
X23090067Y-18474343D01*
X23114352Y-18522914D02*
X23029352Y-18494581D01*
X23114352Y-18466248D01*
X23029352Y-18421724D02*
X23029352Y-18413629D01*
X23033400Y-18405533D01*
X23037448Y-18401486D01*
X23045543Y-18397438D01*
X23061733Y-18393390D01*
X23081971Y-18393390D01*
X23098162Y-18397438D01*
X23106257Y-18401486D01*
X23110305Y-18405533D01*
X23114352Y-18413629D01*
X23114352Y-18421724D01*
X23110305Y-18429819D01*
X23106257Y-18433867D01*
X23098162Y-18437914D01*
X23081971Y-18441962D01*
X23061733Y-18441962D01*
X23045543Y-18437914D01*
X23037448Y-18433867D01*
X23033400Y-18429819D01*
X23029352Y-18421724D01*
X22836067Y-18514819D02*
X22836067Y-18474343D01*
X22860352Y-18522914D02*
X22775352Y-18494581D01*
X22860352Y-18466248D01*
X22860352Y-18393390D02*
X22860352Y-18441962D01*
X22860352Y-18417676D02*
X22775352Y-18417676D01*
X22787495Y-18425771D01*
X22795590Y-18433867D01*
X22799638Y-18441962D01*
X22582067Y-18514819D02*
X22582067Y-18474343D01*
X22606352Y-18522914D02*
X22521352Y-18494581D01*
X22606352Y-18466248D01*
X22529448Y-18441962D02*
X22525400Y-18437914D01*
X22521352Y-18429819D01*
X22521352Y-18409581D01*
X22525400Y-18401486D01*
X22529448Y-18397438D01*
X22537543Y-18393390D01*
X22545638Y-18393390D01*
X22557781Y-18397438D01*
X22606352Y-18446010D01*
X22606352Y-18393390D01*
X22328067Y-18514819D02*
X22328067Y-18474343D01*
X22352352Y-18522914D02*
X22267352Y-18494581D01*
X22352352Y-18466248D01*
X22267352Y-18446010D02*
X22267352Y-18393390D01*
X22299733Y-18421724D01*
X22299733Y-18409581D01*
X22303781Y-18401486D01*
X22307829Y-18397438D01*
X22315924Y-18393390D01*
X22336162Y-18393390D01*
X22344257Y-18397438D01*
X22348305Y-18401486D01*
X22352352Y-18409581D01*
X22352352Y-18433867D01*
X22348305Y-18441962D01*
X22344257Y-18446010D01*
X22074067Y-18093710D02*
X22074067Y-18053233D01*
X22098352Y-18101805D02*
X22013352Y-18073471D01*
X22098352Y-18045138D01*
X22041686Y-17980376D02*
X22098352Y-17980376D01*
X22009305Y-18000614D02*
X22070019Y-18020852D01*
X22070019Y-17968233D01*
X21820067Y-18093710D02*
X21820067Y-18053233D01*
X21844352Y-18101805D02*
X21759352Y-18073471D01*
X21844352Y-18045138D01*
X21759352Y-17976329D02*
X21759352Y-18016805D01*
X21799829Y-18020852D01*
X21795781Y-18016805D01*
X21791733Y-18008710D01*
X21791733Y-17988471D01*
X21795781Y-17980376D01*
X21799829Y-17976329D01*
X21807924Y-17972281D01*
X21828162Y-17972281D01*
X21836257Y-17976329D01*
X21840305Y-17980376D01*
X21844352Y-17988471D01*
X21844352Y-18008710D01*
X21840305Y-18016805D01*
X21836257Y-18020852D01*
D14*
X21572138Y-18105251D02*
X21574519Y-18098108D01*
X21574519Y-18086204D01*
X21572138Y-18081442D01*
X21569757Y-18079061D01*
X21564995Y-18076680D01*
X21560233Y-18076680D01*
X21555471Y-18079061D01*
X21553090Y-18081442D01*
X21550710Y-18086204D01*
X21548329Y-18095727D01*
X21545948Y-18100489D01*
X21543567Y-18102870D01*
X21538805Y-18105251D01*
X21534043Y-18105251D01*
X21529281Y-18102870D01*
X21526900Y-18100489D01*
X21524519Y-18095727D01*
X21524519Y-18083823D01*
X21526900Y-18076680D01*
X21569757Y-18026680D02*
X21572138Y-18029061D01*
X21574519Y-18036204D01*
X21574519Y-18040965D01*
X21572138Y-18048108D01*
X21567376Y-18052870D01*
X21562614Y-18055251D01*
X21553090Y-18057632D01*
X21545948Y-18057632D01*
X21536424Y-18055251D01*
X21531662Y-18052870D01*
X21526900Y-18048108D01*
X21524519Y-18040965D01*
X21524519Y-18036204D01*
X21526900Y-18029061D01*
X21529281Y-18026680D01*
X21574519Y-18005251D02*
X21524519Y-18005251D01*
X21574519Y-17976680D02*
X21545948Y-17998108D01*
X21524519Y-17976680D02*
X21553090Y-18005251D01*
X21320519Y-18102870D02*
X21270519Y-18102870D01*
X21306233Y-18086204D01*
X21270519Y-18069537D01*
X21320519Y-18069537D01*
X21270519Y-18036204D02*
X21270519Y-18026680D01*
X21272900Y-18021918D01*
X21277662Y-18017156D01*
X21287186Y-18014775D01*
X21303852Y-18014775D01*
X21313376Y-18017156D01*
X21318138Y-18021918D01*
X21320519Y-18026680D01*
X21320519Y-18036204D01*
X21318138Y-18040965D01*
X21313376Y-18045727D01*
X21303852Y-18048108D01*
X21287186Y-18048108D01*
X21277662Y-18045727D01*
X21272900Y-18040965D01*
X21270519Y-18036204D01*
X21318138Y-17995727D02*
X21320519Y-17988585D01*
X21320519Y-17976680D01*
X21318138Y-17971918D01*
X21315757Y-17969537D01*
X21310995Y-17967156D01*
X21306233Y-17967156D01*
X21301471Y-17969537D01*
X21299090Y-17971918D01*
X21296710Y-17976680D01*
X21294329Y-17986204D01*
X21291948Y-17990965D01*
X21289567Y-17993346D01*
X21284805Y-17995727D01*
X21280043Y-17995727D01*
X21275281Y-17993346D01*
X21272900Y-17990965D01*
X21270519Y-17986204D01*
X21270519Y-17974299D01*
X21272900Y-17967156D01*
X21320519Y-17945727D02*
X21270519Y-17945727D01*
X21066519Y-18102870D02*
X21016519Y-18102870D01*
X21052233Y-18086204D01*
X21016519Y-18069537D01*
X21066519Y-18069537D01*
X21066519Y-18045727D02*
X21016519Y-18045727D01*
X21064138Y-18024299D02*
X21066519Y-18017156D01*
X21066519Y-18005251D01*
X21064138Y-18000489D01*
X21061757Y-17998108D01*
X21056995Y-17995727D01*
X21052233Y-17995727D01*
X21047471Y-17998108D01*
X21045090Y-18000489D01*
X21042710Y-18005251D01*
X21040329Y-18014775D01*
X21037948Y-18019537D01*
X21035567Y-18021918D01*
X21030805Y-18024299D01*
X21026043Y-18024299D01*
X21021281Y-18021918D01*
X21018900Y-18019537D01*
X21016519Y-18014775D01*
X21016519Y-18002870D01*
X21018900Y-17995727D01*
X21016519Y-17964775D02*
X21016519Y-17955251D01*
X21018900Y-17950489D01*
X21023662Y-17945727D01*
X21033186Y-17943346D01*
X21049852Y-17943346D01*
X21059376Y-17945727D01*
X21064138Y-17950489D01*
X21066519Y-17955251D01*
X21066519Y-17964775D01*
X21064138Y-17969537D01*
X21059376Y-17974299D01*
X21049852Y-17976680D01*
X21033186Y-17976680D01*
X21023662Y-17974299D01*
X21018900Y-17969537D01*
X21016519Y-17964775D01*
D13*
X20828352Y-18089662D02*
X20743352Y-18089662D01*
X20743352Y-18069424D01*
X20747400Y-18057281D01*
X20755495Y-18049186D01*
X20763590Y-18045138D01*
X20779781Y-18041090D01*
X20791924Y-18041090D01*
X20808114Y-18045138D01*
X20816210Y-18049186D01*
X20824305Y-18057281D01*
X20828352Y-18069424D01*
X20828352Y-18089662D01*
X20743352Y-17988471D02*
X20743352Y-17980376D01*
X20747400Y-17972281D01*
X20751448Y-17968233D01*
X20759543Y-17964186D01*
X20775733Y-17960138D01*
X20795971Y-17960138D01*
X20812162Y-17964186D01*
X20820257Y-17968233D01*
X20824305Y-17972281D01*
X20828352Y-17980376D01*
X20828352Y-17988471D01*
X20824305Y-17996567D01*
X20820257Y-18000614D01*
X20812162Y-18004662D01*
X20795971Y-18008710D01*
X20775733Y-18008710D01*
X20759543Y-18004662D01*
X20751448Y-18000614D01*
X20747400Y-17996567D01*
X20743352Y-17988471D01*
X20574352Y-18089662D02*
X20489352Y-18089662D01*
X20489352Y-18069424D01*
X20493400Y-18057281D01*
X20501495Y-18049186D01*
X20509590Y-18045138D01*
X20525781Y-18041090D01*
X20537924Y-18041090D01*
X20554114Y-18045138D01*
X20562210Y-18049186D01*
X20570305Y-18057281D01*
X20574352Y-18069424D01*
X20574352Y-18089662D01*
X20574352Y-17960138D02*
X20574352Y-18008710D01*
X20574352Y-17984424D02*
X20489352Y-17984424D01*
X20501495Y-17992519D01*
X20509590Y-18000614D01*
X20513638Y-18008710D01*
X20320352Y-18089662D02*
X20235352Y-18089662D01*
X20235352Y-18069424D01*
X20239400Y-18057281D01*
X20247495Y-18049186D01*
X20255590Y-18045138D01*
X20271781Y-18041090D01*
X20283924Y-18041090D01*
X20300114Y-18045138D01*
X20308210Y-18049186D01*
X20316305Y-18057281D01*
X20320352Y-18069424D01*
X20320352Y-18089662D01*
X20263686Y-17968233D02*
X20320352Y-17968233D01*
X20231305Y-17988471D02*
X20292019Y-18008710D01*
X20292019Y-17956090D01*
X22098352Y-20648567D02*
X22013352Y-20648567D01*
X22013352Y-20628329D01*
X22017400Y-20616186D01*
X22025495Y-20608090D01*
X22033590Y-20604043D01*
X22049781Y-20599995D01*
X22061924Y-20599995D01*
X22078114Y-20604043D01*
X22086210Y-20608090D01*
X22094305Y-20616186D01*
X22098352Y-20628329D01*
X22098352Y-20648567D01*
X22098352Y-20519043D02*
X22098352Y-20567614D01*
X22098352Y-20543329D02*
X22013352Y-20543329D01*
X22025495Y-20551424D01*
X22033590Y-20559519D01*
X22037638Y-20567614D01*
X22021448Y-20486662D02*
X22017400Y-20482614D01*
X22013352Y-20474519D01*
X22013352Y-20454281D01*
X22017400Y-20446186D01*
X22021448Y-20442138D01*
X22029543Y-20438090D01*
X22037638Y-20438090D01*
X22049781Y-20442138D01*
X22098352Y-20490710D01*
X22098352Y-20438090D01*
X22932000Y-18723900D02*
X22967000Y-18688900D01*
X22932000Y-18723900D02*
X22917000Y-18673900D01*
X22932000Y-18723900D02*
G75*
G02X23032000Y-18823900I100000J0D01*
G01*
D15*
X22440357Y-18881786D02*
X22443928Y-18871071D01*
X22443928Y-18853214D01*
X22440357Y-18846071D01*
X22436786Y-18842500D01*
X22429643Y-18838929D01*
X22422500Y-18838929D01*
X22415357Y-18842500D01*
X22411786Y-18846071D01*
X22408214Y-18853214D01*
X22404643Y-18867500D01*
X22401071Y-18874643D01*
X22397500Y-18878214D01*
X22390357Y-18881786D01*
X22383214Y-18881786D01*
X22376071Y-18878214D01*
X22372500Y-18874643D01*
X22368929Y-18867500D01*
X22368929Y-18849643D01*
X22372500Y-18838929D01*
X22368929Y-18813929D02*
X22443928Y-18796071D01*
X22390357Y-18781786D01*
X22443928Y-18767500D01*
X22368929Y-18749643D01*
X22443928Y-18721071D02*
X22368929Y-18721071D01*
X22368929Y-18703214D01*
X22372500Y-18692500D01*
X22379643Y-18685357D01*
X22386786Y-18681786D01*
X22401071Y-18678214D01*
X22411786Y-18678214D01*
X22426071Y-18681786D01*
X22433214Y-18685357D01*
X22440357Y-18692500D01*
X22443928Y-18703214D01*
X22443928Y-18721071D01*
D14*
X23035000Y-18030000D02*
X23035000Y-18001429D01*
X23052143Y-18035714D02*
X22992143Y-18015714D01*
X23052143Y-17995714D01*
X23046428Y-17941429D02*
X23049286Y-17944286D01*
X23052143Y-17952857D01*
X23052143Y-17958571D01*
X23049286Y-17967143D01*
X23043571Y-17972857D01*
X23037857Y-17975714D01*
X23026428Y-17978571D01*
X23017857Y-17978571D01*
X23006428Y-17975714D01*
X23000714Y-17972857D01*
X22995000Y-17967143D01*
X22992143Y-17958571D01*
X22992143Y-17952857D01*
X22995000Y-17944286D01*
X22997857Y-17941429D01*
X23046428Y-17881429D02*
X23049286Y-17884286D01*
X23052143Y-17892857D01*
X23052143Y-17898571D01*
X23049286Y-17907143D01*
X23043571Y-17912857D01*
X23037857Y-17915714D01*
X23026428Y-17918571D01*
X23017857Y-17918571D01*
X23006428Y-17915714D01*
X23000714Y-17912857D01*
X22995000Y-17907143D01*
X22992143Y-17898571D01*
X22992143Y-17892857D01*
X22995000Y-17884286D01*
X22997857Y-17881429D01*
X23020714Y-17855714D02*
X23020714Y-17835714D01*
X23052143Y-17827143D02*
X23052143Y-17855714D01*
X22992143Y-17855714D01*
X22992143Y-17827143D01*
X23052143Y-17772857D02*
X23052143Y-17801429D01*
X22992143Y-17801429D01*
X23052143Y-17704286D02*
X23052143Y-17707143D01*
X23049286Y-17712857D01*
X23040714Y-17721429D01*
X23023571Y-17735714D01*
X23015000Y-17741429D01*
X23006428Y-17744286D01*
X23000714Y-17744286D01*
X22995000Y-17741429D01*
X22992143Y-17735714D01*
X22992143Y-17732857D01*
X22995000Y-17727143D01*
X23000714Y-17724286D01*
X23003571Y-17724286D01*
X23009286Y-17727143D01*
X23012143Y-17730000D01*
X23023571Y-17747143D01*
X23026428Y-17750000D01*
X23032143Y-17752857D01*
X23040714Y-17752857D01*
X23046428Y-17750000D01*
X23049286Y-17747143D01*
X23052143Y-17741429D01*
X23052143Y-17732857D01*
X23049286Y-17727143D01*
X23046428Y-17724286D01*
X23035000Y-17715714D01*
X23026428Y-17712857D01*
X23020714Y-17712857D01*
X22995000Y-17647143D02*
X22992143Y-17652857D01*
X22992143Y-17661429D01*
X22995000Y-17670000D01*
X23000714Y-17675714D01*
X23006428Y-17678571D01*
X23017857Y-17681429D01*
X23026428Y-17681429D01*
X23037857Y-17678571D01*
X23043571Y-17675714D01*
X23049286Y-17670000D01*
X23052143Y-17661429D01*
X23052143Y-17655714D01*
X23049286Y-17647143D01*
X23046428Y-17644286D01*
X23026428Y-17644286D01*
X23026428Y-17655714D01*
X23023571Y-17607143D02*
X23052143Y-17607143D01*
X22992143Y-17627143D02*
X23023571Y-17607143D01*
X22992143Y-17587143D01*
X23052143Y-17532857D02*
X23023571Y-17552857D01*
X23052143Y-17567143D02*
X22992143Y-17567143D01*
X22992143Y-17544286D01*
X22995000Y-17538571D01*
X22997857Y-17535714D01*
X23003571Y-17532857D01*
X23012143Y-17532857D01*
X23017857Y-17535714D01*
X23020714Y-17538571D01*
X23023571Y-17544286D01*
X23023571Y-17567143D01*
X22992143Y-17495714D02*
X22992143Y-17484286D01*
X22995000Y-17478571D01*
X23000714Y-17472857D01*
X23012143Y-17470000D01*
X23032143Y-17470000D01*
X23043571Y-17472857D01*
X23049286Y-17478571D01*
X23052143Y-17484286D01*
X23052143Y-17495714D01*
X23049286Y-17501429D01*
X23043571Y-17507143D01*
X23032143Y-17510000D01*
X23012143Y-17510000D01*
X23000714Y-17507143D01*
X22995000Y-17501429D01*
X22992143Y-17495714D01*
D11*
X22665000Y-17830000D02*
X22640000Y-17855000D01*
X22648122Y-17970019D02*
G75*
G02X22644495Y-17831484I26878J70019D01*
G01*
D16*
X22871905Y-17971667D02*
X22871905Y-17928333D01*
X22936905Y-17971667D01*
X22936905Y-17928333D01*
X22789405Y-17546667D02*
X22854405Y-17503333D01*
X22789405Y-17503333D02*
X22854405Y-17546667D01*
D11*
X22825000Y-17972500D02*
X22795000Y-17982500D01*
X22825000Y-17970000D02*
X22800000Y-17945000D01*
X22825000Y-17970711D02*
G75*
G02X22875000Y-17850000I0J70711D01*
G01*
X22665000Y-17830000D02*
X22625000Y-17820000D01*
X22895000Y-17740000D02*
X22910000Y-17705000D01*
X22870000Y-17715000D02*
X22895000Y-17740000D01*
X22895000Y-17740000D02*
X22870000Y-17715000D01*
X22825000Y-17575000D02*
X22850000Y-17625000D01*
X22800000Y-17625000D02*
X22825000Y-17575000D01*
X22754981Y-17723122D02*
G75*
G02X22893516Y-17719495I70019J-26878D01*
G01*
D16*
X22423452Y-17900000D02*
X22454405Y-17900000D01*
X22389405Y-17921667D02*
X22423452Y-17900000D01*
X22389405Y-17878333D01*
D11*
X22500000Y-17900000D02*
X22550000Y-17875000D01*
X22800000Y-17900000D02*
X22500000Y-17900000D01*
X22550000Y-17925000D02*
X22500000Y-17900000D01*
X22825000Y-17875000D02*
X22825000Y-17575000D01*
X22850000Y-17900000D02*
G75*
G03X22850000Y-17900000I-25000J0D01*
G01*
X19584643Y-20688214D02*
X19588214Y-20677500D01*
X19591786Y-20673929D01*
X19598929Y-20670357D01*
X19609643Y-20670357D01*
X19616786Y-20673929D01*
X19620357Y-20677500D01*
X19623929Y-20684643D01*
X19623929Y-20713214D01*
X19548929Y-20713214D01*
X19548929Y-20688214D01*
X19552500Y-20681071D01*
X19556071Y-20677500D01*
X19563214Y-20673929D01*
X19570357Y-20673929D01*
X19577500Y-20677500D01*
X19581071Y-20681071D01*
X19584643Y-20688214D01*
X19584643Y-20713214D01*
X19623929Y-20602500D02*
X19623929Y-20638214D01*
X19548929Y-20638214D01*
X19548929Y-20577500D02*
X19609643Y-20577500D01*
X19616786Y-20573929D01*
X19620357Y-20570357D01*
X19623929Y-20563214D01*
X19623929Y-20548929D01*
X19620357Y-20541786D01*
X19616786Y-20538214D01*
X19609643Y-20534643D01*
X19548929Y-20534643D01*
X19584643Y-20498929D02*
X19584643Y-20473929D01*
X19623929Y-20463214D02*
X19623929Y-20498929D01*
X19548929Y-20498929D01*
X19548929Y-20463214D01*
X19353929Y-20668214D02*
X19318214Y-20693214D01*
X19353929Y-20711071D02*
X19278929Y-20711071D01*
X19278929Y-20682500D01*
X19282500Y-20675357D01*
X19286071Y-20671786D01*
X19293214Y-20668214D01*
X19303929Y-20668214D01*
X19311071Y-20671786D01*
X19314643Y-20675357D01*
X19318214Y-20682500D01*
X19318214Y-20711071D01*
X19314643Y-20636071D02*
X19314643Y-20611071D01*
X19353929Y-20600357D02*
X19353929Y-20636071D01*
X19278929Y-20636071D01*
X19278929Y-20600357D01*
X19353929Y-20568214D02*
X19278929Y-20568214D01*
X19278929Y-20550357D01*
X19282500Y-20539643D01*
X19289643Y-20532500D01*
X19296786Y-20528929D01*
X19311071Y-20525357D01*
X19321786Y-20525357D01*
X19336071Y-20528929D01*
X19343214Y-20532500D01*
X19350357Y-20539643D01*
X19353929Y-20550357D01*
X19353929Y-20568214D01*
X19002500Y-20675000D02*
X18998929Y-20682143D01*
X18998929Y-20692857D01*
X19002500Y-20703571D01*
X19009643Y-20710714D01*
X19016786Y-20714286D01*
X19031071Y-20717857D01*
X19041786Y-20717857D01*
X19056071Y-20714286D01*
X19063214Y-20710714D01*
X19070357Y-20703571D01*
X19073929Y-20692857D01*
X19073929Y-20685714D01*
X19070357Y-20675000D01*
X19066786Y-20671429D01*
X19041786Y-20671429D01*
X19041786Y-20685714D01*
X19073929Y-20596429D02*
X19038214Y-20621429D01*
X19073929Y-20639286D02*
X18998929Y-20639286D01*
X18998929Y-20610714D01*
X19002500Y-20603571D01*
X19006071Y-20600000D01*
X19013214Y-20596429D01*
X19023929Y-20596429D01*
X19031071Y-20600000D01*
X19034643Y-20603571D01*
X19038214Y-20610714D01*
X19038214Y-20639286D01*
X19034643Y-20564286D02*
X19034643Y-20539286D01*
X19073929Y-20528571D02*
X19073929Y-20564286D01*
X18998929Y-20564286D01*
X18998929Y-20528571D01*
X19034643Y-20496429D02*
X19034643Y-20471429D01*
X19073929Y-20460714D02*
X19073929Y-20496429D01*
X18998929Y-20496429D01*
X18998929Y-20460714D01*
X19073929Y-20428571D02*
X18998929Y-20428571D01*
X19073929Y-20385714D01*
X18998929Y-20385714D01*
X24430000Y-18290000D02*
X24505000Y-18340000D01*
X24430000Y-18290000D02*
X24505000Y-18240000D01*
D17*
X24308452Y-18355952D02*
X24308452Y-18339762D01*
X24312500Y-18331667D01*
X24320595Y-18323571D01*
X24336786Y-18319524D01*
X24365119Y-18319524D01*
X24381309Y-18323571D01*
X24389405Y-18331667D01*
X24393452Y-18339762D01*
X24393452Y-18355952D01*
X24389405Y-18364048D01*
X24381309Y-18372143D01*
X24365119Y-18376190D01*
X24336786Y-18376190D01*
X24320595Y-18372143D01*
X24312500Y-18364048D01*
X24308452Y-18355952D01*
X24348928Y-18254762D02*
X24348928Y-18283095D01*
X24393452Y-18283095D02*
X24308452Y-18283095D01*
X24308452Y-18242619D01*
X24348928Y-18181905D02*
X24348928Y-18210238D01*
X24393452Y-18210238D02*
X24308452Y-18210238D01*
X24308452Y-18169762D01*
D10*
X21342857Y-17310714D02*
X21192857Y-17310714D01*
X21192857Y-17253571D01*
X21200000Y-17239286D01*
X21207143Y-17232143D01*
X21221429Y-17225000D01*
X21242857Y-17225000D01*
X21257143Y-17232143D01*
X21264286Y-17239286D01*
X21271429Y-17253571D01*
X21271429Y-17310714D01*
X21192857Y-17175000D02*
X21192857Y-17082143D01*
X21250000Y-17132143D01*
X21250000Y-17110714D01*
X21257143Y-17096429D01*
X21264286Y-17089286D01*
X21278571Y-17082143D01*
X21314286Y-17082143D01*
X21328571Y-17089286D01*
X21335714Y-17096429D01*
X21342857Y-17110714D01*
X21342857Y-17153571D01*
X21335714Y-17167857D01*
X21328571Y-17175000D01*
X22092857Y-17310714D02*
X21942857Y-17310714D01*
X21942857Y-17253571D01*
X21950000Y-17239286D01*
X21957143Y-17232143D01*
X21971429Y-17225000D01*
X21992857Y-17225000D01*
X22007143Y-17232143D01*
X22014286Y-17239286D01*
X22021429Y-17253571D01*
X22021429Y-17310714D01*
X21957143Y-17167857D02*
X21950000Y-17160714D01*
X21942857Y-17146429D01*
X21942857Y-17110714D01*
X21950000Y-17096429D01*
X21957143Y-17089286D01*
X21971429Y-17082143D01*
X21985714Y-17082143D01*
X22007143Y-17089286D01*
X22092857Y-17175000D01*
X22092857Y-17082143D01*
X22842857Y-17310714D02*
X22692857Y-17310714D01*
X22692857Y-17253571D01*
X22700000Y-17239286D01*
X22707143Y-17232143D01*
X22721428Y-17225000D01*
X22742857Y-17225000D01*
X22757143Y-17232143D01*
X22764286Y-17239286D01*
X22771428Y-17253571D01*
X22771428Y-17310714D01*
X22842857Y-17082143D02*
X22842857Y-17167857D01*
X22842857Y-17125000D02*
X22692857Y-17125000D01*
X22714286Y-17139286D01*
X22728571Y-17153571D01*
X22735714Y-17167857D01*
X23592857Y-17321429D02*
X23442857Y-17321429D01*
X23457143Y-17257143D02*
X23450000Y-17250000D01*
X23442857Y-17235714D01*
X23442857Y-17200000D01*
X23450000Y-17185714D01*
X23457143Y-17178571D01*
X23471428Y-17171429D01*
X23485714Y-17171429D01*
X23507143Y-17178571D01*
X23592857Y-17264286D01*
X23592857Y-17171429D01*
X23578571Y-17021429D02*
X23585714Y-17028571D01*
X23592857Y-17050000D01*
X23592857Y-17064286D01*
X23585714Y-17085714D01*
X23571428Y-17100000D01*
X23557143Y-17107143D01*
X23528571Y-17114286D01*
X23507143Y-17114286D01*
X23478571Y-17107143D01*
X23464286Y-17100000D01*
X23450000Y-17085714D01*
X23442857Y-17064286D01*
X23442857Y-17050000D01*
X23450000Y-17028571D01*
X23457143Y-17021429D01*
X24342857Y-17321429D02*
X24192857Y-17321429D01*
X24207143Y-17257143D02*
X24200000Y-17250000D01*
X24192857Y-17235714D01*
X24192857Y-17200000D01*
X24200000Y-17185714D01*
X24207143Y-17178571D01*
X24221428Y-17171429D01*
X24235714Y-17171429D01*
X24257143Y-17178571D01*
X24342857Y-17264286D01*
X24342857Y-17171429D01*
X24328571Y-17021429D02*
X24335714Y-17028571D01*
X24342857Y-17050000D01*
X24342857Y-17064286D01*
X24335714Y-17085714D01*
X24321428Y-17100000D01*
X24307143Y-17107143D01*
X24278571Y-17114286D01*
X24257143Y-17114286D01*
X24228571Y-17107143D01*
X24214286Y-17100000D01*
X24200000Y-17085714D01*
X24192857Y-17064286D01*
X24192857Y-17050000D01*
X24200000Y-17028571D01*
X24207143Y-17021429D01*
D13*
X21933929Y-17563452D02*
X21933929Y-17478452D01*
X21962262Y-17539167D01*
X21990595Y-17478452D01*
X21990595Y-17563452D01*
X22031071Y-17563452D02*
X22031071Y-17478452D01*
X22120119Y-17555357D02*
X22116071Y-17559405D01*
X22103929Y-17563452D01*
X22095833Y-17563452D01*
X22083690Y-17559405D01*
X22075595Y-17551310D01*
X22071548Y-17543214D01*
X22067500Y-17527024D01*
X22067500Y-17514881D01*
X22071548Y-17498690D01*
X22075595Y-17490595D01*
X22083690Y-17482500D01*
X22095833Y-17478452D01*
X22103929Y-17478452D01*
X22116071Y-17482500D01*
X22120119Y-17486548D01*
X23938452Y-19133095D02*
X23897976Y-19161429D01*
X23938452Y-19181667D02*
X23853452Y-19181667D01*
X23853452Y-19149286D01*
X23857500Y-19141190D01*
X23861548Y-19137143D01*
X23869643Y-19133095D01*
X23881786Y-19133095D01*
X23889881Y-19137143D01*
X23893928Y-19141190D01*
X23897976Y-19149286D01*
X23897976Y-19181667D01*
X23938452Y-19104762D02*
X23881786Y-19060238D01*
X23881786Y-19104762D02*
X23938452Y-19060238D01*
X24053452Y-19183690D02*
X24053452Y-19135119D01*
X24138452Y-19159405D02*
X24053452Y-19159405D01*
X24138452Y-19114881D02*
X24081786Y-19070357D01*
X24081786Y-19114881D02*
X24138452Y-19070357D01*
X24577302Y-18172733D02*
X24492302Y-18172733D01*
X24492302Y-18140352D01*
X24496350Y-18132257D01*
X24500398Y-18128210D01*
X24508493Y-18124162D01*
X24520636Y-18124162D01*
X24528731Y-18128210D01*
X24532778Y-18132257D01*
X24536826Y-18140352D01*
X24536826Y-18172733D01*
X24492302Y-18095829D02*
X24577302Y-18075590D01*
X24516588Y-18059400D01*
X24577302Y-18043210D01*
X24492302Y-18022971D01*
X24577302Y-17942019D02*
X24536826Y-17970352D01*
X24577302Y-17990590D02*
X24492302Y-17990590D01*
X24492302Y-17958210D01*
X24496350Y-17950114D01*
X24500398Y-17946067D01*
X24508493Y-17942019D01*
X24520636Y-17942019D01*
X24528731Y-17946067D01*
X24532778Y-17950114D01*
X24536826Y-17958210D01*
X24536826Y-17990590D01*
X24720755Y-18132257D02*
X24724802Y-18120114D01*
X24724802Y-18099876D01*
X24720755Y-18091781D01*
X24716707Y-18087733D01*
X24708612Y-18083686D01*
X24700517Y-18083686D01*
X24692421Y-18087733D01*
X24688374Y-18091781D01*
X24684326Y-18099876D01*
X24680278Y-18116067D01*
X24676231Y-18124162D01*
X24672183Y-18128210D01*
X24664088Y-18132257D01*
X24655993Y-18132257D01*
X24647898Y-18128210D01*
X24643850Y-18124162D01*
X24639802Y-18116067D01*
X24639802Y-18095829D01*
X24643850Y-18083686D01*
X24639802Y-18055352D02*
X24724802Y-18035114D01*
X24664088Y-18018924D01*
X24724802Y-18002733D01*
X24639802Y-17982495D01*
D11*
X24780000Y-18290000D02*
X24705000Y-18340000D01*
X24780000Y-18290000D02*
X24705000Y-18240000D01*
X24430000Y-18290000D02*
X24780000Y-18290000D01*
D17*
X24808452Y-18352619D02*
X24808452Y-18336429D01*
X24812500Y-18328333D01*
X24820595Y-18320238D01*
X24836786Y-18316190D01*
X24865119Y-18316190D01*
X24881309Y-18320238D01*
X24889405Y-18328333D01*
X24893452Y-18336429D01*
X24893452Y-18352619D01*
X24889405Y-18360714D01*
X24881309Y-18368810D01*
X24865119Y-18372857D01*
X24836786Y-18372857D01*
X24820595Y-18368810D01*
X24812500Y-18360714D01*
X24808452Y-18352619D01*
X24893452Y-18279762D02*
X24808452Y-18279762D01*
X24893452Y-18231190D01*
X24808452Y-18231190D01*
D11*
X23675000Y-21250000D02*
X24025000Y-21250000D01*
X23725000Y-21000000D02*
X23725000Y-21025000D01*
X23630000Y-21000000D02*
X23725000Y-21000000D01*
X23975000Y-20960000D02*
X23975000Y-21025000D01*
X23930000Y-20960000D02*
X23975000Y-20960000D01*
X23930000Y-20925000D02*
X23930000Y-20960000D01*
X23850000Y-20975000D02*
X23850000Y-21025000D01*
X23780000Y-20975000D02*
X23850000Y-20975000D01*
X23780000Y-20925000D02*
X23780000Y-20975000D01*
X23630000Y-20925000D02*
X23630000Y-21000000D01*
X24008928Y-21167143D02*
X23933928Y-21167143D01*
X23933928Y-21138571D01*
X23937500Y-21131429D01*
X23941071Y-21127857D01*
X23948214Y-21124286D01*
X23958928Y-21124286D01*
X23966071Y-21127857D01*
X23969643Y-21131429D01*
X23973214Y-21138571D01*
X23973214Y-21167143D01*
X23937500Y-21052857D02*
X23933928Y-21060000D01*
X23933928Y-21070714D01*
X23937500Y-21081429D01*
X23944643Y-21088571D01*
X23951786Y-21092143D01*
X23966071Y-21095714D01*
X23976786Y-21095714D01*
X23991071Y-21092143D01*
X23998214Y-21088571D01*
X24005357Y-21081429D01*
X24008928Y-21070714D01*
X24008928Y-21063571D01*
X24005357Y-21052857D01*
X24001786Y-21049286D01*
X23976786Y-21049286D01*
X23976786Y-21063571D01*
X23880357Y-21220714D02*
X23883928Y-21210000D01*
X23883928Y-21192143D01*
X23880357Y-21185000D01*
X23876786Y-21181429D01*
X23869643Y-21177857D01*
X23862500Y-21177857D01*
X23855357Y-21181429D01*
X23851786Y-21185000D01*
X23848214Y-21192143D01*
X23844643Y-21206429D01*
X23841071Y-21213571D01*
X23837500Y-21217143D01*
X23830357Y-21220714D01*
X23823214Y-21220714D01*
X23816071Y-21217143D01*
X23812500Y-21213571D01*
X23808928Y-21206429D01*
X23808928Y-21188571D01*
X23812500Y-21177857D01*
X23808928Y-21156429D02*
X23808928Y-21113571D01*
X23883928Y-21135000D02*
X23808928Y-21135000D01*
X23816071Y-21092143D02*
X23812500Y-21088571D01*
X23808928Y-21081429D01*
X23808928Y-21063571D01*
X23812500Y-21056429D01*
X23816071Y-21052857D01*
X23823214Y-21049286D01*
X23830357Y-21049286D01*
X23841071Y-21052857D01*
X23883928Y-21095714D01*
X23883928Y-21049286D01*
X23755357Y-21220714D02*
X23758928Y-21210000D01*
X23758928Y-21192143D01*
X23755357Y-21185000D01*
X23751786Y-21181429D01*
X23744643Y-21177857D01*
X23737500Y-21177857D01*
X23730357Y-21181429D01*
X23726786Y-21185000D01*
X23723214Y-21192143D01*
X23719643Y-21206429D01*
X23716071Y-21213571D01*
X23712500Y-21217143D01*
X23705357Y-21220714D01*
X23698214Y-21220714D01*
X23691071Y-21217143D01*
X23687500Y-21213571D01*
X23683928Y-21206429D01*
X23683928Y-21188571D01*
X23687500Y-21177857D01*
X23683928Y-21156429D02*
X23683928Y-21113571D01*
X23758928Y-21135000D02*
X23683928Y-21135000D01*
X23758928Y-21049286D02*
X23758928Y-21092143D01*
X23758928Y-21070714D02*
X23683928Y-21070714D01*
X23694643Y-21077857D01*
X23701786Y-21085000D01*
X23705357Y-21092143D01*
D12*
X18953571Y-21316071D02*
X18957143Y-21312500D01*
X18964286Y-21308929D01*
X18982143Y-21308929D01*
X18989286Y-21312500D01*
X18992857Y-21316071D01*
X18996429Y-21323214D01*
X18996429Y-21330357D01*
X18992857Y-21341071D01*
X18950000Y-21383929D01*
X18996429Y-21383929D01*
D11*
X17735555Y-16675000D02*
G75*
G03X17735555Y-16675000I-360555J0D01*
G01*
D10*
X23713095Y-21367857D02*
X23727381Y-21372619D01*
X23732143Y-21377381D01*
X23736905Y-21386905D01*
X23736905Y-21401190D01*
X23732143Y-21410714D01*
X23727381Y-21415476D01*
X23717857Y-21420238D01*
X23679762Y-21420238D01*
X23679762Y-21320238D01*
X23713095Y-21320238D01*
X23722619Y-21325000D01*
X23727381Y-21329762D01*
X23732143Y-21339286D01*
X23732143Y-21348810D01*
X23727381Y-21358333D01*
X23722619Y-21363095D01*
X23713095Y-21367857D01*
X23679762Y-21367857D01*
X23775000Y-21391667D02*
X23822619Y-21391667D01*
X23765476Y-21420238D02*
X23798809Y-21320238D01*
X23832143Y-21420238D01*
X23851190Y-21320238D02*
X23908333Y-21320238D01*
X23879762Y-21420238D02*
X23879762Y-21320238D01*
X23927381Y-21320238D02*
X23984524Y-21320238D01*
X23955952Y-21420238D02*
X23955952Y-21320238D01*
D13*
X17965476Y-17558333D02*
X17970238Y-17544048D01*
X17970238Y-17520238D01*
X17965476Y-17510714D01*
X17960714Y-17505952D01*
X17951190Y-17501190D01*
X17941667Y-17501190D01*
X17932143Y-17505952D01*
X17927381Y-17510714D01*
X17922619Y-17520238D01*
X17917857Y-17539286D01*
X17913095Y-17548810D01*
X17908333Y-17553571D01*
X17898810Y-17558333D01*
X17889286Y-17558333D01*
X17879762Y-17553571D01*
X17875000Y-17548810D01*
X17870238Y-17539286D01*
X17870238Y-17515476D01*
X17875000Y-17501190D01*
X17870238Y-17467857D02*
X17970238Y-17444048D01*
X17898810Y-17425000D01*
X17970238Y-17405952D01*
X17870238Y-17382143D01*
X17970238Y-17291667D02*
X17970238Y-17348810D01*
X17970238Y-17320238D02*
X17870238Y-17320238D01*
X17884524Y-17329762D01*
X17894048Y-17339286D01*
X17898810Y-17348810D01*
D10*
X19466071Y-21256548D02*
X19466071Y-21131548D01*
X19507738Y-21220833D01*
X19549405Y-21131548D01*
X19549405Y-21256548D01*
X19632738Y-21131548D02*
X19656548Y-21131548D01*
X19668452Y-21137500D01*
X19680357Y-21149405D01*
X19686310Y-21173214D01*
X19686310Y-21214881D01*
X19680357Y-21238690D01*
X19668452Y-21250595D01*
X19656548Y-21256548D01*
X19632738Y-21256548D01*
X19620833Y-21250595D01*
X19608929Y-21238690D01*
X19602976Y-21214881D01*
X19602976Y-21173214D01*
X19608929Y-21149405D01*
X19620833Y-21137500D01*
X19632738Y-21131548D01*
X19722024Y-21131548D02*
X19793452Y-21131548D01*
X19757738Y-21256548D02*
X19757738Y-21131548D01*
X19858929Y-21131548D02*
X19882738Y-21131548D01*
X19894643Y-21137500D01*
X19906548Y-21149405D01*
X19912500Y-21173214D01*
X19912500Y-21214881D01*
X19906548Y-21238690D01*
X19894643Y-21250595D01*
X19882738Y-21256548D01*
X19858929Y-21256548D01*
X19847024Y-21250595D01*
X19835119Y-21238690D01*
X19829167Y-21214881D01*
X19829167Y-21173214D01*
X19835119Y-21149405D01*
X19847024Y-21137500D01*
X19858929Y-21131548D01*
X20037500Y-21256548D02*
X19995833Y-21197024D01*
X19966071Y-21256548D02*
X19966071Y-21131548D01*
X20013690Y-21131548D01*
X20025595Y-21137500D01*
X20031548Y-21143452D01*
X20037500Y-21155357D01*
X20037500Y-21173214D01*
X20031548Y-21185119D01*
X20025595Y-21191071D01*
X20013690Y-21197024D01*
X19966071Y-21197024D01*
X20180357Y-21220833D02*
X20239881Y-21220833D01*
X20168452Y-21256548D02*
X20210119Y-21131548D01*
X20251786Y-21256548D01*
D13*
X17457143Y-17688095D02*
X17457143Y-17611905D01*
X17495238Y-17650000D02*
X17419048Y-17650000D01*
D11*
X16975000Y-17225000D02*
X17675000Y-17225000D01*
D12*
X19280357Y-21621429D02*
X19283929Y-21610714D01*
X19283929Y-21592857D01*
X19280357Y-21585714D01*
X19276786Y-21582143D01*
X19269643Y-21578571D01*
X19262500Y-21578571D01*
X19255357Y-21582143D01*
X19251786Y-21585714D01*
X19248214Y-21592857D01*
X19244643Y-21607143D01*
X19241071Y-21614286D01*
X19237500Y-21617857D01*
X19230357Y-21621429D01*
X19223214Y-21621429D01*
X19216071Y-21617857D01*
X19212500Y-21614286D01*
X19208929Y-21607143D01*
X19208929Y-21589286D01*
X19212500Y-21578571D01*
D13*
X17570238Y-17930952D02*
X17670238Y-17907143D01*
X17598810Y-17888095D01*
X17670238Y-17869048D01*
X17570238Y-17845238D01*
X17665476Y-17811905D02*
X17670238Y-17797619D01*
X17670238Y-17773810D01*
X17665476Y-17764286D01*
X17660714Y-17759524D01*
X17651190Y-17754762D01*
X17641667Y-17754762D01*
X17632143Y-17759524D01*
X17627381Y-17764286D01*
X17622619Y-17773810D01*
X17617857Y-17792857D01*
X17613095Y-17802381D01*
X17608333Y-17807143D01*
X17598810Y-17811905D01*
X17589286Y-17811905D01*
X17579762Y-17807143D01*
X17575000Y-17802381D01*
X17570238Y-17792857D01*
X17570238Y-17769048D01*
X17575000Y-17754762D01*
X17579762Y-17716667D02*
X17575000Y-17711905D01*
X17570238Y-17702381D01*
X17570238Y-17678571D01*
X17575000Y-17669048D01*
X17579762Y-17664286D01*
X17589286Y-17659524D01*
X17598810Y-17659524D01*
X17613095Y-17664286D01*
X17670238Y-17721429D01*
X17670238Y-17659524D01*
X17613095Y-17602381D02*
X17608333Y-17611905D01*
X17603571Y-17616667D01*
X17594048Y-17621429D01*
X17589286Y-17621429D01*
X17579762Y-17616667D01*
X17575000Y-17611905D01*
X17570238Y-17602381D01*
X17570238Y-17583333D01*
X17575000Y-17573810D01*
X17579762Y-17569048D01*
X17589286Y-17564286D01*
X17594048Y-17564286D01*
X17603571Y-17569048D01*
X17608333Y-17573810D01*
X17613095Y-17583333D01*
X17613095Y-17602381D01*
X17617857Y-17611905D01*
X17622619Y-17616667D01*
X17632143Y-17621429D01*
X17651190Y-17621429D01*
X17660714Y-17616667D01*
X17665476Y-17611905D01*
X17670238Y-17602381D01*
X17670238Y-17583333D01*
X17665476Y-17573810D01*
X17660714Y-17569048D01*
X17651190Y-17564286D01*
X17632143Y-17564286D01*
X17622619Y-17569048D01*
X17617857Y-17573810D01*
X17613095Y-17583333D01*
X17670238Y-17469048D02*
X17670238Y-17526190D01*
X17670238Y-17497619D02*
X17570238Y-17497619D01*
X17584524Y-17507143D01*
X17594048Y-17516667D01*
X17598810Y-17526190D01*
X17579762Y-17430952D02*
X17575000Y-17426190D01*
X17570238Y-17416667D01*
X17570238Y-17392857D01*
X17575000Y-17383333D01*
X17579762Y-17378571D01*
X17589286Y-17373810D01*
X17598810Y-17373810D01*
X17613095Y-17378571D01*
X17670238Y-17435714D01*
X17670238Y-17373810D01*
D12*
X18746429Y-21383929D02*
X18703571Y-21383929D01*
X18725000Y-21383929D02*
X18725000Y-21308929D01*
X18717857Y-21319643D01*
X18710714Y-21326786D01*
X18703571Y-21330357D01*
D13*
X17457143Y-17438095D02*
X17457143Y-17361905D01*
D10*
X20507143Y-21256548D02*
X20507143Y-21131548D01*
X20548810Y-21220833D01*
X20590476Y-21131548D01*
X20590476Y-21256548D01*
X20673810Y-21131548D02*
X20697619Y-21131548D01*
X20709524Y-21137500D01*
X20721429Y-21149405D01*
X20727381Y-21173214D01*
X20727381Y-21214881D01*
X20721429Y-21238690D01*
X20709524Y-21250595D01*
X20697619Y-21256548D01*
X20673810Y-21256548D01*
X20661905Y-21250595D01*
X20650000Y-21238690D01*
X20644048Y-21214881D01*
X20644048Y-21173214D01*
X20650000Y-21149405D01*
X20661905Y-21137500D01*
X20673810Y-21131548D01*
X20763095Y-21131548D02*
X20834524Y-21131548D01*
X20798810Y-21256548D02*
X20798810Y-21131548D01*
X20900000Y-21131548D02*
X20923810Y-21131548D01*
X20935714Y-21137500D01*
X20947619Y-21149405D01*
X20953571Y-21173214D01*
X20953571Y-21214881D01*
X20947619Y-21238690D01*
X20935714Y-21250595D01*
X20923810Y-21256548D01*
X20900000Y-21256548D01*
X20888095Y-21250595D01*
X20876190Y-21238690D01*
X20870238Y-21214881D01*
X20870238Y-21173214D01*
X20876190Y-21149405D01*
X20888095Y-21137500D01*
X20900000Y-21131548D01*
X21078571Y-21256548D02*
X21036905Y-21197024D01*
X21007143Y-21256548D02*
X21007143Y-21131548D01*
X21054762Y-21131548D01*
X21066667Y-21137500D01*
X21072619Y-21143452D01*
X21078571Y-21155357D01*
X21078571Y-21173214D01*
X21072619Y-21185119D01*
X21066667Y-21191071D01*
X21054762Y-21197024D01*
X21007143Y-21197024D01*
X21269048Y-21191071D02*
X21286905Y-21197024D01*
X21292857Y-21202976D01*
X21298810Y-21214881D01*
X21298810Y-21232738D01*
X21292857Y-21244643D01*
X21286905Y-21250595D01*
X21275000Y-21256548D01*
X21227381Y-21256548D01*
X21227381Y-21131548D01*
X21269048Y-21131548D01*
X21280952Y-21137500D01*
X21286905Y-21143452D01*
X21292857Y-21155357D01*
X21292857Y-21167262D01*
X21286905Y-21179167D01*
X21280952Y-21185119D01*
X21269048Y-21191071D01*
X21227381Y-21191071D01*
X18576190Y-21225595D02*
X18594048Y-21231548D01*
X18623810Y-21231548D01*
X18635714Y-21225595D01*
X18641667Y-21219643D01*
X18647619Y-21207738D01*
X18647619Y-21195833D01*
X18641667Y-21183929D01*
X18635714Y-21177976D01*
X18623810Y-21172024D01*
X18600000Y-21166071D01*
X18588095Y-21160119D01*
X18582143Y-21154167D01*
X18576190Y-21142262D01*
X18576190Y-21130357D01*
X18582143Y-21118452D01*
X18588095Y-21112500D01*
X18600000Y-21106548D01*
X18629762Y-21106548D01*
X18647619Y-21112500D01*
X18701190Y-21166071D02*
X18742857Y-21166071D01*
X18760714Y-21231548D02*
X18701190Y-21231548D01*
X18701190Y-21106548D01*
X18760714Y-21106548D01*
X18885714Y-21231548D02*
X18844048Y-21172024D01*
X18814286Y-21231548D02*
X18814286Y-21106548D01*
X18861905Y-21106548D01*
X18873810Y-21112500D01*
X18879762Y-21118452D01*
X18885714Y-21130357D01*
X18885714Y-21148214D01*
X18879762Y-21160119D01*
X18873810Y-21166071D01*
X18861905Y-21172024D01*
X18814286Y-21172024D01*
X18921429Y-21106548D02*
X18963095Y-21231548D01*
X19004762Y-21106548D01*
X19070238Y-21106548D02*
X19094048Y-21106548D01*
X19105952Y-21112500D01*
X19117857Y-21124405D01*
X19123810Y-21148214D01*
X19123810Y-21189881D01*
X19117857Y-21213690D01*
X19105952Y-21225595D01*
X19094048Y-21231548D01*
X19070238Y-21231548D01*
X19058333Y-21225595D01*
X19046429Y-21213690D01*
X19040476Y-21189881D01*
X19040476Y-21148214D01*
X19046429Y-21124405D01*
X19058333Y-21112500D01*
X19070238Y-21106548D01*
D14*
X24817143Y-17837143D02*
X24817143Y-17802857D01*
X24877143Y-17820000D02*
X24817143Y-17820000D01*
X24845714Y-17782857D02*
X24845714Y-17762857D01*
X24877143Y-17754286D02*
X24877143Y-17782857D01*
X24817143Y-17782857D01*
X24817143Y-17754286D01*
X24877143Y-17728571D02*
X24817143Y-17728571D01*
X24860000Y-17708571D01*
X24817143Y-17688571D01*
X24877143Y-17688571D01*
X24877143Y-17660000D02*
X24817143Y-17660000D01*
X24817143Y-17637143D01*
X24820000Y-17631429D01*
X24822857Y-17628571D01*
X24828571Y-17625714D01*
X24837143Y-17625714D01*
X24842857Y-17628571D01*
X24845714Y-17631429D01*
X24848571Y-17637143D01*
X24848571Y-17660000D01*
X24877143Y-17551429D02*
X24877143Y-17554286D01*
X24874286Y-17560000D01*
X24865714Y-17568571D01*
X24848571Y-17582857D01*
X24840000Y-17588571D01*
X24831428Y-17591429D01*
X24825714Y-17591429D01*
X24820000Y-17588571D01*
X24817143Y-17582857D01*
X24817143Y-17580000D01*
X24820000Y-17574286D01*
X24825714Y-17571429D01*
X24828571Y-17571429D01*
X24834286Y-17574286D01*
X24837143Y-17577143D01*
X24848571Y-17594286D01*
X24851428Y-17597143D01*
X24857143Y-17600000D01*
X24865714Y-17600000D01*
X24871428Y-17597143D01*
X24874286Y-17594286D01*
X24877143Y-17588571D01*
X24877143Y-17580000D01*
X24874286Y-17574286D01*
X24871428Y-17571429D01*
X24860000Y-17562857D01*
X24851428Y-17560000D01*
X24845714Y-17560000D01*
X24877143Y-17525714D02*
X24817143Y-17525714D01*
X24845714Y-17525714D02*
X24845714Y-17491429D01*
X24877143Y-17491429D02*
X24817143Y-17491429D01*
X24817143Y-17462857D02*
X24865714Y-17462857D01*
X24871428Y-17460000D01*
X24874286Y-17457143D01*
X24877143Y-17451429D01*
X24877143Y-17440000D01*
X24874286Y-17434286D01*
X24871428Y-17431429D01*
X24865714Y-17428571D01*
X24817143Y-17428571D01*
X24877143Y-17400000D02*
X24817143Y-17400000D01*
X24860000Y-17380000D01*
X24817143Y-17360000D01*
X24877143Y-17360000D01*
X24877143Y-17331429D02*
X24817143Y-17331429D01*
X24877143Y-17302857D02*
X24817143Y-17302857D01*
X24817143Y-17288571D01*
X24820000Y-17280000D01*
X24825714Y-17274286D01*
X24831428Y-17271429D01*
X24842857Y-17268571D01*
X24851428Y-17268571D01*
X24862857Y-17271429D01*
X24868571Y-17274286D01*
X24874286Y-17280000D01*
X24877143Y-17288571D01*
X24877143Y-17302857D01*
D11*
X17675000Y-17225000D02*
G75*
G02X17750000Y-17300000I0J-75000D01*
G01*
D10*
X21832143Y-21256548D02*
X21772619Y-21256548D01*
X21772619Y-21131548D01*
X21897619Y-21131548D02*
X21921429Y-21131548D01*
X21933333Y-21137500D01*
X21945238Y-21149405D01*
X21951190Y-21173214D01*
X21951190Y-21214881D01*
X21945238Y-21238690D01*
X21933333Y-21250595D01*
X21921429Y-21256548D01*
X21897619Y-21256548D01*
X21885714Y-21250595D01*
X21873810Y-21238690D01*
X21867857Y-21214881D01*
X21867857Y-21173214D01*
X21873810Y-21149405D01*
X21885714Y-21137500D01*
X21897619Y-21131548D01*
X21998810Y-21220833D02*
X22058333Y-21220833D01*
X21986905Y-21256548D02*
X22028571Y-21131548D01*
X22070238Y-21256548D01*
X22111905Y-21256548D02*
X22111905Y-21131548D01*
X22141667Y-21131548D01*
X22159524Y-21137500D01*
X22171429Y-21149405D01*
X22177381Y-21161310D01*
X22183333Y-21185119D01*
X22183333Y-21202976D01*
X22177381Y-21226786D01*
X22171429Y-21238690D01*
X22159524Y-21250595D01*
X22141667Y-21256548D01*
X22111905Y-21256548D01*
D11*
X17732107Y-21875000D02*
G75*
G03X17732107Y-21875000I-353553J0D01*
G01*
X17750000Y-18000000D02*
G75*
G02X17675000Y-18075000I-75000J0D01*
G01*
X16975000Y-18075000D02*
X17675000Y-18075000D01*
D13*
X17965476Y-16783333D02*
X17970238Y-16769048D01*
X17970238Y-16745238D01*
X17965476Y-16735714D01*
X17960714Y-16730952D01*
X17951190Y-16726190D01*
X17941667Y-16726190D01*
X17932143Y-16730952D01*
X17927381Y-16735714D01*
X17922619Y-16745238D01*
X17917857Y-16764286D01*
X17913095Y-16773809D01*
X17908333Y-16778571D01*
X17898810Y-16783333D01*
X17889286Y-16783333D01*
X17879762Y-16778571D01*
X17875000Y-16773809D01*
X17870238Y-16764286D01*
X17870238Y-16740476D01*
X17875000Y-16726190D01*
X17870238Y-16692857D02*
X17970238Y-16669048D01*
X17898810Y-16650000D01*
X17970238Y-16630952D01*
X17870238Y-16607143D01*
X17879762Y-16573809D02*
X17875000Y-16569048D01*
X17870238Y-16559524D01*
X17870238Y-16535714D01*
X17875000Y-16526190D01*
X17879762Y-16521428D01*
X17889286Y-16516667D01*
X17898810Y-16516667D01*
X17913095Y-16521428D01*
X17970238Y-16578571D01*
X17970238Y-16516667D01*
X17495238Y-17978571D02*
X17395238Y-17978571D01*
X17395238Y-17954762D01*
X17400000Y-17940476D01*
X17409524Y-17930952D01*
X17419048Y-17926190D01*
X17438095Y-17921429D01*
X17452381Y-17921429D01*
X17471429Y-17926190D01*
X17480952Y-17930952D01*
X17490476Y-17940476D01*
X17495238Y-17954762D01*
X17495238Y-17978571D01*
X17395238Y-17859524D02*
X17395238Y-17840476D01*
X17400000Y-17830952D01*
X17409524Y-17821429D01*
X17428571Y-17816667D01*
X17461905Y-17816667D01*
X17480952Y-17821429D01*
X17490476Y-17830952D01*
X17495238Y-17840476D01*
X17495238Y-17859524D01*
X17490476Y-17869048D01*
X17480952Y-17878571D01*
X17461905Y-17883333D01*
X17428571Y-17883333D01*
X17409524Y-17878571D01*
X17400000Y-17869048D01*
X17395238Y-17859524D01*
D11*
X24930317Y-16680317D02*
G75*
G03X24930317Y-16680317I-355317J0D01*
G01*
D12*
X19244643Y-22071429D02*
X19244643Y-22128571D01*
D10*
X23952381Y-21508929D02*
X24047619Y-21508929D01*
X24000000Y-21556548D02*
X24000000Y-21461310D01*
D17*
X24608928Y-20025000D02*
X24533928Y-20025000D01*
X24533928Y-19996429D01*
X24537500Y-19989286D01*
X24541071Y-19985714D01*
X24548214Y-19982143D01*
X24558928Y-19982143D01*
X24566071Y-19985714D01*
X24569643Y-19989286D01*
X24573214Y-19996429D01*
X24573214Y-20025000D01*
X24533928Y-19957143D02*
X24608928Y-19939286D01*
X24555357Y-19925000D01*
X24608928Y-19910714D01*
X24533928Y-19892857D01*
X24608928Y-19821429D02*
X24573214Y-19846429D01*
X24608928Y-19864286D02*
X24533928Y-19864286D01*
X24533928Y-19835714D01*
X24537500Y-19828571D01*
X24541071Y-19825000D01*
X24548214Y-19821429D01*
X24558928Y-19821429D01*
X24566071Y-19825000D01*
X24569643Y-19828571D01*
X24573214Y-19835714D01*
X24573214Y-19864286D01*
D10*
X23602381Y-21508929D02*
X23697619Y-21508929D01*
D12*
X19244643Y-21821429D02*
X19244643Y-21878571D01*
X19216071Y-21850000D02*
X19273214Y-21850000D01*
D13*
X17838095Y-21490476D02*
X17852381Y-21495238D01*
X17876190Y-21495238D01*
X17885714Y-21490476D01*
X17890476Y-21485714D01*
X17895238Y-21476190D01*
X17895238Y-21466667D01*
X17890476Y-21457143D01*
X17885714Y-21452381D01*
X17876190Y-21447619D01*
X17857143Y-21442857D01*
X17847619Y-21438095D01*
X17842857Y-21433333D01*
X17838095Y-21423810D01*
X17838095Y-21414286D01*
X17842857Y-21404762D01*
X17847619Y-21400000D01*
X17857143Y-21395238D01*
X17880952Y-21395238D01*
X17895238Y-21400000D01*
X17938095Y-21495238D02*
X17938095Y-21395238D01*
X17976190Y-21395238D01*
X17985714Y-21400000D01*
X17990476Y-21404762D01*
X17995238Y-21414286D01*
X17995238Y-21428571D01*
X17990476Y-21438095D01*
X17985714Y-21442857D01*
X17976190Y-21447619D01*
X17938095Y-21447619D01*
X18038095Y-21442857D02*
X18071429Y-21442857D01*
X18085714Y-21495238D02*
X18038095Y-21495238D01*
X18038095Y-21395238D01*
X18085714Y-21395238D01*
X18123810Y-21466667D02*
X18171429Y-21466667D01*
X18114286Y-21495238D02*
X18147619Y-21395238D01*
X18180952Y-21495238D01*
X18214286Y-21495238D02*
X18214286Y-21395238D01*
X18271429Y-21495238D02*
X18228571Y-21438095D01*
X18271429Y-21395238D02*
X18214286Y-21452381D01*
X18314286Y-21442857D02*
X18347619Y-21442857D01*
X18361905Y-21495238D02*
X18314286Y-21495238D01*
X18314286Y-21395238D01*
X18361905Y-21395238D01*
X18461905Y-21495238D02*
X18428571Y-21447619D01*
X18404762Y-21495238D02*
X18404762Y-21395238D01*
X18442857Y-21395238D01*
X18452381Y-21400000D01*
X18457143Y-21404762D01*
X18461905Y-21414286D01*
X18461905Y-21428571D01*
X18457143Y-21438095D01*
X18452381Y-21442857D01*
X18442857Y-21447619D01*
X18404762Y-21447619D01*
D10*
X17425298Y-21194048D02*
X17300298Y-21194048D01*
X17300298Y-21146429D01*
X17306250Y-21134524D01*
X17312202Y-21128571D01*
X17324107Y-21122619D01*
X17341964Y-21122619D01*
X17353869Y-21128571D01*
X17359821Y-21134524D01*
X17365774Y-21146429D01*
X17365774Y-21194048D01*
X17425298Y-21069048D02*
X17300298Y-21069048D01*
X17359821Y-21009524D02*
X17359821Y-20967857D01*
X17425298Y-20950000D02*
X17425298Y-21009524D01*
X17300298Y-21009524D01*
X17300298Y-20950000D01*
X17300298Y-20908333D02*
X17300298Y-20825000D01*
X17425298Y-20908333D01*
X17425298Y-20825000D01*
X17300298Y-20753571D02*
X17300298Y-20729762D01*
X17306250Y-20717857D01*
X17318155Y-20705952D01*
X17341964Y-20700000D01*
X17383631Y-20700000D01*
X17407440Y-20705952D01*
X17419345Y-20717857D01*
X17425298Y-20729762D01*
X17425298Y-20753571D01*
X17419345Y-20765476D01*
X17407440Y-20777381D01*
X17383631Y-20783333D01*
X17341964Y-20783333D01*
X17318155Y-20777381D01*
X17306250Y-20765476D01*
X17300298Y-20753571D01*
X17572321Y-21244643D02*
X17578274Y-21226786D01*
X17584226Y-21220833D01*
X17596131Y-21214881D01*
X17613988Y-21214881D01*
X17625893Y-21220833D01*
X17631845Y-21226786D01*
X17637798Y-21238690D01*
X17637798Y-21286310D01*
X17512798Y-21286310D01*
X17512798Y-21244643D01*
X17518750Y-21232738D01*
X17524702Y-21226786D01*
X17536607Y-21220833D01*
X17548512Y-21220833D01*
X17560417Y-21226786D01*
X17566369Y-21232738D01*
X17572321Y-21244643D01*
X17572321Y-21286310D01*
X17512798Y-21161310D02*
X17613988Y-21161310D01*
X17625893Y-21155357D01*
X17631845Y-21149405D01*
X17637798Y-21137500D01*
X17637798Y-21113690D01*
X17631845Y-21101786D01*
X17625893Y-21095833D01*
X17613988Y-21089881D01*
X17512798Y-21089881D01*
X17512798Y-21042262D02*
X17512798Y-20958929D01*
X17637798Y-21042262D01*
X17637798Y-20958929D01*
X17512798Y-20923214D02*
X17512798Y-20839881D01*
X17637798Y-20923214D01*
X17637798Y-20839881D01*
X17572321Y-20792262D02*
X17572321Y-20750595D01*
X17637798Y-20732738D02*
X17637798Y-20792262D01*
X17512798Y-20792262D01*
X17512798Y-20732738D01*
X17637798Y-20607738D02*
X17578274Y-20649405D01*
X17637798Y-20679167D02*
X17512798Y-20679167D01*
X17512798Y-20631548D01*
X17518750Y-20619643D01*
X17524702Y-20613690D01*
X17536607Y-20607738D01*
X17554464Y-20607738D01*
X17566369Y-20613690D01*
X17572321Y-20619643D01*
X17578274Y-20631548D01*
X17578274Y-20679167D01*
D11*
X24930317Y-21875000D02*
G75*
G03X24930317Y-21875000I-355317J0D01*
G01*
D18*
X24783722Y-20291000D02*
X24816278Y-20291000D01*
X24783722Y-20189000D02*
X24816278Y-20189000D01*
D19*
X24580000Y-20045000D02*
X24370000Y-20045000D01*
X24370000Y-20255000D02*
X24475000Y-20255000D01*
D20*
G36*
X19812091Y-18051563D02*
G01*
X19819214Y-18051567D01*
X19825821Y-18051581D01*
X19831748Y-18051602D01*
X19836831Y-18051630D01*
X19840908Y-18051663D01*
X19843815Y-18051702D01*
X19845388Y-18051744D01*
X19845625Y-18051768D01*
X19845086Y-18052359D01*
X19843560Y-18053930D01*
X19841187Y-18056342D01*
X19838103Y-18059455D01*
X19834448Y-18063129D01*
X19830360Y-18067225D01*
X19828954Y-18068631D01*
X19812283Y-18085288D01*
X19778558Y-18051563D01*
X19812091Y-18051563D01*
G37*
X19812091Y-18051563D02*
X19819214Y-18051567D01*
X19825821Y-18051581D01*
X19831748Y-18051602D01*
X19836831Y-18051630D01*
X19840908Y-18051663D01*
X19843815Y-18051702D01*
X19845388Y-18051744D01*
X19845625Y-18051768D01*
X19845086Y-18052359D01*
X19843560Y-18053930D01*
X19841187Y-18056342D01*
X19838103Y-18059455D01*
X19834448Y-18063129D01*
X19830360Y-18067225D01*
X19828954Y-18068631D01*
X19812283Y-18085288D01*
X19778558Y-18051563D01*
X19812091Y-18051563D01*
G36*
X19915097Y-18051546D02*
G01*
X19984536Y-18051959D01*
X19932737Y-18103754D01*
X19880938Y-18155548D01*
X19863484Y-18138081D01*
X19846030Y-18120613D01*
X19915097Y-18051546D01*
G37*
X19915097Y-18051546D02*
X19984536Y-18051959D01*
X19932737Y-18103754D01*
X19880938Y-18155548D01*
X19863484Y-18138081D01*
X19846030Y-18120613D01*
X19915097Y-18051546D01*
G36*
X19917613Y-18188631D02*
G01*
X19919220Y-18186927D01*
X19921814Y-18184239D01*
X19925328Y-18180638D01*
X19929693Y-18176191D01*
X19934841Y-18170968D01*
X19940704Y-18165038D01*
X19947214Y-18158469D01*
X19954303Y-18151331D01*
X19961902Y-18143693D01*
X19969944Y-18135623D01*
X19978360Y-18127191D01*
X19985534Y-18120013D01*
X20054005Y-18051545D01*
X20088523Y-18051752D01*
X20123041Y-18051959D01*
X19951240Y-18224203D01*
X19934151Y-18207145D01*
X19929888Y-18202864D01*
X19926014Y-18198924D01*
X19922665Y-18195469D01*
X19919979Y-18192642D01*
X19918094Y-18190588D01*
X19917148Y-18189449D01*
X19917063Y-18189283D01*
X19917613Y-18188631D01*
G37*
X19917613Y-18188631D02*
X19919220Y-18186927D01*
X19921814Y-18184239D01*
X19925328Y-18180638D01*
X19929693Y-18176191D01*
X19934841Y-18170968D01*
X19940704Y-18165038D01*
X19947214Y-18158469D01*
X19954303Y-18151331D01*
X19961902Y-18143693D01*
X19969944Y-18135623D01*
X19978360Y-18127191D01*
X19985534Y-18120013D01*
X20054005Y-18051545D01*
X20088523Y-18051752D01*
X20123041Y-18051959D01*
X19951240Y-18224203D01*
X19934151Y-18207145D01*
X19929888Y-18202864D01*
X19926014Y-18198924D01*
X19922665Y-18195469D01*
X19919979Y-18192642D01*
X19918094Y-18190588D01*
X19917148Y-18189449D01*
X19917063Y-18189283D01*
X19917613Y-18188631D01*
G36*
X19726713Y-18091845D02*
G01*
X19726959Y-18052355D01*
X19924999Y-18250396D01*
X20123039Y-18448438D01*
X19726563Y-18448438D01*
X19726563Y-18370279D01*
X19735889Y-18379393D01*
X19739770Y-18383187D01*
X19744334Y-18387653D01*
X19749131Y-18392351D01*
X19753712Y-18396839D01*
X19755939Y-18399023D01*
X19766663Y-18409540D01*
X19806325Y-18369853D01*
X19766444Y-18329966D01*
X19726563Y-18290079D01*
X19726563Y-18210906D01*
X19785809Y-18269828D01*
X19845055Y-18328750D01*
X19864969Y-18308837D01*
X19884882Y-18288924D01*
X19805674Y-18210129D01*
X19726467Y-18131334D01*
X19726713Y-18091845D01*
G37*
X19726713Y-18091845D02*
X19726959Y-18052355D01*
X19924999Y-18250396D01*
X20123039Y-18448438D01*
X19726563Y-18448438D01*
X19726563Y-18370279D01*
X19735889Y-18379393D01*
X19739770Y-18383187D01*
X19744334Y-18387653D01*
X19749131Y-18392351D01*
X19753712Y-18396839D01*
X19755939Y-18399023D01*
X19766663Y-18409540D01*
X19806325Y-18369853D01*
X19766444Y-18329966D01*
X19726563Y-18290079D01*
X19726563Y-18210906D01*
X19785809Y-18269828D01*
X19845055Y-18328750D01*
X19864969Y-18308837D01*
X19884882Y-18288924D01*
X19805674Y-18210129D01*
X19726467Y-18131334D01*
X19726713Y-18091845D01*
D18*
X22915000Y-20535000D02*
X22915000Y-20585000D01*
X22915000Y-20535000D02*
G75*
G02X22915000Y-20495000I0J20000D01*
G01*
X22635000Y-20265000D02*
G75*
G02X22655000Y-20245000I20000J0D01*
G01*
X22895000Y-20245000D02*
G75*
G02X22915000Y-20265000I0J-20000D01*
G01*
X22915000Y-20585000D02*
G75*
G02X22895000Y-20605000I-20000J0D01*
G01*
X22655000Y-20605000D02*
G75*
G02X22635000Y-20585000I0J20000D01*
G01*
X22895000Y-20245000D02*
X22655000Y-20245000D01*
X22895000Y-20605000D02*
X22655000Y-20605000D01*
X22915000Y-20495000D02*
X22915000Y-20265000D01*
X22635000Y-20585000D02*
X22635000Y-20265000D01*
X23558722Y-18926000D02*
X23591278Y-18926000D01*
X23558722Y-18824000D02*
X23591278Y-18824000D01*
X23558722Y-19076000D02*
X23591278Y-19076000D01*
X23558722Y-18974000D02*
X23591278Y-18974000D01*
X22016278Y-19574000D02*
X21983722Y-19574000D01*
X22016278Y-19676000D02*
X21983722Y-19676000D01*
X22016278Y-19424000D02*
X21983722Y-19424000D01*
X22016278Y-19526000D02*
X21983722Y-19526000D01*
X22016278Y-19024000D02*
X21983722Y-19024000D01*
X22016278Y-19126000D02*
X21983722Y-19126000D01*
X22016278Y-18874000D02*
X21983722Y-18874000D01*
X22016278Y-18976000D02*
X21983722Y-18976000D01*
X21983722Y-18576000D02*
X22016278Y-18576000D01*
X21983722Y-18474000D02*
X22016278Y-18474000D01*
X21983722Y-18726000D02*
X22016278Y-18726000D01*
X21983722Y-18624000D02*
X22016278Y-18624000D01*
X24783722Y-20976000D02*
X24816278Y-20976000D01*
X24783722Y-20874000D02*
X24816278Y-20874000D01*
X19749000Y-19908722D02*
X19749000Y-19941278D01*
X19851000Y-19908722D02*
X19851000Y-19941278D01*
X22618500Y-20681000D02*
X22618500Y-20290000D01*
X22431500Y-20681000D02*
X22618500Y-20681000D01*
X22431500Y-20290000D02*
X22431500Y-20681000D01*
X24783722Y-20826000D02*
X24816278Y-20826000D01*
X24783722Y-20724000D02*
X24816278Y-20724000D01*
X19899000Y-19908722D02*
X19899000Y-19941278D01*
X20001000Y-19908722D02*
X20001000Y-19941278D01*
X24494000Y-20518500D02*
X24885000Y-20518500D01*
X24494000Y-20331500D02*
X24494000Y-20518500D01*
X24885000Y-20331500D02*
X24494000Y-20331500D01*
X24783722Y-20676000D02*
X24816278Y-20676000D01*
X24783722Y-20574000D02*
X24816278Y-20574000D01*
X20049000Y-19908722D02*
X20049000Y-19941278D01*
X20151000Y-19908722D02*
X20151000Y-19941278D01*
X23981000Y-20071500D02*
X23590000Y-20071500D01*
X23981000Y-20258500D02*
X23981000Y-20071500D01*
X23590000Y-20258500D02*
X23981000Y-20258500D01*
X22916000Y-20006500D02*
X22525000Y-20006500D01*
X22916000Y-20193500D02*
X22916000Y-20006500D01*
X22525000Y-20193500D02*
X22916000Y-20193500D01*
X21291278Y-17472000D02*
X21258722Y-17472000D01*
X21291278Y-17574000D02*
X21258722Y-17574000D01*
X20506278Y-20429000D02*
X20473722Y-20429000D01*
X20506278Y-20531000D02*
X20473722Y-20531000D01*
X18166278Y-20999000D02*
X18133722Y-20999000D01*
X18166278Y-21101000D02*
X18133722Y-21101000D01*
X24583722Y-17251000D02*
X24616278Y-17251000D01*
X24583722Y-17149000D02*
X24616278Y-17149000D01*
X20106000Y-20431500D02*
X19715000Y-20431500D01*
X20106000Y-20618500D02*
X20106000Y-20431500D01*
X19715000Y-20618500D02*
X20106000Y-20618500D01*
X19966278Y-20974000D02*
X19933722Y-20974000D01*
X19966278Y-21076000D02*
X19933722Y-21076000D01*
X20816278Y-20974000D02*
X20783722Y-20974000D01*
X20816278Y-21076000D02*
X20783722Y-21076000D01*
X24943500Y-21506000D02*
X24943500Y-21115000D01*
X24756500Y-21506000D02*
X24943500Y-21506000D01*
X24756500Y-21115000D02*
X24756500Y-21506000D01*
X19816278Y-20674000D02*
X19783722Y-20674000D01*
X19816278Y-20776000D02*
X19783722Y-20776000D01*
X24033722Y-17876000D02*
X24066278Y-17876000D01*
X24033722Y-17774000D02*
X24066278Y-17774000D01*
X24033722Y-17601000D02*
X24066278Y-17601000D01*
X24033722Y-17499000D02*
X24066278Y-17499000D01*
X23201000Y-17591278D02*
X23201000Y-17558722D01*
X23099000Y-17591278D02*
X23099000Y-17558722D01*
X18166278Y-20849000D02*
X18133722Y-20849000D01*
X18166278Y-20951000D02*
X18133722Y-20951000D01*
X21851000Y-17789278D02*
X21851000Y-17756722D01*
X21749000Y-17789278D02*
X21749000Y-17756722D01*
X20999000Y-17756722D02*
X20999000Y-17789278D01*
X21101000Y-17756722D02*
X21101000Y-17789278D01*
X21326000Y-16466278D02*
X21326000Y-16433722D01*
X21224000Y-16466278D02*
X21224000Y-16433722D01*
X21974000Y-16733722D02*
X21974000Y-16766278D01*
X22076000Y-16733722D02*
X22076000Y-16766278D01*
X22724000Y-16733722D02*
X22724000Y-16766278D01*
X22826000Y-16733722D02*
X22826000Y-16766278D01*
X23474000Y-16733722D02*
X23474000Y-16766278D01*
X23576000Y-16733722D02*
X23576000Y-16766278D01*
X21224000Y-16733722D02*
X21224000Y-16766278D01*
X21326000Y-16733722D02*
X21326000Y-16766278D01*
X22076000Y-16466278D02*
X22076000Y-16433722D01*
X21974000Y-16466278D02*
X21974000Y-16433722D01*
X22826000Y-16470028D02*
X22826000Y-16437472D01*
X22724000Y-16470028D02*
X22724000Y-16437472D01*
X23576000Y-16466278D02*
X23576000Y-16433722D01*
X23474000Y-16466278D02*
X23474000Y-16433722D01*
X24003500Y-20923500D02*
X24003500Y-20695000D01*
X23856500Y-20923500D02*
X24003500Y-20923500D01*
X23856500Y-20695000D02*
X23856500Y-20923500D01*
X23703500Y-20923500D02*
X23703500Y-20695000D01*
X23556500Y-20923500D02*
X23703500Y-20923500D01*
X23556500Y-20695000D02*
X23556500Y-20923500D01*
X23853500Y-20923500D02*
X23853500Y-20695000D01*
X23706500Y-20923500D02*
X23853500Y-20923500D01*
X23706500Y-20695000D02*
X23706500Y-20923500D01*
X24173500Y-19523500D02*
X24173500Y-19295000D01*
X24026500Y-19523500D02*
X24173500Y-19523500D01*
X24026500Y-19295000D02*
X24026500Y-19523500D01*
X23973500Y-19523500D02*
X23973500Y-19295000D01*
X23826500Y-19523500D02*
X23973500Y-19523500D01*
X23826500Y-19295000D02*
X23826500Y-19523500D01*
D11*
X18855000Y-18050000D02*
G75*
G03X18855000Y-18050000I-80000J0D01*
G01*
X18915000Y-17870000D02*
X18955000Y-17910000D01*
X18955000Y-18230000D02*
X18955000Y-17910000D01*
X18915000Y-18230000D02*
X18955000Y-18230000D01*
X18735000Y-18230000D02*
X18815000Y-18230000D01*
X18735000Y-17870000D02*
X18815000Y-17870000D01*
X18595000Y-17870000D02*
X18635000Y-17870000D01*
X18595000Y-18230000D02*
X18595000Y-17870000D01*
X18635000Y-18230000D02*
X18595000Y-18230000D01*
X18255000Y-18050000D02*
G75*
G03X18255000Y-18050000I-80000J0D01*
G01*
X18315000Y-17870000D02*
X18355000Y-17910000D01*
X18355000Y-18230000D02*
X18355000Y-17910000D01*
X18315000Y-18230000D02*
X18355000Y-18230000D01*
X18135000Y-18230000D02*
X18215000Y-18230000D01*
X18135000Y-17870000D02*
X18215000Y-17870000D01*
X17995000Y-17870000D02*
X18035000Y-17870000D01*
X17995000Y-18230000D02*
X17995000Y-17870000D01*
X18035000Y-18230000D02*
X17995000Y-18230000D01*
D10*
X20225000Y-22250000D02*
G75*
G02X20200000Y-22225000I0J25000D01*
G01*
X20000000Y-22175000D02*
G75*
G02X20025000Y-22150000I25000J0D01*
G01*
X20175000Y-22150000D02*
G75*
G02X20200000Y-22175000I0J-25000D01*
G01*
X20000000Y-22225000D02*
G75*
G02X19975000Y-22250000I-25000J0D01*
G01*
X19500000Y-22225000D02*
G75*
G02X19475000Y-22250000I-25000J0D01*
G01*
X19500000Y-22175000D02*
G75*
G02X19525000Y-22150000I25000J0D01*
G01*
X19675000Y-22150000D02*
G75*
G02X19700000Y-22175000I0J-25000D01*
G01*
X19725000Y-22250000D02*
G75*
G02X19700000Y-22225000I0J25000D01*
G01*
X20225000Y-22250000D02*
X20350000Y-22250000D01*
X19725000Y-22250000D02*
X19975000Y-22250000D01*
X20200000Y-22175000D02*
X20200000Y-22225000D01*
X20025000Y-22150000D02*
X20175000Y-22150000D01*
X20000000Y-22225000D02*
X20000000Y-22175000D01*
X19700000Y-22175000D02*
X19700000Y-22225000D01*
X19525000Y-22150000D02*
X19675000Y-22150000D01*
X19500000Y-22225000D02*
X19500000Y-22175000D01*
X20350000Y-22250000D02*
X20350000Y-21295000D01*
X19350000Y-21295000D02*
X19350000Y-22250000D01*
X19350000Y-22250000D02*
X19475000Y-22250000D01*
X19350000Y-21295000D02*
X20350000Y-21295000D01*
X21275000Y-22250000D02*
G75*
G02X21250000Y-22225000I0J25000D01*
G01*
X21050000Y-22175000D02*
G75*
G02X21075000Y-22150000I25000J0D01*
G01*
X21225000Y-22150000D02*
G75*
G02X21250000Y-22175000I0J-25000D01*
G01*
X21050000Y-22225000D02*
G75*
G02X21025000Y-22250000I-25000J0D01*
G01*
X20550000Y-22225000D02*
G75*
G02X20525000Y-22250000I-25000J0D01*
G01*
X20550000Y-22175000D02*
G75*
G02X20575000Y-22150000I25000J0D01*
G01*
X20725000Y-22150000D02*
G75*
G02X20750000Y-22175000I0J-25000D01*
G01*
X20775000Y-22250000D02*
G75*
G02X20750000Y-22225000I0J25000D01*
G01*
X21275000Y-22250000D02*
X21400000Y-22250000D01*
X20775000Y-22250000D02*
X21025000Y-22250000D01*
X21250000Y-22175000D02*
X21250000Y-22225000D01*
X21075000Y-22150000D02*
X21225000Y-22150000D01*
X21050000Y-22225000D02*
X21050000Y-22175000D01*
X20750000Y-22175000D02*
X20750000Y-22225000D01*
X20575000Y-22150000D02*
X20725000Y-22150000D01*
X20550000Y-22225000D02*
X20550000Y-22175000D01*
X21400000Y-22250000D02*
X21400000Y-21295000D01*
X20400000Y-21295000D02*
X20400000Y-22250000D01*
X20400000Y-22250000D02*
X20525000Y-22250000D01*
X20400000Y-21295000D02*
X21400000Y-21295000D01*
X22350000Y-22250000D02*
G75*
G02X22325000Y-22225000I0J25000D01*
G01*
X22125000Y-22175000D02*
G75*
G02X22150000Y-22150000I25000J0D01*
G01*
X22300000Y-22150000D02*
G75*
G02X22325000Y-22175000I0J-25000D01*
G01*
X22125000Y-22225000D02*
G75*
G02X22100000Y-22250000I-25000J0D01*
G01*
X21625000Y-22225000D02*
G75*
G02X21600000Y-22250000I-25000J0D01*
G01*
X21625000Y-22175000D02*
G75*
G02X21650000Y-22150000I25000J0D01*
G01*
X21800000Y-22150000D02*
G75*
G02X21825000Y-22175000I0J-25000D01*
G01*
X21850000Y-22250000D02*
G75*
G02X21825000Y-22225000I0J25000D01*
G01*
X22350000Y-22250000D02*
X22475000Y-22250000D01*
X21850000Y-22250000D02*
X22100000Y-22250000D01*
X22325000Y-22175000D02*
X22325000Y-22225000D01*
X22150000Y-22150000D02*
X22300000Y-22150000D01*
X22125000Y-22225000D02*
X22125000Y-22175000D01*
X21825000Y-22175000D02*
X21825000Y-22225000D01*
X21650000Y-22150000D02*
X21800000Y-22150000D01*
X21625000Y-22225000D02*
X21625000Y-22175000D01*
X22475000Y-22250000D02*
X22475000Y-21295000D01*
X21475000Y-21295000D02*
X21475000Y-22250000D01*
X21475000Y-22250000D02*
X21600000Y-22250000D01*
X21475000Y-21295000D02*
X22475000Y-21295000D01*
D18*
X18592000Y-21442000D02*
X18725000Y-21442000D01*
X18592000Y-21575000D02*
X18592000Y-21442000D01*
X18852000Y-21442000D02*
X19112000Y-21442000D01*
X18852000Y-21702000D02*
X18852000Y-21442000D01*
X18592000Y-21702000D02*
X18852000Y-21702000D01*
X19112000Y-21442000D02*
X19112000Y-22216000D01*
X18592000Y-21702000D02*
X18592000Y-22216000D01*
X18592000Y-22216000D02*
X19112000Y-22216000D01*
X21161000Y-16289000D02*
X21036000Y-16289000D01*
X21161000Y-16414000D02*
X21161000Y-16289000D01*
X20720000Y-17025000D02*
X20770000Y-17025000D01*
X20770000Y-17035000D02*
X20720000Y-17035000D01*
X20770000Y-17015000D02*
X20770000Y-17035000D01*
X20720000Y-17015000D02*
X20770000Y-17015000D01*
X20720000Y-16825000D02*
X20770000Y-16825000D01*
X20770000Y-16835000D02*
X20720000Y-16835000D01*
X20770000Y-16815000D02*
X20770000Y-16835000D01*
X20720000Y-16815000D02*
X20770000Y-16815000D01*
X20720000Y-16625000D02*
X20770000Y-16625000D01*
X20770000Y-16635000D02*
X20720000Y-16635000D01*
X20770000Y-16615000D02*
X20770000Y-16635000D01*
X20720000Y-16615000D02*
X20770000Y-16615000D01*
X20870000Y-17331000D02*
X20870000Y-17270000D01*
X21000000Y-17331000D02*
X21000000Y-17270000D01*
X20870000Y-16319000D02*
X20870000Y-16380000D01*
X21000000Y-16319000D02*
X21000000Y-16380000D01*
X21070000Y-17075000D02*
X21131000Y-17075000D01*
X21070000Y-17270000D02*
X21070000Y-17075000D01*
X20720000Y-17270000D02*
X21070000Y-17270000D01*
X20720000Y-16380000D02*
X20720000Y-17270000D01*
X21070000Y-16380000D02*
X20720000Y-16380000D01*
X21070000Y-16575000D02*
X21070000Y-16380000D01*
X21131000Y-16575000D02*
X21070000Y-16575000D01*
X21141000Y-16495000D02*
X21141000Y-16465000D01*
X21151000Y-16465000D02*
X21131000Y-16465000D01*
X21151000Y-16495000D02*
X21151000Y-16465000D01*
X21131000Y-16495000D02*
X21151000Y-16495000D01*
X21131000Y-17331000D02*
X21131000Y-16319000D01*
X20659000Y-17331000D02*
X21131000Y-17331000D01*
X20659000Y-16319000D02*
X20659000Y-17331000D01*
X21131000Y-16319000D02*
X20659000Y-16319000D01*
X21911000Y-16289000D02*
X21786000Y-16289000D01*
X21911000Y-16414000D02*
X21911000Y-16289000D01*
X21470000Y-17025000D02*
X21520000Y-17025000D01*
X21520000Y-17035000D02*
X21470000Y-17035000D01*
X21520000Y-17015000D02*
X21520000Y-17035000D01*
X21470000Y-17015000D02*
X21520000Y-17015000D01*
X21470000Y-16825000D02*
X21520000Y-16825000D01*
X21520000Y-16835000D02*
X21470000Y-16835000D01*
X21520000Y-16815000D02*
X21520000Y-16835000D01*
X21470000Y-16815000D02*
X21520000Y-16815000D01*
X21470000Y-16625000D02*
X21520000Y-16625000D01*
X21520000Y-16635000D02*
X21470000Y-16635000D01*
X21520000Y-16615000D02*
X21520000Y-16635000D01*
X21470000Y-16615000D02*
X21520000Y-16615000D01*
X21620000Y-17331000D02*
X21620000Y-17270000D01*
X21750000Y-17331000D02*
X21750000Y-17270000D01*
X21620000Y-16319000D02*
X21620000Y-16380000D01*
X21750000Y-16319000D02*
X21750000Y-16380000D01*
X21820000Y-17075000D02*
X21881000Y-17075000D01*
X21820000Y-17270000D02*
X21820000Y-17075000D01*
X21470000Y-17270000D02*
X21820000Y-17270000D01*
X21470000Y-16380000D02*
X21470000Y-17270000D01*
X21820000Y-16380000D02*
X21470000Y-16380000D01*
X21820000Y-16575000D02*
X21820000Y-16380000D01*
X21881000Y-16575000D02*
X21820000Y-16575000D01*
X21891000Y-16495000D02*
X21891000Y-16465000D01*
X21901000Y-16465000D02*
X21881000Y-16465000D01*
X21901000Y-16495000D02*
X21901000Y-16465000D01*
X21881000Y-16495000D02*
X21901000Y-16495000D01*
X21881000Y-17331000D02*
X21881000Y-16319000D01*
X21409000Y-17331000D02*
X21881000Y-17331000D01*
X21409000Y-16319000D02*
X21409000Y-17331000D01*
X21881000Y-16319000D02*
X21409000Y-16319000D01*
X22661000Y-16289000D02*
X22536000Y-16289000D01*
X22661000Y-16414000D02*
X22661000Y-16289000D01*
X22220000Y-17025000D02*
X22270000Y-17025000D01*
X22270000Y-17035000D02*
X22220000Y-17035000D01*
X22270000Y-17015000D02*
X22270000Y-17035000D01*
X22220000Y-17015000D02*
X22270000Y-17015000D01*
X22220000Y-16825000D02*
X22270000Y-16825000D01*
X22270000Y-16835000D02*
X22220000Y-16835000D01*
X22270000Y-16815000D02*
X22270000Y-16835000D01*
X22220000Y-16815000D02*
X22270000Y-16815000D01*
X22220000Y-16625000D02*
X22270000Y-16625000D01*
X22270000Y-16635000D02*
X22220000Y-16635000D01*
X22270000Y-16615000D02*
X22270000Y-16635000D01*
X22220000Y-16615000D02*
X22270000Y-16615000D01*
X22370000Y-17331000D02*
X22370000Y-17270000D01*
X22500000Y-17331000D02*
X22500000Y-17270000D01*
X22370000Y-16319000D02*
X22370000Y-16380000D01*
X22500000Y-16319000D02*
X22500000Y-16380000D01*
X22570000Y-17075000D02*
X22631000Y-17075000D01*
X22570000Y-17270000D02*
X22570000Y-17075000D01*
X22220000Y-17270000D02*
X22570000Y-17270000D01*
X22220000Y-16380000D02*
X22220000Y-17270000D01*
X22570000Y-16380000D02*
X22220000Y-16380000D01*
X22570000Y-16575000D02*
X22570000Y-16380000D01*
X22631000Y-16575000D02*
X22570000Y-16575000D01*
X22641000Y-16495000D02*
X22641000Y-16465000D01*
X22651000Y-16465000D02*
X22631000Y-16465000D01*
X22651000Y-16495000D02*
X22651000Y-16465000D01*
X22631000Y-16495000D02*
X22651000Y-16495000D01*
X22631000Y-17331000D02*
X22631000Y-16319000D01*
X22159000Y-17331000D02*
X22631000Y-17331000D01*
X22159000Y-16319000D02*
X22159000Y-17331000D01*
X22631000Y-16319000D02*
X22159000Y-16319000D01*
X23411000Y-16289000D02*
X23286000Y-16289000D01*
X23411000Y-16414000D02*
X23411000Y-16289000D01*
X22970000Y-17025000D02*
X23020000Y-17025000D01*
X23020000Y-17035000D02*
X22970000Y-17035000D01*
X23020000Y-17015000D02*
X23020000Y-17035000D01*
X22970000Y-17015000D02*
X23020000Y-17015000D01*
X22970000Y-16825000D02*
X23020000Y-16825000D01*
X23020000Y-16835000D02*
X22970000Y-16835000D01*
X23020000Y-16815000D02*
X23020000Y-16835000D01*
X22970000Y-16815000D02*
X23020000Y-16815000D01*
X22970000Y-16625000D02*
X23020000Y-16625000D01*
X23020000Y-16635000D02*
X22970000Y-16635000D01*
X23020000Y-16615000D02*
X23020000Y-16635000D01*
X22970000Y-16615000D02*
X23020000Y-16615000D01*
X23120000Y-17331000D02*
X23120000Y-17270000D01*
X23250000Y-17331000D02*
X23250000Y-17270000D01*
X23120000Y-16319000D02*
X23120000Y-16380000D01*
X23250000Y-16319000D02*
X23250000Y-16380000D01*
X23320000Y-17075000D02*
X23381000Y-17075000D01*
X23320000Y-17270000D02*
X23320000Y-17075000D01*
X22970000Y-17270000D02*
X23320000Y-17270000D01*
X22970000Y-16380000D02*
X22970000Y-17270000D01*
X23320000Y-16380000D02*
X22970000Y-16380000D01*
X23320000Y-16575000D02*
X23320000Y-16380000D01*
X23381000Y-16575000D02*
X23320000Y-16575000D01*
X23391000Y-16495000D02*
X23391000Y-16465000D01*
X23401000Y-16465000D02*
X23381000Y-16465000D01*
X23401000Y-16495000D02*
X23401000Y-16465000D01*
X23381000Y-16495000D02*
X23401000Y-16495000D01*
X23381000Y-17331000D02*
X23381000Y-16319000D01*
X22909000Y-17331000D02*
X23381000Y-17331000D01*
X22909000Y-16319000D02*
X22909000Y-17331000D01*
X23381000Y-16319000D02*
X22909000Y-16319000D01*
X24161000Y-16289000D02*
X24036000Y-16289000D01*
X24161000Y-16414000D02*
X24161000Y-16289000D01*
X23720000Y-17025000D02*
X23770000Y-17025000D01*
X23770000Y-17035000D02*
X23720000Y-17035000D01*
X23770000Y-17015000D02*
X23770000Y-17035000D01*
X23720000Y-17015000D02*
X23770000Y-17015000D01*
X23720000Y-16825000D02*
X23770000Y-16825000D01*
X23770000Y-16835000D02*
X23720000Y-16835000D01*
X23770000Y-16815000D02*
X23770000Y-16835000D01*
X23720000Y-16815000D02*
X23770000Y-16815000D01*
X23720000Y-16625000D02*
X23770000Y-16625000D01*
X23770000Y-16635000D02*
X23720000Y-16635000D01*
X23770000Y-16615000D02*
X23770000Y-16635000D01*
X23720000Y-16615000D02*
X23770000Y-16615000D01*
X23870000Y-17331000D02*
X23870000Y-17270000D01*
X24000000Y-17331000D02*
X24000000Y-17270000D01*
X23870000Y-16319000D02*
X23870000Y-16380000D01*
X24000000Y-16319000D02*
X24000000Y-16380000D01*
X24070000Y-17075000D02*
X24131000Y-17075000D01*
X24070000Y-17270000D02*
X24070000Y-17075000D01*
X23720000Y-17270000D02*
X24070000Y-17270000D01*
X23720000Y-16380000D02*
X23720000Y-17270000D01*
X24070000Y-16380000D02*
X23720000Y-16380000D01*
X24070000Y-16575000D02*
X24070000Y-16380000D01*
X24131000Y-16575000D02*
X24070000Y-16575000D01*
X24141000Y-16495000D02*
X24141000Y-16465000D01*
X24151000Y-16465000D02*
X24131000Y-16465000D01*
X24151000Y-16495000D02*
X24151000Y-16465000D01*
X24131000Y-16495000D02*
X24151000Y-16495000D01*
X24131000Y-17331000D02*
X24131000Y-16319000D01*
X23659000Y-17331000D02*
X24131000Y-17331000D01*
X23659000Y-16319000D02*
X23659000Y-17331000D01*
X24131000Y-16319000D02*
X23659000Y-16319000D01*
X22588000Y-19576000D02*
X22475000Y-19576000D01*
X22588000Y-19500000D02*
X22588000Y-19576000D01*
X22317247Y-19569500D02*
X22235000Y-19569500D01*
X22399000Y-19569500D02*
X22378753Y-19569500D01*
X22399000Y-19556347D02*
X22399000Y-19569500D01*
X22399000Y-19429347D02*
X22399000Y-19443653D01*
X22418653Y-19424000D02*
X22404347Y-19424000D01*
X22588000Y-19424000D02*
X22531347Y-19424000D01*
X22235000Y-19569500D02*
X22235000Y-18922500D01*
X22588000Y-19424000D02*
X22588000Y-18922500D01*
X22444247Y-18922500D02*
X22378753Y-18922500D01*
X22317247Y-18922500D02*
X22235000Y-18922500D01*
X22588000Y-18922500D02*
X22505753Y-18922500D01*
X17067000Y-17267000D02*
X17200000Y-17267000D01*
X17067000Y-17400000D02*
X17067000Y-17267000D01*
X17067000Y-17527000D02*
X17333000Y-17527000D01*
X17333000Y-17527000D02*
X17333000Y-18041000D01*
X17067000Y-17527000D02*
X17067000Y-18041000D01*
X17067000Y-18041000D02*
X17333000Y-18041000D01*
X22515000Y-20785000D02*
X22775000Y-20785000D01*
X22515000Y-22255000D02*
X22515000Y-20785000D01*
X23435000Y-20785000D02*
X23435000Y-20975000D01*
X23165000Y-20785000D02*
X23435000Y-20785000D01*
X23435000Y-22255000D02*
X22515000Y-22255000D01*
X23435000Y-21375000D02*
X23435000Y-22255000D01*
X22495000Y-20870000D02*
X22495000Y-20765000D01*
X22600000Y-20765000D02*
X22495000Y-20765000D01*
X21974142Y-19346000D02*
X22025858Y-19346000D01*
X21974142Y-19204000D02*
X22025858Y-19204000D01*
X24190000Y-20085000D02*
X24110000Y-20085000D01*
X24190000Y-20245000D02*
X24110000Y-20245000D01*
X23485000Y-20555000D02*
G75*
G02X23455000Y-20585000I-30000J0D01*
G01*
X23455000Y-20065000D02*
G75*
G02X23485000Y-20095000I0J-30000D01*
G01*
X22995000Y-20585000D02*
G75*
G02X22965000Y-20555000I0J30000D01*
G01*
X22965000Y-20095000D02*
G75*
G02X22995000Y-20065000I30000J0D01*
G01*
X23455000Y-20065000D02*
X23375000Y-20065000D01*
X23075000Y-20065000D02*
X22995000Y-20065000D01*
X23075000Y-20585000D02*
X22995000Y-20585000D01*
X23455000Y-20585000D02*
X23375000Y-20585000D01*
X23485000Y-20555000D02*
X23485000Y-20095000D01*
X22965000Y-20555000D02*
X22965000Y-20095000D01*
X22047500Y-17718000D02*
G75*
G03X22047500Y-17718000I-22500J0D01*
G01*
D19*
X21895000Y-17943000D02*
G75*
G02X21885000Y-17933000I0J10000D01*
G01*
X22165000Y-17933000D02*
G75*
G02X22155000Y-17943000I-10000J0D01*
G01*
X22155000Y-17603000D02*
G75*
G02X22165000Y-17613000I0J-10000D01*
G01*
X22165000Y-17613000D02*
X22165000Y-17933000D01*
X21885000Y-17653000D02*
X21885000Y-17933000D01*
X21935000Y-17603000D02*
X22155000Y-17603000D01*
X21895000Y-17943000D02*
X22155000Y-17943000D01*
D18*
X24376000Y-19998000D02*
X24230000Y-19998000D01*
X24376000Y-19682000D02*
X24160000Y-19682000D01*
X24376000Y-19682000D02*
X24376000Y-19775000D01*
X24376000Y-19998000D02*
X24376000Y-19905000D01*
X19299000Y-18033722D02*
X19299000Y-18066278D01*
X19401000Y-18033722D02*
X19401000Y-18066278D01*
X24783722Y-20126000D02*
X24816278Y-20126000D01*
X24783722Y-20024000D02*
X24816278Y-20024000D01*
X23591278Y-19574000D02*
X23558722Y-19574000D01*
X23591278Y-19676000D02*
X23558722Y-19676000D01*
X23558722Y-19526000D02*
X23591278Y-19526000D01*
X23558722Y-19424000D02*
X23591278Y-19424000D01*
X23599000Y-19833722D02*
X23599000Y-19866278D01*
X23701000Y-19833722D02*
X23701000Y-19866278D01*
X22908722Y-19951000D02*
X22941278Y-19951000D01*
X22908722Y-19849000D02*
X22941278Y-19849000D01*
X23208722Y-19951000D02*
X23241278Y-19951000D01*
X23208722Y-19849000D02*
X23241278Y-19849000D01*
X22641278Y-19849000D02*
X22608722Y-19849000D01*
X22641278Y-19951000D02*
X22608722Y-19951000D01*
X19933722Y-18751000D02*
X19966278Y-18751000D01*
X19933722Y-18649000D02*
X19966278Y-18649000D01*
X22516278Y-19649000D02*
X22483722Y-19649000D01*
X22516278Y-19751000D02*
X22483722Y-19751000D01*
X24599000Y-21183722D02*
X24599000Y-21216278D01*
X24701000Y-21183722D02*
X24701000Y-21216278D01*
X24281000Y-20491278D02*
X24281000Y-20458722D01*
X24179000Y-20491278D02*
X24179000Y-20458722D01*
X24179000Y-20758722D02*
X24179000Y-20791278D01*
X24281000Y-20758722D02*
X24281000Y-20791278D01*
X24329000Y-20758722D02*
X24329000Y-20791278D01*
X24431000Y-20758722D02*
X24431000Y-20791278D01*
X23879000Y-20458722D02*
X23879000Y-20491278D01*
X23981000Y-20458722D02*
X23981000Y-20491278D01*
X24591000Y-20791278D02*
X24591000Y-20758722D01*
X24489000Y-20791278D02*
X24489000Y-20758722D01*
X23579000Y-20458722D02*
X23579000Y-20491278D01*
X23681000Y-20458722D02*
X23681000Y-20491278D01*
X24029000Y-20458722D02*
X24029000Y-20491278D01*
X24131000Y-20458722D02*
X24131000Y-20491278D01*
X23729000Y-20458722D02*
X23729000Y-20491278D01*
X23831000Y-20458722D02*
X23831000Y-20491278D01*
X24131000Y-20791278D02*
X24131000Y-20758722D01*
X24029000Y-20791278D02*
X24029000Y-20758722D01*
X24066278Y-17924000D02*
X24033722Y-17924000D01*
X24066278Y-18026000D02*
X24033722Y-18026000D01*
X18276000Y-20616278D02*
X18276000Y-20583722D01*
X18174000Y-20616278D02*
X18174000Y-20583722D01*
X22101000Y-20916278D02*
X22101000Y-20883722D01*
X21999000Y-20916278D02*
X21999000Y-20883722D01*
X22149000Y-20883722D02*
X22149000Y-20916278D01*
X22251000Y-20883722D02*
X22251000Y-20916278D01*
X20699000Y-17756722D02*
X20699000Y-17789278D01*
X20801000Y-17756722D02*
X20801000Y-17789278D01*
X20951000Y-17789278D02*
X20951000Y-17756722D01*
X20849000Y-17789278D02*
X20849000Y-17756722D01*
X21599000Y-17756722D02*
X21599000Y-17789278D01*
X21701000Y-17756722D02*
X21701000Y-17789278D01*
X21551000Y-17789278D02*
X21551000Y-17756722D01*
X21449000Y-17789278D02*
X21449000Y-17756722D01*
X23591278Y-19274000D02*
X23558722Y-19274000D01*
X23591278Y-19376000D02*
X23558722Y-19376000D01*
X23591278Y-19124000D02*
X23558722Y-19124000D01*
X23591278Y-19226000D02*
X23558722Y-19226000D01*
X22895000Y-18960000D02*
X23155000Y-18960000D01*
X23370000Y-19590000D02*
X23345000Y-19590000D01*
X23370000Y-18960000D02*
X23370000Y-19590000D01*
X23345000Y-18960000D02*
X23370000Y-18960000D01*
X23155000Y-19590000D02*
X22895000Y-19590000D01*
X22680000Y-18960000D02*
X22705000Y-18960000D01*
X22680000Y-19590000D02*
X22680000Y-18960000D01*
X22705000Y-19590000D02*
X22680000Y-19590000D01*
D19*
X24205000Y-18445000D02*
X24100000Y-18445000D01*
X24705000Y-18445000D02*
X24345000Y-18445000D01*
X24455000Y-18805000D02*
X24100000Y-18805000D01*
X24355000Y-18705000D02*
X24465000Y-18705000D01*
X24355000Y-18545000D02*
X24355000Y-18705000D01*
X24695000Y-18545000D02*
X24355000Y-18545000D01*
X24695000Y-18705000D02*
X24695000Y-18545000D01*
X24585000Y-18705000D02*
X24695000Y-18705000D01*
X24950000Y-18445000D02*
X24950000Y-18805000D01*
X24845000Y-18445000D02*
X24950000Y-18445000D01*
X24100000Y-18805000D02*
X24100000Y-18445000D01*
X24950000Y-18805000D02*
X24595000Y-18805000D01*
D18*
X18790000Y-17295000D02*
X18790000Y-17555000D01*
X18160000Y-17770000D02*
X18160000Y-17745000D01*
X18790000Y-17770000D02*
X18160000Y-17770000D01*
X18790000Y-17745000D02*
X18790000Y-17770000D01*
X18160000Y-17555000D02*
X18160000Y-17295000D01*
X18790000Y-17080000D02*
X18790000Y-17105000D01*
X18160000Y-17080000D02*
X18790000Y-17080000D01*
X18160000Y-17105000D02*
X18160000Y-17080000D01*
X18790000Y-16520000D02*
X18790000Y-16780000D01*
X18160000Y-16995000D02*
X18160000Y-16970000D01*
X18790000Y-16995000D02*
X18160000Y-16995000D01*
X18790000Y-16970000D02*
X18790000Y-16995000D01*
X18160000Y-16780000D02*
X18160000Y-16520000D01*
X18790000Y-16305000D02*
X18790000Y-16330000D01*
X18160000Y-16305000D02*
X18790000Y-16305000D01*
X18160000Y-16330000D02*
X18160000Y-16305000D01*
X17630500Y-20187000D02*
X17630500Y-20225000D01*
X16988500Y-20187000D02*
X17630500Y-20187000D01*
X16988500Y-18363000D02*
X17630500Y-18363000D01*
X16988500Y-20187000D02*
X16988500Y-18363000D01*
X19563000Y-18363000D02*
X19563000Y-18463000D01*
X19485000Y-18363000D02*
X19563000Y-18363000D01*
X19563000Y-20187000D02*
X19563000Y-20087000D01*
X19485000Y-20187000D02*
X19563000Y-20187000D01*
X21441000Y-18764000D02*
X21441000Y-18635000D01*
X21536000Y-18764000D02*
X21441000Y-18764000D01*
X21536000Y-18859000D02*
X21536000Y-18764000D01*
X21536000Y-19786000D02*
X21441000Y-19786000D01*
X21536000Y-19691000D02*
X21536000Y-19786000D01*
X20514000Y-18764000D02*
X20609000Y-18764000D01*
X20514000Y-18859000D02*
X20514000Y-18764000D01*
X20514000Y-19786000D02*
X20609000Y-19786000D01*
X20514000Y-19691000D02*
X20514000Y-19786000D01*
X24015000Y-19689000D02*
X23770000Y-19689000D01*
X23835000Y-20011000D02*
X24015000Y-20011000D01*
X18686000Y-20636500D02*
X18686000Y-20589000D01*
X18364000Y-20911000D02*
X18411500Y-20911000D01*
X18364000Y-20863500D02*
X18364000Y-20911000D01*
X18364000Y-20589000D02*
X18411500Y-20589000D01*
X18364000Y-20636500D02*
X18364000Y-20589000D01*
X18686000Y-20911000D02*
X18638500Y-20911000D01*
X18686000Y-20863500D02*
X18686000Y-20911000D01*
X20163359Y-20965359D02*
X20163359Y-21035359D01*
X20585359Y-20613359D02*
X20515359Y-20613359D01*
X20585359Y-20683359D02*
X20585359Y-20613359D01*
X20585359Y-21035359D02*
X20515359Y-21035359D01*
X20585359Y-20965359D02*
X20585359Y-21035359D01*
X20163359Y-20613359D02*
X20233359Y-20613359D01*
X20163359Y-20683359D02*
X20163359Y-20613359D01*
D11*
X24770000Y-17440000D02*
X24770000Y-17660000D01*
X24430000Y-17402500D02*
X24430000Y-17697500D01*
D18*
X24511000Y-21061500D02*
X24511000Y-20989000D01*
X24089000Y-21411000D02*
X24161500Y-21411000D01*
X24089000Y-21338500D02*
X24089000Y-21411000D01*
X24089000Y-20989000D02*
X24161500Y-20989000D01*
X24089000Y-21061500D02*
X24089000Y-20989000D01*
X24511000Y-21411000D02*
X24438500Y-21411000D01*
X24511000Y-21338500D02*
X24511000Y-21411000D01*
D11*
X23310000Y-17535000D02*
X23310000Y-17587500D01*
X23740000Y-17535000D02*
X23740000Y-17587500D01*
X23740000Y-17965000D02*
X23740000Y-17912500D01*
X23310000Y-17965000D02*
X23310000Y-17912500D01*
X23740000Y-17535000D02*
X23687500Y-17535000D01*
X23740000Y-17965000D02*
X23687500Y-17965000D01*
X23310000Y-17535000D02*
X23362500Y-17535000D01*
D18*
X21640000Y-21010000D02*
X21640000Y-20730000D01*
X21640000Y-20730000D02*
X21960000Y-20730000D01*
X21960000Y-20730000D02*
X21960000Y-21050000D01*
X21960000Y-21050000D02*
X21680000Y-21050000D01*
X21640000Y-21010000D02*
X21680000Y-21050000D01*
X21391000Y-17843000D02*
X21391000Y-17703000D01*
X21159000Y-17703000D02*
X21159000Y-17893000D01*
X21645000Y-18480000D02*
X21645000Y-18720000D01*
X21805000Y-18480000D02*
X21645000Y-18480000D01*
X21805000Y-18720000D02*
X21805000Y-18480000D01*
X17912000Y-21225000D02*
X17750000Y-21387000D01*
X17912000Y-21225000D02*
X17912000Y-20750000D01*
X17675000Y-20513000D02*
X17275000Y-20513000D01*
X17038000Y-20750000D02*
X17038000Y-21150000D01*
X17275000Y-21387000D02*
X17750000Y-21387000D01*
X18126000Y-20616278D02*
X18126000Y-20583722D01*
X18024000Y-20616278D02*
X18024000Y-20583722D01*
X24675000Y-18925000D02*
X24725000Y-18925000D01*
X24675000Y-19625000D02*
X24725000Y-19625000D01*
X24495000Y-18925000D02*
X24495000Y-19075000D01*
X24495000Y-19625000D02*
X24495000Y-19475000D01*
X21983722Y-19876000D02*
X22016278Y-19876000D01*
X21983722Y-19774000D02*
X22016278Y-19774000D01*
X21983722Y-20026000D02*
X22016278Y-20026000D01*
X21983722Y-19924000D02*
X22016278Y-19924000D01*
X23551000Y-19866278D02*
X23551000Y-19833722D01*
X23449000Y-19866278D02*
X23449000Y-19833722D01*
X23475000Y-22175000D02*
X24175000Y-22175000D01*
X23475000Y-22265000D02*
X23475000Y-21585000D01*
X24175000Y-22265000D02*
X23475000Y-22265000D01*
X24175000Y-21585000D02*
X24175000Y-22265000D01*
X23475000Y-21585000D02*
X24175000Y-21585000D01*
X17800000Y-22150000D02*
X18500000Y-22150000D01*
X17800000Y-22240000D02*
X17800000Y-21560000D01*
X18500000Y-22240000D02*
X17800000Y-22240000D01*
X18500000Y-21560000D02*
X18500000Y-22240000D01*
X17800000Y-21560000D02*
X18500000Y-21560000D01*
X24948500Y-19851500D02*
X24720000Y-19851500D01*
X24948500Y-19998500D02*
X24948500Y-19851500D01*
X24720000Y-19998500D02*
X24948500Y-19998500D01*
X17926000Y-18066278D02*
X17926000Y-18033722D01*
X17824000Y-18066278D02*
X17824000Y-18033722D01*
X18526000Y-18066278D02*
X18526000Y-18033722D01*
X18424000Y-18066278D02*
X18424000Y-18033722D01*
X20196500Y-19000250D02*
X20196500Y-18835000D01*
X20224750Y-19000250D02*
X20196500Y-19000250D01*
X20224750Y-19275000D02*
X20224750Y-19000250D01*
X20224750Y-19549750D02*
X20196500Y-19549750D01*
X20224750Y-19275000D02*
X20224750Y-19549750D01*
X19675250Y-19000250D02*
X19703500Y-19000250D01*
X19675250Y-19275000D02*
X19675250Y-19000250D01*
X19675250Y-19549750D02*
X19703500Y-19549750D01*
X19675250Y-19275000D02*
X19675250Y-19549750D01*
X22301000Y-17756722D02*
X22301000Y-17789278D01*
X22199000Y-17756722D02*
X22199000Y-17789278D01*
X18826500Y-20495000D02*
X18826500Y-20723500D01*
X18826500Y-20723500D02*
X18973500Y-20723500D01*
X18973500Y-20723500D02*
X18973500Y-20495000D01*
X19248500Y-20723500D02*
X19248500Y-20495000D01*
X19101500Y-20723500D02*
X19248500Y-20723500D01*
X19101500Y-20495000D02*
X19101500Y-20723500D01*
X19376500Y-20495000D02*
X19376500Y-20723500D01*
X19376500Y-20723500D02*
X19523500Y-20723500D01*
X19523500Y-20723500D02*
X19523500Y-20495000D01*
X18951000Y-20858722D02*
X18951000Y-20891278D01*
X18849000Y-20858722D02*
X18849000Y-20891278D01*
X19124000Y-20858722D02*
X19124000Y-20891278D01*
X19226000Y-20858722D02*
X19226000Y-20891278D01*
X19501000Y-20858722D02*
X19501000Y-20891278D01*
X19399000Y-20858722D02*
X19399000Y-20891278D01*
X24816278Y-19826000D02*
X24783722Y-19826000D01*
X24816278Y-19724000D02*
X24783722Y-19724000D01*
X20393500Y-16752500D02*
X20393500Y-17382500D01*
X19106500Y-16822500D02*
X19106500Y-17382500D01*
X20393500Y-16381500D02*
X20393500Y-16562500D01*
X19106500Y-16381500D02*
X20232500Y-16381500D01*
X19106500Y-16497500D02*
X19106500Y-16381500D01*
X20382500Y-16381500D02*
X20393500Y-16381500D01*
M02*
