G04 #@! TF.GenerationSoftware,KiCad,Pcbnew,5.1.5-1.fc31*
G04 #@! TF.CreationDate,2020-06-03T18:37:50+07:00*
G04 #@! TF.ProjectId,MP_SamBaseBoard_V1,4d505f53-616d-4426-9173-65426f617264,rev?*
G04 #@! TF.SameCoordinates,Original*
G04 #@! TF.FileFunction,Soldermask,Bot*
G04 #@! TF.FilePolarity,Negative*
%FSLAX45Y45*%
G04 Gerber Fmt 4.5, Leading zero omitted, Abs format (unit mm)*
G04 Created by KiCad (PCBNEW 5.1.5-1.fc31) date 2020-06-03 18:37:50*
%MOMM*%
%LPD*%
G04 APERTURE LIST*
%ADD10C,0.100000*%
G04 APERTURE END LIST*
D10*
G36*
X18990351Y-21993393D02*
G01*
X19005281Y-21996362D01*
X19021678Y-22003154D01*
X19036435Y-22013015D01*
X19048985Y-22025565D01*
X19058846Y-22040322D01*
X19065638Y-22056719D01*
X19069100Y-22074126D01*
X19069100Y-22091874D01*
X19065638Y-22109281D01*
X19058846Y-22125678D01*
X19048985Y-22140435D01*
X19036435Y-22152985D01*
X19021678Y-22162846D01*
X19005281Y-22169638D01*
X18990351Y-22172607D01*
X18987874Y-22173100D01*
X18970126Y-22173100D01*
X18967649Y-22172607D01*
X18952719Y-22169638D01*
X18936322Y-22162846D01*
X18921565Y-22152985D01*
X18909015Y-22140435D01*
X18899154Y-22125678D01*
X18892362Y-22109281D01*
X18888900Y-22091874D01*
X18888900Y-22074126D01*
X18892362Y-22056719D01*
X18899154Y-22040322D01*
X18909015Y-22025565D01*
X18921565Y-22013015D01*
X18936322Y-22003154D01*
X18952719Y-21996362D01*
X18967649Y-21993393D01*
X18970126Y-21992900D01*
X18987874Y-21992900D01*
X18990351Y-21993393D01*
G37*
G36*
X18736351Y-21993393D02*
G01*
X18751281Y-21996362D01*
X18767678Y-22003154D01*
X18782435Y-22013015D01*
X18794985Y-22025565D01*
X18804846Y-22040322D01*
X18811638Y-22056719D01*
X18815100Y-22074126D01*
X18815100Y-22091874D01*
X18811638Y-22109281D01*
X18804846Y-22125678D01*
X18794985Y-22140435D01*
X18782435Y-22152985D01*
X18767678Y-22162846D01*
X18751281Y-22169638D01*
X18736351Y-22172607D01*
X18733874Y-22173100D01*
X18716126Y-22173100D01*
X18713649Y-22172607D01*
X18698719Y-22169638D01*
X18682322Y-22162846D01*
X18667565Y-22152985D01*
X18655015Y-22140435D01*
X18645154Y-22125678D01*
X18638362Y-22109281D01*
X18634900Y-22091874D01*
X18634900Y-22074126D01*
X18638362Y-22056719D01*
X18645154Y-22040322D01*
X18655015Y-22025565D01*
X18667565Y-22013015D01*
X18682322Y-22003154D01*
X18698719Y-21996362D01*
X18713649Y-21993393D01*
X18716126Y-21992900D01*
X18733874Y-21992900D01*
X18736351Y-21993393D01*
G37*
G36*
X24627533Y-21701821D02*
G01*
X24660309Y-21715397D01*
X24689807Y-21735107D01*
X24714893Y-21760193D01*
X24734603Y-21789691D01*
X24748179Y-21822467D01*
X24755100Y-21857262D01*
X24755100Y-21892738D01*
X24748179Y-21927533D01*
X24734603Y-21960309D01*
X24714893Y-21989807D01*
X24689807Y-22014893D01*
X24660309Y-22034603D01*
X24627533Y-22048179D01*
X24592738Y-22055100D01*
X24557262Y-22055100D01*
X24522467Y-22048179D01*
X24489691Y-22034603D01*
X24460193Y-22014893D01*
X24435107Y-21989807D01*
X24415397Y-21960309D01*
X24401821Y-21927533D01*
X24394900Y-21892738D01*
X24394900Y-21857262D01*
X24401821Y-21822467D01*
X24415397Y-21789691D01*
X24435107Y-21760193D01*
X24460193Y-21735107D01*
X24489691Y-21715397D01*
X24522467Y-21701821D01*
X24557262Y-21694900D01*
X24592738Y-21694900D01*
X24627533Y-21701821D01*
G37*
G36*
X17427533Y-21701821D02*
G01*
X17460309Y-21715397D01*
X17489807Y-21735107D01*
X17514893Y-21760193D01*
X17534603Y-21789691D01*
X17548179Y-21822467D01*
X17555100Y-21857262D01*
X17555100Y-21892738D01*
X17548179Y-21927533D01*
X17534603Y-21960309D01*
X17514893Y-21989807D01*
X17489807Y-22014893D01*
X17460309Y-22034603D01*
X17427533Y-22048179D01*
X17392738Y-22055100D01*
X17357262Y-22055100D01*
X17322467Y-22048179D01*
X17289691Y-22034603D01*
X17260193Y-22014893D01*
X17235107Y-21989807D01*
X17215397Y-21960309D01*
X17201821Y-21927533D01*
X17194900Y-21892738D01*
X17194900Y-21857262D01*
X17201821Y-21822467D01*
X17215397Y-21789691D01*
X17235107Y-21760193D01*
X17260193Y-21735107D01*
X17289691Y-21715397D01*
X17322467Y-21701821D01*
X17357262Y-21694900D01*
X17392738Y-21694900D01*
X17427533Y-21701821D01*
G37*
G36*
X23775100Y-22050100D02*
G01*
X23524900Y-22050100D01*
X23524900Y-21799900D01*
X23775100Y-21799900D01*
X23775100Y-22050100D01*
G37*
G36*
X24026492Y-21802719D02*
G01*
X24036490Y-21804708D01*
X24059257Y-21814138D01*
X24079747Y-21827829D01*
X24097171Y-21845253D01*
X24105195Y-21857262D01*
X24110862Y-21865743D01*
X24120292Y-21888510D01*
X24125100Y-21912679D01*
X24125100Y-21937321D01*
X24120737Y-21959257D01*
X24120292Y-21961490D01*
X24110862Y-21984257D01*
X24097171Y-22004747D01*
X24079747Y-22022172D01*
X24059257Y-22035862D01*
X24059257Y-22035862D01*
X24059257Y-22035862D01*
X24036490Y-22045293D01*
X24012321Y-22050100D01*
X23987679Y-22050100D01*
X23963510Y-22045293D01*
X23940743Y-22035862D01*
X23940743Y-22035862D01*
X23940743Y-22035862D01*
X23920253Y-22022172D01*
X23902828Y-22004747D01*
X23889138Y-21984257D01*
X23879707Y-21961490D01*
X23879263Y-21959257D01*
X23874900Y-21937321D01*
X23874900Y-21912679D01*
X23879707Y-21888510D01*
X23889138Y-21865743D01*
X23894805Y-21857262D01*
X23902828Y-21845253D01*
X23920253Y-21827829D01*
X23940743Y-21814138D01*
X23963510Y-21804708D01*
X23973508Y-21802719D01*
X23987679Y-21799900D01*
X24012321Y-21799900D01*
X24026492Y-21802719D01*
G37*
G36*
X18100100Y-22025100D02*
G01*
X17849900Y-22025100D01*
X17849900Y-21774900D01*
X18100100Y-21774900D01*
X18100100Y-22025100D01*
G37*
G36*
X18361490Y-21779708D02*
G01*
X18384033Y-21789045D01*
X18384257Y-21789138D01*
X18404747Y-21802829D01*
X18422172Y-21820253D01*
X18427233Y-21827829D01*
X18435862Y-21840743D01*
X18445293Y-21863510D01*
X18450100Y-21887679D01*
X18450100Y-21912321D01*
X18447074Y-21927533D01*
X18445293Y-21936490D01*
X18435862Y-21959257D01*
X18422172Y-21979747D01*
X18404747Y-21997172D01*
X18384257Y-22010862D01*
X18384257Y-22010862D01*
X18384257Y-22010862D01*
X18361490Y-22020293D01*
X18337321Y-22025100D01*
X18312679Y-22025100D01*
X18288510Y-22020293D01*
X18265743Y-22010862D01*
X18265743Y-22010862D01*
X18265743Y-22010862D01*
X18245253Y-21997172D01*
X18227829Y-21979747D01*
X18214138Y-21959257D01*
X18204708Y-21936490D01*
X18202926Y-21927533D01*
X18199900Y-21912321D01*
X18199900Y-21887679D01*
X18204708Y-21863510D01*
X18214138Y-21840743D01*
X18222767Y-21827829D01*
X18227829Y-21820253D01*
X18245253Y-21802829D01*
X18265743Y-21789138D01*
X18265967Y-21789045D01*
X18288510Y-21779708D01*
X18312679Y-21774900D01*
X18337321Y-21774900D01*
X18361490Y-21779708D01*
G37*
G36*
X18736351Y-21739393D02*
G01*
X18751281Y-21742362D01*
X18767678Y-21749154D01*
X18782435Y-21759015D01*
X18794985Y-21771565D01*
X18804846Y-21786322D01*
X18811638Y-21802719D01*
X18815100Y-21820126D01*
X18815100Y-21837874D01*
X18811638Y-21855281D01*
X18804846Y-21871678D01*
X18794985Y-21886435D01*
X18782435Y-21898985D01*
X18767678Y-21908846D01*
X18751281Y-21915638D01*
X18736351Y-21918607D01*
X18733874Y-21919100D01*
X18716126Y-21919100D01*
X18713649Y-21918607D01*
X18698719Y-21915638D01*
X18682322Y-21908846D01*
X18667565Y-21898985D01*
X18655015Y-21886435D01*
X18645154Y-21871678D01*
X18638362Y-21855281D01*
X18634900Y-21837874D01*
X18634900Y-21820126D01*
X18638362Y-21802719D01*
X18645154Y-21786322D01*
X18655015Y-21771565D01*
X18667565Y-21759015D01*
X18682322Y-21749154D01*
X18698719Y-21742362D01*
X18713649Y-21739393D01*
X18716126Y-21738900D01*
X18733874Y-21738900D01*
X18736351Y-21739393D01*
G37*
G36*
X18990351Y-21739393D02*
G01*
X19005281Y-21742362D01*
X19021678Y-21749154D01*
X19036435Y-21759015D01*
X19048985Y-21771565D01*
X19058846Y-21786322D01*
X19065638Y-21802719D01*
X19069100Y-21820126D01*
X19069100Y-21837874D01*
X19065638Y-21855281D01*
X19058846Y-21871678D01*
X19048985Y-21886435D01*
X19036435Y-21898985D01*
X19021678Y-21908846D01*
X19005281Y-21915638D01*
X18990351Y-21918607D01*
X18987874Y-21919100D01*
X18970126Y-21919100D01*
X18967649Y-21918607D01*
X18952719Y-21915638D01*
X18936322Y-21908846D01*
X18921565Y-21898985D01*
X18909015Y-21886435D01*
X18899154Y-21871678D01*
X18892362Y-21855281D01*
X18888900Y-21837874D01*
X18888900Y-21820126D01*
X18892362Y-21802719D01*
X18899154Y-21786322D01*
X18909015Y-21771565D01*
X18921565Y-21759015D01*
X18936322Y-21749154D01*
X18952719Y-21742362D01*
X18967649Y-21739393D01*
X18970126Y-21738900D01*
X18987874Y-21738900D01*
X18990351Y-21739393D01*
G37*
G36*
X20691595Y-21637880D02*
G01*
X20717546Y-21648629D01*
X20717546Y-21648630D01*
X20740902Y-21664235D01*
X20760765Y-21684098D01*
X20760765Y-21684098D01*
X20776371Y-21707454D01*
X20787120Y-21733405D01*
X20792600Y-21760955D01*
X20792600Y-21789045D01*
X20787120Y-21816595D01*
X20776371Y-21842546D01*
X20774562Y-21845254D01*
X20760765Y-21865902D01*
X20740902Y-21885765D01*
X20736794Y-21888510D01*
X20717546Y-21901371D01*
X20691595Y-21912120D01*
X20664045Y-21917600D01*
X20635955Y-21917600D01*
X20608405Y-21912120D01*
X20582454Y-21901371D01*
X20563206Y-21888510D01*
X20559098Y-21885765D01*
X20539235Y-21865902D01*
X20525438Y-21845254D01*
X20523629Y-21842546D01*
X20512880Y-21816595D01*
X20507400Y-21789045D01*
X20507400Y-21760955D01*
X20512880Y-21733405D01*
X20523629Y-21707454D01*
X20539235Y-21684098D01*
X20539235Y-21684098D01*
X20559098Y-21664235D01*
X20582454Y-21648630D01*
X20582454Y-21648629D01*
X20608405Y-21637880D01*
X20635955Y-21632400D01*
X20664045Y-21632400D01*
X20691595Y-21637880D01*
G37*
G36*
X19641595Y-21637880D02*
G01*
X19667546Y-21648629D01*
X19667546Y-21648630D01*
X19690902Y-21664235D01*
X19710765Y-21684098D01*
X19710765Y-21684098D01*
X19726371Y-21707454D01*
X19737120Y-21733405D01*
X19742600Y-21760955D01*
X19742600Y-21789045D01*
X19737120Y-21816595D01*
X19726371Y-21842546D01*
X19724562Y-21845254D01*
X19710765Y-21865902D01*
X19690902Y-21885765D01*
X19686794Y-21888510D01*
X19667546Y-21901371D01*
X19641595Y-21912120D01*
X19614045Y-21917600D01*
X19585955Y-21917600D01*
X19558405Y-21912120D01*
X19532454Y-21901371D01*
X19513206Y-21888510D01*
X19509098Y-21885765D01*
X19489235Y-21865902D01*
X19475438Y-21845254D01*
X19473629Y-21842546D01*
X19462880Y-21816595D01*
X19457400Y-21789045D01*
X19457400Y-21760955D01*
X19462880Y-21733405D01*
X19473629Y-21707454D01*
X19489235Y-21684098D01*
X19489235Y-21684098D01*
X19509098Y-21664235D01*
X19532454Y-21648630D01*
X19532454Y-21648629D01*
X19558405Y-21637880D01*
X19585955Y-21632400D01*
X19614045Y-21632400D01*
X19641595Y-21637880D01*
G37*
G36*
X20242600Y-21917600D02*
G01*
X19957400Y-21917600D01*
X19957400Y-21632400D01*
X20242600Y-21632400D01*
X20242600Y-21917600D01*
G37*
G36*
X22367600Y-21917600D02*
G01*
X22082400Y-21917600D01*
X22082400Y-21632400D01*
X22367600Y-21632400D01*
X22367600Y-21917600D01*
G37*
G36*
X21292600Y-21917600D02*
G01*
X21007400Y-21917600D01*
X21007400Y-21632400D01*
X21292600Y-21632400D01*
X21292600Y-21917600D01*
G37*
G36*
X21766595Y-21637880D02*
G01*
X21792546Y-21648629D01*
X21792546Y-21648630D01*
X21815902Y-21664235D01*
X21835765Y-21684098D01*
X21835765Y-21684098D01*
X21851371Y-21707454D01*
X21862120Y-21733405D01*
X21867600Y-21760955D01*
X21867600Y-21789045D01*
X21862120Y-21816595D01*
X21851371Y-21842546D01*
X21849562Y-21845254D01*
X21835765Y-21865902D01*
X21815902Y-21885765D01*
X21811794Y-21888510D01*
X21792546Y-21901371D01*
X21766595Y-21912120D01*
X21739045Y-21917600D01*
X21710955Y-21917600D01*
X21683405Y-21912120D01*
X21657454Y-21901371D01*
X21638206Y-21888510D01*
X21634098Y-21885765D01*
X21614235Y-21865902D01*
X21600438Y-21845254D01*
X21598629Y-21842546D01*
X21587880Y-21816595D01*
X21582400Y-21789045D01*
X21582400Y-21760955D01*
X21587880Y-21733405D01*
X21598629Y-21707454D01*
X21614235Y-21684098D01*
X21614235Y-21684098D01*
X21634098Y-21664235D01*
X21657454Y-21648630D01*
X21657454Y-21648629D01*
X21683405Y-21637880D01*
X21710955Y-21632400D01*
X21739045Y-21632400D01*
X21766595Y-21637880D01*
G37*
G36*
X18815100Y-21665100D02*
G01*
X18634900Y-21665100D01*
X18634900Y-21484900D01*
X18815100Y-21484900D01*
X18815100Y-21665100D01*
G37*
G36*
X18990351Y-21485393D02*
G01*
X19005281Y-21488362D01*
X19021678Y-21495154D01*
X19036435Y-21505015D01*
X19048985Y-21517565D01*
X19058846Y-21532322D01*
X19065638Y-21548719D01*
X19069100Y-21566126D01*
X19069100Y-21583874D01*
X19065638Y-21601281D01*
X19058846Y-21617678D01*
X19048985Y-21632435D01*
X19036435Y-21644985D01*
X19021678Y-21654846D01*
X19005281Y-21661638D01*
X18990351Y-21664607D01*
X18987874Y-21665100D01*
X18970126Y-21665100D01*
X18967649Y-21664607D01*
X18952719Y-21661638D01*
X18936322Y-21654846D01*
X18921565Y-21644985D01*
X18909015Y-21632435D01*
X18899154Y-21617678D01*
X18892362Y-21601281D01*
X18888900Y-21583874D01*
X18888900Y-21566126D01*
X18892362Y-21548719D01*
X18899154Y-21532322D01*
X18909015Y-21517565D01*
X18921565Y-21505015D01*
X18936322Y-21495154D01*
X18952719Y-21488362D01*
X18967649Y-21485393D01*
X18970126Y-21484900D01*
X18987874Y-21484900D01*
X18990351Y-21485393D01*
G37*
G36*
X23097698Y-21321329D02*
G01*
X23111062Y-21325383D01*
X23123378Y-21331966D01*
X23134174Y-21340826D01*
X23143034Y-21351622D01*
X23149617Y-21363938D01*
X23153671Y-21377302D01*
X23155100Y-21391814D01*
X23155100Y-21558186D01*
X23153671Y-21572698D01*
X23149617Y-21586063D01*
X23143034Y-21598378D01*
X23134174Y-21609174D01*
X23123378Y-21618034D01*
X23111062Y-21624617D01*
X23097698Y-21628671D01*
X23083186Y-21630100D01*
X22866814Y-21630100D01*
X22852302Y-21628671D01*
X22838937Y-21624617D01*
X22826622Y-21618034D01*
X22815826Y-21609174D01*
X22806966Y-21598378D01*
X22800383Y-21586063D01*
X22796329Y-21572698D01*
X22794900Y-21558186D01*
X22794900Y-21391814D01*
X22796329Y-21377302D01*
X22800383Y-21363938D01*
X22806966Y-21351622D01*
X22815826Y-21340826D01*
X22826622Y-21331966D01*
X22838937Y-21325383D01*
X22852302Y-21321329D01*
X22866814Y-21319900D01*
X23083186Y-21319900D01*
X23097698Y-21321329D01*
G37*
G36*
X23557637Y-20996570D02*
G01*
X23573346Y-21001335D01*
X23587823Y-21009073D01*
X23600513Y-21019487D01*
X23610927Y-21032177D01*
X23618665Y-21046654D01*
X23623430Y-21062363D01*
X23625100Y-21079314D01*
X23625100Y-21270686D01*
X23623430Y-21287637D01*
X23618665Y-21303346D01*
X23610927Y-21317823D01*
X23600513Y-21330513D01*
X23587823Y-21340927D01*
X23573346Y-21348665D01*
X23557637Y-21353431D01*
X23540686Y-21355100D01*
X23349314Y-21355100D01*
X23332363Y-21353431D01*
X23316654Y-21348665D01*
X23302177Y-21340927D01*
X23289487Y-21330513D01*
X23279073Y-21317823D01*
X23271335Y-21303346D01*
X23266569Y-21287637D01*
X23264900Y-21270686D01*
X23264900Y-21079314D01*
X23266569Y-21062363D01*
X23271335Y-21046654D01*
X23279073Y-21032177D01*
X23289487Y-21019487D01*
X23302177Y-21009073D01*
X23316654Y-21001335D01*
X23332363Y-20996570D01*
X23349314Y-20994900D01*
X23540686Y-20994900D01*
X23557637Y-20996570D01*
G37*
G36*
X23155100Y-21055100D02*
G01*
X22794900Y-21055100D01*
X22794900Y-20694900D01*
X23155100Y-20694900D01*
X23155100Y-21055100D01*
G37*
G36*
X20555361Y-20192428D02*
G01*
X20561413Y-20193632D01*
X20578516Y-20200716D01*
X20593909Y-20211001D01*
X20606999Y-20224091D01*
X20617284Y-20239484D01*
X20624368Y-20256587D01*
X20627980Y-20274744D01*
X20627980Y-20293256D01*
X20624368Y-20311413D01*
X20617284Y-20328516D01*
X20606999Y-20343909D01*
X20593909Y-20356999D01*
X20578516Y-20367284D01*
X20561413Y-20374368D01*
X20555361Y-20375572D01*
X20543256Y-20377980D01*
X20524744Y-20377980D01*
X20512639Y-20375572D01*
X20506587Y-20374368D01*
X20489484Y-20367284D01*
X20474091Y-20356999D01*
X20461001Y-20343909D01*
X20450716Y-20328516D01*
X20443632Y-20311413D01*
X20440020Y-20293256D01*
X20440020Y-20274744D01*
X20443632Y-20256587D01*
X20450716Y-20239484D01*
X20461001Y-20224091D01*
X20474091Y-20211001D01*
X20489484Y-20200716D01*
X20506587Y-20193632D01*
X20512639Y-20192428D01*
X20524744Y-20190020D01*
X20543256Y-20190020D01*
X20555361Y-20192428D01*
G37*
G36*
X21825361Y-20192428D02*
G01*
X21831413Y-20193632D01*
X21848516Y-20200716D01*
X21863909Y-20211001D01*
X21876999Y-20224091D01*
X21887284Y-20239484D01*
X21894368Y-20256587D01*
X21897980Y-20274744D01*
X21897980Y-20293256D01*
X21894368Y-20311413D01*
X21887284Y-20328516D01*
X21876999Y-20343909D01*
X21863909Y-20356999D01*
X21848516Y-20367284D01*
X21831413Y-20374368D01*
X21825361Y-20375572D01*
X21813256Y-20377980D01*
X21794744Y-20377980D01*
X21782639Y-20375572D01*
X21776587Y-20374368D01*
X21759484Y-20367284D01*
X21744091Y-20356999D01*
X21731001Y-20343909D01*
X21720716Y-20328516D01*
X21713632Y-20311413D01*
X21710020Y-20293256D01*
X21710020Y-20274744D01*
X21713632Y-20256587D01*
X21720716Y-20239484D01*
X21731001Y-20224091D01*
X21744091Y-20211001D01*
X21759484Y-20200716D01*
X21776587Y-20193632D01*
X21782639Y-20192428D01*
X21794744Y-20190020D01*
X21813256Y-20190020D01*
X21825361Y-20192428D01*
G37*
G36*
X21571361Y-20192428D02*
G01*
X21577413Y-20193632D01*
X21594516Y-20200716D01*
X21609909Y-20211001D01*
X21622999Y-20224091D01*
X21633284Y-20239484D01*
X21640368Y-20256587D01*
X21643980Y-20274744D01*
X21643980Y-20293256D01*
X21640368Y-20311413D01*
X21633284Y-20328516D01*
X21622999Y-20343909D01*
X21609909Y-20356999D01*
X21594516Y-20367284D01*
X21577413Y-20374368D01*
X21571361Y-20375572D01*
X21559256Y-20377980D01*
X21540744Y-20377980D01*
X21528639Y-20375572D01*
X21522587Y-20374368D01*
X21505484Y-20367284D01*
X21490091Y-20356999D01*
X21477001Y-20343909D01*
X21466716Y-20328516D01*
X21459632Y-20311413D01*
X21456020Y-20293256D01*
X21456020Y-20274744D01*
X21459632Y-20256587D01*
X21466716Y-20239484D01*
X21477001Y-20224091D01*
X21490091Y-20211001D01*
X21505484Y-20200716D01*
X21522587Y-20193632D01*
X21528639Y-20192428D01*
X21540744Y-20190020D01*
X21559256Y-20190020D01*
X21571361Y-20192428D01*
G37*
G36*
X21317361Y-20192428D02*
G01*
X21323413Y-20193632D01*
X21340516Y-20200716D01*
X21355909Y-20211001D01*
X21368999Y-20224091D01*
X21379284Y-20239484D01*
X21386368Y-20256587D01*
X21389980Y-20274744D01*
X21389980Y-20293256D01*
X21386368Y-20311413D01*
X21379284Y-20328516D01*
X21368999Y-20343909D01*
X21355909Y-20356999D01*
X21340516Y-20367284D01*
X21323413Y-20374368D01*
X21317361Y-20375572D01*
X21305256Y-20377980D01*
X21286744Y-20377980D01*
X21274639Y-20375572D01*
X21268587Y-20374368D01*
X21251484Y-20367284D01*
X21236091Y-20356999D01*
X21223001Y-20343909D01*
X21212716Y-20328516D01*
X21205632Y-20311413D01*
X21202020Y-20293256D01*
X21202020Y-20274744D01*
X21205632Y-20256587D01*
X21212716Y-20239484D01*
X21223001Y-20224091D01*
X21236091Y-20211001D01*
X21251484Y-20200716D01*
X21268587Y-20193632D01*
X21274639Y-20192428D01*
X21286744Y-20190020D01*
X21305256Y-20190020D01*
X21317361Y-20192428D01*
G37*
G36*
X20809361Y-20192428D02*
G01*
X20815413Y-20193632D01*
X20832516Y-20200716D01*
X20847909Y-20211001D01*
X20860999Y-20224091D01*
X20871284Y-20239484D01*
X20878368Y-20256587D01*
X20881980Y-20274744D01*
X20881980Y-20293256D01*
X20878368Y-20311413D01*
X20871284Y-20328516D01*
X20860999Y-20343909D01*
X20847909Y-20356999D01*
X20832516Y-20367284D01*
X20815413Y-20374368D01*
X20809361Y-20375572D01*
X20797256Y-20377980D01*
X20778744Y-20377980D01*
X20766639Y-20375572D01*
X20760587Y-20374368D01*
X20743484Y-20367284D01*
X20728091Y-20356999D01*
X20715001Y-20343909D01*
X20704716Y-20328516D01*
X20697632Y-20311413D01*
X20694020Y-20293256D01*
X20694020Y-20274744D01*
X20697632Y-20256587D01*
X20704716Y-20239484D01*
X20715001Y-20224091D01*
X20728091Y-20211001D01*
X20743484Y-20200716D01*
X20760587Y-20193632D01*
X20766639Y-20192428D01*
X20778744Y-20190020D01*
X20797256Y-20190020D01*
X20809361Y-20192428D01*
G37*
G36*
X22079361Y-20192428D02*
G01*
X22085413Y-20193632D01*
X22102516Y-20200716D01*
X22117909Y-20211001D01*
X22130999Y-20224091D01*
X22141284Y-20239484D01*
X22148368Y-20256587D01*
X22151980Y-20274744D01*
X22151980Y-20293256D01*
X22148368Y-20311413D01*
X22141284Y-20328516D01*
X22130999Y-20343909D01*
X22117909Y-20356999D01*
X22102516Y-20367284D01*
X22085413Y-20374368D01*
X22079361Y-20375572D01*
X22067256Y-20377980D01*
X22048744Y-20377980D01*
X22036639Y-20375572D01*
X22030587Y-20374368D01*
X22013484Y-20367284D01*
X21998091Y-20356999D01*
X21985001Y-20343909D01*
X21974716Y-20328516D01*
X21967632Y-20311413D01*
X21964020Y-20293256D01*
X21964020Y-20274744D01*
X21967632Y-20256587D01*
X21974716Y-20239484D01*
X21985001Y-20224091D01*
X21998091Y-20211001D01*
X22013484Y-20200716D01*
X22030587Y-20193632D01*
X22036639Y-20192428D01*
X22048744Y-20190020D01*
X22067256Y-20190020D01*
X22079361Y-20192428D01*
G37*
G36*
X20301361Y-20192428D02*
G01*
X20307413Y-20193632D01*
X20324516Y-20200716D01*
X20339909Y-20211001D01*
X20352999Y-20224091D01*
X20363284Y-20239484D01*
X20370368Y-20256587D01*
X20373980Y-20274744D01*
X20373980Y-20293256D01*
X20370368Y-20311413D01*
X20363284Y-20328516D01*
X20352999Y-20343909D01*
X20339909Y-20356999D01*
X20324516Y-20367284D01*
X20307413Y-20374368D01*
X20301361Y-20375572D01*
X20289256Y-20377980D01*
X20270744Y-20377980D01*
X20258639Y-20375572D01*
X20252587Y-20374368D01*
X20235484Y-20367284D01*
X20220091Y-20356999D01*
X20207001Y-20343909D01*
X20196716Y-20328516D01*
X20189632Y-20311413D01*
X20186020Y-20293256D01*
X20186020Y-20274744D01*
X20189632Y-20256587D01*
X20196716Y-20239484D01*
X20207001Y-20224091D01*
X20220091Y-20211001D01*
X20235484Y-20200716D01*
X20252587Y-20193632D01*
X20258639Y-20192428D01*
X20270744Y-20190020D01*
X20289256Y-20190020D01*
X20301361Y-20192428D01*
G37*
G36*
X21063361Y-20192428D02*
G01*
X21069413Y-20193632D01*
X21086516Y-20200716D01*
X21101909Y-20211001D01*
X21114999Y-20224091D01*
X21125284Y-20239484D01*
X21132368Y-20256587D01*
X21135980Y-20274744D01*
X21135980Y-20293256D01*
X21132368Y-20311413D01*
X21125284Y-20328516D01*
X21114999Y-20343909D01*
X21101909Y-20356999D01*
X21086516Y-20367284D01*
X21069413Y-20374368D01*
X21063361Y-20375572D01*
X21051256Y-20377980D01*
X21032744Y-20377980D01*
X21020639Y-20375572D01*
X21014587Y-20374368D01*
X20997484Y-20367284D01*
X20982091Y-20356999D01*
X20969001Y-20343909D01*
X20958716Y-20328516D01*
X20951632Y-20311413D01*
X20948020Y-20293256D01*
X20948020Y-20274744D01*
X20951632Y-20256587D01*
X20958716Y-20239484D01*
X20969001Y-20224091D01*
X20982091Y-20211001D01*
X20997484Y-20200716D01*
X21014587Y-20193632D01*
X21020639Y-20192428D01*
X21032744Y-20190020D01*
X21051256Y-20190020D01*
X21063361Y-20192428D01*
G37*
G36*
X24869821Y-19555625D02*
G01*
X24879265Y-19558490D01*
X24887969Y-19563142D01*
X24895597Y-19569403D01*
X24901858Y-19577031D01*
X24906510Y-19585735D01*
X24909375Y-19595179D01*
X24910342Y-19605000D01*
X24909375Y-19614821D01*
X24906510Y-19624265D01*
X24901858Y-19632969D01*
X24895597Y-19640598D01*
X24887969Y-19646858D01*
X24879265Y-19651510D01*
X24869821Y-19654375D01*
X24862461Y-19655100D01*
X24787539Y-19655100D01*
X24780179Y-19654375D01*
X24770735Y-19651510D01*
X24762031Y-19646858D01*
X24754402Y-19640598D01*
X24748142Y-19632969D01*
X24743490Y-19624265D01*
X24740625Y-19614821D01*
X24739658Y-19605000D01*
X24740625Y-19595179D01*
X24743490Y-19585735D01*
X24748142Y-19577031D01*
X24754402Y-19569403D01*
X24762031Y-19563142D01*
X24770735Y-19558490D01*
X24780179Y-19555625D01*
X24787539Y-19554900D01*
X24862461Y-19554900D01*
X24869821Y-19555625D01*
G37*
G36*
X22364072Y-18939017D02*
G01*
X22374099Y-18943171D01*
X22374100Y-18943171D01*
X22383124Y-18949201D01*
X22390799Y-18956876D01*
X22390799Y-18956876D01*
X22396829Y-18965901D01*
X22399952Y-18973439D01*
X22401107Y-18975600D01*
X22402661Y-18977494D01*
X22404555Y-18979049D01*
X22406716Y-18980204D01*
X22409061Y-18980915D01*
X22411500Y-18981155D01*
X22413939Y-18980915D01*
X22416283Y-18980204D01*
X22418445Y-18979049D01*
X22420339Y-18977494D01*
X22421893Y-18975600D01*
X22423048Y-18973439D01*
X22426171Y-18965901D01*
X22432201Y-18956876D01*
X22432201Y-18956876D01*
X22439876Y-18949201D01*
X22448900Y-18943171D01*
X22448900Y-18943171D01*
X22458928Y-18939017D01*
X22469573Y-18936900D01*
X22480427Y-18936900D01*
X22491072Y-18939017D01*
X22501099Y-18943171D01*
X22501100Y-18943171D01*
X22510124Y-18949201D01*
X22517799Y-18956876D01*
X22517799Y-18956876D01*
X22523829Y-18965901D01*
X22527983Y-18975928D01*
X22530100Y-18986573D01*
X22530100Y-18997427D01*
X22527983Y-19008072D01*
X22523829Y-19018100D01*
X22523829Y-19018100D01*
X22517799Y-19027124D01*
X22510124Y-19034799D01*
X22505581Y-19037835D01*
X22501099Y-19040829D01*
X22493561Y-19043952D01*
X22491400Y-19045107D01*
X22489506Y-19046661D01*
X22487951Y-19048555D01*
X22486796Y-19050717D01*
X22486085Y-19053061D01*
X22485845Y-19055500D01*
X22486085Y-19057939D01*
X22486796Y-19060284D01*
X22487951Y-19062445D01*
X22489506Y-19064339D01*
X22491400Y-19065893D01*
X22493561Y-19067048D01*
X22501099Y-19070171D01*
X22501100Y-19070171D01*
X22510124Y-19076201D01*
X22517799Y-19083876D01*
X22517799Y-19083876D01*
X22523829Y-19092901D01*
X22527983Y-19102928D01*
X22530100Y-19113573D01*
X22530100Y-19124427D01*
X22527983Y-19135072D01*
X22523829Y-19145100D01*
X22523829Y-19145100D01*
X22517799Y-19154124D01*
X22510124Y-19161799D01*
X22505581Y-19164835D01*
X22501099Y-19167829D01*
X22493561Y-19170952D01*
X22491400Y-19172107D01*
X22489506Y-19173661D01*
X22487951Y-19175555D01*
X22486796Y-19177717D01*
X22486085Y-19180061D01*
X22485845Y-19182500D01*
X22486085Y-19184939D01*
X22486796Y-19187284D01*
X22487951Y-19189445D01*
X22489506Y-19191339D01*
X22491400Y-19192893D01*
X22493561Y-19194048D01*
X22501099Y-19197171D01*
X22501100Y-19197171D01*
X22510124Y-19203201D01*
X22517799Y-19210876D01*
X22517799Y-19210876D01*
X22523829Y-19219901D01*
X22527983Y-19229928D01*
X22530100Y-19240573D01*
X22530100Y-19251427D01*
X22527983Y-19262072D01*
X22523829Y-19272100D01*
X22523829Y-19272100D01*
X22517799Y-19281124D01*
X22510124Y-19288799D01*
X22505581Y-19291835D01*
X22501099Y-19294829D01*
X22493561Y-19297952D01*
X22491400Y-19299107D01*
X22489506Y-19300661D01*
X22487951Y-19302555D01*
X22486796Y-19304717D01*
X22486085Y-19307061D01*
X22485845Y-19309500D01*
X22486085Y-19311939D01*
X22486796Y-19314284D01*
X22487951Y-19316445D01*
X22489506Y-19318339D01*
X22491400Y-19319893D01*
X22493561Y-19321048D01*
X22501099Y-19324171D01*
X22501100Y-19324171D01*
X22510124Y-19330201D01*
X22517799Y-19337876D01*
X22517799Y-19337876D01*
X22523829Y-19346901D01*
X22527983Y-19356928D01*
X22530100Y-19367573D01*
X22530100Y-19378427D01*
X22527983Y-19389072D01*
X22523829Y-19399100D01*
X22523829Y-19399100D01*
X22517799Y-19408124D01*
X22510124Y-19415799D01*
X22506982Y-19417899D01*
X22500834Y-19422007D01*
X22498939Y-19423561D01*
X22497385Y-19425456D01*
X22496230Y-19427617D01*
X22495518Y-19429962D01*
X22495278Y-19432400D01*
X22495518Y-19434839D01*
X22496230Y-19437184D01*
X22497385Y-19439345D01*
X22498939Y-19441239D01*
X22500834Y-19442793D01*
X22502995Y-19443949D01*
X22505340Y-19444660D01*
X22507778Y-19444900D01*
X22530100Y-19444900D01*
X22530100Y-19555100D01*
X22419900Y-19555100D01*
X22419900Y-19532778D01*
X22419660Y-19530340D01*
X22418948Y-19527995D01*
X22417793Y-19525834D01*
X22416239Y-19523939D01*
X22414345Y-19522385D01*
X22412184Y-19521230D01*
X22409839Y-19520519D01*
X22407400Y-19520278D01*
X22404961Y-19520519D01*
X22402617Y-19521230D01*
X22400455Y-19522385D01*
X22398561Y-19523939D01*
X22397007Y-19525834D01*
X22392899Y-19531982D01*
X22390799Y-19535124D01*
X22383124Y-19542799D01*
X22378581Y-19545835D01*
X22374099Y-19548829D01*
X22364072Y-19552983D01*
X22353427Y-19555100D01*
X22342573Y-19555100D01*
X22331928Y-19552983D01*
X22321901Y-19548829D01*
X22317419Y-19545835D01*
X22312876Y-19542799D01*
X22305201Y-19535124D01*
X22302004Y-19530340D01*
X22299171Y-19526100D01*
X22295017Y-19516072D01*
X22292900Y-19505427D01*
X22292900Y-19494573D01*
X22295017Y-19483928D01*
X22299171Y-19473901D01*
X22305201Y-19464876D01*
X22305201Y-19464876D01*
X22312876Y-19457201D01*
X22321900Y-19451171D01*
X22321901Y-19451171D01*
X22329439Y-19448048D01*
X22331600Y-19446893D01*
X22333494Y-19445339D01*
X22335049Y-19443445D01*
X22336204Y-19441284D01*
X22336915Y-19438939D01*
X22337155Y-19436500D01*
X22358845Y-19436500D01*
X22359085Y-19438939D01*
X22359796Y-19441284D01*
X22360951Y-19443445D01*
X22362506Y-19445339D01*
X22364400Y-19446893D01*
X22366561Y-19448048D01*
X22374099Y-19451171D01*
X22374100Y-19451171D01*
X22383124Y-19457201D01*
X22390799Y-19464876D01*
X22390799Y-19464876D01*
X22397007Y-19474166D01*
X22398561Y-19476061D01*
X22400456Y-19477615D01*
X22402617Y-19478770D01*
X22404961Y-19479482D01*
X22407400Y-19479722D01*
X22409839Y-19479482D01*
X22412184Y-19478770D01*
X22414345Y-19477615D01*
X22416239Y-19476061D01*
X22417793Y-19474166D01*
X22418948Y-19472005D01*
X22419660Y-19469660D01*
X22419900Y-19467222D01*
X22419900Y-19444900D01*
X22442222Y-19444900D01*
X22444660Y-19444660D01*
X22447005Y-19443949D01*
X22449166Y-19442793D01*
X22451061Y-19441239D01*
X22452615Y-19439345D01*
X22453770Y-19437184D01*
X22454481Y-19434839D01*
X22454722Y-19432400D01*
X22454481Y-19429962D01*
X22453770Y-19427617D01*
X22452615Y-19425456D01*
X22451061Y-19423561D01*
X22449166Y-19422007D01*
X22443018Y-19417899D01*
X22439876Y-19415799D01*
X22432201Y-19408124D01*
X22426171Y-19399100D01*
X22426171Y-19399100D01*
X22423048Y-19391561D01*
X22421893Y-19389400D01*
X22420339Y-19387506D01*
X22418445Y-19385951D01*
X22416283Y-19384796D01*
X22413939Y-19384085D01*
X22411500Y-19383845D01*
X22409061Y-19384085D01*
X22406716Y-19384796D01*
X22404555Y-19385951D01*
X22402661Y-19387506D01*
X22401107Y-19389400D01*
X22399952Y-19391561D01*
X22396829Y-19399100D01*
X22396829Y-19399100D01*
X22390799Y-19408124D01*
X22383124Y-19415799D01*
X22378581Y-19418835D01*
X22374099Y-19421829D01*
X22366561Y-19424952D01*
X22364400Y-19426107D01*
X22362506Y-19427661D01*
X22360951Y-19429555D01*
X22359796Y-19431717D01*
X22359085Y-19434061D01*
X22358845Y-19436500D01*
X22337155Y-19436500D01*
X22336915Y-19434061D01*
X22336204Y-19431717D01*
X22335049Y-19429555D01*
X22333494Y-19427661D01*
X22331600Y-19426107D01*
X22329439Y-19424952D01*
X22321901Y-19421829D01*
X22317419Y-19418835D01*
X22312876Y-19415799D01*
X22305201Y-19408124D01*
X22299171Y-19399100D01*
X22299171Y-19399100D01*
X22295017Y-19389072D01*
X22292900Y-19378427D01*
X22292900Y-19367573D01*
X22295017Y-19356928D01*
X22299171Y-19346901D01*
X22305201Y-19337876D01*
X22305201Y-19337876D01*
X22312876Y-19330201D01*
X22321900Y-19324171D01*
X22321901Y-19324171D01*
X22329439Y-19321048D01*
X22331600Y-19319893D01*
X22333494Y-19318339D01*
X22335049Y-19316445D01*
X22336204Y-19314284D01*
X22336915Y-19311939D01*
X22337155Y-19309500D01*
X22358845Y-19309500D01*
X22359085Y-19311939D01*
X22359796Y-19314284D01*
X22360951Y-19316445D01*
X22362506Y-19318339D01*
X22364400Y-19319893D01*
X22366561Y-19321048D01*
X22374099Y-19324171D01*
X22374100Y-19324171D01*
X22383124Y-19330201D01*
X22390799Y-19337876D01*
X22390799Y-19337876D01*
X22396829Y-19346901D01*
X22399952Y-19354439D01*
X22401107Y-19356600D01*
X22402661Y-19358494D01*
X22404555Y-19360049D01*
X22406716Y-19361204D01*
X22409061Y-19361915D01*
X22411500Y-19362155D01*
X22413939Y-19361915D01*
X22416283Y-19361204D01*
X22418445Y-19360049D01*
X22420339Y-19358494D01*
X22421893Y-19356600D01*
X22423048Y-19354439D01*
X22426171Y-19346901D01*
X22432201Y-19337876D01*
X22432201Y-19337876D01*
X22439876Y-19330201D01*
X22448900Y-19324171D01*
X22448900Y-19324171D01*
X22456439Y-19321048D01*
X22458600Y-19319893D01*
X22460494Y-19318339D01*
X22462049Y-19316445D01*
X22463204Y-19314284D01*
X22463915Y-19311939D01*
X22464155Y-19309500D01*
X22463915Y-19307061D01*
X22463204Y-19304717D01*
X22462049Y-19302555D01*
X22460494Y-19300661D01*
X22458600Y-19299107D01*
X22456439Y-19297952D01*
X22448900Y-19294829D01*
X22444419Y-19291835D01*
X22439876Y-19288799D01*
X22432201Y-19281124D01*
X22426171Y-19272100D01*
X22426171Y-19272100D01*
X22423048Y-19264561D01*
X22421893Y-19262400D01*
X22420339Y-19260506D01*
X22418445Y-19258951D01*
X22416283Y-19257796D01*
X22413939Y-19257085D01*
X22411500Y-19256845D01*
X22409061Y-19257085D01*
X22406716Y-19257796D01*
X22404555Y-19258951D01*
X22402661Y-19260506D01*
X22401107Y-19262400D01*
X22399952Y-19264561D01*
X22396829Y-19272100D01*
X22396829Y-19272100D01*
X22390799Y-19281124D01*
X22383124Y-19288799D01*
X22378581Y-19291835D01*
X22374099Y-19294829D01*
X22366561Y-19297952D01*
X22364400Y-19299107D01*
X22362506Y-19300661D01*
X22360951Y-19302555D01*
X22359796Y-19304717D01*
X22359085Y-19307061D01*
X22358845Y-19309500D01*
X22337155Y-19309500D01*
X22336915Y-19307061D01*
X22336204Y-19304717D01*
X22335049Y-19302555D01*
X22333494Y-19300661D01*
X22331600Y-19299107D01*
X22329439Y-19297952D01*
X22321901Y-19294829D01*
X22317419Y-19291835D01*
X22312876Y-19288799D01*
X22305201Y-19281124D01*
X22299171Y-19272100D01*
X22299171Y-19272100D01*
X22295017Y-19262072D01*
X22292900Y-19251427D01*
X22292900Y-19240573D01*
X22295017Y-19229928D01*
X22299171Y-19219901D01*
X22305201Y-19210876D01*
X22305201Y-19210876D01*
X22312876Y-19203201D01*
X22321900Y-19197171D01*
X22321901Y-19197171D01*
X22329439Y-19194048D01*
X22331600Y-19192893D01*
X22333494Y-19191339D01*
X22335049Y-19189445D01*
X22336204Y-19187284D01*
X22336915Y-19184939D01*
X22337155Y-19182500D01*
X22358845Y-19182500D01*
X22359085Y-19184939D01*
X22359796Y-19187284D01*
X22360951Y-19189445D01*
X22362506Y-19191339D01*
X22364400Y-19192893D01*
X22366561Y-19194048D01*
X22374099Y-19197171D01*
X22374100Y-19197171D01*
X22383124Y-19203201D01*
X22390799Y-19210876D01*
X22390799Y-19210876D01*
X22396829Y-19219901D01*
X22399952Y-19227439D01*
X22401107Y-19229600D01*
X22402661Y-19231494D01*
X22404555Y-19233049D01*
X22406716Y-19234204D01*
X22409061Y-19234915D01*
X22411500Y-19235155D01*
X22413939Y-19234915D01*
X22416283Y-19234204D01*
X22418445Y-19233049D01*
X22420339Y-19231494D01*
X22421893Y-19229600D01*
X22423048Y-19227439D01*
X22426171Y-19219901D01*
X22432201Y-19210876D01*
X22432201Y-19210876D01*
X22439876Y-19203201D01*
X22448900Y-19197171D01*
X22448900Y-19197171D01*
X22456439Y-19194048D01*
X22458600Y-19192893D01*
X22460494Y-19191339D01*
X22462049Y-19189445D01*
X22463204Y-19187284D01*
X22463915Y-19184939D01*
X22464155Y-19182500D01*
X22463915Y-19180061D01*
X22463204Y-19177717D01*
X22462049Y-19175555D01*
X22460494Y-19173661D01*
X22458600Y-19172107D01*
X22456439Y-19170952D01*
X22448900Y-19167829D01*
X22444419Y-19164835D01*
X22439876Y-19161799D01*
X22432201Y-19154124D01*
X22426171Y-19145100D01*
X22426171Y-19145100D01*
X22423048Y-19137561D01*
X22421893Y-19135400D01*
X22420339Y-19133506D01*
X22418445Y-19131951D01*
X22416283Y-19130796D01*
X22413939Y-19130085D01*
X22411500Y-19129845D01*
X22409061Y-19130085D01*
X22406716Y-19130796D01*
X22404555Y-19131951D01*
X22402661Y-19133506D01*
X22401107Y-19135400D01*
X22399952Y-19137561D01*
X22396829Y-19145100D01*
X22396829Y-19145100D01*
X22390799Y-19154124D01*
X22383124Y-19161799D01*
X22378581Y-19164835D01*
X22374099Y-19167829D01*
X22366561Y-19170952D01*
X22364400Y-19172107D01*
X22362506Y-19173661D01*
X22360951Y-19175555D01*
X22359796Y-19177717D01*
X22359085Y-19180061D01*
X22358845Y-19182500D01*
X22337155Y-19182500D01*
X22336915Y-19180061D01*
X22336204Y-19177717D01*
X22335049Y-19175555D01*
X22333494Y-19173661D01*
X22331600Y-19172107D01*
X22329439Y-19170952D01*
X22321901Y-19167829D01*
X22317419Y-19164835D01*
X22312876Y-19161799D01*
X22305201Y-19154124D01*
X22299171Y-19145100D01*
X22299171Y-19145100D01*
X22295017Y-19135072D01*
X22292900Y-19124427D01*
X22292900Y-19113573D01*
X22295017Y-19102928D01*
X22299171Y-19092901D01*
X22305201Y-19083876D01*
X22305201Y-19083876D01*
X22312876Y-19076201D01*
X22321900Y-19070171D01*
X22321901Y-19070171D01*
X22329439Y-19067048D01*
X22331600Y-19065893D01*
X22333494Y-19064339D01*
X22335049Y-19062445D01*
X22336204Y-19060284D01*
X22336915Y-19057939D01*
X22337155Y-19055500D01*
X22358845Y-19055500D01*
X22359085Y-19057939D01*
X22359796Y-19060284D01*
X22360951Y-19062445D01*
X22362506Y-19064339D01*
X22364400Y-19065893D01*
X22366561Y-19067048D01*
X22374099Y-19070171D01*
X22374100Y-19070171D01*
X22383124Y-19076201D01*
X22390799Y-19083876D01*
X22390799Y-19083876D01*
X22396829Y-19092901D01*
X22399952Y-19100439D01*
X22401107Y-19102600D01*
X22402661Y-19104494D01*
X22404555Y-19106049D01*
X22406716Y-19107204D01*
X22409061Y-19107915D01*
X22411500Y-19108155D01*
X22413939Y-19107915D01*
X22416283Y-19107204D01*
X22418445Y-19106049D01*
X22420339Y-19104494D01*
X22421893Y-19102600D01*
X22423048Y-19100439D01*
X22426171Y-19092901D01*
X22432201Y-19083876D01*
X22432201Y-19083876D01*
X22439876Y-19076201D01*
X22448900Y-19070171D01*
X22448900Y-19070171D01*
X22456439Y-19067048D01*
X22458600Y-19065893D01*
X22460494Y-19064339D01*
X22462049Y-19062445D01*
X22463204Y-19060284D01*
X22463915Y-19057939D01*
X22464155Y-19055500D01*
X22463915Y-19053061D01*
X22463204Y-19050717D01*
X22462049Y-19048555D01*
X22460494Y-19046661D01*
X22458600Y-19045107D01*
X22456439Y-19043952D01*
X22448900Y-19040829D01*
X22444419Y-19037835D01*
X22439876Y-19034799D01*
X22432201Y-19027124D01*
X22426171Y-19018100D01*
X22426171Y-19018100D01*
X22423048Y-19010561D01*
X22421893Y-19008400D01*
X22420339Y-19006506D01*
X22418445Y-19004951D01*
X22416283Y-19003796D01*
X22413939Y-19003085D01*
X22411500Y-19002845D01*
X22409061Y-19003085D01*
X22406716Y-19003796D01*
X22404555Y-19004951D01*
X22402661Y-19006506D01*
X22401107Y-19008400D01*
X22399952Y-19010561D01*
X22396829Y-19018100D01*
X22396829Y-19018100D01*
X22390799Y-19027124D01*
X22383124Y-19034799D01*
X22378581Y-19037835D01*
X22374099Y-19040829D01*
X22366561Y-19043952D01*
X22364400Y-19045107D01*
X22362506Y-19046661D01*
X22360951Y-19048555D01*
X22359796Y-19050717D01*
X22359085Y-19053061D01*
X22358845Y-19055500D01*
X22337155Y-19055500D01*
X22336915Y-19053061D01*
X22336204Y-19050717D01*
X22335049Y-19048555D01*
X22333494Y-19046661D01*
X22331600Y-19045107D01*
X22329439Y-19043952D01*
X22321901Y-19040829D01*
X22317419Y-19037835D01*
X22312876Y-19034799D01*
X22305201Y-19027124D01*
X22299171Y-19018100D01*
X22299171Y-19018100D01*
X22295017Y-19008072D01*
X22292900Y-18997427D01*
X22292900Y-18986573D01*
X22295017Y-18975928D01*
X22299171Y-18965901D01*
X22305201Y-18956876D01*
X22305201Y-18956876D01*
X22312876Y-18949201D01*
X22321900Y-18943171D01*
X22321901Y-18943171D01*
X22331928Y-18939017D01*
X22342573Y-18936900D01*
X22353427Y-18936900D01*
X22364072Y-18939017D01*
G37*
G36*
X24869821Y-18895625D02*
G01*
X24879265Y-18898490D01*
X24887969Y-18903142D01*
X24895597Y-18909403D01*
X24901858Y-18917031D01*
X24906510Y-18925735D01*
X24909375Y-18935179D01*
X24910342Y-18945000D01*
X24909375Y-18954821D01*
X24906510Y-18964265D01*
X24901858Y-18972969D01*
X24895597Y-18980598D01*
X24887969Y-18986858D01*
X24879265Y-18991510D01*
X24869821Y-18994375D01*
X24862461Y-18995100D01*
X24787539Y-18995100D01*
X24780179Y-18994375D01*
X24770735Y-18991510D01*
X24762031Y-18986858D01*
X24754402Y-18980598D01*
X24748142Y-18972969D01*
X24743490Y-18964265D01*
X24740625Y-18954821D01*
X24739658Y-18945000D01*
X24740625Y-18935179D01*
X24743490Y-18925735D01*
X24748142Y-18917031D01*
X24754402Y-18909403D01*
X24762031Y-18903142D01*
X24770735Y-18898490D01*
X24780179Y-18895625D01*
X24787539Y-18894900D01*
X24862461Y-18894900D01*
X24869821Y-18895625D01*
G37*
G36*
X24111361Y-18160428D02*
G01*
X24117413Y-18161632D01*
X24134516Y-18168716D01*
X24149909Y-18179001D01*
X24162999Y-18192091D01*
X24173284Y-18207484D01*
X24180368Y-18224587D01*
X24183980Y-18242744D01*
X24183980Y-18261256D01*
X24180368Y-18279413D01*
X24173284Y-18296516D01*
X24162999Y-18311909D01*
X24149909Y-18324999D01*
X24134516Y-18335284D01*
X24117413Y-18342368D01*
X24111361Y-18343572D01*
X24099256Y-18345980D01*
X24080744Y-18345980D01*
X24068639Y-18343572D01*
X24062587Y-18342368D01*
X24045484Y-18335284D01*
X24030091Y-18324999D01*
X24017001Y-18311909D01*
X24006716Y-18296516D01*
X23999632Y-18279413D01*
X23996020Y-18261256D01*
X23996020Y-18242744D01*
X23999632Y-18224587D01*
X24006716Y-18207484D01*
X24017001Y-18192091D01*
X24030091Y-18179001D01*
X24045484Y-18168716D01*
X24062587Y-18161632D01*
X24068639Y-18160428D01*
X24080744Y-18158020D01*
X24099256Y-18158020D01*
X24111361Y-18160428D01*
G37*
G36*
X20809361Y-18160428D02*
G01*
X20815413Y-18161632D01*
X20832516Y-18168716D01*
X20847909Y-18179001D01*
X20860999Y-18192091D01*
X20871284Y-18207484D01*
X20878368Y-18224587D01*
X20881980Y-18242744D01*
X20881980Y-18261256D01*
X20878368Y-18279413D01*
X20871284Y-18296516D01*
X20860999Y-18311909D01*
X20847909Y-18324999D01*
X20832516Y-18335284D01*
X20815413Y-18342368D01*
X20809361Y-18343572D01*
X20797256Y-18345980D01*
X20778744Y-18345980D01*
X20766639Y-18343572D01*
X20760587Y-18342368D01*
X20743484Y-18335284D01*
X20728091Y-18324999D01*
X20715001Y-18311909D01*
X20704716Y-18296516D01*
X20697632Y-18279413D01*
X20694020Y-18261256D01*
X20694020Y-18242744D01*
X20697632Y-18224587D01*
X20704716Y-18207484D01*
X20715001Y-18192091D01*
X20728091Y-18179001D01*
X20743484Y-18168716D01*
X20760587Y-18161632D01*
X20766639Y-18160428D01*
X20778744Y-18158020D01*
X20797256Y-18158020D01*
X20809361Y-18160428D01*
G37*
G36*
X23857361Y-18160428D02*
G01*
X23863413Y-18161632D01*
X23880516Y-18168716D01*
X23895909Y-18179001D01*
X23908999Y-18192091D01*
X23919284Y-18207484D01*
X23926368Y-18224587D01*
X23929980Y-18242744D01*
X23929980Y-18261256D01*
X23926368Y-18279413D01*
X23919284Y-18296516D01*
X23908999Y-18311909D01*
X23895909Y-18324999D01*
X23880516Y-18335284D01*
X23863413Y-18342368D01*
X23857361Y-18343572D01*
X23845256Y-18345980D01*
X23826744Y-18345980D01*
X23814639Y-18343572D01*
X23808587Y-18342368D01*
X23791484Y-18335284D01*
X23776091Y-18324999D01*
X23763001Y-18311909D01*
X23752716Y-18296516D01*
X23745632Y-18279413D01*
X23742020Y-18261256D01*
X23742020Y-18242744D01*
X23745632Y-18224587D01*
X23752716Y-18207484D01*
X23763001Y-18192091D01*
X23776091Y-18179001D01*
X23791484Y-18168716D01*
X23808587Y-18161632D01*
X23814639Y-18160428D01*
X23826744Y-18158020D01*
X23845256Y-18158020D01*
X23857361Y-18160428D01*
G37*
G36*
X23603361Y-18160428D02*
G01*
X23609413Y-18161632D01*
X23626516Y-18168716D01*
X23641909Y-18179001D01*
X23654999Y-18192091D01*
X23665284Y-18207484D01*
X23672368Y-18224587D01*
X23675980Y-18242744D01*
X23675980Y-18261256D01*
X23672368Y-18279413D01*
X23665284Y-18296516D01*
X23654999Y-18311909D01*
X23641909Y-18324999D01*
X23626516Y-18335284D01*
X23609413Y-18342368D01*
X23603361Y-18343572D01*
X23591256Y-18345980D01*
X23572744Y-18345980D01*
X23560639Y-18343572D01*
X23554587Y-18342368D01*
X23537484Y-18335284D01*
X23522091Y-18324999D01*
X23509001Y-18311909D01*
X23498716Y-18296516D01*
X23491632Y-18279413D01*
X23488020Y-18261256D01*
X23488020Y-18242744D01*
X23491632Y-18224587D01*
X23498716Y-18207484D01*
X23509001Y-18192091D01*
X23522091Y-18179001D01*
X23537484Y-18168716D01*
X23554587Y-18161632D01*
X23560639Y-18160428D01*
X23572744Y-18158020D01*
X23591256Y-18158020D01*
X23603361Y-18160428D01*
G37*
G36*
X23349361Y-18160428D02*
G01*
X23355413Y-18161632D01*
X23372516Y-18168716D01*
X23387909Y-18179001D01*
X23400999Y-18192091D01*
X23411284Y-18207484D01*
X23418368Y-18224587D01*
X23421980Y-18242744D01*
X23421980Y-18261256D01*
X23418368Y-18279413D01*
X23411284Y-18296516D01*
X23400999Y-18311909D01*
X23387909Y-18324999D01*
X23372516Y-18335284D01*
X23355413Y-18342368D01*
X23349361Y-18343572D01*
X23337256Y-18345980D01*
X23318744Y-18345980D01*
X23306639Y-18343572D01*
X23300587Y-18342368D01*
X23283484Y-18335284D01*
X23268091Y-18324999D01*
X23255001Y-18311909D01*
X23244716Y-18296516D01*
X23237632Y-18279413D01*
X23234020Y-18261256D01*
X23234020Y-18242744D01*
X23237632Y-18224587D01*
X23244716Y-18207484D01*
X23255001Y-18192091D01*
X23268091Y-18179001D01*
X23283484Y-18168716D01*
X23300587Y-18161632D01*
X23306639Y-18160428D01*
X23318744Y-18158020D01*
X23337256Y-18158020D01*
X23349361Y-18160428D01*
G37*
G36*
X20301361Y-18160428D02*
G01*
X20307413Y-18161632D01*
X20324516Y-18168716D01*
X20339909Y-18179001D01*
X20352999Y-18192091D01*
X20363284Y-18207484D01*
X20370368Y-18224587D01*
X20373980Y-18242744D01*
X20373980Y-18261256D01*
X20370368Y-18279413D01*
X20363284Y-18296516D01*
X20352999Y-18311909D01*
X20339909Y-18324999D01*
X20324516Y-18335284D01*
X20307413Y-18342368D01*
X20301361Y-18343572D01*
X20289256Y-18345980D01*
X20270744Y-18345980D01*
X20258639Y-18343572D01*
X20252587Y-18342368D01*
X20235484Y-18335284D01*
X20220091Y-18324999D01*
X20207001Y-18311909D01*
X20196716Y-18296516D01*
X20189632Y-18279413D01*
X20186020Y-18261256D01*
X20186020Y-18242744D01*
X20189632Y-18224587D01*
X20196716Y-18207484D01*
X20207001Y-18192091D01*
X20220091Y-18179001D01*
X20235484Y-18168716D01*
X20252587Y-18161632D01*
X20258639Y-18160428D01*
X20270744Y-18158020D01*
X20289256Y-18158020D01*
X20301361Y-18160428D01*
G37*
G36*
X20555361Y-18160428D02*
G01*
X20561413Y-18161632D01*
X20578516Y-18168716D01*
X20593909Y-18179001D01*
X20606999Y-18192091D01*
X20617284Y-18207484D01*
X20624368Y-18224587D01*
X20627980Y-18242744D01*
X20627980Y-18261256D01*
X20624368Y-18279413D01*
X20617284Y-18296516D01*
X20606999Y-18311909D01*
X20593909Y-18324999D01*
X20578516Y-18335284D01*
X20561413Y-18342368D01*
X20555361Y-18343572D01*
X20543256Y-18345980D01*
X20524744Y-18345980D01*
X20512639Y-18343572D01*
X20506587Y-18342368D01*
X20489484Y-18335284D01*
X20474091Y-18324999D01*
X20461001Y-18311909D01*
X20450716Y-18296516D01*
X20443632Y-18279413D01*
X20440020Y-18261256D01*
X20440020Y-18242744D01*
X20443632Y-18224587D01*
X20450716Y-18207484D01*
X20461001Y-18192091D01*
X20474091Y-18179001D01*
X20489484Y-18168716D01*
X20506587Y-18161632D01*
X20512639Y-18160428D01*
X20524744Y-18158020D01*
X20543256Y-18158020D01*
X20555361Y-18160428D01*
G37*
G36*
X21063361Y-18160428D02*
G01*
X21069413Y-18161632D01*
X21086516Y-18168716D01*
X21101909Y-18179001D01*
X21114999Y-18192091D01*
X21125284Y-18207484D01*
X21132368Y-18224587D01*
X21135980Y-18242744D01*
X21135980Y-18261256D01*
X21132368Y-18279413D01*
X21125284Y-18296516D01*
X21114999Y-18311909D01*
X21101909Y-18324999D01*
X21086516Y-18335284D01*
X21069413Y-18342368D01*
X21063361Y-18343572D01*
X21051256Y-18345980D01*
X21032744Y-18345980D01*
X21020639Y-18343572D01*
X21014587Y-18342368D01*
X20997484Y-18335284D01*
X20982091Y-18324999D01*
X20969001Y-18311909D01*
X20958716Y-18296516D01*
X20951632Y-18279413D01*
X20948020Y-18261256D01*
X20948020Y-18242744D01*
X20951632Y-18224587D01*
X20958716Y-18207484D01*
X20969001Y-18192091D01*
X20982091Y-18179001D01*
X20997484Y-18168716D01*
X21014587Y-18161632D01*
X21020639Y-18160428D01*
X21032744Y-18158020D01*
X21051256Y-18158020D01*
X21063361Y-18160428D01*
G37*
G36*
X21825361Y-18160428D02*
G01*
X21831413Y-18161632D01*
X21848516Y-18168716D01*
X21863909Y-18179001D01*
X21876999Y-18192091D01*
X21887284Y-18207484D01*
X21894368Y-18224587D01*
X21897980Y-18242744D01*
X21897980Y-18261256D01*
X21894368Y-18279413D01*
X21887284Y-18296516D01*
X21876999Y-18311909D01*
X21863909Y-18324999D01*
X21848516Y-18335284D01*
X21831413Y-18342368D01*
X21825361Y-18343572D01*
X21813256Y-18345980D01*
X21794744Y-18345980D01*
X21782639Y-18343572D01*
X21776587Y-18342368D01*
X21759484Y-18335284D01*
X21744091Y-18324999D01*
X21731001Y-18311909D01*
X21720716Y-18296516D01*
X21713632Y-18279413D01*
X21710020Y-18261256D01*
X21710020Y-18242744D01*
X21713632Y-18224587D01*
X21720716Y-18207484D01*
X21731001Y-18192091D01*
X21744091Y-18179001D01*
X21759484Y-18168716D01*
X21776587Y-18161632D01*
X21782639Y-18160428D01*
X21794744Y-18158020D01*
X21813256Y-18158020D01*
X21825361Y-18160428D01*
G37*
G36*
X22079361Y-18160428D02*
G01*
X22085413Y-18161632D01*
X22102516Y-18168716D01*
X22117909Y-18179001D01*
X22130999Y-18192091D01*
X22141284Y-18207484D01*
X22148368Y-18224587D01*
X22151980Y-18242744D01*
X22151980Y-18261256D01*
X22148368Y-18279413D01*
X22141284Y-18296516D01*
X22130999Y-18311909D01*
X22117909Y-18324999D01*
X22102516Y-18335284D01*
X22085413Y-18342368D01*
X22079361Y-18343572D01*
X22067256Y-18345980D01*
X22048744Y-18345980D01*
X22036639Y-18343572D01*
X22030587Y-18342368D01*
X22013484Y-18335284D01*
X21998091Y-18324999D01*
X21985001Y-18311909D01*
X21974716Y-18296516D01*
X21967632Y-18279413D01*
X21964020Y-18261256D01*
X21964020Y-18242744D01*
X21967632Y-18224587D01*
X21974716Y-18207484D01*
X21985001Y-18192091D01*
X21998091Y-18179001D01*
X22013484Y-18168716D01*
X22030587Y-18161632D01*
X22036639Y-18160428D01*
X22048744Y-18158020D01*
X22067256Y-18158020D01*
X22079361Y-18160428D01*
G37*
G36*
X22333361Y-18160428D02*
G01*
X22339413Y-18161632D01*
X22356516Y-18168716D01*
X22371909Y-18179001D01*
X22384999Y-18192091D01*
X22395284Y-18207484D01*
X22402368Y-18224587D01*
X22405980Y-18242744D01*
X22405980Y-18261256D01*
X22402368Y-18279413D01*
X22395284Y-18296516D01*
X22384999Y-18311909D01*
X22371909Y-18324999D01*
X22356516Y-18335284D01*
X22339413Y-18342368D01*
X22333361Y-18343572D01*
X22321256Y-18345980D01*
X22302744Y-18345980D01*
X22290639Y-18343572D01*
X22284587Y-18342368D01*
X22267484Y-18335284D01*
X22252091Y-18324999D01*
X22239001Y-18311909D01*
X22228716Y-18296516D01*
X22221632Y-18279413D01*
X22218020Y-18261256D01*
X22218020Y-18242744D01*
X22221632Y-18224587D01*
X22228716Y-18207484D01*
X22239001Y-18192091D01*
X22252091Y-18179001D01*
X22267484Y-18168716D01*
X22284587Y-18161632D01*
X22290639Y-18160428D01*
X22302744Y-18158020D01*
X22321256Y-18158020D01*
X22333361Y-18160428D01*
G37*
G36*
X22587361Y-18160428D02*
G01*
X22593413Y-18161632D01*
X22610516Y-18168716D01*
X22625909Y-18179001D01*
X22638999Y-18192091D01*
X22649284Y-18207484D01*
X22656368Y-18224587D01*
X22659980Y-18242744D01*
X22659980Y-18261256D01*
X22656368Y-18279413D01*
X22649284Y-18296516D01*
X22638999Y-18311909D01*
X22625909Y-18324999D01*
X22610516Y-18335284D01*
X22593413Y-18342368D01*
X22587361Y-18343572D01*
X22575256Y-18345980D01*
X22556744Y-18345980D01*
X22544639Y-18343572D01*
X22538587Y-18342368D01*
X22521484Y-18335284D01*
X22506091Y-18324999D01*
X22493001Y-18311909D01*
X22482716Y-18296516D01*
X22475632Y-18279413D01*
X22472020Y-18261256D01*
X22472020Y-18242744D01*
X22475632Y-18224587D01*
X22482716Y-18207484D01*
X22493001Y-18192091D01*
X22506091Y-18179001D01*
X22521484Y-18168716D01*
X22538587Y-18161632D01*
X22544639Y-18160428D01*
X22556744Y-18158020D01*
X22575256Y-18158020D01*
X22587361Y-18160428D01*
G37*
G36*
X22841361Y-18160428D02*
G01*
X22847413Y-18161632D01*
X22864516Y-18168716D01*
X22879909Y-18179001D01*
X22892999Y-18192091D01*
X22903284Y-18207484D01*
X22910368Y-18224587D01*
X22913980Y-18242744D01*
X22913980Y-18261256D01*
X22910368Y-18279413D01*
X22903284Y-18296516D01*
X22892999Y-18311909D01*
X22879909Y-18324999D01*
X22864516Y-18335284D01*
X22847413Y-18342368D01*
X22841361Y-18343572D01*
X22829256Y-18345980D01*
X22810744Y-18345980D01*
X22798639Y-18343572D01*
X22792587Y-18342368D01*
X22775484Y-18335284D01*
X22760091Y-18324999D01*
X22747001Y-18311909D01*
X22736716Y-18296516D01*
X22729632Y-18279413D01*
X22726020Y-18261256D01*
X22726020Y-18242744D01*
X22729632Y-18224587D01*
X22736716Y-18207484D01*
X22747001Y-18192091D01*
X22760091Y-18179001D01*
X22775484Y-18168716D01*
X22792587Y-18161632D01*
X22798639Y-18160428D01*
X22810744Y-18158020D01*
X22829256Y-18158020D01*
X22841361Y-18160428D01*
G37*
G36*
X23095361Y-18160428D02*
G01*
X23101413Y-18161632D01*
X23118516Y-18168716D01*
X23133909Y-18179001D01*
X23146999Y-18192091D01*
X23157284Y-18207484D01*
X23164368Y-18224587D01*
X23167980Y-18242744D01*
X23167980Y-18261256D01*
X23164368Y-18279413D01*
X23157284Y-18296516D01*
X23146999Y-18311909D01*
X23133909Y-18324999D01*
X23118516Y-18335284D01*
X23101413Y-18342368D01*
X23095361Y-18343572D01*
X23083256Y-18345980D01*
X23064744Y-18345980D01*
X23052639Y-18343572D01*
X23046587Y-18342368D01*
X23029484Y-18335284D01*
X23014091Y-18324999D01*
X23001001Y-18311909D01*
X22990716Y-18296516D01*
X22983632Y-18279413D01*
X22980020Y-18261256D01*
X22980020Y-18242744D01*
X22983632Y-18224587D01*
X22990716Y-18207484D01*
X23001001Y-18192091D01*
X23014091Y-18179001D01*
X23029484Y-18168716D01*
X23046587Y-18161632D01*
X23052639Y-18160428D01*
X23064744Y-18158020D01*
X23083256Y-18158020D01*
X23095361Y-18160428D01*
G37*
G36*
X21317361Y-18160428D02*
G01*
X21323413Y-18161632D01*
X21340516Y-18168716D01*
X21355909Y-18179001D01*
X21368999Y-18192091D01*
X21379284Y-18207484D01*
X21386368Y-18224587D01*
X21389980Y-18242744D01*
X21389980Y-18261256D01*
X21386368Y-18279413D01*
X21379284Y-18296516D01*
X21368999Y-18311909D01*
X21355909Y-18324999D01*
X21340516Y-18335284D01*
X21323413Y-18342368D01*
X21317361Y-18343572D01*
X21305256Y-18345980D01*
X21286744Y-18345980D01*
X21274639Y-18343572D01*
X21268587Y-18342368D01*
X21251484Y-18335284D01*
X21236091Y-18324999D01*
X21223001Y-18311909D01*
X21212716Y-18296516D01*
X21205632Y-18279413D01*
X21202020Y-18261256D01*
X21202020Y-18242744D01*
X21205632Y-18224587D01*
X21212716Y-18207484D01*
X21223001Y-18192091D01*
X21236091Y-18179001D01*
X21251484Y-18168716D01*
X21268587Y-18161632D01*
X21274639Y-18160428D01*
X21286744Y-18158020D01*
X21305256Y-18158020D01*
X21317361Y-18160428D01*
G37*
G36*
X21571361Y-18160428D02*
G01*
X21577413Y-18161632D01*
X21594516Y-18168716D01*
X21609909Y-18179001D01*
X21622999Y-18192091D01*
X21633284Y-18207484D01*
X21640368Y-18224587D01*
X21643980Y-18242744D01*
X21643980Y-18261256D01*
X21640368Y-18279413D01*
X21633284Y-18296516D01*
X21622999Y-18311909D01*
X21609909Y-18324999D01*
X21594516Y-18335284D01*
X21577413Y-18342368D01*
X21571361Y-18343572D01*
X21559256Y-18345980D01*
X21540744Y-18345980D01*
X21528639Y-18343572D01*
X21522587Y-18342368D01*
X21505484Y-18335284D01*
X21490091Y-18324999D01*
X21477001Y-18311909D01*
X21466716Y-18296516D01*
X21459632Y-18279413D01*
X21456020Y-18261256D01*
X21456020Y-18242744D01*
X21459632Y-18224587D01*
X21466716Y-18207484D01*
X21477001Y-18192091D01*
X21490091Y-18179001D01*
X21505484Y-18168716D01*
X21522587Y-18161632D01*
X21528639Y-18160428D01*
X21540744Y-18158020D01*
X21559256Y-18158020D01*
X21571361Y-18160428D01*
G37*
G36*
X17211351Y-17818393D02*
G01*
X17226281Y-17821362D01*
X17242678Y-17828154D01*
X17257435Y-17838015D01*
X17269985Y-17850565D01*
X17279846Y-17865322D01*
X17286638Y-17881719D01*
X17290100Y-17899126D01*
X17290100Y-17916874D01*
X17286638Y-17934281D01*
X17279846Y-17950678D01*
X17269985Y-17965435D01*
X17257435Y-17977985D01*
X17242678Y-17987846D01*
X17226281Y-17994638D01*
X17211351Y-17997607D01*
X17208874Y-17998100D01*
X17191126Y-17998100D01*
X17188649Y-17997607D01*
X17173719Y-17994638D01*
X17157322Y-17987846D01*
X17142565Y-17977985D01*
X17130015Y-17965435D01*
X17120154Y-17950678D01*
X17113362Y-17934281D01*
X17109900Y-17916874D01*
X17109900Y-17899126D01*
X17113362Y-17881719D01*
X17120154Y-17865322D01*
X17130015Y-17850565D01*
X17142565Y-17838015D01*
X17157322Y-17828154D01*
X17173719Y-17821362D01*
X17188649Y-17818393D01*
X17191126Y-17817900D01*
X17208874Y-17817900D01*
X17211351Y-17818393D01*
G37*
G36*
X17211351Y-17564393D02*
G01*
X17226281Y-17567362D01*
X17242678Y-17574154D01*
X17257435Y-17584015D01*
X17269985Y-17596565D01*
X17279846Y-17611322D01*
X17286638Y-17627719D01*
X17290100Y-17645126D01*
X17290100Y-17662874D01*
X17286638Y-17680281D01*
X17279846Y-17696678D01*
X17269985Y-17711435D01*
X17257435Y-17723985D01*
X17242678Y-17733846D01*
X17226281Y-17740638D01*
X17211351Y-17743607D01*
X17208874Y-17744100D01*
X17191126Y-17744100D01*
X17188649Y-17743607D01*
X17173719Y-17740638D01*
X17157322Y-17733846D01*
X17142565Y-17723985D01*
X17130015Y-17711435D01*
X17120154Y-17696678D01*
X17113362Y-17680281D01*
X17109900Y-17662874D01*
X17109900Y-17645126D01*
X17113362Y-17627719D01*
X17120154Y-17611322D01*
X17130015Y-17596565D01*
X17142565Y-17584015D01*
X17157322Y-17574154D01*
X17173719Y-17567362D01*
X17188649Y-17564393D01*
X17191126Y-17563900D01*
X17208874Y-17563900D01*
X17211351Y-17564393D01*
G37*
G36*
X17290100Y-17490100D02*
G01*
X17109900Y-17490100D01*
X17109900Y-17309900D01*
X17290100Y-17309900D01*
X17290100Y-17490100D01*
G37*
G36*
X22483885Y-17060214D02*
G01*
X22490262Y-17060842D01*
X22499340Y-17063596D01*
X22502534Y-17064565D01*
X22513842Y-17070609D01*
X22523755Y-17078745D01*
X22531891Y-17088658D01*
X22537935Y-17099966D01*
X22537935Y-17099967D01*
X22541658Y-17112238D01*
X22542915Y-17125000D01*
X22541658Y-17137762D01*
X22538904Y-17146840D01*
X22537935Y-17150034D01*
X22531891Y-17161343D01*
X22523755Y-17171255D01*
X22513842Y-17179391D01*
X22502534Y-17185435D01*
X22499340Y-17186404D01*
X22490262Y-17189158D01*
X22483885Y-17189786D01*
X22480697Y-17190100D01*
X22419303Y-17190100D01*
X22416114Y-17189786D01*
X22409738Y-17189158D01*
X22400660Y-17186404D01*
X22397466Y-17185435D01*
X22386157Y-17179391D01*
X22376245Y-17171255D01*
X22368109Y-17161343D01*
X22362065Y-17150034D01*
X22361096Y-17146840D01*
X22358342Y-17137762D01*
X22357085Y-17125000D01*
X22358342Y-17112238D01*
X22362065Y-17099967D01*
X22362065Y-17099966D01*
X22368109Y-17088658D01*
X22376245Y-17078745D01*
X22386157Y-17070609D01*
X22397466Y-17064565D01*
X22400660Y-17063596D01*
X22409738Y-17060842D01*
X22416114Y-17060214D01*
X22419303Y-17059900D01*
X22480697Y-17059900D01*
X22483885Y-17060214D01*
G37*
G36*
X23233885Y-17060214D02*
G01*
X23240262Y-17060842D01*
X23249340Y-17063596D01*
X23252534Y-17064565D01*
X23263842Y-17070609D01*
X23273755Y-17078745D01*
X23281891Y-17088658D01*
X23287935Y-17099966D01*
X23287935Y-17099967D01*
X23291658Y-17112238D01*
X23292915Y-17125000D01*
X23291658Y-17137762D01*
X23288904Y-17146840D01*
X23287935Y-17150034D01*
X23281891Y-17161343D01*
X23273755Y-17171255D01*
X23263842Y-17179391D01*
X23252534Y-17185435D01*
X23249340Y-17186404D01*
X23240262Y-17189158D01*
X23233885Y-17189786D01*
X23230697Y-17190100D01*
X23169303Y-17190100D01*
X23166114Y-17189786D01*
X23159738Y-17189158D01*
X23150660Y-17186404D01*
X23147466Y-17185435D01*
X23136157Y-17179391D01*
X23126245Y-17171255D01*
X23118109Y-17161343D01*
X23112065Y-17150034D01*
X23111096Y-17146840D01*
X23108342Y-17137762D01*
X23107085Y-17125000D01*
X23108342Y-17112238D01*
X23112064Y-17099967D01*
X23112065Y-17099966D01*
X23118109Y-17088658D01*
X23126245Y-17078745D01*
X23136157Y-17070609D01*
X23147466Y-17064565D01*
X23150660Y-17063596D01*
X23159738Y-17060842D01*
X23166114Y-17060214D01*
X23169303Y-17059900D01*
X23230697Y-17059900D01*
X23233885Y-17060214D01*
G37*
G36*
X23983885Y-17060214D02*
G01*
X23990262Y-17060842D01*
X23999340Y-17063596D01*
X24002534Y-17064565D01*
X24013842Y-17070609D01*
X24023755Y-17078745D01*
X24031891Y-17088658D01*
X24037935Y-17099966D01*
X24037935Y-17099967D01*
X24041658Y-17112238D01*
X24042915Y-17125000D01*
X24041658Y-17137762D01*
X24038904Y-17146840D01*
X24037935Y-17150034D01*
X24031891Y-17161343D01*
X24023755Y-17171255D01*
X24013842Y-17179391D01*
X24002534Y-17185435D01*
X23999340Y-17186404D01*
X23990262Y-17189158D01*
X23983885Y-17189786D01*
X23980697Y-17190100D01*
X23919303Y-17190100D01*
X23916114Y-17189786D01*
X23909738Y-17189158D01*
X23900660Y-17186404D01*
X23897466Y-17185435D01*
X23886157Y-17179391D01*
X23876245Y-17171255D01*
X23868109Y-17161343D01*
X23862065Y-17150034D01*
X23861096Y-17146840D01*
X23858342Y-17137762D01*
X23857085Y-17125000D01*
X23858342Y-17112238D01*
X23862064Y-17099967D01*
X23862065Y-17099966D01*
X23868109Y-17088658D01*
X23876245Y-17078745D01*
X23886157Y-17070609D01*
X23897466Y-17064565D01*
X23900660Y-17063596D01*
X23909738Y-17060842D01*
X23916114Y-17060214D01*
X23919303Y-17059900D01*
X23980697Y-17059900D01*
X23983885Y-17060214D01*
G37*
G36*
X20983886Y-17060214D02*
G01*
X20990262Y-17060842D01*
X20999340Y-17063596D01*
X21002534Y-17064565D01*
X21013843Y-17070609D01*
X21023755Y-17078745D01*
X21031891Y-17088658D01*
X21037935Y-17099966D01*
X21037936Y-17099967D01*
X21041658Y-17112238D01*
X21042915Y-17125000D01*
X21041658Y-17137762D01*
X21038904Y-17146840D01*
X21037935Y-17150034D01*
X21031891Y-17161343D01*
X21023755Y-17171255D01*
X21013843Y-17179391D01*
X21002534Y-17185435D01*
X20999340Y-17186404D01*
X20990262Y-17189158D01*
X20983886Y-17189786D01*
X20980697Y-17190100D01*
X20919303Y-17190100D01*
X20916115Y-17189786D01*
X20909738Y-17189158D01*
X20900660Y-17186404D01*
X20897466Y-17185435D01*
X20886158Y-17179391D01*
X20876245Y-17171255D01*
X20868109Y-17161343D01*
X20862065Y-17150034D01*
X20861096Y-17146840D01*
X20858342Y-17137762D01*
X20857085Y-17125000D01*
X20858342Y-17112238D01*
X20862065Y-17099967D01*
X20862065Y-17099966D01*
X20868109Y-17088658D01*
X20876245Y-17078745D01*
X20886158Y-17070609D01*
X20897466Y-17064565D01*
X20900660Y-17063596D01*
X20909738Y-17060842D01*
X20916115Y-17060214D01*
X20919303Y-17059900D01*
X20980697Y-17059900D01*
X20983886Y-17060214D01*
G37*
G36*
X21733886Y-17060214D02*
G01*
X21740262Y-17060842D01*
X21749340Y-17063596D01*
X21752534Y-17064565D01*
X21763843Y-17070609D01*
X21773755Y-17078745D01*
X21781891Y-17088658D01*
X21787935Y-17099966D01*
X21787936Y-17099967D01*
X21791658Y-17112238D01*
X21792915Y-17125000D01*
X21791658Y-17137762D01*
X21788904Y-17146840D01*
X21787935Y-17150034D01*
X21781891Y-17161343D01*
X21773755Y-17171255D01*
X21763843Y-17179391D01*
X21752534Y-17185435D01*
X21749340Y-17186404D01*
X21740262Y-17189158D01*
X21733886Y-17189786D01*
X21730697Y-17190100D01*
X21669303Y-17190100D01*
X21666115Y-17189786D01*
X21659738Y-17189158D01*
X21650660Y-17186404D01*
X21647466Y-17185435D01*
X21636158Y-17179391D01*
X21626245Y-17171255D01*
X21618109Y-17161343D01*
X21612065Y-17150034D01*
X21611096Y-17146840D01*
X21608342Y-17137762D01*
X21607085Y-17125000D01*
X21608342Y-17112238D01*
X21612065Y-17099967D01*
X21612065Y-17099966D01*
X21618109Y-17088658D01*
X21626245Y-17078745D01*
X21636158Y-17070609D01*
X21647466Y-17064565D01*
X21650660Y-17063596D01*
X21659738Y-17060842D01*
X21666115Y-17060214D01*
X21669303Y-17059900D01*
X21730697Y-17059900D01*
X21733886Y-17060214D01*
G37*
G36*
X23983885Y-16860214D02*
G01*
X23990262Y-16860842D01*
X23999340Y-16863596D01*
X24002534Y-16864565D01*
X24013842Y-16870609D01*
X24023755Y-16878745D01*
X24031891Y-16888658D01*
X24037935Y-16899966D01*
X24037935Y-16899967D01*
X24041658Y-16912238D01*
X24042915Y-16925000D01*
X24041658Y-16937762D01*
X24038904Y-16946840D01*
X24037935Y-16950034D01*
X24031891Y-16961343D01*
X24023755Y-16971255D01*
X24013842Y-16979391D01*
X24002534Y-16985435D01*
X23999340Y-16986404D01*
X23990262Y-16989158D01*
X23983885Y-16989786D01*
X23980697Y-16990100D01*
X23919303Y-16990100D01*
X23916114Y-16989786D01*
X23909738Y-16989158D01*
X23900660Y-16986404D01*
X23897466Y-16985435D01*
X23886157Y-16979391D01*
X23876245Y-16971255D01*
X23868109Y-16961343D01*
X23862065Y-16950034D01*
X23861096Y-16946840D01*
X23858342Y-16937762D01*
X23857085Y-16925000D01*
X23858342Y-16912238D01*
X23862064Y-16899967D01*
X23862065Y-16899966D01*
X23868109Y-16888658D01*
X23876245Y-16878745D01*
X23886157Y-16870609D01*
X23897466Y-16864565D01*
X23900660Y-16863596D01*
X23909738Y-16860842D01*
X23916114Y-16860214D01*
X23919303Y-16859900D01*
X23980697Y-16859900D01*
X23983885Y-16860214D01*
G37*
G36*
X20983886Y-16860214D02*
G01*
X20990262Y-16860842D01*
X20999340Y-16863596D01*
X21002534Y-16864565D01*
X21013843Y-16870609D01*
X21023755Y-16878745D01*
X21031891Y-16888658D01*
X21037935Y-16899966D01*
X21037936Y-16899967D01*
X21041658Y-16912238D01*
X21042915Y-16925000D01*
X21041658Y-16937762D01*
X21038904Y-16946840D01*
X21037935Y-16950034D01*
X21031891Y-16961343D01*
X21023755Y-16971255D01*
X21013843Y-16979391D01*
X21002534Y-16985435D01*
X20999340Y-16986404D01*
X20990262Y-16989158D01*
X20983886Y-16989786D01*
X20980697Y-16990100D01*
X20919303Y-16990100D01*
X20916115Y-16989786D01*
X20909738Y-16989158D01*
X20900660Y-16986404D01*
X20897466Y-16985435D01*
X20886158Y-16979391D01*
X20876245Y-16971255D01*
X20868109Y-16961343D01*
X20862065Y-16950034D01*
X20861096Y-16946840D01*
X20858342Y-16937762D01*
X20857085Y-16925000D01*
X20858342Y-16912238D01*
X20862065Y-16899967D01*
X20862065Y-16899966D01*
X20868109Y-16888658D01*
X20876245Y-16878745D01*
X20886158Y-16870609D01*
X20897466Y-16864565D01*
X20900660Y-16863596D01*
X20909738Y-16860842D01*
X20916115Y-16860214D01*
X20919303Y-16859900D01*
X20980697Y-16859900D01*
X20983886Y-16860214D01*
G37*
G36*
X21733886Y-16860214D02*
G01*
X21740262Y-16860842D01*
X21749340Y-16863596D01*
X21752534Y-16864565D01*
X21763843Y-16870609D01*
X21773755Y-16878745D01*
X21781891Y-16888658D01*
X21787935Y-16899966D01*
X21787936Y-16899967D01*
X21791658Y-16912238D01*
X21792915Y-16925000D01*
X21791658Y-16937762D01*
X21788904Y-16946840D01*
X21787935Y-16950034D01*
X21781891Y-16961343D01*
X21773755Y-16971255D01*
X21763843Y-16979391D01*
X21752534Y-16985435D01*
X21749340Y-16986404D01*
X21740262Y-16989158D01*
X21733886Y-16989786D01*
X21730697Y-16990100D01*
X21669303Y-16990100D01*
X21666115Y-16989786D01*
X21659738Y-16989158D01*
X21650660Y-16986404D01*
X21647466Y-16985435D01*
X21636158Y-16979391D01*
X21626245Y-16971255D01*
X21618109Y-16961343D01*
X21612065Y-16950034D01*
X21611096Y-16946840D01*
X21608342Y-16937762D01*
X21607085Y-16925000D01*
X21608342Y-16912238D01*
X21612065Y-16899967D01*
X21612065Y-16899966D01*
X21618109Y-16888658D01*
X21626245Y-16878745D01*
X21636158Y-16870609D01*
X21647466Y-16864565D01*
X21650660Y-16863596D01*
X21659738Y-16860842D01*
X21666115Y-16860214D01*
X21669303Y-16859900D01*
X21730697Y-16859900D01*
X21733886Y-16860214D01*
G37*
G36*
X23233885Y-16860214D02*
G01*
X23240262Y-16860842D01*
X23249340Y-16863596D01*
X23252534Y-16864565D01*
X23263842Y-16870609D01*
X23273755Y-16878745D01*
X23281891Y-16888658D01*
X23287935Y-16899966D01*
X23287935Y-16899967D01*
X23291658Y-16912238D01*
X23292915Y-16925000D01*
X23291658Y-16937762D01*
X23288904Y-16946840D01*
X23287935Y-16950034D01*
X23281891Y-16961343D01*
X23273755Y-16971255D01*
X23263842Y-16979391D01*
X23252534Y-16985435D01*
X23249340Y-16986404D01*
X23240262Y-16989158D01*
X23233885Y-16989786D01*
X23230697Y-16990100D01*
X23169303Y-16990100D01*
X23166114Y-16989786D01*
X23159738Y-16989158D01*
X23150660Y-16986404D01*
X23147466Y-16985435D01*
X23136157Y-16979391D01*
X23126245Y-16971255D01*
X23118109Y-16961343D01*
X23112065Y-16950034D01*
X23111096Y-16946840D01*
X23108342Y-16937762D01*
X23107085Y-16925000D01*
X23108342Y-16912238D01*
X23112064Y-16899967D01*
X23112065Y-16899966D01*
X23118109Y-16888658D01*
X23126245Y-16878745D01*
X23136157Y-16870609D01*
X23147466Y-16864565D01*
X23150660Y-16863596D01*
X23159738Y-16860842D01*
X23166114Y-16860214D01*
X23169303Y-16859900D01*
X23230697Y-16859900D01*
X23233885Y-16860214D01*
G37*
G36*
X22483885Y-16860214D02*
G01*
X22490262Y-16860842D01*
X22499340Y-16863596D01*
X22502534Y-16864565D01*
X22513842Y-16870609D01*
X22523755Y-16878745D01*
X22531891Y-16888658D01*
X22537935Y-16899966D01*
X22537935Y-16899967D01*
X22541658Y-16912238D01*
X22542915Y-16925000D01*
X22541658Y-16937762D01*
X22538904Y-16946840D01*
X22537935Y-16950034D01*
X22531891Y-16961343D01*
X22523755Y-16971255D01*
X22513842Y-16979391D01*
X22502534Y-16985435D01*
X22499340Y-16986404D01*
X22490262Y-16989158D01*
X22483885Y-16989786D01*
X22480697Y-16990100D01*
X22419303Y-16990100D01*
X22416114Y-16989786D01*
X22409738Y-16989158D01*
X22400660Y-16986404D01*
X22397466Y-16985435D01*
X22386157Y-16979391D01*
X22376245Y-16971255D01*
X22368109Y-16961343D01*
X22362065Y-16950034D01*
X22361096Y-16946840D01*
X22358342Y-16937762D01*
X22357085Y-16925000D01*
X22358342Y-16912238D01*
X22362065Y-16899967D01*
X22362065Y-16899966D01*
X22368109Y-16888658D01*
X22376245Y-16878745D01*
X22386157Y-16870609D01*
X22397466Y-16864565D01*
X22400660Y-16863596D01*
X22409738Y-16860842D01*
X22416114Y-16860214D01*
X22419303Y-16859900D01*
X22480697Y-16859900D01*
X22483885Y-16860214D01*
G37*
G36*
X17427533Y-16501821D02*
G01*
X17460309Y-16515397D01*
X17489807Y-16535107D01*
X17514893Y-16560193D01*
X17534603Y-16589691D01*
X17548179Y-16622467D01*
X17555100Y-16657262D01*
X17555100Y-16692738D01*
X17548179Y-16727533D01*
X17534603Y-16760309D01*
X17514893Y-16789807D01*
X17489807Y-16814893D01*
X17460309Y-16834603D01*
X17427533Y-16848179D01*
X17392738Y-16855100D01*
X17357262Y-16855100D01*
X17322467Y-16848179D01*
X17289691Y-16834603D01*
X17260193Y-16814893D01*
X17235107Y-16789807D01*
X17215397Y-16760309D01*
X17201821Y-16727533D01*
X17194900Y-16692738D01*
X17194900Y-16657262D01*
X17201821Y-16622467D01*
X17215397Y-16589691D01*
X17235107Y-16560193D01*
X17260193Y-16535107D01*
X17289691Y-16515397D01*
X17322467Y-16501821D01*
X17357262Y-16494900D01*
X17392738Y-16494900D01*
X17427533Y-16501821D01*
G37*
G36*
X24627533Y-16501821D02*
G01*
X24660309Y-16515397D01*
X24689807Y-16535107D01*
X24714893Y-16560193D01*
X24734603Y-16589691D01*
X24748179Y-16622467D01*
X24755100Y-16657262D01*
X24755100Y-16692738D01*
X24748179Y-16727533D01*
X24734603Y-16760309D01*
X24714893Y-16789807D01*
X24689807Y-16814893D01*
X24660309Y-16834603D01*
X24627533Y-16848179D01*
X24592738Y-16855100D01*
X24557262Y-16855100D01*
X24522467Y-16848179D01*
X24489691Y-16834603D01*
X24460193Y-16814893D01*
X24435107Y-16789807D01*
X24415397Y-16760309D01*
X24401821Y-16727533D01*
X24394900Y-16692738D01*
X24394900Y-16657262D01*
X24401821Y-16622467D01*
X24415397Y-16589691D01*
X24435107Y-16560193D01*
X24460193Y-16535107D01*
X24489691Y-16515397D01*
X24522467Y-16501821D01*
X24557262Y-16494900D01*
X24592738Y-16494900D01*
X24627533Y-16501821D01*
G37*
G36*
X20983886Y-16660214D02*
G01*
X20990262Y-16660842D01*
X20999340Y-16663596D01*
X21002534Y-16664565D01*
X21013843Y-16670609D01*
X21023755Y-16678745D01*
X21031891Y-16688657D01*
X21037935Y-16699966D01*
X21037936Y-16699967D01*
X21041658Y-16712238D01*
X21042915Y-16725000D01*
X21041658Y-16737762D01*
X21038904Y-16746840D01*
X21037935Y-16750034D01*
X21031891Y-16761342D01*
X21023755Y-16771255D01*
X21013843Y-16779391D01*
X21002534Y-16785435D01*
X20999340Y-16786404D01*
X20990262Y-16789158D01*
X20983886Y-16789786D01*
X20980697Y-16790100D01*
X20919303Y-16790100D01*
X20916115Y-16789786D01*
X20909738Y-16789158D01*
X20900660Y-16786404D01*
X20897466Y-16785435D01*
X20886158Y-16779391D01*
X20876245Y-16771255D01*
X20868109Y-16761342D01*
X20862065Y-16750034D01*
X20861096Y-16746840D01*
X20858342Y-16737762D01*
X20857085Y-16725000D01*
X20858342Y-16712238D01*
X20862065Y-16699967D01*
X20862065Y-16699966D01*
X20868109Y-16688657D01*
X20876245Y-16678745D01*
X20886158Y-16670609D01*
X20897466Y-16664565D01*
X20900660Y-16663596D01*
X20909738Y-16660842D01*
X20916115Y-16660214D01*
X20919303Y-16659900D01*
X20980697Y-16659900D01*
X20983886Y-16660214D01*
G37*
G36*
X23233885Y-16660214D02*
G01*
X23240262Y-16660842D01*
X23249340Y-16663596D01*
X23252534Y-16664565D01*
X23263842Y-16670609D01*
X23273755Y-16678745D01*
X23281891Y-16688657D01*
X23287935Y-16699966D01*
X23287935Y-16699967D01*
X23291658Y-16712238D01*
X23292915Y-16725000D01*
X23291658Y-16737762D01*
X23288904Y-16746840D01*
X23287935Y-16750034D01*
X23281891Y-16761342D01*
X23273755Y-16771255D01*
X23263842Y-16779391D01*
X23252534Y-16785435D01*
X23249340Y-16786404D01*
X23240262Y-16789158D01*
X23233885Y-16789786D01*
X23230697Y-16790100D01*
X23169303Y-16790100D01*
X23166114Y-16789786D01*
X23159738Y-16789158D01*
X23150660Y-16786404D01*
X23147466Y-16785435D01*
X23136157Y-16779391D01*
X23126245Y-16771255D01*
X23118109Y-16761342D01*
X23112065Y-16750034D01*
X23111096Y-16746840D01*
X23108342Y-16737762D01*
X23107085Y-16725000D01*
X23108342Y-16712238D01*
X23112064Y-16699967D01*
X23112065Y-16699966D01*
X23118109Y-16688657D01*
X23126245Y-16678745D01*
X23136157Y-16670609D01*
X23147466Y-16664565D01*
X23150660Y-16663596D01*
X23159738Y-16660842D01*
X23166114Y-16660214D01*
X23169303Y-16659900D01*
X23230697Y-16659900D01*
X23233885Y-16660214D01*
G37*
G36*
X23983885Y-16660214D02*
G01*
X23990262Y-16660842D01*
X23999340Y-16663596D01*
X24002534Y-16664565D01*
X24013842Y-16670609D01*
X24023755Y-16678745D01*
X24031891Y-16688657D01*
X24037935Y-16699966D01*
X24037935Y-16699967D01*
X24041658Y-16712238D01*
X24042915Y-16725000D01*
X24041658Y-16737762D01*
X24038904Y-16746840D01*
X24037935Y-16750034D01*
X24031891Y-16761342D01*
X24023755Y-16771255D01*
X24013842Y-16779391D01*
X24002534Y-16785435D01*
X23999340Y-16786404D01*
X23990262Y-16789158D01*
X23983885Y-16789786D01*
X23980697Y-16790100D01*
X23919303Y-16790100D01*
X23916114Y-16789786D01*
X23909738Y-16789158D01*
X23900660Y-16786404D01*
X23897466Y-16785435D01*
X23886157Y-16779391D01*
X23876245Y-16771255D01*
X23868109Y-16761342D01*
X23862065Y-16750034D01*
X23861096Y-16746840D01*
X23858342Y-16737762D01*
X23857085Y-16725000D01*
X23858342Y-16712238D01*
X23862064Y-16699967D01*
X23862065Y-16699966D01*
X23868109Y-16688657D01*
X23876245Y-16678745D01*
X23886157Y-16670609D01*
X23897466Y-16664565D01*
X23900660Y-16663596D01*
X23909738Y-16660842D01*
X23916114Y-16660214D01*
X23919303Y-16659900D01*
X23980697Y-16659900D01*
X23983885Y-16660214D01*
G37*
G36*
X22483885Y-16660214D02*
G01*
X22490262Y-16660842D01*
X22499340Y-16663596D01*
X22502534Y-16664565D01*
X22513842Y-16670609D01*
X22523755Y-16678745D01*
X22531891Y-16688657D01*
X22537935Y-16699966D01*
X22537935Y-16699967D01*
X22541658Y-16712238D01*
X22542915Y-16725000D01*
X22541658Y-16737762D01*
X22538904Y-16746840D01*
X22537935Y-16750034D01*
X22531891Y-16761342D01*
X22523755Y-16771255D01*
X22513842Y-16779391D01*
X22502534Y-16785435D01*
X22499340Y-16786404D01*
X22490262Y-16789158D01*
X22483885Y-16789786D01*
X22480697Y-16790100D01*
X22419303Y-16790100D01*
X22416114Y-16789786D01*
X22409738Y-16789158D01*
X22400660Y-16786404D01*
X22397466Y-16785435D01*
X22386157Y-16779391D01*
X22376245Y-16771255D01*
X22368109Y-16761342D01*
X22362065Y-16750034D01*
X22361096Y-16746840D01*
X22358342Y-16737762D01*
X22357085Y-16725000D01*
X22358342Y-16712238D01*
X22362065Y-16699967D01*
X22362065Y-16699966D01*
X22368109Y-16688657D01*
X22376245Y-16678745D01*
X22386157Y-16670609D01*
X22397466Y-16664565D01*
X22400660Y-16663596D01*
X22409738Y-16660842D01*
X22416114Y-16660214D01*
X22419303Y-16659900D01*
X22480697Y-16659900D01*
X22483885Y-16660214D01*
G37*
G36*
X21733886Y-16660214D02*
G01*
X21740262Y-16660842D01*
X21749340Y-16663596D01*
X21752534Y-16664565D01*
X21763843Y-16670609D01*
X21773755Y-16678745D01*
X21781891Y-16688657D01*
X21787935Y-16699966D01*
X21787936Y-16699967D01*
X21791658Y-16712238D01*
X21792915Y-16725000D01*
X21791658Y-16737762D01*
X21788904Y-16746840D01*
X21787935Y-16750034D01*
X21781891Y-16761342D01*
X21773755Y-16771255D01*
X21763843Y-16779391D01*
X21752534Y-16785435D01*
X21749340Y-16786404D01*
X21740262Y-16789158D01*
X21733886Y-16789786D01*
X21730697Y-16790100D01*
X21669303Y-16790100D01*
X21666115Y-16789786D01*
X21659738Y-16789158D01*
X21650660Y-16786404D01*
X21647466Y-16785435D01*
X21636158Y-16779391D01*
X21626245Y-16771255D01*
X21618109Y-16761342D01*
X21612065Y-16750034D01*
X21611096Y-16746840D01*
X21608342Y-16737762D01*
X21607085Y-16725000D01*
X21608342Y-16712238D01*
X21612065Y-16699967D01*
X21612065Y-16699966D01*
X21618109Y-16688657D01*
X21626245Y-16678745D01*
X21636158Y-16670609D01*
X21647466Y-16664565D01*
X21650660Y-16663596D01*
X21659738Y-16660842D01*
X21666115Y-16660214D01*
X21669303Y-16659900D01*
X21730697Y-16659900D01*
X21733886Y-16660214D01*
G37*
G36*
X24026624Y-16460340D02*
G01*
X24030334Y-16461466D01*
X24033751Y-16463292D01*
X24036748Y-16465752D01*
X24039207Y-16468748D01*
X24041034Y-16472166D01*
X24042160Y-16475876D01*
X24042600Y-16480347D01*
X24042600Y-16569653D01*
X24042160Y-16574124D01*
X24041034Y-16577834D01*
X24039207Y-16581251D01*
X24036748Y-16584248D01*
X24033751Y-16586707D01*
X24030334Y-16588534D01*
X24026624Y-16589660D01*
X24022153Y-16590100D01*
X23877847Y-16590100D01*
X23873376Y-16589660D01*
X23869666Y-16588534D01*
X23866248Y-16586707D01*
X23863252Y-16584248D01*
X23860792Y-16581251D01*
X23858966Y-16577834D01*
X23857840Y-16574124D01*
X23857400Y-16569653D01*
X23857400Y-16480347D01*
X23857840Y-16475876D01*
X23858966Y-16472166D01*
X23860792Y-16468748D01*
X23863252Y-16465752D01*
X23866248Y-16463292D01*
X23869666Y-16461466D01*
X23873376Y-16460340D01*
X23877847Y-16459900D01*
X24022153Y-16459900D01*
X24026624Y-16460340D01*
G37*
G36*
X23276624Y-16460340D02*
G01*
X23280334Y-16461466D01*
X23283751Y-16463292D01*
X23286748Y-16465752D01*
X23289207Y-16468748D01*
X23291034Y-16472166D01*
X23292160Y-16475876D01*
X23292600Y-16480347D01*
X23292600Y-16569653D01*
X23292160Y-16574124D01*
X23291034Y-16577834D01*
X23289207Y-16581251D01*
X23286748Y-16584248D01*
X23283751Y-16586707D01*
X23280334Y-16588534D01*
X23276624Y-16589660D01*
X23272153Y-16590100D01*
X23127847Y-16590100D01*
X23123376Y-16589660D01*
X23119666Y-16588534D01*
X23116248Y-16586707D01*
X23113252Y-16584248D01*
X23110792Y-16581251D01*
X23108966Y-16577834D01*
X23107840Y-16574124D01*
X23107400Y-16569653D01*
X23107400Y-16480347D01*
X23107840Y-16475876D01*
X23108966Y-16472166D01*
X23110792Y-16468748D01*
X23113252Y-16465752D01*
X23116248Y-16463292D01*
X23119666Y-16461466D01*
X23123376Y-16460340D01*
X23127847Y-16459900D01*
X23272153Y-16459900D01*
X23276624Y-16460340D01*
G37*
G36*
X22526624Y-16460340D02*
G01*
X22530334Y-16461466D01*
X22533751Y-16463292D01*
X22536748Y-16465752D01*
X22539207Y-16468748D01*
X22541034Y-16472166D01*
X22542160Y-16475876D01*
X22542600Y-16480347D01*
X22542600Y-16569653D01*
X22542160Y-16574124D01*
X22541034Y-16577834D01*
X22539207Y-16581251D01*
X22536748Y-16584248D01*
X22533751Y-16586707D01*
X22530334Y-16588534D01*
X22526624Y-16589660D01*
X22522153Y-16590100D01*
X22377847Y-16590100D01*
X22373376Y-16589660D01*
X22369666Y-16588534D01*
X22366249Y-16586707D01*
X22363252Y-16584248D01*
X22360793Y-16581251D01*
X22358966Y-16577834D01*
X22357840Y-16574124D01*
X22357400Y-16569653D01*
X22357400Y-16480347D01*
X22357840Y-16475876D01*
X22358966Y-16472166D01*
X22360793Y-16468748D01*
X22363252Y-16465752D01*
X22366249Y-16463292D01*
X22369666Y-16461466D01*
X22373376Y-16460340D01*
X22377847Y-16459900D01*
X22522153Y-16459900D01*
X22526624Y-16460340D01*
G37*
G36*
X21776624Y-16460340D02*
G01*
X21780334Y-16461466D01*
X21783752Y-16463292D01*
X21786748Y-16465752D01*
X21789208Y-16468748D01*
X21791034Y-16472166D01*
X21792160Y-16475876D01*
X21792600Y-16480347D01*
X21792600Y-16569653D01*
X21792160Y-16574124D01*
X21791034Y-16577834D01*
X21789208Y-16581251D01*
X21786748Y-16584248D01*
X21783752Y-16586707D01*
X21780334Y-16588534D01*
X21776624Y-16589660D01*
X21772153Y-16590100D01*
X21627847Y-16590100D01*
X21623376Y-16589660D01*
X21619666Y-16588534D01*
X21616249Y-16586707D01*
X21613252Y-16584248D01*
X21610793Y-16581251D01*
X21608966Y-16577834D01*
X21607840Y-16574124D01*
X21607400Y-16569653D01*
X21607400Y-16480347D01*
X21607840Y-16475876D01*
X21608966Y-16472166D01*
X21610793Y-16468748D01*
X21613252Y-16465752D01*
X21616249Y-16463292D01*
X21619666Y-16461466D01*
X21623376Y-16460340D01*
X21627847Y-16459900D01*
X21772153Y-16459900D01*
X21776624Y-16460340D01*
G37*
G36*
X21026624Y-16460340D02*
G01*
X21030334Y-16461466D01*
X21033752Y-16463292D01*
X21036748Y-16465752D01*
X21039208Y-16468748D01*
X21041034Y-16472166D01*
X21042160Y-16475876D01*
X21042600Y-16480347D01*
X21042600Y-16569653D01*
X21042160Y-16574124D01*
X21041034Y-16577834D01*
X21039208Y-16581251D01*
X21036748Y-16584248D01*
X21033752Y-16586707D01*
X21030334Y-16588534D01*
X21026624Y-16589660D01*
X21022153Y-16590100D01*
X20877847Y-16590100D01*
X20873376Y-16589660D01*
X20869666Y-16588534D01*
X20866249Y-16586707D01*
X20863252Y-16584248D01*
X20860793Y-16581251D01*
X20858966Y-16577834D01*
X20857840Y-16574124D01*
X20857400Y-16569653D01*
X20857400Y-16480347D01*
X20857840Y-16475876D01*
X20858966Y-16472166D01*
X20860793Y-16468748D01*
X20863252Y-16465752D01*
X20866249Y-16463292D01*
X20869666Y-16461466D01*
X20873376Y-16460340D01*
X20877847Y-16459900D01*
X21022153Y-16459900D01*
X21026624Y-16460340D01*
G37*
M02*
