M48
; DRILL file {KiCad 5.1.5-1.fc31} date Wed 03 Jun 2020 06:38:08 PM +07
; FORMAT={-:-/ absolute / inch / decimal}
; #@! TF.CreationDate,2020-06-03T18:38:08+07:00
; #@! TF.GenerationSoftware,Kicad,Pcbnew,5.1.5-1.fc31
; #@! TF.FileFunction,Plated,1,4,PTH
FMAT,2
INCH
T1C0.0079
T2C0.0118
T3C0.0197
T4C0.0256
T5C0.0295
T6C0.0394
T7C0.0472
T8C0.0591
%
G90
G05
T1
X7.9899Y-8.1671
X7.9899Y-8.1986
X7.9899Y-8.2301
X8.0214Y-8.1671
X8.0214Y-8.1986
X8.0214Y-8.2301
X8.0529Y-8.1671
X8.0529Y-8.1986
X8.0529Y-8.2301
T2
X6.7913Y-8.061
X6.7913Y-8.1004
X6.7913Y-8.1398
X6.9882Y-7.2047
X6.9882Y-7.3031
X6.9882Y-7.874
X6.9882Y-7.9724
X7.0374Y-7.0472
X7.0374Y-7.2047
X7.0866Y-7.9724
X7.1161Y-6.4961
X7.1161Y-6.8012
X7.1161Y-8.0512
X7.1457Y-7.3031
X7.1949Y-6.437
X7.1949Y-6.6732
X7.1949Y-6.7421
X7.1949Y-6.9783
X7.1949Y-7.3031
X7.2047Y-7.5492
X7.2047Y-7.7067
X7.2441Y-6.437
X7.2441Y-6.6732
X7.2441Y-6.7421
X7.2441Y-6.9783
X7.2736Y-7.0472
X7.2835Y-7.628
X7.2835Y-8.1594
X7.3031Y-6.437
X7.3031Y-6.6732
X7.3031Y-6.7421
X7.3031Y-6.9783
X7.3031Y-8.1791
X7.3327Y-8.0709
X7.3524Y-6.437
X7.3524Y-6.6732
X7.3524Y-6.7421
X7.3524Y-6.9783
X7.3622Y-7.0768
X7.3622Y-7.5492
X7.3622Y-7.7067
X7.3819Y-8.0807
X7.3917Y-7.3031
X7.3917Y-7.9724
X7.3917Y-8.189
X7.4311Y-6.4961
X7.4311Y-6.8012
X7.4409Y-7.313
X7.5787Y-6.437
X7.5886Y-7.9724
X7.6378Y-7.313
X7.6772Y-6.437
X7.685Y-6.8406
X7.685Y-6.939
X7.6969Y-8.0217
X7.7264Y-6.7421
X7.7461Y-8.0217
X7.7461Y-8.2087
X7.7559Y-6.7126
X7.7657Y-7.7657
X7.7756Y-6.437
X7.7756Y-7.5098
X7.7756Y-7.5492
X7.7756Y-7.5886
X7.7953Y-8.0217
X7.7953Y-8.2087
X7.8051Y-7.3622
X7.815Y-7.5492
X7.815Y-7.5886
X7.815Y-7.7657
X7.8346Y-6.7421
X7.8346Y-8.061
X7.8346Y-8.1004
X7.8346Y-8.2087
X7.8445Y-8.0217
X7.8543Y-7.7854
X7.874Y-6.437
X7.874Y-6.7421
X7.8937Y-7.2933
X7.8937Y-8.1693
X7.9035Y-7.5689
X7.9134Y-7.6673
X7.9232Y-8.1496
X7.9293Y-7.3974
X7.9331Y-7.2933
X7.9331Y-7.5886
X7.9331Y-8.2776
X7.9528Y-7.6673
X7.9528Y-8.2776
X7.9528Y-8.4154
X7.9528Y-8.4646
X7.9724Y-7.2933
X7.9823Y-7.4311
X8.0039Y-7.5335
X8.0118Y-7.2933
X8.0354Y-7.7657
X8.0748Y-7.7657
X8.0906Y-8.2776
X8.0906Y-8.4154
X8.0906Y-8.4646
X8.1102Y-7.5591
X8.1102Y-7.6181
X8.1102Y-8.2776
X8.1201Y-7.7559
X8.1299Y-7.2933
X8.1299Y-8.1496
X8.1496Y-8.189
X8.1594Y-7.5886
X8.1594Y-7.6969
X8.1594Y-7.7362
X8.1693Y-7.2933
X8.2087Y-7.2933
X8.2185Y-7.4213
X8.2185Y-7.4606
X8.2185Y-7.5
X8.2185Y-7.6476
X8.2185Y-7.687
X8.2283Y-6.9382
X8.248Y-7.2933
X8.248Y-7.7165
X8.2677Y-7.4803
X8.2677Y-7.8642
X8.2776Y-7.7461
X8.2874Y-6.9382
X8.2972Y-7.4508
X8.3071Y-7.313
X8.3169Y-6.8988
X8.3268Y-7.4213
X8.3268Y-7.8642
X8.3366Y-7.313
X8.3465Y-6.4272
X8.3465Y-6.4665
X8.3563Y-6.6535
X8.3563Y-7.7264
X8.3858Y-7.7461
X8.3957Y-6.6535
X8.4055Y-6.4272
X8.4055Y-6.4665
X8.4055Y-7.5098
X8.4055Y-7.5689
X8.4252Y-7.5394
X8.4252Y-7.5984
X8.435Y-7.4803
X8.4449Y-7.7067
X8.4547Y-7.6378
X8.4547Y-7.8248
X8.4941Y-7.4114
X8.4941Y-7.7854
X8.4941Y-7.8248
X8.5236Y-7.4114
X8.5335Y-7.7854
X8.5335Y-7.8248
X8.5433Y-8.1594
X8.5531Y-7.4606
X8.5728Y-7.7461
X8.5728Y-7.7854
X8.5728Y-7.8248
X8.5827Y-7.4311
X8.5827Y-8.1594
X8.622Y-8.1594
X8.6417Y-6.4272
X8.6417Y-6.4665
X8.6516Y-6.6535
X8.6713Y-7.6969
X8.6909Y-6.6535
X8.7008Y-6.4272
X8.7008Y-6.4665
X8.7106Y-7.8051
X8.7106Y-7.8642
X8.7205Y-7.7264
X8.7303Y-7.4902
X8.7303Y-7.5295
X8.8189Y-7.8346
X8.8189Y-7.8839
X8.8189Y-7.9331
X8.8189Y-7.9823
X8.8189Y-8.0315
X8.8189Y-8.189
X8.8189Y-8.2382
X8.8189Y-8.2874
X8.8189Y-8.3366
X8.9173Y-7.4902
X8.9173Y-7.5394
X8.9173Y-7.5886
X8.9173Y-7.6378
X8.9173Y-7.687
X8.9272Y-8.0157
X8.9272Y-8.0669
X8.937Y-6.4272
X8.937Y-6.4665
X8.9469Y-6.6535
X8.9528Y-8.0157
X8.9528Y-8.0669
X8.9764Y-8.126
X8.9783Y-8.0157
X8.9783Y-8.0669
X8.9862Y-6.6535
X8.9961Y-6.4272
X8.9961Y-6.4665
X8.9961Y-8.126
X9.0039Y-8.0157
X9.0039Y-8.0669
X9.0276Y-7.9567
X9.0354Y-7.4902
X9.0354Y-7.5394
X9.0354Y-7.5886
X9.0354Y-7.6378
X9.0354Y-7.687
X9.0354Y-7.874
X9.065Y-7.874
X9.0846Y-7.8346
X9.0945Y-6.8504
X9.1043Y-7.9528
X9.1043Y-8.002
X9.1043Y-8.0512
X9.1339Y-6.8504
X9.1437Y-7.9528
X9.1535Y-7.0965
X9.1535Y-7.8346
X9.1831Y-7.0965
X9.1831Y-7.9528
X9.1831Y-8.002
X9.1831Y-8.0512
X9.2126Y-7.0965
X9.2224Y-7.4311
X9.2224Y-7.4902
X9.2224Y-7.5492
X9.2224Y-7.6083
X9.2323Y-6.4272
X9.2323Y-6.4665
X9.2323Y-7.7264
X9.252Y-7.8248
X9.2618Y-7.9193
X9.2618Y-7.9587
X9.2815Y-7.7756
X9.2913Y-6.4272
X9.2913Y-6.4665
X9.3307Y-7.9193
X9.3307Y-7.9587
X9.3504Y-7.8543
X9.4094Y-6.9094
X9.4488Y-7.9232
X9.4488Y-7.9528
X9.4488Y-8.376
X9.4606Y-8.1201
X9.4685Y-8.0472
X9.4882Y-8.4449
X9.4882Y-8.4843
X9.498Y-7.1063
X9.5Y-8.1201
X9.5276Y-6.8307
X9.5276Y-8.0472
X9.5374Y-8.3169
X9.5374Y-8.376
X9.5571Y-6.811
X9.5669Y-7.6575
X9.5669Y-7.7165
X9.5768Y-7.5984
X9.5925Y-7.9016
X9.5965Y-8.3169
X9.5965Y-8.376
X9.6063Y-7.9921
X9.6161Y-7.5492
X9.6161Y-7.5886
X9.6161Y-7.9016
X9.626Y-7.9921
X9.6299Y-8.2638
X9.6358Y-7.8543
X9.6398Y-7.9016
X9.6457Y-7.9921
X9.6457Y-8.1299
X9.6496Y-8.1929
X9.6496Y-8.2835
X9.6555Y-6.7421
X9.6949Y-7.3819
X9.7146Y-7.9685
X9.7244Y-7.2835
X9.7539Y-8.0217
X9.7539Y-8.061
X9.7638Y-8.2835
X9.7638Y-8.3583
X9.8031Y-8.2835
X9.8031Y-8.3583
X9.813Y-7.5197
X9.813Y-7.5591
X9.813Y-7.6181
X9.813Y-7.6575
X9.813Y-8.1201
X9.813Y-8.1791
X9.813Y-8.2382
T4
X8.7984Y-7.4772
X8.7984Y-7.5272
X8.7984Y-7.5772
X8.7984Y-7.6272
X8.7984Y-7.6772
X8.8484Y-7.4772
X8.8484Y-7.5272
X8.8484Y-7.5772
X8.8484Y-7.6272
X8.8484Y-7.6772
T5
X8.8386Y-6.5059
X8.8386Y-6.5846
X8.8386Y-6.6634
X8.8386Y-6.7421
X8.5433Y-6.5059
X8.5433Y-6.5846
X8.5433Y-6.6634
X8.5433Y-6.7421
X9.4291Y-6.5059
X9.4291Y-6.5846
X9.4291Y-6.6634
X9.4291Y-6.7421
X8.248Y-6.5059
X8.248Y-6.5846
X8.248Y-6.6634
X8.248Y-6.7421
X9.1339Y-6.5059
X9.1339Y-6.5846
X9.1339Y-6.6634
X9.1339Y-6.7421
T6
X6.7717Y-6.8504
X6.7717Y-6.9504
X6.7717Y-7.0504
X7.372Y-8.4941
X7.372Y-8.5941
X7.372Y-8.6941
X7.472Y-8.4941
X7.472Y-8.5941
X7.472Y-8.6941
X7.9843Y-7.1858
X7.9843Y-7.9858
X8.0843Y-7.1858
X8.0843Y-7.9858
X8.1843Y-7.1858
X8.1843Y-7.9858
X8.2843Y-7.1858
X8.2843Y-7.9858
X8.3843Y-7.1858
X8.3843Y-7.9858
X8.4843Y-7.1858
X8.4843Y-7.9858
X8.5843Y-7.1858
X8.5843Y-7.9858
X8.6843Y-7.1858
X8.6843Y-7.9858
X8.7843Y-7.1858
X8.8843Y-7.1858
X8.9843Y-7.1858
X9.0843Y-7.1858
X9.1843Y-7.1858
X9.2843Y-7.1858
X9.3843Y-7.1858
X9.4843Y-7.1858
T7
X9.311Y-8.6319
X9.4488Y-8.6319
X7.0768Y-8.622
X7.2146Y-8.622
T8
X8.5531Y-8.5728
X8.75Y-8.5728
X8.1299Y-8.5728
X8.3268Y-8.5728
X7.7165Y-8.5728
X7.9134Y-8.5728
T3
G00X9.7598Y-7.4587
M15
G01X9.7874Y-7.4587
M16
G05
G00X9.7598Y-7.7185
M15
G01X9.7874Y-7.7185
M16
G05
T6
G00X9.0059Y-8.2185
M15
G01X9.0846Y-8.2185
M16
G05
G00X9.0059Y-8.4547
M15
G01X9.0846Y-8.4547
M16
G05
G00X9.2303Y-8.376
M15
G01X9.2303Y-8.2972
M16
G05
T0
M30
